G04*
G04 #@! TF.GenerationSoftware,Altium Limited,Altium Designer,22.9.1 (49)*
G04*
G04 Layer_Color=16711935*
%FSLAX25Y25*%
%MOIN*%
G70*
G04*
G04 #@! TF.SameCoordinates,09DA8A7C-0E06-47C8-8122-5E973528E8BD*
G04*
G04*
G04 #@! TF.FilePolarity,Positive*
G04*
G01*
G75*
%ADD156C,0.01968*%
D156*
X163386Y181890D02*
D03*
X150000D02*
D03*
X153382Y181907D02*
D03*
X149636Y261367D02*
D03*
X168928D02*
D03*
X125174Y51776D02*
D03*
X105883D02*
D03*
X29134Y165748D02*
D03*
X149293Y132702D02*
D03*
X152390Y132373D02*
D03*
X106749Y120211D02*
D03*
X101181Y120473D02*
D03*
X112087Y120204D02*
D03*
X152347Y129676D02*
D03*
X149293Y130071D02*
D03*
X42850Y112155D02*
D03*
X177165Y161417D02*
D03*
X166619Y161372D02*
D03*
X163386Y161417D02*
D03*
X153150D02*
D03*
X150000D02*
D03*
X193701D02*
D03*
X180315Y161417D02*
D03*
X190468Y161462D02*
D03*
X187274Y243433D02*
D03*
Y246583D02*
D03*
X5906Y221849D02*
D03*
X61024Y245276D02*
D03*
X5906Y234050D02*
D03*
Y240150D02*
D03*
Y215748D02*
D03*
Y227949D02*
D03*
X11024Y240000D02*
D03*
X19288Y239764D02*
D03*
X19682Y223228D02*
D03*
X22831D02*
D03*
Y239764D02*
D03*
X25197Y218504D02*
D03*
X51968Y224016D02*
D03*
X51879Y240140D02*
D03*
X61020Y240158D02*
D03*
X22835Y246063D02*
D03*
X24409Y253543D02*
D03*
Y260630D02*
D03*
X30312Y260630D02*
D03*
Y253543D02*
D03*
X37497D02*
D03*
Y260630D02*
D03*
X44682D02*
D03*
Y253543D02*
D03*
X48028Y245276D02*
D03*
X51968Y245276D02*
D03*
X57083Y240158D02*
D03*
X57087Y245276D02*
D03*
X92126Y122835D02*
D03*
X127582Y70271D02*
D03*
X101698Y69978D02*
D03*
X57087Y224016D02*
D03*
X11024Y233937D02*
D03*
Y227874D02*
D03*
X61024Y224016D02*
D03*
X29134Y188583D02*
D03*
X31496Y175984D02*
D03*
X29134Y185827D02*
D03*
Y159843D02*
D03*
Y157087D02*
D03*
X28740Y177559D02*
D03*
X32283Y165748D02*
D03*
X9449Y170079D02*
D03*
X29134Y154331D02*
D03*
Y191339D02*
D03*
X207406Y211737D02*
D03*
X9449Y176772D02*
D03*
X97123Y103637D02*
D03*
X129804Y116268D02*
D03*
X92005Y103637D02*
D03*
X48819Y170473D02*
D03*
X11417Y211811D02*
D03*
X11024Y221811D02*
D03*
Y218110D02*
D03*
X197244Y260236D02*
D03*
Y255906D02*
D03*
X175197Y206693D02*
D03*
X142873Y114920D02*
D03*
X139764Y116142D02*
D03*
X124803Y144488D02*
D03*
X204642Y213700D02*
D03*
X14173Y121260D02*
D03*
Y116142D02*
D03*
X120177Y149606D02*
D03*
X123228Y103642D02*
D03*
X42126Y50866D02*
D03*
X65104Y50472D02*
D03*
X87795Y50394D02*
D03*
X88189Y71260D02*
D03*
X42126Y71260D02*
D03*
X64961D02*
D03*
X65066Y74536D02*
D03*
X42232D02*
D03*
X137522Y146537D02*
D03*
X135039Y144882D02*
D03*
X58268Y146457D02*
D03*
X61417D02*
D03*
X187008Y211024D02*
D03*
Y214961D02*
D03*
Y218898D02*
D03*
X194882Y211024D02*
D03*
Y214961D02*
D03*
Y218898D02*
D03*
X190945Y211024D02*
D03*
Y214961D02*
D03*
Y218898D02*
D03*
X50981Y253543D02*
D03*
Y260630D02*
D03*
X175591Y242520D02*
D03*
X160236Y231102D02*
D03*
X152756Y243307D02*
D03*
X179134Y224803D02*
D03*
Y227953D02*
D03*
X152756Y237098D02*
D03*
Y240158D02*
D03*
Y234130D02*
D03*
X195276Y241406D02*
D03*
X118898Y145276D02*
D03*
X47942Y240140D02*
D03*
X41339Y220079D02*
D03*
X38109Y220079D02*
D03*
X25197Y203543D02*
D03*
X98721Y139170D02*
D03*
X122047Y146063D02*
D03*
X150787Y245669D02*
D03*
X206299Y230709D02*
D03*
X202969D02*
D03*
X200000D02*
D03*
X190945Y232677D02*
D03*
X196926Y230728D02*
D03*
X193307Y230709D02*
D03*
X188583D02*
D03*
X100394Y133465D02*
D03*
X92126Y132835D02*
D03*
X88189Y74410D02*
D03*
X126772Y114961D02*
D03*
X119685Y130709D02*
D03*
Y126772D02*
D03*
X25197Y211146D02*
D03*
X146850Y103543D02*
D03*
X203434Y65902D02*
D03*
X199462Y65806D02*
D03*
X180315Y63386D02*
D03*
X187795Y55905D02*
D03*
X179626D02*
D03*
X199497Y52909D02*
D03*
X175591Y83465D02*
D03*
X195954Y87161D02*
D03*
X180315Y78740D02*
D03*
Y70866D02*
D03*
X195954Y90311D02*
D03*
X207371Y65902D02*
D03*
Y52909D02*
D03*
X171457Y55905D02*
D03*
X159843Y83465D02*
D03*
X155118Y55905D02*
D03*
Y70866D02*
D03*
Y78740D02*
D03*
Y63386D02*
D03*
X167717Y83465D02*
D03*
X163287Y55905D02*
D03*
X116535Y123622D02*
D03*
X140945Y90551D02*
D03*
X116535Y129921D02*
D03*
X383971Y99269D02*
D03*
X375287Y99247D02*
D03*
X83006Y190652D02*
D03*
X81680Y197566D02*
D03*
X66394Y186056D02*
D03*
X62205Y196457D02*
D03*
X77123Y205081D02*
D03*
X85812Y191735D02*
D03*
X83667Y199772D02*
D03*
X83845Y209065D02*
D03*
X83858Y212205D02*
D03*
X78740Y178110D02*
D03*
X66394Y182513D02*
D03*
Y178969D02*
D03*
X72835Y210630D02*
D03*
X86268Y201392D02*
D03*
X86216Y207253D02*
D03*
X90932Y219301D02*
D03*
X73017Y220788D02*
D03*
X79134Y220866D02*
D03*
X69291Y224803D02*
D03*
Y228346D02*
D03*
X81890Y219291D02*
D03*
X75984Y220866D02*
D03*
X103999Y215821D02*
D03*
X106693Y228740D02*
D03*
X114564Y216142D02*
D03*
X117713D02*
D03*
X116134Y218839D02*
D03*
X131496Y230709D02*
D03*
X106771Y225197D02*
D03*
X124406Y187303D02*
D03*
X96457Y201575D02*
D03*
X103934Y205906D02*
D03*
X130355Y188172D02*
D03*
X114170Y187402D02*
D03*
X115745Y205906D02*
D03*
X96457Y207087D02*
D03*
X124405Y196985D02*
D03*
X105508Y196063D02*
D03*
X114567Y197244D02*
D03*
X103934Y185039D02*
D03*
X130315Y195669D02*
D03*
X94095Y187008D02*
D03*
X112595Y205906D02*
D03*
X96457Y191339D02*
D03*
X57087Y206693D02*
D03*
X53543D02*
D03*
X57087Y202756D02*
D03*
X53543D02*
D03*
X57087Y210630D02*
D03*
X53543D02*
D03*
X117323Y175591D02*
D03*
X107874Y166929D02*
D03*
X77953Y173622D02*
D03*
X88583Y167323D02*
D03*
X82677Y169685D02*
D03*
X90945Y174016D02*
D03*
X101585Y164566D02*
D03*
X104724Y166929D02*
D03*
X94882Y170866D02*
D03*
X112598Y171260D02*
D03*
X94260Y176980D02*
D03*
X95276Y164567D02*
D03*
X48031Y224016D02*
D03*
X100394Y239764D02*
D03*
X94882D02*
D03*
X88583Y239764D02*
D03*
X105905Y239764D02*
D03*
X137795Y240158D02*
D03*
X126378Y239764D02*
D03*
X117717Y250394D02*
D03*
X111419Y239826D02*
D03*
X132285D02*
D03*
X78347Y250787D02*
D03*
X74017Y239432D02*
D03*
X68504Y122835D02*
D03*
X401575Y95669D02*
D03*
X344094D02*
D03*
X351575Y206693D02*
D03*
X356299D02*
D03*
X361024D02*
D03*
X361142Y194854D02*
D03*
X177165Y209842D02*
D03*
X168898Y224016D02*
D03*
X137795Y225984D02*
D03*
X148819Y213386D02*
D03*
X144095D02*
D03*
X139370D02*
D03*
X366929Y64961D02*
D03*
X373622D02*
D03*
X387402D02*
D03*
X380315D02*
D03*
X344882Y62598D02*
D03*
X401575Y50000D02*
D03*
X285039Y201181D02*
D03*
X290945D02*
D03*
X237795Y160236D02*
D03*
X248819Y147638D02*
D03*
X196850Y144488D02*
D03*
X196732Y156327D02*
D03*
X201575Y144488D02*
D03*
X206299D02*
D03*
X233071Y160236D02*
D03*
X343307Y169291D02*
D03*
X346850Y163386D02*
D03*
X332714Y164491D02*
D03*
Y158979D02*
D03*
X332677Y143701D02*
D03*
X332714Y149530D02*
D03*
X332677Y146850D02*
D03*
X238189Y121653D02*
D03*
X237795Y150787D02*
D03*
X233071D02*
D03*
X248819Y151181D02*
D03*
Y154331D02*
D03*
X260630Y151969D02*
D03*
X248819Y167717D02*
D03*
Y164961D02*
D03*
Y161811D02*
D03*
X260236Y164173D02*
D03*
X297244Y201181D02*
D03*
X272047Y183071D02*
D03*
X281496D02*
D03*
X274803Y191732D02*
D03*
X279134D02*
D03*
X271654Y205118D02*
D03*
Y209842D02*
D03*
X281102Y205118D02*
D03*
Y209842D02*
D03*
X260630Y155905D02*
D03*
X257087Y170866D02*
D03*
X252362D02*
D03*
X253543Y117323D02*
D03*
X248819Y121260D02*
D03*
X250394Y117323D02*
D03*
X251969Y129528D02*
D03*
X198786Y247723D02*
D03*
M02*
