G04*
G04 #@! TF.GenerationSoftware,Altium Limited,Altium Designer,22.9.1 (49)*
G04*
G04 Layer_Color=8388736*
%FSLAX25Y25*%
%MOIN*%
G70*
G04*
G04 #@! TF.SameCoordinates,09DA8A7C-0E06-47C8-8122-5E973528E8BD*
G04*
G04*
G04 #@! TF.FilePolarity,Positive*
G04*
G01*
G75*
%ADD10C,0.00394*%
%ADD12C,0.00787*%
G36*
X70690Y203540D02*
X70752Y203532D01*
X70814Y203521D01*
X70872Y203507D01*
X70927Y203489D01*
X70974Y203470D01*
X71022Y203449D01*
X71062Y203427D01*
X71102Y203409D01*
X71135Y203387D01*
X71164Y203369D01*
X71185Y203350D01*
X71204Y203336D01*
X71218Y203325D01*
X71226Y203318D01*
X71229Y203314D01*
X71273Y203270D01*
X71309Y203223D01*
X71342Y203176D01*
X71371Y203128D01*
X71393Y203085D01*
X71415Y203037D01*
X71444Y202950D01*
X71451Y202910D01*
X71458Y202874D01*
X71466Y202841D01*
X71469Y202812D01*
X71473Y202790D01*
Y202772D01*
Y202761D01*
Y202757D01*
X71469Y202670D01*
X71455Y202590D01*
X71433Y202520D01*
X71411Y202462D01*
X71389Y202415D01*
X71367Y202379D01*
X71353Y202357D01*
X71349Y202349D01*
X71298Y202295D01*
X71244Y202248D01*
X71185Y202211D01*
X71127Y202182D01*
X71076Y202160D01*
X71036Y202146D01*
X71022Y202142D01*
X71011Y202138D01*
X71003Y202135D01*
X71000D01*
X71062Y202102D01*
X71113Y202069D01*
X71156Y202033D01*
X71193Y202000D01*
X71222Y201971D01*
X71244Y201945D01*
X71255Y201931D01*
X71258Y201923D01*
X71287Y201873D01*
X71309Y201822D01*
X71327Y201771D01*
X71338Y201723D01*
X71346Y201683D01*
X71349Y201654D01*
Y201632D01*
Y201625D01*
X71346Y201563D01*
X71335Y201501D01*
X71320Y201447D01*
X71302Y201399D01*
X71284Y201359D01*
X71269Y201326D01*
X71258Y201308D01*
X71255Y201301D01*
X71218Y201247D01*
X71175Y201199D01*
X71131Y201159D01*
X71087Y201123D01*
X71051Y201097D01*
X71018Y201075D01*
X70996Y201064D01*
X70992Y201061D01*
X70989D01*
X70923Y201032D01*
X70858Y201010D01*
X70792Y200992D01*
X70734Y200981D01*
X70687Y200974D01*
X70647Y200970D01*
X70556D01*
X70505Y200977D01*
X70407Y200995D01*
X70323Y201024D01*
X70250Y201054D01*
X70217Y201072D01*
X70192Y201086D01*
X70166Y201101D01*
X70148Y201115D01*
X70134Y201126D01*
X70123Y201134D01*
X70115Y201137D01*
X70112Y201141D01*
X70043Y201210D01*
X69988Y201287D01*
X69944Y201367D01*
X69908Y201447D01*
X69886Y201516D01*
X69875Y201545D01*
X69868Y201570D01*
X69864Y201592D01*
X69861Y201607D01*
X69857Y201618D01*
Y201621D01*
X70166Y201676D01*
X70181Y201596D01*
X70203Y201527D01*
X70228Y201468D01*
X70254Y201421D01*
X70279Y201385D01*
X70301Y201359D01*
X70315Y201341D01*
X70319Y201338D01*
X70366Y201301D01*
X70417Y201272D01*
X70465Y201254D01*
X70512Y201239D01*
X70556Y201232D01*
X70588Y201225D01*
X70618D01*
X70683Y201228D01*
X70741Y201243D01*
X70792Y201261D01*
X70836Y201279D01*
X70869Y201301D01*
X70894Y201319D01*
X70912Y201334D01*
X70916Y201338D01*
X70956Y201381D01*
X70985Y201429D01*
X71003Y201476D01*
X71018Y201519D01*
X71025Y201559D01*
X71033Y201589D01*
Y201610D01*
Y201614D01*
Y201618D01*
Y201658D01*
X71025Y201694D01*
X71007Y201756D01*
X70982Y201811D01*
X70952Y201858D01*
X70923Y201891D01*
X70898Y201916D01*
X70880Y201931D01*
X70876Y201934D01*
X70872D01*
X70811Y201967D01*
X70752Y201993D01*
X70690Y202011D01*
X70636Y202022D01*
X70588Y202029D01*
X70548Y202036D01*
X70501D01*
X70487Y202033D01*
X70468D01*
X70432Y202306D01*
X70479Y202295D01*
X70523Y202288D01*
X70559Y202280D01*
X70592Y202277D01*
X70618Y202273D01*
X70650D01*
X70727Y202280D01*
X70796Y202295D01*
X70858Y202317D01*
X70909Y202342D01*
X70949Y202368D01*
X70978Y202389D01*
X70996Y202404D01*
X71003Y202411D01*
X71051Y202466D01*
X71087Y202524D01*
X71113Y202582D01*
X71127Y202641D01*
X71138Y202688D01*
X71142Y202728D01*
X71145Y202743D01*
Y202753D01*
Y202761D01*
Y202764D01*
X71138Y202844D01*
X71120Y202917D01*
X71098Y202979D01*
X71069Y203034D01*
X71040Y203077D01*
X71018Y203110D01*
X71000Y203132D01*
X70992Y203139D01*
X70934Y203190D01*
X70872Y203227D01*
X70811Y203252D01*
X70752Y203270D01*
X70701Y203281D01*
X70661Y203285D01*
X70647Y203289D01*
X70625D01*
X70559Y203285D01*
X70498Y203270D01*
X70443Y203252D01*
X70399Y203230D01*
X70363Y203212D01*
X70334Y203194D01*
X70319Y203179D01*
X70312Y203176D01*
X70268Y203125D01*
X70232Y203066D01*
X70199Y203005D01*
X70174Y202939D01*
X70155Y202885D01*
X70148Y202859D01*
X70144Y202837D01*
X70141Y202819D01*
X70137Y202804D01*
X70134Y202797D01*
Y202794D01*
X69824Y202834D01*
X69831Y202892D01*
X69842Y202946D01*
X69875Y203048D01*
X69915Y203136D01*
X69937Y203172D01*
X69959Y203208D01*
X69981Y203241D01*
X70002Y203267D01*
X70021Y203292D01*
X70039Y203310D01*
X70050Y203325D01*
X70061Y203336D01*
X70068Y203343D01*
X70072Y203347D01*
X70115Y203380D01*
X70159Y203412D01*
X70203Y203438D01*
X70250Y203460D01*
X70341Y203496D01*
X70428Y203518D01*
X70468Y203525D01*
X70505Y203532D01*
X70538Y203536D01*
X70567Y203540D01*
X70588Y203543D01*
X70621D01*
X70690Y203540D01*
D02*
G37*
G36*
X68634Y203496D02*
X68710Y203492D01*
X68779Y203485D01*
X68838Y203478D01*
X68885Y203470D01*
X68921Y203467D01*
X68943Y203460D01*
X68950D01*
X69012Y203441D01*
X69063Y203423D01*
X69111Y203401D01*
X69151Y203380D01*
X69183Y203365D01*
X69209Y203350D01*
X69223Y203340D01*
X69227Y203336D01*
X69267Y203303D01*
X69304Y203263D01*
X69333Y203223D01*
X69362Y203187D01*
X69384Y203150D01*
X69398Y203125D01*
X69409Y203106D01*
X69413Y203099D01*
X69438Y203041D01*
X69456Y202983D01*
X69471Y202928D01*
X69478Y202877D01*
X69486Y202834D01*
X69489Y202797D01*
Y202775D01*
Y202772D01*
Y202768D01*
X69486Y202688D01*
X69471Y202615D01*
X69449Y202553D01*
X69427Y202495D01*
X69406Y202451D01*
X69384Y202419D01*
X69369Y202397D01*
X69365Y202389D01*
X69314Y202331D01*
X69260Y202284D01*
X69198Y202244D01*
X69143Y202211D01*
X69092Y202186D01*
X69049Y202171D01*
X69034Y202164D01*
X69023Y202160D01*
X69016Y202156D01*
X69012D01*
X69074Y202120D01*
X69129Y202084D01*
X69173Y202044D01*
X69209Y202007D01*
X69238Y201978D01*
X69260Y201949D01*
X69271Y201934D01*
X69274Y201927D01*
X69304Y201873D01*
X69325Y201822D01*
X69344Y201771D01*
X69354Y201723D01*
X69362Y201683D01*
X69365Y201651D01*
Y201632D01*
Y201625D01*
X69362Y201563D01*
X69351Y201501D01*
X69333Y201447D01*
X69314Y201396D01*
X69296Y201352D01*
X69278Y201323D01*
X69267Y201301D01*
X69263Y201294D01*
X69223Y201239D01*
X69180Y201188D01*
X69133Y201148D01*
X69089Y201115D01*
X69052Y201090D01*
X69020Y201072D01*
X68998Y201061D01*
X68994Y201057D01*
X68990D01*
X68921Y201032D01*
X68845Y201013D01*
X68769Y200999D01*
X68696Y200992D01*
X68630Y200984D01*
X68601D01*
X68576Y200981D01*
X67585D01*
Y203500D01*
X68546D01*
X68634Y203496D01*
D02*
G37*
G36*
X65798Y202357D02*
X66981D01*
Y202058D01*
X65798D01*
Y201279D01*
X67167D01*
Y200981D01*
X65463D01*
Y203500D01*
X65798D01*
Y202357D01*
D02*
G37*
G36*
X76921Y184265D02*
X76721D01*
X76685Y184327D01*
X76645Y184385D01*
X76597Y184443D01*
X76554Y184494D01*
X76510Y184538D01*
X76477Y184575D01*
X76463Y184585D01*
X76452Y184596D01*
X76448Y184600D01*
X76445Y184604D01*
X76368Y184666D01*
X76292Y184724D01*
X76219Y184775D01*
X76146Y184815D01*
X76084Y184851D01*
X76059Y184866D01*
X76037Y184877D01*
X76019Y184888D01*
X76004Y184891D01*
X75997Y184898D01*
X75993D01*
Y185197D01*
X76048Y185175D01*
X76103Y185150D01*
X76157Y185124D01*
X76208Y185099D01*
X76252Y185077D01*
X76288Y185059D01*
X76310Y185044D01*
X76314Y185040D01*
X76317D01*
X76383Y185001D01*
X76441Y184960D01*
X76492Y184924D01*
X76532Y184891D01*
X76568Y184866D01*
X76590Y184844D01*
X76608Y184829D01*
X76612Y184826D01*
Y186795D01*
X76921D01*
Y184265D01*
D02*
G37*
G36*
X74570Y186791D02*
X74647Y186788D01*
X74716Y186780D01*
X74774Y186773D01*
X74821Y186766D01*
X74858Y186762D01*
X74879Y186755D01*
X74887D01*
X74949Y186737D01*
X74999Y186718D01*
X75047Y186697D01*
X75087Y186675D01*
X75120Y186660D01*
X75145Y186646D01*
X75160Y186635D01*
X75163Y186631D01*
X75203Y186598D01*
X75240Y186558D01*
X75269Y186518D01*
X75298Y186482D01*
X75320Y186445D01*
X75334Y186420D01*
X75345Y186402D01*
X75349Y186395D01*
X75375Y186336D01*
X75393Y186278D01*
X75407Y186223D01*
X75415Y186172D01*
X75422Y186129D01*
X75425Y186092D01*
Y186071D01*
Y186067D01*
Y186063D01*
X75422Y185983D01*
X75407Y185910D01*
X75385Y185849D01*
X75363Y185790D01*
X75342Y185747D01*
X75320Y185714D01*
X75305Y185692D01*
X75302Y185685D01*
X75251Y185626D01*
X75196Y185579D01*
X75134Y185539D01*
X75080Y185506D01*
X75029Y185481D01*
X74985Y185466D01*
X74970Y185459D01*
X74959Y185456D01*
X74952Y185452D01*
X74949D01*
X75011Y185415D01*
X75065Y185379D01*
X75109Y185339D01*
X75145Y185303D01*
X75174Y185274D01*
X75196Y185244D01*
X75207Y185230D01*
X75211Y185222D01*
X75240Y185168D01*
X75262Y185117D01*
X75280Y185066D01*
X75291Y185019D01*
X75298Y184979D01*
X75302Y184946D01*
Y184928D01*
Y184920D01*
X75298Y184859D01*
X75287Y184797D01*
X75269Y184742D01*
X75251Y184691D01*
X75232Y184647D01*
X75214Y184618D01*
X75203Y184596D01*
X75200Y184589D01*
X75160Y184535D01*
X75116Y184484D01*
X75069Y184443D01*
X75025Y184411D01*
X74989Y184385D01*
X74956Y184367D01*
X74934Y184356D01*
X74930Y184353D01*
X74927D01*
X74858Y184327D01*
X74781Y184309D01*
X74705Y184294D01*
X74632Y184287D01*
X74566Y184280D01*
X74537D01*
X74512Y184276D01*
X73522D01*
Y186795D01*
X74483D01*
X74570Y186791D01*
D02*
G37*
G36*
X71734Y185652D02*
X72917D01*
Y185354D01*
X71734D01*
Y184575D01*
X73103D01*
Y184276D01*
X71400D01*
Y186795D01*
X71734D01*
Y185652D01*
D02*
G37*
%LPC*%
G36*
X68637Y203201D02*
X67920D01*
Y202335D01*
X68583D01*
X68659Y202342D01*
X68721Y202349D01*
X68772Y202357D01*
X68812Y202364D01*
X68845Y202371D01*
X68859Y202375D01*
X68867Y202379D01*
X68914Y202397D01*
X68954Y202419D01*
X68990Y202444D01*
X69020Y202469D01*
X69042Y202491D01*
X69056Y202509D01*
X69067Y202524D01*
X69071Y202528D01*
X69096Y202568D01*
X69114Y202608D01*
X69129Y202648D01*
X69136Y202684D01*
X69143Y202717D01*
X69147Y202746D01*
Y202761D01*
Y202768D01*
X69143Y202812D01*
X69140Y202855D01*
X69133Y202892D01*
X69122Y202921D01*
X69111Y202946D01*
X69103Y202968D01*
X69100Y202979D01*
X69096Y202983D01*
X69074Y203015D01*
X69056Y203045D01*
X69031Y203066D01*
X69012Y203088D01*
X68994Y203103D01*
X68980Y203114D01*
X68969Y203121D01*
X68965Y203125D01*
X68903Y203154D01*
X68841Y203176D01*
X68816Y203183D01*
X68794Y203187D01*
X68779Y203190D01*
X68776D01*
X68747Y203194D01*
X68714Y203198D01*
X68637Y203201D01*
D02*
G37*
G36*
X68539Y202036D02*
X67920D01*
Y201279D01*
X68517D01*
X68597Y201287D01*
X68659Y201290D01*
X68714Y201297D01*
X68754Y201305D01*
X68779Y201308D01*
X68798Y201316D01*
X68801D01*
X68841Y201330D01*
X68878Y201352D01*
X68907Y201374D01*
X68932Y201396D01*
X68950Y201414D01*
X68965Y201432D01*
X68972Y201443D01*
X68976Y201447D01*
X68998Y201483D01*
X69012Y201519D01*
X69023Y201556D01*
X69031Y201592D01*
X69034Y201621D01*
X69038Y201643D01*
Y201658D01*
Y201665D01*
X69034Y201712D01*
X69027Y201756D01*
X69016Y201793D01*
X69005Y201822D01*
X68994Y201847D01*
X68983Y201869D01*
X68976Y201880D01*
X68972Y201884D01*
X68947Y201913D01*
X68914Y201942D01*
X68881Y201964D01*
X68852Y201978D01*
X68823Y201993D01*
X68801Y202004D01*
X68787Y202007D01*
X68779Y202011D01*
X68739Y202018D01*
X68688Y202025D01*
X68637Y202029D01*
X68586Y202033D01*
X68539Y202036D01*
D02*
G37*
G36*
X74574Y186496D02*
X73857D01*
Y185630D01*
X74519D01*
X74595Y185637D01*
X74657Y185645D01*
X74708Y185652D01*
X74748Y185659D01*
X74781Y185667D01*
X74796Y185670D01*
X74803Y185674D01*
X74850Y185692D01*
X74890Y185714D01*
X74927Y185739D01*
X74956Y185765D01*
X74978Y185787D01*
X74992Y185805D01*
X75003Y185819D01*
X75007Y185823D01*
X75032Y185863D01*
X75050Y185903D01*
X75065Y185943D01*
X75072Y185980D01*
X75080Y186012D01*
X75083Y186041D01*
Y186056D01*
Y186063D01*
X75080Y186107D01*
X75076Y186151D01*
X75069Y186187D01*
X75058Y186216D01*
X75047Y186242D01*
X75040Y186264D01*
X75036Y186275D01*
X75032Y186278D01*
X75011Y186311D01*
X74992Y186340D01*
X74967Y186362D01*
X74949Y186384D01*
X74930Y186398D01*
X74916Y186409D01*
X74905Y186416D01*
X74901Y186420D01*
X74839Y186449D01*
X74778Y186471D01*
X74752Y186478D01*
X74730Y186482D01*
X74716Y186486D01*
X74712D01*
X74683Y186489D01*
X74650Y186493D01*
X74574Y186496D01*
D02*
G37*
G36*
X74475Y185332D02*
X73857D01*
Y184575D01*
X74454D01*
X74534Y184582D01*
X74595Y184585D01*
X74650Y184593D01*
X74690Y184600D01*
X74716Y184604D01*
X74734Y184611D01*
X74738D01*
X74778Y184625D01*
X74814Y184647D01*
X74843Y184669D01*
X74869Y184691D01*
X74887Y184709D01*
X74901Y184728D01*
X74909Y184738D01*
X74912Y184742D01*
X74934Y184778D01*
X74949Y184815D01*
X74959Y184851D01*
X74967Y184888D01*
X74970Y184917D01*
X74974Y184939D01*
Y184953D01*
Y184960D01*
X74970Y185008D01*
X74963Y185051D01*
X74952Y185088D01*
X74941Y185117D01*
X74930Y185142D01*
X74919Y185164D01*
X74912Y185175D01*
X74909Y185179D01*
X74883Y185208D01*
X74850Y185237D01*
X74818Y185259D01*
X74788Y185274D01*
X74759Y185288D01*
X74738Y185299D01*
X74723Y185303D01*
X74716Y185306D01*
X74676Y185313D01*
X74625Y185321D01*
X74574Y185324D01*
X74523Y185328D01*
X74475Y185332D01*
D02*
G37*
%LPD*%
D10*
X278799Y186772D02*
Y188819D01*
X274744Y186772D02*
Y188819D01*
X278799D01*
X274744Y186772D02*
X278799D01*
X274744Y182047D02*
X278799D01*
X274744Y184095D02*
X278799D01*
X274744Y182047D02*
Y184095D01*
X278799Y182047D02*
Y184095D01*
X325374Y165591D02*
X329429D01*
X325374Y163543D02*
X329429D01*
Y165591D01*
X325374Y163543D02*
Y165591D01*
Y156142D02*
X329429D01*
X325374Y154095D02*
X329429D01*
Y156142D01*
X325374Y154095D02*
Y156142D01*
Y137244D02*
X329429D01*
X325374Y135197D02*
X329429D01*
Y137244D01*
X325374Y135197D02*
Y137244D01*
Y179764D02*
X329429D01*
X325374Y177717D02*
X329429D01*
Y179764D01*
X325374Y177717D02*
Y179764D01*
X284016Y193878D02*
Y197933D01*
X286063Y193878D02*
Y197933D01*
X284016D02*
X286063D01*
X284016Y193878D02*
X286063D01*
X301339D02*
Y197933D01*
X303386Y193878D02*
Y197933D01*
X301339D02*
X303386D01*
X301339Y193878D02*
X303386D01*
X253386Y163878D02*
Y167933D01*
X251339Y163878D02*
Y167933D01*
Y163878D02*
X253386D01*
X251339Y167933D02*
X253386D01*
X258110Y152067D02*
Y156122D01*
X256063Y152067D02*
Y156122D01*
Y152067D02*
X258110D01*
X256063Y156122D02*
X258110D01*
X313090Y190315D02*
Y192362D01*
X317146Y190315D02*
Y192362D01*
X313090Y190315D02*
X317146D01*
X313090Y192362D02*
X317146D01*
X311575Y182461D02*
X313622D01*
X311575Y186516D02*
X313622D01*
Y182461D02*
Y186516D01*
X311575Y182461D02*
Y186516D01*
X316693Y182461D02*
X318740D01*
X316693Y186516D02*
X318740D01*
Y182461D02*
Y186516D01*
X316693Y182461D02*
Y186516D01*
X256063Y167933D02*
X258110D01*
X256063Y163878D02*
X258110D01*
X256063D02*
Y167933D01*
X258110Y163878D02*
Y167933D01*
X251339Y156122D02*
X253386D01*
X251339Y152067D02*
X253386D01*
X251339D02*
Y156122D01*
X253386Y152067D02*
Y156122D01*
X241909Y146614D02*
Y148661D01*
X245965Y146614D02*
Y148661D01*
X241909Y146614D02*
X245965D01*
X241909Y148661D02*
X245965D01*
X249370Y185768D02*
X251417D01*
X249370Y189823D02*
X251417D01*
Y185768D02*
Y189823D01*
X249370Y185768D02*
Y189823D01*
X259114Y189134D02*
Y191181D01*
X255059Y189134D02*
Y191181D01*
X259114D01*
X255059Y189134D02*
X259114D01*
Y184409D02*
Y186457D01*
X255059Y184409D02*
Y186457D01*
X259114D01*
X255059Y184409D02*
X259114D01*
X286772Y114784D02*
X288819D01*
X286772Y110728D02*
X288819D01*
X286772D02*
Y114784D01*
X288819Y110728D02*
Y114784D01*
X297008D02*
X299055D01*
X297008Y110728D02*
X299055D01*
X297008D02*
Y114784D01*
X299055Y110728D02*
Y114784D01*
X291890D02*
X293937D01*
X291890Y110728D02*
X293937D01*
X291890D02*
Y114784D01*
X293937Y110728D02*
Y114784D01*
X325374Y149370D02*
Y151417D01*
X329429Y149370D02*
Y151417D01*
X325374Y149370D02*
X329429D01*
X325374Y151417D02*
X329429D01*
X325374Y144646D02*
Y146693D01*
X329429Y144646D02*
Y146693D01*
X325374Y144646D02*
X329429D01*
X325374Y146693D02*
X329429D01*
X261575Y125650D02*
X263622D01*
X261575Y121595D02*
X263622D01*
X261575D02*
Y125650D01*
X263622Y121595D02*
Y125650D01*
X251909Y124961D02*
Y127008D01*
X255965Y124961D02*
Y127008D01*
X251909Y124961D02*
X255965D01*
X251909Y127008D02*
X255965D01*
X251909Y120236D02*
Y122283D01*
X255965Y120236D02*
Y122283D01*
X251909Y120236D02*
X255965D01*
X251909Y122283D02*
X255965D01*
X271417Y114784D02*
X273465D01*
X271417Y110728D02*
X273465D01*
X271417D02*
Y114784D01*
X273465Y110728D02*
Y114784D01*
X289921Y193878D02*
X291968D01*
X289921Y197933D02*
X291968D01*
Y193878D02*
Y197933D01*
X289921Y193878D02*
Y197933D01*
X245492Y120236D02*
Y122283D01*
X241437Y120236D02*
Y122283D01*
X245492D01*
X241437Y120236D02*
X245492D01*
X325374Y172992D02*
Y175039D01*
X329429Y172992D02*
Y175039D01*
X325374Y172992D02*
X329429D01*
X325374Y175039D02*
X329429D01*
X325374Y168268D02*
Y170315D01*
X329429Y168268D02*
Y170315D01*
X325374Y168268D02*
X329429D01*
X325374Y170315D02*
X329429D01*
X276142Y114784D02*
X278189D01*
X276142Y110728D02*
X278189D01*
X276142D02*
Y114784D01*
X278189Y110728D02*
Y114784D01*
X325374Y139921D02*
Y141969D01*
X329429Y139921D02*
Y141969D01*
X325374Y139921D02*
X329429D01*
X325374Y141969D02*
X329429D01*
X325374Y158819D02*
Y160866D01*
X329429Y158819D02*
Y160866D01*
X325374Y158819D02*
X329429D01*
X325374Y160866D02*
X329429D01*
X296614Y193878D02*
X298661D01*
X296614Y197933D02*
X298661D01*
Y193878D02*
Y197933D01*
X296614Y193878D02*
Y197933D01*
X379626Y109547D02*
Y111713D01*
X375492Y109547D02*
Y111713D01*
X379626D01*
X375492Y109547D02*
X379626D01*
X264469Y58366D02*
X268602D01*
X264469Y60532D02*
X268602D01*
X264469Y58366D02*
Y60532D01*
X268602Y58366D02*
Y60532D01*
X89665Y195374D02*
X93799D01*
X89665Y197539D02*
X93799D01*
X89665Y195374D02*
Y197539D01*
X93799Y195374D02*
Y197539D01*
X117260Y186378D02*
Y188425D01*
X121316Y186378D02*
Y188425D01*
X117260Y186378D02*
X121316D01*
X117260Y188425D02*
X121316D01*
X89705Y200551D02*
X93760D01*
X89705Y202598D02*
X93760D01*
X89705Y200551D02*
Y202598D01*
X93760Y200551D02*
Y202598D01*
X89701Y206063D02*
X93756D01*
X89701Y208110D02*
X93756D01*
X89701Y206063D02*
Y208110D01*
X93756Y206063D02*
Y208110D01*
X89705Y190315D02*
X93760D01*
X89705Y192362D02*
X93760D01*
X89705Y190315D02*
Y192362D01*
X93760Y190315D02*
Y192362D01*
X93245Y184358D02*
X95292D01*
X93245Y180303D02*
X95292D01*
X93245D02*
Y184358D01*
X95292Y180303D02*
Y184358D01*
X102954Y208798D02*
X105001D01*
X102954Y212853D02*
X105001D01*
Y208798D02*
Y212853D01*
X102954Y208798D02*
Y212853D01*
X111812Y208798D02*
X113859D01*
X111812Y212853D02*
X113859D01*
Y208798D02*
Y212853D01*
X111812Y208798D02*
Y212853D01*
X116734Y208798D02*
X118781D01*
X116734Y212853D02*
X118781D01*
Y208798D02*
Y212853D01*
X116734Y208798D02*
Y212853D01*
X117317Y196071D02*
Y198118D01*
X121372Y196071D02*
Y198118D01*
X117317Y196071D02*
X121372D01*
X117317Y198118D02*
X121372D01*
X63957Y208032D02*
X68012D01*
X63957Y210079D02*
X68012D01*
X63957Y208032D02*
Y210079D01*
X68012Y208032D02*
Y210079D01*
X73855Y202461D02*
Y206516D01*
X71808Y202461D02*
Y206516D01*
Y202461D02*
X73855D01*
X71808Y206516D02*
X73855D01*
X73540Y177946D02*
Y179993D01*
X69485Y177946D02*
Y179993D01*
X73540D01*
X69485Y177946D02*
X73540D01*
X77350Y181352D02*
Y185407D01*
X79397Y181352D02*
Y185407D01*
X77350D02*
X79397D01*
X77350Y181352D02*
X79397D01*
X76614Y117500D02*
Y121555D01*
X74567Y117500D02*
Y121555D01*
Y117500D02*
X76614D01*
X74567Y121555D02*
X76614D01*
X53248Y218209D02*
Y220374D01*
X49114Y218209D02*
Y220374D01*
X53248D01*
X49114Y218209D02*
X53248D01*
X69390Y150492D02*
Y152657D01*
X65256Y150492D02*
Y152657D01*
X69390D01*
X65256Y150492D02*
X69390D01*
Y145374D02*
Y147539D01*
X65256Y145374D02*
Y147539D01*
X69390D01*
X65256Y145374D02*
X69390D01*
X16634Y109941D02*
Y112106D01*
X12500Y109941D02*
Y112106D01*
X16634D01*
X12500Y109941D02*
X16634D01*
X179435Y211056D02*
X183490D01*
X179435Y213103D02*
X183490D01*
X179435Y211056D02*
Y213103D01*
X183490Y211056D02*
Y213103D01*
X198325Y213023D02*
Y215070D01*
X202380Y213023D02*
Y215070D01*
X198325Y213023D02*
X202380D01*
X198325Y215070D02*
X202380D01*
X188549Y222650D02*
Y226706D01*
X190596Y222650D02*
Y226706D01*
X188549D02*
X190596D01*
X188549Y222650D02*
X190596D01*
X193273D02*
X195320D01*
X193273Y226706D02*
X195320D01*
Y222650D02*
Y226706D01*
X193273Y222650D02*
Y226706D01*
X65256Y142421D02*
X69390D01*
X65256Y140256D02*
X69390D01*
Y142421D01*
X65256Y140256D02*
Y142421D01*
X4488Y180532D02*
X6535D01*
X4488Y176476D02*
X6535D01*
X4488D02*
Y180532D01*
X6535Y176476D02*
Y180532D01*
X4429Y166043D02*
Y170177D01*
X6594Y166043D02*
Y170177D01*
X4429D02*
X6594D01*
X4429Y166043D02*
X6594D01*
X11614Y183760D02*
X15748D01*
X11614Y181595D02*
X15748D01*
Y183760D01*
X11614Y181595D02*
Y183760D01*
X11319Y165256D02*
X15453D01*
X11319Y163091D02*
X15453D01*
Y165256D01*
X11319Y163091D02*
Y165256D01*
X12500Y104823D02*
Y106988D01*
X16634Y104823D02*
Y106988D01*
X12500Y104823D02*
X16634D01*
X12500Y106988D02*
X16634D01*
X142185Y131464D02*
X146241D01*
X142185Y129417D02*
X146241D01*
Y131464D01*
X142185Y129417D02*
Y131464D01*
X140670Y119122D02*
Y123177D01*
X138622Y119122D02*
Y123177D01*
Y119122D02*
X140670D01*
X138622Y123177D02*
X140670D01*
X142185Y135795D02*
X146241D01*
X142185Y133748D02*
X146241D01*
Y135795D01*
X142185Y133748D02*
Y135795D01*
X132911Y138153D02*
Y142208D01*
X134958Y138153D02*
Y142208D01*
X132911D02*
X134958D01*
X132911Y138153D02*
X134958D01*
X130827Y119122D02*
Y123177D01*
X128780Y119122D02*
Y123177D01*
Y119122D02*
X130827D01*
X128780Y123177D02*
X130827D01*
X123012Y132047D02*
X127067D01*
X123012Y134095D02*
X127067D01*
X123012Y132047D02*
Y134095D01*
X127067Y132047D02*
Y134095D01*
Y126929D02*
Y128976D01*
X123012Y126929D02*
Y128976D01*
X127067D01*
X123012Y126929D02*
X127067D01*
X6634Y117165D02*
X10689D01*
X6634Y115118D02*
X10689D01*
Y117165D01*
X6634Y115118D02*
Y117165D01*
X45941Y111131D02*
Y113178D01*
X49996Y111131D02*
Y113178D01*
X45941Y111131D02*
X49996D01*
X45941Y113178D02*
X49996D01*
X6594Y122343D02*
X10728D01*
X6594Y120177D02*
X10728D01*
Y122343D01*
X6594Y120177D02*
Y122343D01*
D12*
X62368Y201039D02*
Y204473D01*
X69346D01*
Y201039D02*
Y204473D01*
X62368Y201039D02*
X69346D01*
X67910Y184338D02*
Y187774D01*
X74889D01*
Y184338D02*
Y187774D01*
X67910Y184338D02*
X74889D01*
M02*
