M48
;Layer_Color=9474304
;FILE_FORMAT=2:5
INCH,LZ
;TYPE=PLATED
T3F00S00C0.01968
T4F00S00C0.02165
T5F00S00C0.02362
;TYPE=NON_PLATED
%
G90
G05
T03
G00X0101946Y0050458
M15
G01Y0053017
M16
G00X0129466Y0050458
M15
G01Y0053017
M16
G00X0145061Y0262937
M15
G01Y0260378
M16
G00X0172581Y0262937
M15
G01Y0260378
M16
T04
G00X0105292Y0062406
M15
G01X0106474
M16
G00X0124977Y0062406
M15
G01X0126158
M16
G00X0149549Y0250989
M15
G01X0148368
M16
G00X0169234Y0250989
M15
G01X0168053
M16
T05
G00X0004464Y0155754
M15
G01X0007614
M16
G00X0020331Y0155754
M15
G01X0024661
M16
G00X0020331Y018977
M15
G01X0024661
M16
G00X0004464Y018977
M15
G01X0007614
M16
M17
M30
