G04*
G04 #@! TF.GenerationSoftware,Altium Limited,Altium Designer,22.9.1 (49)*
G04*
G04 Layer_Color=0*
%FSLAX25Y25*%
%MOIN*%
G70*
G04*
G04 #@! TF.SameCoordinates,09DA8A7C-0E06-47C8-8122-5E973528E8BD*
G04*
G04*
G04 #@! TF.FilePolarity,Positive*
G04*
G01*
G75*
%ADD10C,0.00394*%
%ADD12C,0.00787*%
%ADD168C,0.00197*%
%ADD169C,0.01575*%
D10*
X275748Y187795D02*
X277795D01*
X276772Y186772D02*
Y188819D01*
Y182047D02*
Y184095D01*
X275748Y183071D02*
X277795D01*
X327402Y163543D02*
Y165591D01*
X326378Y164567D02*
X328425D01*
X327402Y154095D02*
Y156142D01*
X326378Y155118D02*
X328425D01*
X327402Y135197D02*
Y137244D01*
X326378Y136221D02*
X328425D01*
X327402Y177717D02*
Y179764D01*
X326378Y178740D02*
X328425D01*
X284016Y195905D02*
X286063D01*
X285039Y194882D02*
Y196929D01*
X301339Y195905D02*
X303386D01*
X302362Y194882D02*
Y196929D01*
X251339Y165905D02*
X253386D01*
X252362Y164882D02*
Y166929D01*
X256063Y154095D02*
X258110D01*
X257087Y153071D02*
Y155118D01*
X314094Y191339D02*
X316142D01*
X315118Y190315D02*
Y192362D01*
X312598Y183465D02*
Y185512D01*
X311575Y184488D02*
X313622D01*
X317717Y183465D02*
Y185512D01*
X316693Y184488D02*
X318740D01*
X257087Y164882D02*
Y166929D01*
X256063Y165905D02*
X258110D01*
X252362Y153071D02*
Y155118D01*
X251339Y154095D02*
X253386D01*
X242913Y147638D02*
X244961D01*
X243937Y146614D02*
Y148661D01*
X250394Y186772D02*
Y188819D01*
X249370Y187795D02*
X251417D01*
X256063Y190157D02*
X258110D01*
X257087Y189134D02*
Y191181D01*
X256063Y185433D02*
X258110D01*
X257087Y184409D02*
Y186457D01*
X287795Y111732D02*
Y113779D01*
X286772Y112756D02*
X288819D01*
X298031Y111732D02*
Y113779D01*
X297008Y112756D02*
X299055D01*
X292913Y111732D02*
Y113779D01*
X291890Y112756D02*
X293937D01*
X326378Y150394D02*
X328425D01*
X327402Y149370D02*
Y151417D01*
X326378Y145669D02*
X328425D01*
X327402Y144646D02*
Y146693D01*
X262598Y122598D02*
Y124646D01*
X261575Y123622D02*
X263622D01*
X252913Y125984D02*
X254961D01*
X253937Y124961D02*
Y127008D01*
X252913Y121260D02*
X254961D01*
X253937Y120236D02*
Y122283D01*
X272441Y111732D02*
Y113779D01*
X271417Y112756D02*
X273465D01*
X290945Y194882D02*
Y196929D01*
X289921Y195905D02*
X291968D01*
X242441Y121260D02*
X244488D01*
X243465Y120236D02*
Y122283D01*
X326378Y174016D02*
X328425D01*
X327402Y172992D02*
Y175039D01*
X326378Y169291D02*
X328425D01*
X327402Y168268D02*
Y170315D01*
X277165Y111732D02*
Y113779D01*
X276142Y112756D02*
X278189D01*
X326378Y140945D02*
X328425D01*
X327402Y139921D02*
Y141969D01*
X326378Y159843D02*
X328425D01*
X327402Y158819D02*
Y160866D01*
X297638Y194882D02*
Y196929D01*
X296614Y195905D02*
X298661D01*
X382382Y108465D02*
Y112795D01*
X372736Y108465D02*
Y112795D01*
X382382D01*
X372736Y108465D02*
X382382D01*
X376476Y110630D02*
X378642D01*
X377559Y109547D02*
Y111713D01*
X266535Y58366D02*
Y60532D01*
X265453Y59449D02*
X267618D01*
X261713Y57284D02*
X271358D01*
X261713Y61614D02*
X271358D01*
X261713Y57284D02*
Y61614D01*
X271358Y57284D02*
Y61614D01*
X91732Y195374D02*
Y197539D01*
X90650Y196457D02*
X92815D01*
X86909Y194291D02*
X96555D01*
X86909Y198622D02*
X96555D01*
X86909Y194291D02*
Y198622D01*
X96555Y194291D02*
Y198622D01*
X118264Y187402D02*
X120312D01*
X119288Y186378D02*
Y188425D01*
X91732Y200551D02*
Y202598D01*
X90709Y201575D02*
X92756D01*
X91729Y206063D02*
Y208110D01*
X90705Y207087D02*
X92752D01*
X91732Y190315D02*
Y192362D01*
X90709Y191339D02*
X92756D01*
X94268Y181307D02*
Y183354D01*
X93245Y182330D02*
X95292D01*
X103978Y209802D02*
Y211849D01*
X102954Y210826D02*
X105001D01*
X112836Y209802D02*
Y211849D01*
X111812Y210826D02*
X113859D01*
X117757Y209802D02*
Y211849D01*
X116734Y210826D02*
X118781D01*
X118321Y197094D02*
X120368D01*
X119345Y196071D02*
Y198118D01*
X65984Y208032D02*
Y210079D01*
X64961Y209055D02*
X67008D01*
X71808Y204488D02*
X73855D01*
X72831Y203465D02*
Y205512D01*
X70489Y178969D02*
X72536D01*
X71512Y177946D02*
Y179993D01*
X77350Y183380D02*
X79397D01*
X78373Y182356D02*
Y184404D01*
X404421Y45082D02*
Y107877D01*
X338476Y45082D02*
X404421D01*
X337885Y107877D02*
X404421D01*
X370956Y73822D02*
Y78153D01*
Y69491D02*
Y73822D01*
X366625D02*
X370956D01*
X375287D01*
X337885Y45082D02*
Y107877D01*
Y45082D02*
X338476D01*
X74567Y119528D02*
X76614D01*
X75590Y118504D02*
Y120551D01*
X56004Y217126D02*
Y221457D01*
X46358Y217126D02*
Y221457D01*
X56004D01*
X46358Y217126D02*
X56004D01*
X50098Y219291D02*
X52264D01*
X51181Y218209D02*
Y220374D01*
X72146Y149409D02*
Y153740D01*
X62500Y149409D02*
Y153740D01*
X72146D01*
X62500Y149409D02*
X72146D01*
X66240Y151575D02*
X68405D01*
X67323Y150492D02*
Y152657D01*
X72146Y144291D02*
Y148622D01*
X62500Y144291D02*
Y148622D01*
X72146D01*
X62500Y144291D02*
X72146D01*
X66240Y146457D02*
X68405D01*
X67323Y145374D02*
Y147539D01*
X19390Y108858D02*
Y113189D01*
X9744Y108858D02*
Y113189D01*
X19390D01*
X9744Y108858D02*
X19390D01*
X13484Y111024D02*
X15650D01*
X14567Y109941D02*
Y112106D01*
X181462Y211056D02*
Y213103D01*
X180438Y212080D02*
X182486D01*
X199329Y214047D02*
X201376D01*
X200353Y213023D02*
Y215070D01*
X188549Y224678D02*
X190596D01*
X189572Y223654D02*
Y225702D01*
X194297Y223654D02*
Y225702D01*
X193273Y224678D02*
X195320D01*
X67323Y140256D02*
Y142421D01*
X66240Y141339D02*
X68405D01*
X62500Y143504D02*
X72146D01*
X62500Y139173D02*
X72146D01*
Y143504D01*
X62500Y139173D02*
Y143504D01*
X5512Y177480D02*
Y179528D01*
X4488Y178504D02*
X6535D01*
X4429Y168110D02*
X6594D01*
X5512Y167028D02*
Y169193D01*
X3347Y163287D02*
Y172933D01*
X7677Y163287D02*
Y172933D01*
X3347D02*
X7677D01*
X3347Y163287D02*
X7677D01*
X13681Y181595D02*
Y183760D01*
X12598Y182677D02*
X14764D01*
X8858Y184843D02*
X18504D01*
X8858Y180512D02*
X18504D01*
Y184843D01*
X8858Y180512D02*
Y184843D01*
X13386Y163091D02*
Y165256D01*
X12303Y164173D02*
X14469D01*
X8563Y166339D02*
X18209D01*
X8563Y162008D02*
X18209D01*
Y166339D01*
X8563Y162008D02*
Y166339D01*
X9744Y103740D02*
Y108071D01*
X19390Y103740D02*
Y108071D01*
X9744Y103740D02*
X19390D01*
X9744Y108071D02*
X19390D01*
X13484Y105905D02*
X15650D01*
X14567Y104823D02*
Y106988D01*
X144213Y129417D02*
Y131464D01*
X143190Y130441D02*
X145237D01*
X138622Y121149D02*
X140670D01*
X139646Y120126D02*
Y122173D01*
X144213Y133748D02*
Y135795D01*
X143190Y134771D02*
X145237D01*
X132911Y140181D02*
X134958D01*
X133934Y139157D02*
Y141204D01*
X128780Y121149D02*
X130827D01*
X129804Y120126D02*
Y122173D01*
X125039Y132047D02*
Y134095D01*
X124016Y133071D02*
X126063D01*
X124016Y127953D02*
X126063D01*
X125039Y126929D02*
Y128976D01*
X8661Y115118D02*
Y117165D01*
X7638Y116142D02*
X9685D01*
X46945Y112155D02*
X48992D01*
X47969Y111131D02*
Y113178D01*
X8661Y120177D02*
Y122343D01*
X7579Y121260D02*
X9744D01*
X3839Y123425D02*
X13484D01*
X3839Y119095D02*
X13484D01*
Y123425D01*
X3839Y119095D02*
Y123425D01*
D12*
X62368Y201039D02*
Y204473D01*
X69346D01*
Y201039D02*
Y204473D01*
X62368Y201039D02*
X69346D01*
X67910Y184338D02*
Y187774D01*
X74889D01*
Y184338D02*
Y187774D01*
X67910Y184338D02*
X74889D01*
D168*
X280512Y185827D02*
Y189764D01*
X273031Y185827D02*
Y189764D01*
X280512D01*
X273031Y185827D02*
X280512D01*
X273031Y181102D02*
X280512D01*
X273031Y185039D02*
X280512D01*
X273031Y181102D02*
Y185039D01*
X280512Y181102D02*
Y185039D01*
X323661Y166535D02*
X331142D01*
X323661Y162598D02*
X331142D01*
Y166535D01*
X323661Y162598D02*
Y166535D01*
Y157087D02*
X331142D01*
X323661Y153150D02*
X331142D01*
Y157087D01*
X323661Y153150D02*
Y157087D01*
Y138189D02*
X331142D01*
X323661Y134252D02*
X331142D01*
Y138189D01*
X323661Y134252D02*
Y138189D01*
Y180709D02*
X331142D01*
X323661Y176772D02*
X331142D01*
Y180709D01*
X323661Y176772D02*
Y180709D01*
X283071Y192165D02*
Y199646D01*
X287008Y192165D02*
Y199646D01*
X283071D02*
X287008D01*
X283071Y192165D02*
X287008D01*
X300394D02*
Y199646D01*
X304331Y192165D02*
Y199646D01*
X300394D02*
X304331D01*
X300394Y192165D02*
X304331D01*
X254331Y162165D02*
Y169646D01*
X250394Y162165D02*
Y169646D01*
Y162165D02*
X254331D01*
X250394Y169646D02*
X254331D01*
X259055Y150354D02*
Y157835D01*
X255118Y150354D02*
Y157835D01*
Y150354D02*
X259055D01*
X255118Y157835D02*
X259055D01*
X311378Y189370D02*
Y193307D01*
X318858Y189370D02*
Y193307D01*
X311378Y189370D02*
X318858D01*
X311378Y193307D02*
X318858D01*
X310630Y180748D02*
X314567D01*
X310630Y188228D02*
X314567D01*
Y180748D02*
Y188228D01*
X310630Y180748D02*
Y188228D01*
X315748Y180748D02*
X319685D01*
X315748Y188228D02*
X319685D01*
Y180748D02*
Y188228D01*
X315748Y180748D02*
Y188228D01*
X255118Y169646D02*
X259055D01*
X255118Y162165D02*
X259055D01*
X255118D02*
Y169646D01*
X259055Y162165D02*
Y169646D01*
X250394Y157835D02*
X254331D01*
X250394Y150354D02*
X254331D01*
X250394D02*
Y157835D01*
X254331Y150354D02*
Y157835D01*
X240197Y145669D02*
Y149606D01*
X247677Y145669D02*
Y149606D01*
X240197Y145669D02*
X247677D01*
X240197Y149606D02*
X247677D01*
X248425Y184055D02*
X252362D01*
X248425Y191535D02*
X252362D01*
Y184055D02*
Y191535D01*
X248425Y184055D02*
Y191535D01*
X260827Y188189D02*
Y192126D01*
X253346Y188189D02*
Y192126D01*
X260827D01*
X253346Y188189D02*
X260827D01*
Y183465D02*
Y187402D01*
X253346Y183465D02*
Y187402D01*
X260827D01*
X253346Y183465D02*
X260827D01*
X285827Y116496D02*
X289764D01*
X285827Y109016D02*
X289764D01*
X285827D02*
Y116496D01*
X289764Y109016D02*
Y116496D01*
X296063D02*
X300000D01*
X296063Y109016D02*
X300000D01*
X296063D02*
Y116496D01*
X300000Y109016D02*
Y116496D01*
X290945D02*
X294882D01*
X290945Y109016D02*
X294882D01*
X290945D02*
Y116496D01*
X294882Y109016D02*
Y116496D01*
X323661Y148425D02*
Y152362D01*
X331142Y148425D02*
Y152362D01*
X323661Y148425D02*
X331142D01*
X323661Y152362D02*
X331142D01*
X323661Y143701D02*
Y147638D01*
X331142Y143701D02*
Y147638D01*
X323661Y143701D02*
X331142D01*
X323661Y147638D02*
X331142D01*
X260630Y127362D02*
X264567D01*
X260630Y119882D02*
X264567D01*
X260630D02*
Y127362D01*
X264567Y119882D02*
Y127362D01*
X250197Y124016D02*
Y127953D01*
X257677Y124016D02*
Y127953D01*
X250197Y124016D02*
X257677D01*
X250197Y127953D02*
X257677D01*
X250197Y119291D02*
Y123228D01*
X257677Y119291D02*
Y123228D01*
X250197Y119291D02*
X257677D01*
X250197Y123228D02*
X257677D01*
X270472Y116496D02*
X274410D01*
X270472Y109016D02*
X274410D01*
X270472D02*
Y116496D01*
X274410Y109016D02*
Y116496D01*
X288976Y192165D02*
X292913D01*
X288976Y199646D02*
X292913D01*
Y192165D02*
Y199646D01*
X288976Y192165D02*
Y199646D01*
X247205Y119291D02*
Y123228D01*
X239724Y119291D02*
Y123228D01*
X247205D01*
X239724Y119291D02*
X247205D01*
X323661Y172047D02*
Y175984D01*
X331142Y172047D02*
Y175984D01*
X323661Y172047D02*
X331142D01*
X323661Y175984D02*
X331142D01*
X323661Y167323D02*
Y171260D01*
X331142Y167323D02*
Y171260D01*
X323661Y167323D02*
X331142D01*
X323661Y171260D02*
X331142D01*
X275197Y116496D02*
X279134D01*
X275197Y109016D02*
X279134D01*
X275197D02*
Y116496D01*
X279134Y109016D02*
Y116496D01*
X323661Y138976D02*
Y142913D01*
X331142Y138976D02*
Y142913D01*
X323661Y138976D02*
X331142D01*
X323661Y142913D02*
X331142D01*
X323661Y157874D02*
Y161811D01*
X331142Y157874D02*
Y161811D01*
X323661Y157874D02*
X331142D01*
X323661Y161811D02*
X331142D01*
X295669Y192165D02*
X299606D01*
X295669Y199646D02*
X299606D01*
Y192165D02*
Y199646D01*
X295669Y192165D02*
Y199646D01*
X115548Y185433D02*
Y189370D01*
X123028Y185433D02*
Y189370D01*
X115548Y185433D02*
X123028D01*
X115548Y189370D02*
X123028D01*
X87992Y199606D02*
X95472D01*
X87992Y203543D02*
X95472D01*
X87992Y199606D02*
Y203543D01*
X95472Y199606D02*
Y203543D01*
X87989Y205118D02*
X95469D01*
X87989Y209055D02*
X95469D01*
X87989Y205118D02*
Y209055D01*
X95469Y205118D02*
Y209055D01*
X87992Y189370D02*
X95472D01*
X87992Y193307D02*
X95472D01*
X87992Y189370D02*
Y193307D01*
X95472Y189370D02*
Y193307D01*
X92300Y186070D02*
X96237D01*
X92300Y178590D02*
X96237D01*
X92300D02*
Y186070D01*
X96237Y178590D02*
Y186070D01*
X102009Y207086D02*
X105946D01*
X102009Y214566D02*
X105946D01*
Y207086D02*
Y214566D01*
X102009Y207086D02*
Y214566D01*
X110867Y207086D02*
X114804D01*
X110867Y214566D02*
X114804D01*
Y207086D02*
Y214566D01*
X110867Y207086D02*
Y214566D01*
X115789Y207086D02*
X119726D01*
X115789Y214566D02*
X119726D01*
Y207086D02*
Y214566D01*
X115789Y207086D02*
Y214566D01*
X115604Y195126D02*
Y199063D01*
X123085Y195126D02*
Y199063D01*
X115604Y195126D02*
X123085D01*
X115604Y199063D02*
X123085D01*
X62244Y207087D02*
X69724D01*
X62244Y211024D02*
X69724D01*
X62244Y207087D02*
Y211024D01*
X69724Y207087D02*
Y211024D01*
X74800Y200748D02*
Y208228D01*
X70863Y200748D02*
Y208228D01*
Y200748D02*
X74800D01*
X70863Y208228D02*
X74800D01*
X75252Y177001D02*
Y180938D01*
X67772Y177001D02*
Y180938D01*
X75252D01*
X67772Y177001D02*
X75252D01*
X76405Y179640D02*
Y187120D01*
X80342Y179640D02*
Y187120D01*
X76405D02*
X80342D01*
X76405Y179640D02*
X80342D01*
X77559Y115787D02*
Y123268D01*
X73622Y115787D02*
Y123268D01*
Y115787D02*
X77559D01*
X73622Y123268D02*
X77559D01*
X177722Y210111D02*
X185202D01*
X177722Y214048D02*
X185202D01*
X177722Y210111D02*
Y214048D01*
X185202Y210111D02*
Y214048D01*
X196612Y212078D02*
Y216015D01*
X204093Y212078D02*
Y216015D01*
X196612Y212078D02*
X204093D01*
X196612Y216015D02*
X204093D01*
X187604Y220938D02*
Y228418D01*
X191541Y220938D02*
Y228418D01*
X187604D02*
X191541D01*
X187604Y220938D02*
X191541D01*
X192328D02*
X196265D01*
X192328Y228418D02*
X196265D01*
Y220938D02*
Y228418D01*
X192328Y220938D02*
Y228418D01*
X3543Y182244D02*
X7480D01*
X3543Y174764D02*
X7480D01*
X3543D02*
Y182244D01*
X7480Y174764D02*
Y182244D01*
X140473Y132409D02*
X147953D01*
X140473Y128472D02*
X147953D01*
Y132409D01*
X140473Y128472D02*
Y132409D01*
X141615Y117409D02*
Y124890D01*
X137678Y117409D02*
Y124890D01*
Y117409D02*
X141615D01*
X137678Y124890D02*
X141615D01*
X140473Y136740D02*
X147953D01*
X140473Y132803D02*
X147953D01*
Y136740D01*
X140473Y132803D02*
Y136740D01*
X131966Y136441D02*
Y143921D01*
X135903Y136441D02*
Y143921D01*
X131966D02*
X135903D01*
X131966Y136441D02*
X135903D01*
X131772Y117409D02*
Y124890D01*
X127835Y117409D02*
Y124890D01*
Y117409D02*
X131772D01*
X127835Y124890D02*
X131772D01*
X121299Y131102D02*
X128779D01*
X121299Y135039D02*
X128779D01*
X121299Y131102D02*
Y135039D01*
X128779Y131102D02*
Y135039D01*
Y125984D02*
Y129921D01*
X121299Y125984D02*
Y129921D01*
X128779D01*
X121299Y125984D02*
X128779D01*
X4921Y118110D02*
X12402D01*
X4921Y114173D02*
X12402D01*
Y118110D01*
X4921Y114173D02*
Y118110D01*
X44228Y110186D02*
Y114123D01*
X51709Y110186D02*
Y114123D01*
X44228Y110186D02*
X51709D01*
X44228Y114123D02*
X51709D01*
D169*
X391428Y61027D02*
G03*
X391428Y61027I-787J0D01*
G01*
X359932D02*
G03*
X359932Y61027I-787J0D01*
G01*
M02*
