G04*
G04 #@! TF.GenerationSoftware,Altium Limited,Altium Designer,22.9.1 (49)*
G04*
G04 Layer_Physical_Order=6*
G04 Layer_Color=16711680*
%FSLAX25Y25*%
%MOIN*%
G70*
G04*
G04 #@! TF.SameCoordinates,09DA8A7C-0E06-47C8-8122-5E973528E8BD*
G04*
G04*
G04 #@! TF.FilePolarity,Positive*
G04*
G01*
G75*
%ADD17C,0.01000*%
%ADD20R,0.02362X0.02520*%
%ADD21R,0.02520X0.02362*%
%ADD22R,0.02953X0.02362*%
%ADD27R,0.02362X0.02953*%
%ADD29R,0.02423X0.02254*%
%ADD131C,0.02559*%
%ADD135C,0.00600*%
%ADD136C,0.02000*%
%ADD141C,0.06201*%
%ADD142R,0.06201X0.06201*%
%ADD143C,0.03937*%
%ADD144C,0.19685*%
%ADD145O,0.08268X0.03937*%
%ADD146O,0.07087X0.03937*%
%ADD147O,0.04921X0.03347*%
%ADD148O,0.03543X0.06102*%
%ADD149C,0.06496*%
%ADD150R,0.06496X0.06496*%
%ADD151C,0.05504*%
%ADD152C,0.12795*%
%ADD153C,0.09626*%
%ADD154C,0.06024*%
%ADD155R,0.05504X0.05504*%
%ADD156C,0.01968*%
%ADD157R,0.04724X0.05906*%
%ADD158R,0.06299X0.05906*%
%ADD159R,0.04724X0.08661*%
%ADD160R,0.02756X0.06299*%
%ADD161C,0.01968*%
%ADD162C,0.00445*%
G36*
X199809Y215657D02*
X198795D01*
Y214047D01*
Y212437D01*
X199809D01*
Y206174D01*
X182092D01*
Y210470D01*
X183019D01*
Y212080D01*
Y213689D01*
X182092D01*
Y223890D01*
X187963D01*
Y223121D01*
X191182D01*
Y223890D01*
X192687D01*
Y223121D01*
X195907D01*
Y223890D01*
X199809D01*
Y215657D01*
D02*
G37*
G36*
X116147Y209269D02*
X117757D01*
Y209094D01*
X117932D01*
Y207562D01*
X118504D01*
Y198704D01*
X117787D01*
Y197094D01*
Y195484D01*
X118504D01*
Y189011D01*
X117731D01*
Y187401D01*
Y185792D01*
X118504D01*
Y182677D01*
X95878D01*
Y183887D01*
X94268D01*
X92658D01*
Y182677D01*
X91732D01*
Y188129D01*
X91822Y188583D01*
X91822Y188583D01*
Y189291D01*
X91969D01*
Y189729D01*
X93290D01*
Y191339D01*
Y192948D01*
X91969D01*
Y193386D01*
X91732D01*
Y194774D01*
X92170Y194926D01*
X92232Y194926D01*
X93821D01*
Y196457D01*
Y197988D01*
X92232D01*
X92170Y197988D01*
X91732Y198139D01*
Y199528D01*
X91969D01*
Y199965D01*
X93290D01*
Y201575D01*
Y203185D01*
X91969D01*
Y203622D01*
X91732D01*
Y205039D01*
X91965D01*
Y205477D01*
X93286D01*
Y207087D01*
Y208697D01*
X92319D01*
X92239Y208776D01*
X92241Y209255D01*
X92426Y209449D01*
X102368D01*
Y209269D01*
X105588D01*
Y209449D01*
X111226D01*
Y209269D01*
X114445D01*
Y209449D01*
X116147D01*
Y209269D01*
D02*
G37*
G36*
X75193Y211811D02*
Y205584D01*
X74922Y205368D01*
X74441Y205580D01*
Y206046D01*
X72831D01*
X71221D01*
Y204724D01*
X67713D01*
X66138Y206299D01*
Y207008D01*
X66220D01*
Y211102D01*
X66138D01*
Y211811D01*
X66926Y212598D01*
X74406Y212598D01*
X75193Y211811D01*
D02*
G37*
G36*
X65339Y211827D02*
X65336Y211811D01*
Y211102D01*
X65351Y211025D01*
Y207085D01*
X65336Y207008D01*
Y206299D01*
X65351Y206222D01*
Y204233D01*
X64345D01*
Y202756D01*
Y201279D01*
X64745D01*
X64952Y200779D01*
X64567Y200394D01*
X56296D01*
X55508Y201181D01*
X55508Y211811D01*
X56296Y212598D01*
X64567D01*
X65339Y211827D01*
D02*
G37*
G36*
X18519Y191232D02*
X18147Y190674D01*
X18001Y189945D01*
X22496D01*
Y189595D01*
X18001D01*
X18147Y188865D01*
X18527Y188295D01*
X18281Y187795D01*
X9843Y187795D01*
X7087Y185039D01*
Y181767D01*
X5687D01*
Y180236D01*
X5512D01*
Y180061D01*
X3902D01*
Y179134D01*
X3150D01*
Y167717D01*
X3543Y167323D01*
X3981D01*
Y166022D01*
X5512D01*
Y165847D01*
X5687D01*
Y164020D01*
X7043D01*
X7087Y163538D01*
Y160630D01*
X9843Y157874D01*
X18499D01*
X18625Y157374D01*
X18147Y156659D01*
X18001Y155929D01*
X22496D01*
Y155579D01*
X18001D01*
X18147Y154849D01*
X18659Y154083D01*
X18718Y154043D01*
X18566Y153543D01*
X9379D01*
X9227Y154043D01*
X9286Y154083D01*
X9798Y154849D01*
X9943Y155579D01*
X2135D01*
X2280Y154849D01*
X2793Y154083D01*
X2851Y154043D01*
X2700Y153543D01*
X1969D01*
X1181Y154331D01*
Y190945D01*
X1936Y191700D01*
X2437Y191655D01*
X2653Y191232D01*
X2280Y190674D01*
X2135Y189945D01*
X9943D01*
X9798Y190674D01*
X9425Y191232D01*
X9682Y191732D01*
X18263D01*
X18519Y191232D01*
D02*
G37*
G36*
X76326Y184047D02*
Y183144D01*
X80420D01*
X80567Y182705D01*
Y177001D01*
X79780Y176214D01*
X72693D01*
X71906Y177001D01*
Y181332D01*
X72693Y182119D01*
X75055D01*
Y183300D01*
X75826Y184071D01*
X76326Y184047D01*
D02*
G37*
G36*
X71088Y187661D02*
Y184142D01*
X71118D01*
Y181409D01*
X71103Y181332D01*
Y177001D01*
X71103Y177001D01*
X71105Y176988D01*
X70331Y176214D01*
X65607Y176214D01*
X64819Y177001D01*
Y187631D01*
X65607Y188418D01*
X70331D01*
X71088Y187661D01*
D02*
G37*
G36*
X143583Y136381D02*
X142656D01*
Y134771D01*
Y133162D01*
X143583D01*
Y132051D01*
X142656D01*
Y130441D01*
Y128831D01*
X143583D01*
Y121779D01*
X141256D01*
Y122707D01*
X139646D01*
X138036D01*
Y121779D01*
X131413D01*
Y122707D01*
X129804D01*
X128194D01*
Y121779D01*
X125867D01*
Y126343D01*
X126597D01*
Y127953D01*
Y129563D01*
X125867D01*
Y131461D01*
X126597D01*
Y133071D01*
Y134681D01*
X125867D01*
Y139890D01*
X132325D01*
Y138623D01*
X135544D01*
Y139890D01*
X143583D01*
Y136381D01*
D02*
G37*
G36*
X150670Y135952D02*
Y132849D01*
X150619Y132726D01*
Y132021D01*
X150670Y131897D01*
Y130256D01*
X150575Y130028D01*
Y129323D01*
X150622Y129212D01*
X149882Y128472D01*
X145552D01*
X144764Y129260D01*
Y135952D01*
X145552Y136740D01*
X149882D01*
X150670Y135952D01*
D02*
G37*
%LPC*%
G36*
X195907Y222771D02*
X194472D01*
Y221415D01*
X195907D01*
Y222771D01*
D02*
G37*
G36*
X194122D02*
X192687D01*
Y221415D01*
X194122D01*
Y222771D01*
D02*
G37*
G36*
X191182D02*
X189747D01*
Y221415D01*
X191182D01*
Y222771D01*
D02*
G37*
G36*
X189397D02*
X187963D01*
Y221415D01*
X189397D01*
Y222771D01*
D02*
G37*
G36*
X198445Y215657D02*
X197089D01*
Y214222D01*
X198445D01*
Y215657D01*
D02*
G37*
G36*
Y213872D02*
X197089D01*
Y212437D01*
X198445D01*
Y213872D01*
D02*
G37*
G36*
X184725Y213689D02*
X183370D01*
Y212255D01*
X184725D01*
Y213689D01*
D02*
G37*
G36*
Y211905D02*
X183370D01*
Y210470D01*
X184725D01*
Y211905D01*
D02*
G37*
G36*
X117582Y208919D02*
X116147D01*
Y207562D01*
X117582D01*
Y208919D01*
D02*
G37*
G36*
X114445D02*
X113011D01*
Y207562D01*
X114445D01*
Y208919D01*
D02*
G37*
G36*
X112661D02*
X111226D01*
Y207562D01*
X112661D01*
Y208919D01*
D02*
G37*
G36*
X105588D02*
X104153D01*
Y207562D01*
X105588D01*
Y208919D01*
D02*
G37*
G36*
X103803D02*
X102368D01*
Y207562D01*
X103803D01*
Y208919D01*
D02*
G37*
G36*
X94992Y208697D02*
X93636D01*
Y207262D01*
X94992D01*
Y208697D01*
D02*
G37*
G36*
Y206912D02*
X93636D01*
Y205477D01*
X94992D01*
Y206912D01*
D02*
G37*
G36*
X94996Y203185D02*
X93639D01*
Y201750D01*
X94996D01*
Y203185D01*
D02*
G37*
G36*
Y201400D02*
X93639D01*
Y199965D01*
X94996D01*
Y201400D01*
D02*
G37*
G36*
X117437Y198704D02*
X116081D01*
Y197269D01*
X117437D01*
Y198704D01*
D02*
G37*
G36*
X94171Y197988D02*
Y196632D01*
X95822D01*
Y197988D01*
X94171D01*
D02*
G37*
G36*
X117437Y196919D02*
X116081D01*
Y195484D01*
X117437D01*
Y196919D01*
D02*
G37*
G36*
X95822Y196282D02*
X94171D01*
Y194926D01*
X95822D01*
Y196282D01*
D02*
G37*
G36*
X94996Y192948D02*
X93640D01*
Y191514D01*
X94996D01*
Y192948D01*
D02*
G37*
G36*
Y191164D02*
X93640D01*
Y189729D01*
X94996D01*
Y191164D01*
D02*
G37*
G36*
X117381Y189011D02*
X116024D01*
Y187576D01*
X117381D01*
Y189011D01*
D02*
G37*
G36*
Y187226D02*
X116024D01*
Y185792D01*
X117381D01*
Y187226D01*
D02*
G37*
G36*
X95878Y185593D02*
X94443D01*
Y184237D01*
X95878D01*
Y185593D01*
D02*
G37*
G36*
X94093D02*
X92658D01*
Y184237D01*
X94093D01*
Y185593D01*
D02*
G37*
G36*
X74441Y207752D02*
X73006D01*
Y206396D01*
X74441D01*
Y207752D01*
D02*
G37*
G36*
X72656D02*
X71221D01*
Y206396D01*
X72656D01*
Y207752D01*
D02*
G37*
G36*
X63995Y204233D02*
X62608D01*
Y202931D01*
X63995D01*
Y204233D01*
D02*
G37*
G36*
Y202581D02*
X62608D01*
Y201279D01*
X63995D01*
Y202581D01*
D02*
G37*
G36*
X9943Y189595D02*
X6214D01*
Y187406D01*
X7614D01*
X8519Y187586D01*
X9286Y188098D01*
X9798Y188865D01*
X9943Y189595D01*
D02*
G37*
G36*
X5864D02*
X2135D01*
X2280Y188865D01*
X2793Y188098D01*
X3560Y187586D01*
X4464Y187406D01*
X5864D01*
Y189595D01*
D02*
G37*
G36*
X5337Y181767D02*
X3902D01*
Y180411D01*
X5337D01*
Y181767D01*
D02*
G37*
G36*
X5337Y165672D02*
X3981D01*
Y164020D01*
X5337D01*
Y165672D01*
D02*
G37*
G36*
X7614Y158118D02*
X6214D01*
Y155929D01*
X9943D01*
X9798Y156659D01*
X9286Y157425D01*
X8519Y157938D01*
X7614Y158118D01*
D02*
G37*
G36*
X5864D02*
X4464D01*
X3560Y157938D01*
X2793Y157425D01*
X2280Y156659D01*
X2135Y155929D01*
X5864D01*
Y158118D01*
D02*
G37*
G36*
X135544Y138274D02*
X134109D01*
Y136917D01*
X135544D01*
Y138274D01*
D02*
G37*
G36*
X133759D02*
X132325D01*
Y136917D01*
X133759D01*
Y138274D01*
D02*
G37*
G36*
X142306Y136381D02*
X140950D01*
Y134946D01*
X142306D01*
Y136381D01*
D02*
G37*
G36*
X128303Y134681D02*
X126947D01*
Y133246D01*
X128303D01*
Y134681D01*
D02*
G37*
G36*
X142306Y134596D02*
X140950D01*
Y133162D01*
X142306D01*
Y134596D01*
D02*
G37*
G36*
X128303Y132896D02*
X126947D01*
Y131461D01*
X128303D01*
Y132896D01*
D02*
G37*
G36*
X142306Y132051D02*
X140950D01*
Y130616D01*
X142306D01*
Y132051D01*
D02*
G37*
G36*
Y130266D02*
X140950D01*
Y128831D01*
X142306D01*
Y130266D01*
D02*
G37*
G36*
X128303Y129563D02*
X126947D01*
Y128128D01*
X128303D01*
Y129563D01*
D02*
G37*
G36*
Y127778D02*
X126947D01*
Y126343D01*
X128303D01*
Y127778D01*
D02*
G37*
G36*
X141256Y124413D02*
X139821D01*
Y123057D01*
X141256D01*
Y124413D01*
D02*
G37*
G36*
X131413D02*
X129979D01*
Y123057D01*
X131413D01*
Y124413D01*
D02*
G37*
G36*
X129629D02*
X128194D01*
Y123057D01*
X129629D01*
Y124413D01*
D02*
G37*
G36*
X139471D02*
X138036D01*
Y123057D01*
X139471D01*
Y124413D01*
D02*
G37*
%LPD*%
D17*
X47942Y228257D02*
Y240140D01*
X41339Y220079D02*
Y221654D01*
X47942Y228257D01*
X56431Y219291D02*
X56824Y218898D01*
X53937Y219291D02*
X56431D01*
X56824Y218898D02*
X57087D01*
X94181Y184149D02*
Y186921D01*
Y184149D02*
X94268Y184062D01*
X94095Y187008D02*
X94181Y186921D01*
X96457Y191339D02*
X96457Y191339D01*
X94248Y191339D02*
X96457D01*
X114170Y187402D02*
X114318Y187254D01*
X117625D01*
X112595Y205906D02*
X112715Y206026D01*
X117757Y206737D02*
Y209094D01*
X112715Y206026D02*
Y208973D01*
X103956Y205928D02*
Y209071D01*
X117073Y206053D02*
X117757Y206737D01*
X115892Y206053D02*
X117073D01*
X115745Y205906D02*
X115892Y206053D01*
X103934Y205906D02*
X103956Y205928D01*
X93550Y207234D02*
X93697Y207087D01*
X96457D01*
X103956Y209071D02*
X103978Y209094D01*
X112715Y208973D02*
X112836Y209094D01*
X114567Y197244D02*
X114642Y197169D01*
X117537D01*
X117612Y197094D01*
X93304Y196457D02*
X93996D01*
X93461Y201575D02*
X93464D01*
X93996Y196457D02*
X96358D01*
X93464Y201575D02*
X96457D01*
X83667Y199510D02*
Y199772D01*
Y199510D02*
X86720Y196457D01*
X88681D01*
X48767Y219343D02*
X49213Y218898D01*
X46115Y219343D02*
X48767D01*
X34252Y207480D02*
X46115Y219343D01*
X14173Y207480D02*
X34252D01*
X49941Y141280D02*
X65296D01*
X65354Y141339D01*
X40945Y127953D02*
Y132283D01*
X49941Y141280D01*
X64961Y151575D02*
X65059Y151476D01*
Y146457D02*
Y151476D01*
X11417Y210236D02*
X14173Y207480D01*
X69587Y146358D02*
X69685Y146457D01*
X69587Y141339D02*
Y146358D01*
X11024Y111024D02*
Y115512D01*
X10394Y116142D02*
X11056Y116804D01*
Y120997D01*
X10394Y116142D02*
X11024Y115512D01*
X11417Y210236D02*
Y211417D01*
X118527Y145276D02*
X118898D01*
X12205Y141378D02*
X18858D01*
X21260Y128740D02*
Y138976D01*
X18858Y141378D02*
X21260Y138976D01*
Y128740D02*
X23622Y126378D01*
X39370D01*
X40945Y127953D01*
X134194Y142094D02*
Y144037D01*
X135039Y144882D01*
X10630Y116142D02*
X14173D01*
X11186Y121260D02*
X14173D01*
X12205Y99213D02*
Y105217D01*
X11417Y177559D02*
Y182677D01*
X10796Y176938D02*
X11417Y177559D01*
X9449Y176772D02*
X9615Y176938D01*
X10796D01*
X5906Y177138D02*
Y177165D01*
X6272Y176772D02*
X9449D01*
X5906Y177138D02*
X6272Y176772D01*
X11024Y164567D02*
Y169308D01*
X9634Y169893D02*
X10438D01*
X11024Y169308D01*
X9449Y170079D02*
X9634Y169893D01*
X5659Y170226D02*
X9301D01*
X5512Y170374D02*
X5659Y170226D01*
X9301D02*
X9449Y170079D01*
D20*
X278504Y187795D02*
D03*
X275039D02*
D03*
Y183071D02*
D03*
X278504D02*
D03*
X329134Y164567D02*
D03*
X325669D02*
D03*
X329134Y155118D02*
D03*
X325669D02*
D03*
X329134Y136221D02*
D03*
X325669D02*
D03*
X329134Y178740D02*
D03*
X325669D02*
D03*
X313386Y191339D02*
D03*
X316850D02*
D03*
X242205Y147638D02*
D03*
X245669D02*
D03*
X258819Y190157D02*
D03*
X255354D02*
D03*
X258819Y185433D02*
D03*
X255354D02*
D03*
X325669Y150394D02*
D03*
X329134D02*
D03*
X325669Y145669D02*
D03*
X329134D02*
D03*
X252205Y125984D02*
D03*
X255669D02*
D03*
X252205Y121260D02*
D03*
X255669D02*
D03*
X245197D02*
D03*
X241732D02*
D03*
X325669Y174016D02*
D03*
X329134D02*
D03*
X325669Y169291D02*
D03*
X329134D02*
D03*
X325669Y140945D02*
D03*
X329134D02*
D03*
X325669Y159843D02*
D03*
X329134D02*
D03*
X117556Y187402D02*
D03*
X121020D02*
D03*
X90000Y201575D02*
D03*
X93464D02*
D03*
X89997Y207087D02*
D03*
X93461D02*
D03*
X90000Y191339D02*
D03*
X93464D02*
D03*
X117612Y197094D02*
D03*
X121077D02*
D03*
X64252Y209055D02*
D03*
X67716D02*
D03*
X73244Y178969D02*
D03*
X69780D02*
D03*
X179730Y212080D02*
D03*
X183194D02*
D03*
X198620Y214047D02*
D03*
X202085D02*
D03*
X145945Y130441D02*
D03*
X142481D02*
D03*
X145945Y134771D02*
D03*
X142481D02*
D03*
X123307Y133071D02*
D03*
X126772D02*
D03*
Y127953D02*
D03*
X123307D02*
D03*
X10394Y116142D02*
D03*
X6929D02*
D03*
X46236Y112155D02*
D03*
X49701D02*
D03*
D21*
X285039Y197638D02*
D03*
Y194173D02*
D03*
X302362Y197638D02*
D03*
Y194173D02*
D03*
X252362Y164173D02*
D03*
Y167638D02*
D03*
X257087Y152362D02*
D03*
Y155827D02*
D03*
X312598Y182756D02*
D03*
Y186221D02*
D03*
X317717Y182756D02*
D03*
Y186221D02*
D03*
X257087Y167638D02*
D03*
Y164173D02*
D03*
X252362Y155827D02*
D03*
Y152362D02*
D03*
X250394Y186063D02*
D03*
Y189528D02*
D03*
X287795Y114488D02*
D03*
Y111024D02*
D03*
X298031Y114488D02*
D03*
Y111024D02*
D03*
X292913Y114488D02*
D03*
Y111024D02*
D03*
X262598Y125354D02*
D03*
Y121890D02*
D03*
X272441Y114488D02*
D03*
Y111024D02*
D03*
X290945Y194173D02*
D03*
Y197638D02*
D03*
X277165Y114488D02*
D03*
Y111024D02*
D03*
X297638Y194173D02*
D03*
Y197638D02*
D03*
X94268Y184062D02*
D03*
Y180598D02*
D03*
X103978Y209094D02*
D03*
Y212558D02*
D03*
X112836Y209094D02*
D03*
Y212558D02*
D03*
X117757Y209094D02*
D03*
Y212558D02*
D03*
X72831Y202756D02*
D03*
Y206221D02*
D03*
X78373Y185112D02*
D03*
Y181648D02*
D03*
X75590Y117795D02*
D03*
Y121260D02*
D03*
X189572Y226410D02*
D03*
Y222946D02*
D03*
X194297D02*
D03*
Y226410D02*
D03*
X5512Y180236D02*
D03*
Y176772D02*
D03*
X139646Y119417D02*
D03*
Y122882D02*
D03*
X133934Y141913D02*
D03*
Y138449D02*
D03*
X129804Y119417D02*
D03*
Y122882D02*
D03*
D22*
X379823Y110630D02*
D03*
X375295D02*
D03*
X264272Y59449D02*
D03*
X268799D02*
D03*
X89468Y196457D02*
D03*
X93996D02*
D03*
X53445Y219291D02*
D03*
X48917D02*
D03*
X69587Y151575D02*
D03*
X65059D02*
D03*
X69587Y146457D02*
D03*
X65059D02*
D03*
X16831Y111024D02*
D03*
X12303D02*
D03*
X69587Y141339D02*
D03*
X65059D02*
D03*
X15945Y182677D02*
D03*
X11417D02*
D03*
X15650Y164173D02*
D03*
X11122D02*
D03*
X12303Y105905D02*
D03*
X16831D02*
D03*
X10925Y121260D02*
D03*
X6398D02*
D03*
D27*
X5512Y170374D02*
D03*
Y165847D02*
D03*
D29*
X67544Y202756D02*
D03*
X64170D02*
D03*
X73087Y186056D02*
D03*
X69712D02*
D03*
D131*
X20527Y161384D02*
D03*
Y184140D02*
D03*
D135*
X76640Y219423D02*
Y219423D01*
Y219423D02*
X83858Y212205D01*
X75984Y220866D02*
X76246Y220604D01*
Y219817D02*
Y220604D01*
Y219817D02*
X76640Y219423D01*
X148819Y243701D02*
X150787Y245669D01*
X148819Y233071D02*
Y243701D01*
Y233071D02*
X153937Y227953D01*
X179134D01*
X61417Y146457D02*
X65059D01*
X11516Y105905D02*
X12205Y105217D01*
X19128Y164173D02*
X20703Y165748D01*
X16142Y164173D02*
X19128D01*
X20703Y165748D02*
X29134D01*
X22280Y177559D02*
X28740D01*
X17162Y182677D02*
X22280Y177559D01*
D136*
X401575Y50000D02*
X401665Y50090D01*
Y62602D01*
X340641D02*
X344879D01*
X344882Y62598D01*
X177572Y209842D02*
X179730Y212001D01*
X177165Y209842D02*
X177572D01*
X344094Y95669D02*
Y100307D01*
X344184Y100397D01*
X401575Y95669D02*
Y100307D01*
X401665Y100397D01*
X71331Y121260D02*
X75590D01*
X68504Y122835D02*
X69756D01*
X71331Y121260D01*
X121020Y187402D02*
X124292D01*
X124350Y187344D01*
X86216Y207253D02*
X86382Y207087D01*
X89815D01*
X89815Y207087D02*
X89997D01*
X89815Y207087D02*
X89815Y207087D01*
X72829Y202837D02*
X74225Y201441D01*
X67544Y202756D02*
X72812D01*
X113075Y214653D02*
X114564Y216142D01*
X112680Y212598D02*
X113075Y212994D01*
X117657Y216084D02*
X117757Y215983D01*
Y212558D02*
Y215983D01*
X113075Y212994D02*
Y214653D01*
X89819Y191339D02*
X89819Y191339D01*
X79461Y185827D02*
X87244D01*
X78205Y186056D02*
X78267Y186118D01*
X73087Y186056D02*
X77530D01*
X78454Y185875D02*
X79413D01*
X78373Y181648D02*
X78373Y181648D01*
X79413Y185875D02*
X79461Y185827D01*
X74225Y201441D02*
X77937D01*
X84903Y202756D02*
X86268Y201392D01*
X86314Y201438D02*
X86451Y201575D01*
X79252Y202756D02*
X84903D01*
X77937Y201441D02*
X79252Y202756D01*
X86451Y201575D02*
X90000D01*
X85812Y191735D02*
X86209Y191339D01*
X89819D01*
X87244Y185827D02*
X90000Y188583D01*
Y191339D01*
X375287Y99247D02*
Y104334D01*
X383948Y99292D02*
Y104334D01*
Y99292D02*
X383971Y99269D01*
X75585Y117801D02*
X75590Y117795D01*
X67126Y117801D02*
X75585D01*
X119685Y113386D02*
X121653Y111417D01*
X119685Y126772D02*
X120606Y127693D01*
X119685Y113386D02*
Y126772D01*
X120606Y127693D02*
X123228D01*
X123488Y127953D01*
X119685Y130709D02*
X120598Y131622D01*
X123504D01*
X121653Y111417D02*
X137402D01*
X139764Y113779D01*
Y119299D01*
X189313Y226591D02*
Y229979D01*
X188583Y230709D02*
X189313Y229979D01*
Y226591D02*
X189494Y226410D01*
X189572D01*
X193307Y230126D02*
Y230709D01*
Y230126D02*
X194037Y229396D01*
Y226591D02*
Y229396D01*
X146126Y134511D02*
Y134771D01*
X202266Y213787D02*
X204555D01*
X202085Y214047D02*
X202266Y213866D01*
Y213787D02*
Y213866D01*
X204555Y213787D02*
X204642Y213700D01*
X7979Y83902D02*
X42602D01*
X43504Y84803D01*
X42602Y146689D02*
X43504Y145787D01*
X9681Y146689D02*
X42602D01*
X5906Y142913D02*
X9681Y146689D01*
X5906Y85975D02*
X7979Y83902D01*
X5906Y85975D02*
Y119513D01*
X129804Y116268D02*
Y119417D01*
X5906Y122219D02*
Y142913D01*
X6315Y119923D02*
Y120866D01*
Y121809D01*
X5906Y119513D02*
X6315Y119923D01*
X5906Y122219D02*
X6315Y121809D01*
X194218Y226410D02*
X194297D01*
X194037Y226591D02*
X194218Y226410D01*
X145945Y130441D02*
Y130519D01*
X146126Y130701D01*
X49713Y112143D02*
X55830D01*
X49701Y112155D02*
X49713Y112143D01*
X42850Y112155D02*
X46236D01*
X55830Y112143D02*
X55843Y112155D01*
X66294Y117130D02*
X66419Y117005D01*
D141*
X420866Y175197D02*
D03*
X410866D02*
D03*
X420866Y185197D02*
D03*
X410866D02*
D03*
X420866Y195197D02*
D03*
X410866D02*
D03*
X420866Y205197D02*
D03*
X410866D02*
D03*
X420866Y215197D02*
D03*
X410866D02*
D03*
X420866Y225197D02*
D03*
Y88976D02*
D03*
X410866D02*
D03*
X420866Y98976D02*
D03*
X410866D02*
D03*
X420866Y108976D02*
D03*
X410866D02*
D03*
X420866Y118976D02*
D03*
X410866D02*
D03*
X420866Y128976D02*
D03*
X410866D02*
D03*
X420866Y138976D02*
D03*
D142*
X410866Y225197D02*
D03*
Y138976D02*
D03*
D143*
X359145Y61027D02*
D03*
X390641D02*
D03*
D144*
X415161Y58518D02*
D03*
X414961Y255512D02*
D03*
X11667Y255312D02*
D03*
X10486Y58068D02*
D03*
D145*
X22496Y189770D02*
D03*
Y155754D02*
D03*
D146*
X6039Y189770D02*
D03*
Y155754D02*
D03*
D147*
X105883Y62406D02*
D03*
X125568D02*
D03*
X168644Y250989D02*
D03*
X148959D02*
D03*
D148*
X101946Y51737D02*
D03*
X129466D02*
D03*
X172581Y261658D02*
D03*
X145061D02*
D03*
D149*
X397244Y259606D02*
D03*
Y249606D02*
D03*
X387244Y259606D02*
D03*
Y249606D02*
D03*
X377244Y259606D02*
D03*
Y249606D02*
D03*
X367244Y259606D02*
D03*
Y249606D02*
D03*
X357244Y259606D02*
D03*
Y249606D02*
D03*
X347244Y259606D02*
D03*
Y249606D02*
D03*
X337244Y259606D02*
D03*
Y249606D02*
D03*
X327244Y259606D02*
D03*
Y249606D02*
D03*
X317244Y259606D02*
D03*
Y249606D02*
D03*
X307244Y259606D02*
D03*
Y249606D02*
D03*
X297244Y259606D02*
D03*
Y249606D02*
D03*
X287244Y259606D02*
D03*
Y249606D02*
D03*
X277244Y259606D02*
D03*
Y249606D02*
D03*
X267244Y259606D02*
D03*
Y249606D02*
D03*
X257244Y259606D02*
D03*
Y249606D02*
D03*
X247244Y259606D02*
D03*
Y249606D02*
D03*
X237244Y259606D02*
D03*
Y249606D02*
D03*
X227244Y259606D02*
D03*
Y249606D02*
D03*
X217244Y259606D02*
D03*
Y249606D02*
D03*
X207244Y259606D02*
D03*
D150*
Y249606D02*
D03*
D151*
X66496Y117815D02*
D03*
Y97815D02*
D03*
X56496Y102815D02*
D03*
X66496Y107815D02*
D03*
X56496Y112815D02*
D03*
Y122815D02*
D03*
X66496Y127815D02*
D03*
D152*
X31496Y137795D02*
D03*
Y92795D02*
D03*
D153*
X43504Y84803D02*
D03*
Y145787D02*
D03*
D154*
X12205Y99213D02*
D03*
Y89213D02*
D03*
Y131378D02*
D03*
Y141378D02*
D03*
D155*
X56496Y132815D02*
D03*
D156*
X198786Y247723D02*
D03*
X251969Y129528D02*
D03*
X250394Y117323D02*
D03*
X248819Y121260D02*
D03*
X253543Y117323D02*
D03*
X252362Y170866D02*
D03*
X257087D02*
D03*
X260630Y155905D02*
D03*
X281102Y209842D02*
D03*
Y205118D02*
D03*
X271654Y209842D02*
D03*
Y205118D02*
D03*
X279134Y191732D02*
D03*
X274803D02*
D03*
X281496Y183071D02*
D03*
X272047D02*
D03*
X297244Y201181D02*
D03*
X260236Y164173D02*
D03*
X248819Y161811D02*
D03*
Y164961D02*
D03*
Y167717D02*
D03*
X260630Y151969D02*
D03*
X248819Y154331D02*
D03*
Y151181D02*
D03*
X233071Y150787D02*
D03*
X237795D02*
D03*
X238189Y121653D02*
D03*
X332677Y146850D02*
D03*
X332714Y149530D02*
D03*
X332677Y143701D02*
D03*
X332714Y158979D02*
D03*
Y164491D02*
D03*
X346850Y163386D02*
D03*
X343307Y169291D02*
D03*
X233071Y160236D02*
D03*
X206299Y144488D02*
D03*
X201575D02*
D03*
X196732Y156327D02*
D03*
X196850Y144488D02*
D03*
X248819Y147638D02*
D03*
X237795Y160236D02*
D03*
X290945Y201181D02*
D03*
X285039D02*
D03*
X401575Y50000D02*
D03*
X344882Y62598D02*
D03*
X380315Y64961D02*
D03*
X387402D02*
D03*
X373622D02*
D03*
X366929D02*
D03*
X139370Y213386D02*
D03*
X144095D02*
D03*
X148819D02*
D03*
X137795Y225984D02*
D03*
X168898Y224016D02*
D03*
X177165Y209842D02*
D03*
X361142Y194854D02*
D03*
X361024Y206693D02*
D03*
X356299D02*
D03*
X351575D02*
D03*
X344094Y95669D02*
D03*
X401575D02*
D03*
X68504Y122835D02*
D03*
X74017Y239432D02*
D03*
X78347Y250787D02*
D03*
X132285Y239826D02*
D03*
X111419D02*
D03*
X117717Y250394D02*
D03*
X126378Y239764D02*
D03*
X137795Y240158D02*
D03*
X105905Y239764D02*
D03*
X88583Y239764D02*
D03*
X94882Y239764D02*
D03*
X100394D02*
D03*
X57087Y218898D02*
D03*
X48031Y224016D02*
D03*
X95276Y164567D02*
D03*
X94260Y176980D02*
D03*
X112598Y171260D02*
D03*
X94882Y170866D02*
D03*
X104724Y166929D02*
D03*
X101585Y164566D02*
D03*
X90945Y174016D02*
D03*
X82677Y169685D02*
D03*
X88583Y167323D02*
D03*
X77953Y173622D02*
D03*
X107874Y166929D02*
D03*
X117323Y175591D02*
D03*
X53543Y210630D02*
D03*
X57087D02*
D03*
X53543Y202756D02*
D03*
X57087D02*
D03*
X53543Y206693D02*
D03*
X57087D02*
D03*
X96457Y191339D02*
D03*
X112595Y205906D02*
D03*
X94095Y187008D02*
D03*
X130315Y195669D02*
D03*
X103934Y185039D02*
D03*
X114567Y197244D02*
D03*
X105508Y196063D02*
D03*
X124405Y196985D02*
D03*
X96457Y207087D02*
D03*
X115745Y205906D02*
D03*
X114170Y187402D02*
D03*
X130355Y188172D02*
D03*
X103934Y205906D02*
D03*
X96457Y201575D02*
D03*
X124406Y187303D02*
D03*
X106771Y225197D02*
D03*
X131496Y230709D02*
D03*
X116134Y218839D02*
D03*
X117713Y216142D02*
D03*
X114564D02*
D03*
X106693Y228740D02*
D03*
X103999Y215821D02*
D03*
X75984Y220866D02*
D03*
X81890Y219291D02*
D03*
X69291Y228346D02*
D03*
Y224803D02*
D03*
X79134Y220866D02*
D03*
X73017Y220788D02*
D03*
X90932Y219301D02*
D03*
X86216Y207253D02*
D03*
X86268Y201392D02*
D03*
X72835Y210630D02*
D03*
X66394Y178969D02*
D03*
Y182513D02*
D03*
X78740Y178110D02*
D03*
X83858Y212205D02*
D03*
X83845Y209065D02*
D03*
X83667Y199772D02*
D03*
X85812Y191735D02*
D03*
X77123Y205081D02*
D03*
X62205Y196457D02*
D03*
X66394Y186056D02*
D03*
X81680Y197566D02*
D03*
X83006Y190652D02*
D03*
X375287Y99247D02*
D03*
X383971Y99269D02*
D03*
X116535Y129921D02*
D03*
X140945Y90551D02*
D03*
X116535Y123622D02*
D03*
X163287Y55905D02*
D03*
X167717Y83465D02*
D03*
X155118Y63386D02*
D03*
Y78740D02*
D03*
Y70866D02*
D03*
Y55905D02*
D03*
X159843Y83465D02*
D03*
X171457Y55905D02*
D03*
X207371Y52909D02*
D03*
Y65902D02*
D03*
X195954Y90311D02*
D03*
X180315Y70866D02*
D03*
Y78740D02*
D03*
X195954Y87161D02*
D03*
X175591Y83465D02*
D03*
X199497Y52909D02*
D03*
X179626Y55905D02*
D03*
X187795D02*
D03*
X180315Y63386D02*
D03*
X199462Y65806D02*
D03*
X203434Y65902D02*
D03*
X146850Y103543D02*
D03*
X134826Y130764D02*
D03*
X130495Y126433D02*
D03*
Y130764D02*
D03*
Y135094D02*
D03*
X134826Y126433D02*
D03*
Y135094D02*
D03*
X139156Y126433D02*
D03*
Y130764D02*
D03*
Y135094D02*
D03*
X25197Y211146D02*
D03*
X119685Y126772D02*
D03*
Y130709D02*
D03*
X126772Y114961D02*
D03*
X88189Y74410D02*
D03*
X92126Y132835D02*
D03*
X100394Y133465D02*
D03*
X188583Y230709D02*
D03*
X193307D02*
D03*
X196926Y230728D02*
D03*
X190945Y232677D02*
D03*
X200000Y230709D02*
D03*
X202969D02*
D03*
X206299D02*
D03*
X150787Y245669D02*
D03*
X122047Y146063D02*
D03*
X98721Y139170D02*
D03*
X39315Y208232D02*
D03*
X25197Y203543D02*
D03*
X38109Y220079D02*
D03*
X41339Y220079D02*
D03*
X47942Y240140D02*
D03*
X118898Y145276D02*
D03*
X195276Y241406D02*
D03*
X152756Y234130D02*
D03*
Y240158D02*
D03*
Y237098D02*
D03*
X179134Y227953D02*
D03*
Y224803D02*
D03*
X152756Y243307D02*
D03*
X160236Y231102D02*
D03*
X175591Y242520D02*
D03*
X50981Y260630D02*
D03*
Y253543D02*
D03*
X190945Y218898D02*
D03*
Y214961D02*
D03*
Y211024D02*
D03*
X194882Y218898D02*
D03*
Y214961D02*
D03*
Y211024D02*
D03*
X187008Y218898D02*
D03*
Y214961D02*
D03*
Y211024D02*
D03*
X61417Y146457D02*
D03*
X58268D02*
D03*
X135039Y144882D02*
D03*
X137522Y146537D02*
D03*
X42232Y74536D02*
D03*
X65066D02*
D03*
X64961Y71260D02*
D03*
X42126D02*
D03*
X88189Y71260D02*
D03*
X87795Y50394D02*
D03*
X65104Y50472D02*
D03*
X42126Y50866D02*
D03*
X123228Y103642D02*
D03*
X120177Y149606D02*
D03*
X14173Y116142D02*
D03*
Y121260D02*
D03*
X204642Y213700D02*
D03*
X124803Y144488D02*
D03*
X139764Y116142D02*
D03*
X142873Y114920D02*
D03*
X175197Y206693D02*
D03*
X197244Y255906D02*
D03*
Y260236D02*
D03*
X11024Y218110D02*
D03*
Y221811D02*
D03*
X11417Y211811D02*
D03*
X48819Y170473D02*
D03*
X92005Y103637D02*
D03*
X129804Y116268D02*
D03*
X97123Y103637D02*
D03*
X9449Y176772D02*
D03*
X207406Y211737D02*
D03*
X29134Y191339D02*
D03*
Y154331D02*
D03*
X9449Y170079D02*
D03*
X32283Y165748D02*
D03*
X28740Y177559D02*
D03*
X29134Y157087D02*
D03*
Y159843D02*
D03*
Y185827D02*
D03*
X31496Y175984D02*
D03*
X29134Y188583D02*
D03*
X61024Y224016D02*
D03*
X11024Y227874D02*
D03*
Y233937D02*
D03*
X57087Y224016D02*
D03*
X101698Y69978D02*
D03*
X127582Y70271D02*
D03*
X92126Y122835D02*
D03*
X57087Y245276D02*
D03*
X57083Y240158D02*
D03*
X51968Y245276D02*
D03*
X48028Y245276D02*
D03*
X44682Y253543D02*
D03*
Y260630D02*
D03*
X37497D02*
D03*
Y253543D02*
D03*
X30312D02*
D03*
Y260630D02*
D03*
X24409Y260630D02*
D03*
Y253543D02*
D03*
X22835Y246063D02*
D03*
X61020Y240158D02*
D03*
X51879Y240140D02*
D03*
X51968Y224016D02*
D03*
X25197Y218504D02*
D03*
X22831Y239764D02*
D03*
Y223228D02*
D03*
X19682D02*
D03*
X19288Y239764D02*
D03*
X11024Y240000D02*
D03*
X5906Y227949D02*
D03*
Y215748D02*
D03*
Y240150D02*
D03*
Y234050D02*
D03*
X61024Y245276D02*
D03*
X5906Y221849D02*
D03*
X187274Y246583D02*
D03*
Y243433D02*
D03*
X190468Y161462D02*
D03*
X180315Y161417D02*
D03*
X193701Y161417D02*
D03*
X150000D02*
D03*
X153150D02*
D03*
X163386D02*
D03*
X166619Y161372D02*
D03*
X177165Y161417D02*
D03*
X42850Y112155D02*
D03*
X149293Y130071D02*
D03*
X152347Y129676D02*
D03*
X112087Y120204D02*
D03*
X101181Y120473D02*
D03*
X106749Y120211D02*
D03*
X152390Y132373D02*
D03*
X149293Y132702D02*
D03*
X29134Y165748D02*
D03*
X105883Y51776D02*
D03*
X125174D02*
D03*
X168928Y261367D02*
D03*
X149636D02*
D03*
X153382Y181907D02*
D03*
X150000Y181890D02*
D03*
X163386D02*
D03*
D157*
X401665Y100397D02*
D03*
D158*
X344184D02*
D03*
D159*
X340641Y62602D02*
D03*
X401665D02*
D03*
D160*
X396940Y104334D02*
D03*
X362295D02*
D03*
X366625D02*
D03*
X370956D02*
D03*
X375287D02*
D03*
X379618D02*
D03*
X383948D02*
D03*
X388279D02*
D03*
X392610D02*
D03*
D161*
X94260Y176980D02*
Y180756D01*
X103978Y212558D02*
X103988Y212569D01*
Y215810D02*
X103999Y215821D01*
X103988Y212569D02*
Y215810D01*
X121274Y197051D02*
X124339D01*
X121231Y197094D02*
X121274Y197051D01*
X121077Y197094D02*
X121231D01*
X124339Y197051D02*
X124405Y196985D01*
X5512Y170374D02*
Y176772D01*
D162*
X200000Y230861D02*
X200913Y231774D01*
X202055D02*
Y237315D01*
X202969Y230709D02*
Y230861D01*
X200000Y230709D02*
Y230861D01*
X202055Y231774D02*
X202969Y230861D01*
X199698Y238057D02*
X200913Y236842D01*
Y231774D02*
Y236842D01*
X153776Y238057D02*
X199698D01*
X200171Y239199D02*
X202055Y237315D01*
X153776Y239199D02*
X200171D01*
X152756Y237098D02*
X152818D01*
Y240158D02*
X153776Y239199D01*
X152756Y240158D02*
X152818D01*
Y237098D02*
X153776Y238057D01*
M02*
