G04*
G04 #@! TF.GenerationSoftware,Altium Limited,Altium Designer,22.9.1 (49)*
G04*
G04 Layer_Color=32896*
%FSLAX25Y25*%
%MOIN*%
G70*
G04*
G04 #@! TF.SameCoordinates,09DA8A7C-0E06-47C8-8122-5E973528E8BD*
G04*
G04*
G04 #@! TF.FilePolarity,Positive*
G04*
G01*
G75*
%ADD10C,0.00394*%
%ADD12C,0.00787*%
D10*
X-4276Y155163D02*
X25370D01*
Y190360D01*
X-4276D02*
X25370D01*
X-4276Y155163D02*
Y190360D01*
D12*
X140551Y225000D02*
Y226969D01*
Y225000D02*
X144488D01*
Y226969D01*
X140551D02*
X144488D01*
X84303Y218075D02*
Y220240D01*
Y218075D02*
X88437D01*
Y220240D01*
X84303D02*
X88437D01*
X183071Y207087D02*
X198819D01*
Y222835D01*
X183071D02*
X198819D01*
X183071Y207087D02*
Y222835D01*
X183246Y240820D02*
Y249088D01*
Y240820D02*
X191514D01*
Y249088D01*
X183246D02*
X191514D01*
X31651Y223616D02*
X37950D01*
X31651D02*
Y235034D01*
X37950D01*
Y223616D02*
Y235034D01*
X91142Y120079D02*
X93110D01*
X91142Y116142D02*
Y120079D01*
Y116142D02*
X93110D01*
Y120079D01*
X102245Y134181D02*
X106182D01*
Y132212D02*
Y134181D01*
X102245Y132212D02*
X106182D01*
X102245D02*
Y134181D01*
M02*
