G04*
G04 #@! TF.GenerationSoftware,Altium Limited,Altium Designer,22.9.1 (49)*
G04*
G04 Layer_Physical_Order=2*
G04 Layer_Color=6736896*
%FSLAX25Y25*%
%MOIN*%
G70*
G04*
G04 #@! TF.SameCoordinates,09DA8A7C-0E06-47C8-8122-5E973528E8BD*
G04*
G04*
G04 #@! TF.FilePolarity,Positive*
G04*
G01*
G75*
%ADD148O,0.03543X0.06102*%
%ADD149C,0.06496*%
%ADD151C,0.05504*%
%ADD154C,0.06024*%
%ADD156C,0.01968*%
G36*
X425194Y265911D02*
X425650Y265450D01*
X425891Y264848D01*
X425884Y264524D01*
X425886Y264515D01*
X425884Y264508D01*
X425889Y257657D01*
X425389Y257617D01*
X425329Y258001D01*
X424812Y259592D01*
X424052Y261083D01*
X423069Y262437D01*
X421886Y263620D01*
X420532Y264603D01*
X419041Y265363D01*
X418142Y265655D01*
X418221Y266155D01*
X424263Y266155D01*
X424267Y266156D01*
X424270Y266155D01*
X424594Y266158D01*
X425194Y265911D01*
D02*
G37*
G36*
X2484Y266139D02*
X2492Y266141D01*
X2500Y266139D01*
X8974Y266140D01*
X9053Y265639D01*
X7587Y265163D01*
X6096Y264403D01*
X4742Y263420D01*
X3559Y262237D01*
X2576Y260883D01*
X1816Y259392D01*
X1346Y257944D01*
X846Y258025D01*
X883Y264544D01*
X882Y264550D01*
X883Y264555D01*
X880Y264874D01*
X1123Y265462D01*
X1575Y265909D01*
X2166Y266145D01*
X2484Y266139D01*
D02*
G37*
G36*
X411779Y265655D02*
X410880Y265363D01*
X409389Y264603D01*
X408036Y263620D01*
X406853Y262437D01*
X405869Y261083D01*
X405110Y259592D01*
X404593Y258001D01*
X404331Y256348D01*
Y254675D01*
X404593Y253023D01*
X405110Y251431D01*
X405869Y249940D01*
X406853Y248587D01*
X408036Y247404D01*
X409389Y246420D01*
X410880Y245661D01*
X412471Y245144D01*
X414124Y244882D01*
X415797D01*
X417450Y245144D01*
X419041Y245661D01*
X420532Y246420D01*
X421886Y247404D01*
X423069Y248587D01*
X424052Y249940D01*
X424812Y251431D01*
X425329Y253023D01*
X425393Y253427D01*
X425893Y253388D01*
X426043Y60954D01*
X425543Y60914D01*
X425529Y61007D01*
X425012Y62598D01*
X424252Y64089D01*
X423269Y65443D01*
X422086Y66626D01*
X420732Y67609D01*
X419241Y68369D01*
X417650Y68886D01*
X415997Y69148D01*
X414324D01*
X412672Y68886D01*
X411080Y68369D01*
X409589Y67609D01*
X408236Y66626D01*
X407053Y65443D01*
X406069Y64089D01*
X405309Y62598D01*
X404792Y61007D01*
X404531Y59354D01*
Y57681D01*
X404792Y56028D01*
X405309Y54437D01*
X406069Y52946D01*
X407053Y51593D01*
X408236Y50410D01*
X409589Y49426D01*
X411080Y48667D01*
X412672Y48149D01*
X413263Y48056D01*
X413224Y47556D01*
X12980Y47194D01*
X12941Y47694D01*
X12975Y47699D01*
X14567Y48217D01*
X16058Y48976D01*
X17411Y49960D01*
X18594Y51143D01*
X19578Y52496D01*
X20337Y53987D01*
X20854Y55579D01*
X21116Y57231D01*
Y58904D01*
X20854Y60557D01*
X20337Y62148D01*
X19578Y63639D01*
X18594Y64993D01*
X17411Y66176D01*
X16058Y67159D01*
X14567Y67919D01*
X12975Y68436D01*
X11323Y68698D01*
X9650D01*
X7997Y68436D01*
X6406Y67919D01*
X4915Y67159D01*
X3561Y66176D01*
X2378Y64993D01*
X1395Y63639D01*
X635Y62148D01*
X234Y60914D01*
X-265Y60995D01*
X816Y252727D01*
X1299Y252823D01*
X1816Y251231D01*
X2576Y249741D01*
X3559Y248387D01*
X4742Y247204D01*
X6096Y246220D01*
X7587Y245461D01*
X9178Y244944D01*
X10831Y244682D01*
X12504D01*
X14156Y244944D01*
X15748Y245461D01*
X17239Y246220D01*
X18592Y247204D01*
X19775Y248387D01*
X20759Y249741D01*
X21519Y251231D01*
X22036Y252823D01*
X22138Y253468D01*
X22638Y253429D01*
Y253191D01*
X22907Y252540D01*
X23406Y252041D01*
X24057Y251772D01*
X24762D01*
X25413Y252041D01*
X25911Y252540D01*
X26181Y253191D01*
Y253896D01*
X25911Y254547D01*
X25413Y255045D01*
X24762Y255315D01*
X24057D01*
X23406Y255045D01*
X22907Y254547D01*
X22757Y254185D01*
X22273Y254321D01*
X22297Y254475D01*
Y256148D01*
X22036Y257801D01*
X21519Y259392D01*
X20759Y260883D01*
X19775Y262237D01*
X18592Y263420D01*
X17239Y264403D01*
X15748Y265163D01*
X14281Y265640D01*
X14360Y266140D01*
X411700Y266155D01*
X411779Y265655D01*
D02*
G37*
G36*
X426047Y56106D02*
X426051Y50736D01*
X426052Y50733D01*
X426052Y50730D01*
X426054Y50415D01*
X425934Y49797D01*
X425694Y49215D01*
X425344Y48693D01*
X424896Y48250D01*
X424370Y47905D01*
X423785Y47671D01*
X423166Y47558D01*
X422852Y47564D01*
X422843Y47563D01*
X422835Y47565D01*
X417120Y47559D01*
X417080Y48059D01*
X417650Y48149D01*
X419241Y48667D01*
X420732Y49426D01*
X422086Y50410D01*
X423269Y51593D01*
X424252Y52946D01*
X425012Y54437D01*
X425529Y56028D01*
X425547Y56145D01*
X426047Y56106D01*
D02*
G37*
G36*
X635Y53987D02*
X1395Y52496D01*
X2378Y51143D01*
X3561Y49960D01*
X4915Y48976D01*
X6406Y48217D01*
X7997Y47699D01*
X8060Y47690D01*
X8020Y47190D01*
X1553Y47184D01*
X1546Y47182D01*
X1539Y47184D01*
X1354Y47180D01*
X992Y47246D01*
X651Y47383D01*
X343Y47585D01*
X81Y47843D01*
X-124Y48149D01*
X-264Y48489D01*
X-335Y48851D01*
X-333Y49035D01*
X-333Y49036D01*
X-333Y49037D01*
X-298Y55241D01*
X203Y55318D01*
X635Y53987D01*
D02*
G37*
%LPC*%
G36*
X367718Y263204D02*
X367419D01*
Y259781D01*
X370842D01*
Y260080D01*
X370597Y260995D01*
X370123Y261816D01*
X369453Y262485D01*
X368633Y262959D01*
X367718Y263204D01*
D02*
G37*
G36*
X367069D02*
X366770D01*
X365855Y262959D01*
X365035Y262485D01*
X364365Y261816D01*
X363891Y260995D01*
X363646Y260080D01*
Y259781D01*
X367069D01*
Y263204D01*
D02*
G37*
G36*
X347718D02*
X347419D01*
Y259781D01*
X350842D01*
Y260080D01*
X350597Y260995D01*
X350123Y261816D01*
X349453Y262485D01*
X348633Y262959D01*
X347718Y263204D01*
D02*
G37*
G36*
X347069D02*
X346770D01*
X345855Y262959D01*
X345035Y262485D01*
X344365Y261816D01*
X343891Y260995D01*
X343646Y260080D01*
Y259781D01*
X347069D01*
Y263204D01*
D02*
G37*
G36*
X297718D02*
X297419D01*
Y259781D01*
X300842D01*
Y260080D01*
X300597Y260995D01*
X300123Y261816D01*
X299453Y262485D01*
X298633Y262959D01*
X297718Y263204D01*
D02*
G37*
G36*
X297069D02*
X296770D01*
X295855Y262959D01*
X295035Y262485D01*
X294365Y261816D01*
X293891Y260995D01*
X293646Y260080D01*
Y259781D01*
X297069D01*
Y263204D01*
D02*
G37*
G36*
X267718D02*
X267419D01*
Y259781D01*
X270842D01*
Y260080D01*
X270597Y260995D01*
X270123Y261816D01*
X269453Y262485D01*
X268633Y262959D01*
X267718Y263204D01*
D02*
G37*
G36*
X267069D02*
X266770D01*
X265855Y262959D01*
X265035Y262485D01*
X264365Y261816D01*
X263891Y260995D01*
X263646Y260080D01*
Y259781D01*
X267069D01*
Y263204D01*
D02*
G37*
G36*
X227718D02*
X227419D01*
Y259781D01*
X230842D01*
Y260080D01*
X230597Y260995D01*
X230123Y261816D01*
X229453Y262485D01*
X228633Y262959D01*
X227718Y263204D01*
D02*
G37*
G36*
X227069D02*
X226770D01*
X225855Y262959D01*
X225035Y262485D01*
X224365Y261816D01*
X223891Y260995D01*
X223646Y260080D01*
Y259781D01*
X227069D01*
Y263204D01*
D02*
G37*
G36*
X51333Y262402D02*
X50628D01*
X49977Y262132D01*
X49479Y261633D01*
X49209Y260982D01*
Y260278D01*
X49479Y259626D01*
X49977Y259128D01*
X50628Y258858D01*
X51333D01*
X51984Y259128D01*
X52483Y259626D01*
X52753Y260278D01*
Y260982D01*
X52483Y261633D01*
X51984Y262132D01*
X51333Y262402D01*
D02*
G37*
G36*
X45034D02*
X44329D01*
X43678Y262132D01*
X43180Y261633D01*
X42910Y260982D01*
Y260278D01*
X43180Y259626D01*
X43678Y259128D01*
X44329Y258858D01*
X45034D01*
X45685Y259128D01*
X46183Y259626D01*
X46453Y260278D01*
Y260982D01*
X46183Y261633D01*
X45685Y262132D01*
X45034Y262402D01*
D02*
G37*
G36*
X37849D02*
X37144D01*
X36493Y262132D01*
X35995Y261633D01*
X35725Y260982D01*
Y260278D01*
X35995Y259626D01*
X36493Y259128D01*
X37144Y258858D01*
X37849D01*
X38500Y259128D01*
X38998Y259626D01*
X39268Y260278D01*
Y260982D01*
X38998Y261633D01*
X38500Y262132D01*
X37849Y262402D01*
D02*
G37*
G36*
X30664D02*
X29959D01*
X29308Y262132D01*
X28810Y261633D01*
X28540Y260982D01*
Y260278D01*
X28810Y259626D01*
X29308Y259128D01*
X29959Y258858D01*
X30664D01*
X31315Y259128D01*
X31813Y259626D01*
X32083Y260278D01*
Y260982D01*
X31813Y261633D01*
X31315Y262132D01*
X30664Y262402D01*
D02*
G37*
G36*
X24762Y262402D02*
X24057D01*
X23406Y262132D01*
X22907Y261633D01*
X22638Y260982D01*
Y260278D01*
X22907Y259626D01*
X23406Y259128D01*
X24057Y258858D01*
X24762D01*
X25413Y259128D01*
X25911Y259626D01*
X26181Y260278D01*
Y260982D01*
X25911Y261633D01*
X25413Y262132D01*
X24762Y262402D01*
D02*
G37*
G36*
X370842Y259431D02*
X367419D01*
Y256008D01*
X367718D01*
X368633Y256254D01*
X369453Y256727D01*
X370123Y257397D01*
X370597Y258218D01*
X370842Y259133D01*
Y259431D01*
D02*
G37*
G36*
X367069D02*
X363646D01*
Y259133D01*
X363891Y258218D01*
X364365Y257397D01*
X365035Y256727D01*
X365855Y256254D01*
X366770Y256008D01*
X367069D01*
Y259431D01*
D02*
G37*
G36*
X350842D02*
X347419D01*
Y256008D01*
X347718D01*
X348633Y256254D01*
X349453Y256727D01*
X350123Y257397D01*
X350597Y258218D01*
X350842Y259133D01*
Y259431D01*
D02*
G37*
G36*
X347069D02*
X343646D01*
Y259133D01*
X343891Y258218D01*
X344365Y257397D01*
X345035Y256727D01*
X345855Y256254D01*
X346770Y256008D01*
X347069D01*
Y259431D01*
D02*
G37*
G36*
X300842D02*
X297419D01*
Y256008D01*
X297718D01*
X298633Y256254D01*
X299453Y256727D01*
X300123Y257397D01*
X300597Y258218D01*
X300842Y259133D01*
Y259431D01*
D02*
G37*
G36*
X297069D02*
X293646D01*
Y259133D01*
X293891Y258218D01*
X294365Y257397D01*
X295035Y256727D01*
X295855Y256254D01*
X296770Y256008D01*
X297069D01*
Y259431D01*
D02*
G37*
G36*
X270842D02*
X267419D01*
Y256008D01*
X267718D01*
X268633Y256254D01*
X269453Y256727D01*
X270123Y257397D01*
X270597Y258218D01*
X270842Y259133D01*
Y259431D01*
D02*
G37*
G36*
X267069D02*
X263646D01*
Y259133D01*
X263891Y258218D01*
X264365Y257397D01*
X265035Y256727D01*
X265855Y256254D01*
X266770Y256008D01*
X267069D01*
Y259431D01*
D02*
G37*
G36*
X230842D02*
X227419D01*
Y256008D01*
X227718D01*
X228633Y256254D01*
X229453Y256727D01*
X230123Y257397D01*
X230597Y258218D01*
X230842Y259133D01*
Y259431D01*
D02*
G37*
G36*
X227069D02*
X223646D01*
Y259133D01*
X223891Y258218D01*
X224365Y257397D01*
X225035Y256727D01*
X225855Y256254D01*
X226770Y256008D01*
X227069D01*
Y259431D01*
D02*
G37*
G36*
X397775Y263642D02*
X396713D01*
X395687Y263367D01*
X394766Y262835D01*
X394015Y262084D01*
X393484Y261164D01*
X393209Y260138D01*
Y259075D01*
X393484Y258049D01*
X394015Y257129D01*
X394766Y256377D01*
X395687Y255846D01*
X396713Y255571D01*
X397775D01*
X398802Y255846D01*
X399722Y256377D01*
X400473Y257129D01*
X401005Y258049D01*
X401279Y259075D01*
Y260138D01*
X401005Y261164D01*
X400473Y262084D01*
X399722Y262835D01*
X398802Y263367D01*
X397775Y263642D01*
D02*
G37*
G36*
X387775D02*
X386713D01*
X385686Y263367D01*
X384766Y262835D01*
X384015Y262084D01*
X383484Y261164D01*
X383209Y260138D01*
Y259075D01*
X383484Y258049D01*
X384015Y257129D01*
X384766Y256377D01*
X385686Y255846D01*
X386713Y255571D01*
X387775D01*
X388802Y255846D01*
X389722Y256377D01*
X390473Y257129D01*
X391004Y258049D01*
X391280Y259075D01*
Y260138D01*
X391004Y261164D01*
X390473Y262084D01*
X389722Y262835D01*
X388802Y263367D01*
X387775Y263642D01*
D02*
G37*
G36*
X377775D02*
X376713D01*
X375687Y263367D01*
X374766Y262835D01*
X374015Y262084D01*
X373484Y261164D01*
X373209Y260138D01*
Y259075D01*
X373484Y258049D01*
X374015Y257129D01*
X374766Y256377D01*
X375687Y255846D01*
X376713Y255571D01*
X377775D01*
X378802Y255846D01*
X379722Y256377D01*
X380473Y257129D01*
X381005Y258049D01*
X381279Y259075D01*
Y260138D01*
X381005Y261164D01*
X380473Y262084D01*
X379722Y262835D01*
X378802Y263367D01*
X377775Y263642D01*
D02*
G37*
G36*
X357775D02*
X356713D01*
X355686Y263367D01*
X354766Y262835D01*
X354015Y262084D01*
X353484Y261164D01*
X353209Y260138D01*
Y259075D01*
X353484Y258049D01*
X354015Y257129D01*
X354766Y256377D01*
X355686Y255846D01*
X356713Y255571D01*
X357775D01*
X358802Y255846D01*
X359722Y256377D01*
X360473Y257129D01*
X361004Y258049D01*
X361280Y259075D01*
Y260138D01*
X361004Y261164D01*
X360473Y262084D01*
X359722Y262835D01*
X358802Y263367D01*
X357775Y263642D01*
D02*
G37*
G36*
X337775D02*
X336713D01*
X335686Y263367D01*
X334766Y262835D01*
X334015Y262084D01*
X333484Y261164D01*
X333209Y260138D01*
Y259075D01*
X333484Y258049D01*
X334015Y257129D01*
X334766Y256377D01*
X335686Y255846D01*
X336713Y255571D01*
X337775D01*
X338802Y255846D01*
X339722Y256377D01*
X340473Y257129D01*
X341004Y258049D01*
X341280Y259075D01*
Y260138D01*
X341004Y261164D01*
X340473Y262084D01*
X339722Y262835D01*
X338802Y263367D01*
X337775Y263642D01*
D02*
G37*
G36*
X327775D02*
X326713D01*
X325687Y263367D01*
X324766Y262835D01*
X324015Y262084D01*
X323484Y261164D01*
X323209Y260138D01*
Y259075D01*
X323484Y258049D01*
X324015Y257129D01*
X324766Y256377D01*
X325687Y255846D01*
X326713Y255571D01*
X327775D01*
X328802Y255846D01*
X329722Y256377D01*
X330473Y257129D01*
X331005Y258049D01*
X331279Y259075D01*
Y260138D01*
X331005Y261164D01*
X330473Y262084D01*
X329722Y262835D01*
X328802Y263367D01*
X327775Y263642D01*
D02*
G37*
G36*
X317775D02*
X316713D01*
X315686Y263367D01*
X314766Y262835D01*
X314015Y262084D01*
X313484Y261164D01*
X313209Y260138D01*
Y259075D01*
X313484Y258049D01*
X314015Y257129D01*
X314766Y256377D01*
X315686Y255846D01*
X316713Y255571D01*
X317775D01*
X318802Y255846D01*
X319722Y256377D01*
X320473Y257129D01*
X321005Y258049D01*
X321280Y259075D01*
Y260138D01*
X321005Y261164D01*
X320473Y262084D01*
X319722Y262835D01*
X318802Y263367D01*
X317775Y263642D01*
D02*
G37*
G36*
X307775D02*
X306713D01*
X305686Y263367D01*
X304766Y262835D01*
X304015Y262084D01*
X303484Y261164D01*
X303209Y260138D01*
Y259075D01*
X303484Y258049D01*
X304015Y257129D01*
X304766Y256377D01*
X305686Y255846D01*
X306713Y255571D01*
X307775D01*
X308802Y255846D01*
X309722Y256377D01*
X310473Y257129D01*
X311004Y258049D01*
X311280Y259075D01*
Y260138D01*
X311004Y261164D01*
X310473Y262084D01*
X309722Y262835D01*
X308802Y263367D01*
X307775Y263642D01*
D02*
G37*
G36*
X287775D02*
X286713D01*
X285686Y263367D01*
X284766Y262835D01*
X284015Y262084D01*
X283484Y261164D01*
X283209Y260138D01*
Y259075D01*
X283484Y258049D01*
X284015Y257129D01*
X284766Y256377D01*
X285686Y255846D01*
X286713Y255571D01*
X287775D01*
X288802Y255846D01*
X289722Y256377D01*
X290473Y257129D01*
X291004Y258049D01*
X291280Y259075D01*
Y260138D01*
X291004Y261164D01*
X290473Y262084D01*
X289722Y262835D01*
X288802Y263367D01*
X287775Y263642D01*
D02*
G37*
G36*
X277775D02*
X276713D01*
X275687Y263367D01*
X274766Y262835D01*
X274015Y262084D01*
X273484Y261164D01*
X273209Y260138D01*
Y259075D01*
X273484Y258049D01*
X274015Y257129D01*
X274766Y256377D01*
X275687Y255846D01*
X276713Y255571D01*
X277775D01*
X278802Y255846D01*
X279722Y256377D01*
X280473Y257129D01*
X281005Y258049D01*
X281279Y259075D01*
Y260138D01*
X281005Y261164D01*
X280473Y262084D01*
X279722Y262835D01*
X278802Y263367D01*
X277775Y263642D01*
D02*
G37*
G36*
X257775D02*
X256713D01*
X255686Y263367D01*
X254766Y262835D01*
X254015Y262084D01*
X253484Y261164D01*
X253209Y260138D01*
Y259075D01*
X253484Y258049D01*
X254015Y257129D01*
X254766Y256377D01*
X255686Y255846D01*
X256713Y255571D01*
X257775D01*
X258802Y255846D01*
X259722Y256377D01*
X260473Y257129D01*
X261004Y258049D01*
X261280Y259075D01*
Y260138D01*
X261004Y261164D01*
X260473Y262084D01*
X259722Y262835D01*
X258802Y263367D01*
X257775Y263642D01*
D02*
G37*
G36*
X247775D02*
X246713D01*
X245687Y263367D01*
X244766Y262835D01*
X244015Y262084D01*
X243484Y261164D01*
X243209Y260138D01*
Y259075D01*
X243484Y258049D01*
X244015Y257129D01*
X244766Y256377D01*
X245687Y255846D01*
X246713Y255571D01*
X247775D01*
X248802Y255846D01*
X249722Y256377D01*
X250473Y257129D01*
X251005Y258049D01*
X251279Y259075D01*
Y260138D01*
X251005Y261164D01*
X250473Y262084D01*
X249722Y262835D01*
X248802Y263367D01*
X247775Y263642D01*
D02*
G37*
G36*
X237775D02*
X236713D01*
X235686Y263367D01*
X234766Y262835D01*
X234015Y262084D01*
X233484Y261164D01*
X233209Y260138D01*
Y259075D01*
X233484Y258049D01*
X234015Y257129D01*
X234766Y256377D01*
X235686Y255846D01*
X236713Y255571D01*
X237775D01*
X238802Y255846D01*
X239722Y256377D01*
X240473Y257129D01*
X241004Y258049D01*
X241280Y259075D01*
Y260138D01*
X241004Y261164D01*
X240473Y262084D01*
X239722Y262835D01*
X238802Y263367D01*
X237775Y263642D01*
D02*
G37*
G36*
X217775D02*
X216713D01*
X215686Y263367D01*
X214766Y262835D01*
X214015Y262084D01*
X213484Y261164D01*
X213209Y260138D01*
Y259075D01*
X213484Y258049D01*
X214015Y257129D01*
X214766Y256377D01*
X215686Y255846D01*
X216713Y255571D01*
X217775D01*
X218802Y255846D01*
X219722Y256377D01*
X220473Y257129D01*
X221005Y258049D01*
X221280Y259075D01*
Y260138D01*
X221005Y261164D01*
X220473Y262084D01*
X219722Y262835D01*
X218802Y263367D01*
X217775Y263642D01*
D02*
G37*
G36*
X207775D02*
X206713D01*
X205686Y263367D01*
X204766Y262835D01*
X204015Y262084D01*
X203484Y261164D01*
X203209Y260138D01*
Y259075D01*
X203484Y258049D01*
X204015Y257129D01*
X204766Y256377D01*
X205686Y255846D01*
X206713Y255571D01*
X207775D01*
X208802Y255846D01*
X209722Y256377D01*
X210473Y257129D01*
X211004Y258049D01*
X211280Y259075D01*
Y260138D01*
X211004Y261164D01*
X210473Y262084D01*
X209722Y262835D01*
X208802Y263367D01*
X207775Y263642D01*
D02*
G37*
G36*
X51333Y255315D02*
X50628D01*
X49977Y255045D01*
X49479Y254547D01*
X49209Y253896D01*
Y253191D01*
X49479Y252540D01*
X49977Y252041D01*
X50628Y251772D01*
X51333D01*
X51984Y252041D01*
X52483Y252540D01*
X52753Y253191D01*
Y253896D01*
X52483Y254547D01*
X51984Y255045D01*
X51333Y255315D01*
D02*
G37*
G36*
X45034D02*
X44329D01*
X43678Y255045D01*
X43180Y254547D01*
X42910Y253896D01*
Y253191D01*
X43180Y252540D01*
X43678Y252041D01*
X44329Y251772D01*
X45034D01*
X45685Y252041D01*
X46183Y252540D01*
X46453Y253191D01*
Y253896D01*
X46183Y254547D01*
X45685Y255045D01*
X45034Y255315D01*
D02*
G37*
G36*
X37849D02*
X37144D01*
X36493Y255045D01*
X35995Y254547D01*
X35725Y253896D01*
Y253191D01*
X35995Y252540D01*
X36493Y252041D01*
X37144Y251772D01*
X37849D01*
X38500Y252041D01*
X38998Y252540D01*
X39268Y253191D01*
Y253896D01*
X38998Y254547D01*
X38500Y255045D01*
X37849Y255315D01*
D02*
G37*
G36*
X30664D02*
X29959D01*
X29308Y255045D01*
X28810Y254547D01*
X28540Y253896D01*
Y253191D01*
X28810Y252540D01*
X29308Y252041D01*
X29959Y251772D01*
X30664D01*
X31315Y252041D01*
X31813Y252540D01*
X32083Y253191D01*
Y253896D01*
X31813Y254547D01*
X31315Y255045D01*
X30664Y255315D01*
D02*
G37*
G36*
X397718Y253204D02*
X397419D01*
Y249781D01*
X400842D01*
Y250080D01*
X400597Y250995D01*
X400123Y251816D01*
X399453Y252485D01*
X398633Y252959D01*
X397718Y253204D01*
D02*
G37*
G36*
X397069D02*
X396770D01*
X395855Y252959D01*
X395035Y252485D01*
X394365Y251816D01*
X393891Y250995D01*
X393646Y250080D01*
Y249781D01*
X397069D01*
Y253204D01*
D02*
G37*
G36*
X327718D02*
X327419D01*
Y249781D01*
X330842D01*
Y250080D01*
X330597Y250995D01*
X330123Y251816D01*
X329453Y252485D01*
X328633Y252959D01*
X327718Y253204D01*
D02*
G37*
G36*
X327069D02*
X326770D01*
X325855Y252959D01*
X325035Y252485D01*
X324365Y251816D01*
X323891Y250995D01*
X323646Y250080D01*
Y249781D01*
X327069D01*
Y253204D01*
D02*
G37*
G36*
X247718D02*
X247419D01*
Y249781D01*
X250842D01*
Y250080D01*
X250597Y250995D01*
X250123Y251816D01*
X249453Y252485D01*
X248633Y252959D01*
X247718Y253204D01*
D02*
G37*
G36*
X247069D02*
X246770D01*
X245855Y252959D01*
X245035Y252485D01*
X244365Y251816D01*
X243891Y250995D01*
X243646Y250080D01*
Y249781D01*
X247069D01*
Y253204D01*
D02*
G37*
G36*
X169431Y253497D02*
X167857D01*
X166896Y253307D01*
X166082Y252763D01*
X165539Y251949D01*
X165348Y250989D01*
X165539Y250028D01*
X166082Y249215D01*
X166896Y248671D01*
X167857Y248480D01*
X169431D01*
X170391Y248671D01*
X171205Y249215D01*
X171749Y250028D01*
X171940Y250989D01*
X171749Y251949D01*
X171205Y252763D01*
X170391Y253307D01*
X169431Y253497D01*
D02*
G37*
G36*
X149746D02*
X148171D01*
X147211Y253307D01*
X146397Y252763D01*
X145854Y251949D01*
X145663Y250989D01*
X145854Y250028D01*
X146397Y249215D01*
X147211Y248671D01*
X148171Y248480D01*
X149746D01*
X150706Y248671D01*
X151520Y249215D01*
X152064Y250028D01*
X152255Y250989D01*
X152064Y251949D01*
X151520Y252763D01*
X150706Y253307D01*
X149746Y253497D01*
D02*
G37*
G36*
X400842Y249431D02*
X397419D01*
Y246008D01*
X397718D01*
X398633Y246253D01*
X399453Y246727D01*
X400123Y247397D01*
X400597Y248218D01*
X400842Y249133D01*
Y249431D01*
D02*
G37*
G36*
X397069D02*
X393646D01*
Y249133D01*
X393891Y248218D01*
X394365Y247397D01*
X395035Y246727D01*
X395855Y246253D01*
X396770Y246008D01*
X397069D01*
Y249431D01*
D02*
G37*
G36*
X330842D02*
X327419D01*
Y246008D01*
X327718D01*
X328633Y246253D01*
X329453Y246727D01*
X330123Y247397D01*
X330597Y248218D01*
X330842Y249133D01*
Y249431D01*
D02*
G37*
G36*
X327069D02*
X323646D01*
Y249133D01*
X323891Y248218D01*
X324365Y247397D01*
X325035Y246727D01*
X325855Y246253D01*
X326770Y246008D01*
X327069D01*
Y249431D01*
D02*
G37*
G36*
X250842D02*
X247419D01*
Y246008D01*
X247718D01*
X248633Y246253D01*
X249453Y246727D01*
X250123Y247397D01*
X250597Y248218D01*
X250842Y249133D01*
Y249431D01*
D02*
G37*
G36*
X247069D02*
X243646D01*
Y249133D01*
X243891Y248218D01*
X244365Y247397D01*
X245035Y246727D01*
X245855Y246253D01*
X246770Y246008D01*
X247069D01*
Y249431D01*
D02*
G37*
G36*
X199138Y249495D02*
X198433D01*
X197782Y249225D01*
X197284Y248727D01*
X197014Y248076D01*
Y247371D01*
X197284Y246720D01*
X197782Y246221D01*
X198433Y245952D01*
X199138D01*
X199789Y246221D01*
X200288Y246720D01*
X200557Y247371D01*
Y248076D01*
X200288Y248727D01*
X199789Y249225D01*
X199138Y249495D01*
D02*
G37*
G36*
X61376Y247047D02*
X60671D01*
X60020Y246778D01*
X59522Y246279D01*
X59320Y245793D01*
X58790D01*
X58588Y246279D01*
X58090Y246778D01*
X57439Y247047D01*
X56734D01*
X56083Y246778D01*
X55585Y246279D01*
X55315Y245628D01*
Y244923D01*
X55585Y244272D01*
X56083Y243774D01*
X56734Y243504D01*
X57439D01*
X58090Y243774D01*
X58588Y244272D01*
X58790Y244759D01*
X59320D01*
X59522Y244272D01*
X60020Y243774D01*
X60671Y243504D01*
X61376D01*
X62027Y243774D01*
X62525Y244272D01*
X62795Y244923D01*
Y245628D01*
X62525Y246279D01*
X62027Y246778D01*
X61376Y247047D01*
D02*
G37*
G36*
X387775Y253642D02*
X386713D01*
X385686Y253367D01*
X384766Y252835D01*
X384015Y252084D01*
X383484Y251164D01*
X383209Y250138D01*
Y249075D01*
X383484Y248049D01*
X384015Y247129D01*
X384766Y246377D01*
X385686Y245846D01*
X386713Y245571D01*
X387775D01*
X388802Y245846D01*
X389722Y246377D01*
X390473Y247129D01*
X391004Y248049D01*
X391280Y249075D01*
Y250138D01*
X391004Y251164D01*
X390473Y252084D01*
X389722Y252835D01*
X388802Y253367D01*
X387775Y253642D01*
D02*
G37*
G36*
X377775D02*
X376713D01*
X375687Y253367D01*
X374766Y252835D01*
X374015Y252084D01*
X373484Y251164D01*
X373209Y250138D01*
Y249075D01*
X373484Y248049D01*
X374015Y247129D01*
X374766Y246377D01*
X375687Y245846D01*
X376713Y245571D01*
X377775D01*
X378802Y245846D01*
X379722Y246377D01*
X380473Y247129D01*
X381005Y248049D01*
X381279Y249075D01*
Y250138D01*
X381005Y251164D01*
X380473Y252084D01*
X379722Y252835D01*
X378802Y253367D01*
X377775Y253642D01*
D02*
G37*
G36*
X367775D02*
X366713D01*
X365686Y253367D01*
X364766Y252835D01*
X364015Y252084D01*
X363484Y251164D01*
X363209Y250138D01*
Y249075D01*
X363484Y248049D01*
X364015Y247129D01*
X364766Y246377D01*
X365686Y245846D01*
X366713Y245571D01*
X367775D01*
X368802Y245846D01*
X369722Y246377D01*
X370473Y247129D01*
X371005Y248049D01*
X371280Y249075D01*
Y250138D01*
X371005Y251164D01*
X370473Y252084D01*
X369722Y252835D01*
X368802Y253367D01*
X367775Y253642D01*
D02*
G37*
G36*
X357775D02*
X356713D01*
X355686Y253367D01*
X354766Y252835D01*
X354015Y252084D01*
X353484Y251164D01*
X353209Y250138D01*
Y249075D01*
X353484Y248049D01*
X354015Y247129D01*
X354766Y246377D01*
X355686Y245846D01*
X356713Y245571D01*
X357775D01*
X358802Y245846D01*
X359722Y246377D01*
X360473Y247129D01*
X361004Y248049D01*
X361280Y249075D01*
Y250138D01*
X361004Y251164D01*
X360473Y252084D01*
X359722Y252835D01*
X358802Y253367D01*
X357775Y253642D01*
D02*
G37*
G36*
X347775D02*
X346713D01*
X345687Y253367D01*
X344766Y252835D01*
X344015Y252084D01*
X343484Y251164D01*
X343209Y250138D01*
Y249075D01*
X343484Y248049D01*
X344015Y247129D01*
X344766Y246377D01*
X345687Y245846D01*
X346713Y245571D01*
X347775D01*
X348802Y245846D01*
X349722Y246377D01*
X350473Y247129D01*
X351005Y248049D01*
X351279Y249075D01*
Y250138D01*
X351005Y251164D01*
X350473Y252084D01*
X349722Y252835D01*
X348802Y253367D01*
X347775Y253642D01*
D02*
G37*
G36*
X337775D02*
X336713D01*
X335686Y253367D01*
X334766Y252835D01*
X334015Y252084D01*
X333484Y251164D01*
X333209Y250138D01*
Y249075D01*
X333484Y248049D01*
X334015Y247129D01*
X334766Y246377D01*
X335686Y245846D01*
X336713Y245571D01*
X337775D01*
X338802Y245846D01*
X339722Y246377D01*
X340473Y247129D01*
X341004Y248049D01*
X341280Y249075D01*
Y250138D01*
X341004Y251164D01*
X340473Y252084D01*
X339722Y252835D01*
X338802Y253367D01*
X337775Y253642D01*
D02*
G37*
G36*
X317775D02*
X316713D01*
X315686Y253367D01*
X314766Y252835D01*
X314015Y252084D01*
X313484Y251164D01*
X313209Y250138D01*
Y249075D01*
X313484Y248049D01*
X314015Y247129D01*
X314766Y246377D01*
X315686Y245846D01*
X316713Y245571D01*
X317775D01*
X318802Y245846D01*
X319722Y246377D01*
X320473Y247129D01*
X321005Y248049D01*
X321280Y249075D01*
Y250138D01*
X321005Y251164D01*
X320473Y252084D01*
X319722Y252835D01*
X318802Y253367D01*
X317775Y253642D01*
D02*
G37*
G36*
X307775D02*
X306713D01*
X305686Y253367D01*
X304766Y252835D01*
X304015Y252084D01*
X303484Y251164D01*
X303209Y250138D01*
Y249075D01*
X303484Y248049D01*
X304015Y247129D01*
X304766Y246377D01*
X305686Y245846D01*
X306713Y245571D01*
X307775D01*
X308802Y245846D01*
X309722Y246377D01*
X310473Y247129D01*
X311004Y248049D01*
X311280Y249075D01*
Y250138D01*
X311004Y251164D01*
X310473Y252084D01*
X309722Y252835D01*
X308802Y253367D01*
X307775Y253642D01*
D02*
G37*
G36*
X297775D02*
X296713D01*
X295687Y253367D01*
X294766Y252835D01*
X294015Y252084D01*
X293484Y251164D01*
X293209Y250138D01*
Y249075D01*
X293484Y248049D01*
X294015Y247129D01*
X294766Y246377D01*
X295687Y245846D01*
X296713Y245571D01*
X297775D01*
X298802Y245846D01*
X299722Y246377D01*
X300473Y247129D01*
X301005Y248049D01*
X301279Y249075D01*
Y250138D01*
X301005Y251164D01*
X300473Y252084D01*
X299722Y252835D01*
X298802Y253367D01*
X297775Y253642D01*
D02*
G37*
G36*
X287775D02*
X286713D01*
X285686Y253367D01*
X284766Y252835D01*
X284015Y252084D01*
X283484Y251164D01*
X283209Y250138D01*
Y249075D01*
X283484Y248049D01*
X284015Y247129D01*
X284766Y246377D01*
X285686Y245846D01*
X286713Y245571D01*
X287775D01*
X288802Y245846D01*
X289722Y246377D01*
X290473Y247129D01*
X291004Y248049D01*
X291280Y249075D01*
Y250138D01*
X291004Y251164D01*
X290473Y252084D01*
X289722Y252835D01*
X288802Y253367D01*
X287775Y253642D01*
D02*
G37*
G36*
X277775D02*
X276713D01*
X275687Y253367D01*
X274766Y252835D01*
X274015Y252084D01*
X273484Y251164D01*
X273209Y250138D01*
Y249075D01*
X273484Y248049D01*
X274015Y247129D01*
X274766Y246377D01*
X275687Y245846D01*
X276713Y245571D01*
X277775D01*
X278802Y245846D01*
X279722Y246377D01*
X280473Y247129D01*
X281005Y248049D01*
X281279Y249075D01*
Y250138D01*
X281005Y251164D01*
X280473Y252084D01*
X279722Y252835D01*
X278802Y253367D01*
X277775Y253642D01*
D02*
G37*
G36*
X267775D02*
X266713D01*
X265686Y253367D01*
X264766Y252835D01*
X264015Y252084D01*
X263484Y251164D01*
X263209Y250138D01*
Y249075D01*
X263484Y248049D01*
X264015Y247129D01*
X264766Y246377D01*
X265686Y245846D01*
X266713Y245571D01*
X267775D01*
X268802Y245846D01*
X269722Y246377D01*
X270473Y247129D01*
X271005Y248049D01*
X271280Y249075D01*
Y250138D01*
X271005Y251164D01*
X270473Y252084D01*
X269722Y252835D01*
X268802Y253367D01*
X267775Y253642D01*
D02*
G37*
G36*
X257775D02*
X256713D01*
X255686Y253367D01*
X254766Y252835D01*
X254015Y252084D01*
X253484Y251164D01*
X253209Y250138D01*
Y249075D01*
X253484Y248049D01*
X254015Y247129D01*
X254766Y246377D01*
X255686Y245846D01*
X256713Y245571D01*
X257775D01*
X258802Y245846D01*
X259722Y246377D01*
X260473Y247129D01*
X261004Y248049D01*
X261280Y249075D01*
Y250138D01*
X261004Y251164D01*
X260473Y252084D01*
X259722Y252835D01*
X258802Y253367D01*
X257775Y253642D01*
D02*
G37*
G36*
X237775D02*
X236713D01*
X235686Y253367D01*
X234766Y252835D01*
X234015Y252084D01*
X233484Y251164D01*
X233209Y250138D01*
Y249075D01*
X233484Y248049D01*
X234015Y247129D01*
X234766Y246377D01*
X235686Y245846D01*
X236713Y245571D01*
X237775D01*
X238802Y245846D01*
X239722Y246377D01*
X240473Y247129D01*
X241004Y248049D01*
X241280Y249075D01*
Y250138D01*
X241004Y251164D01*
X240473Y252084D01*
X239722Y252835D01*
X238802Y253367D01*
X237775Y253642D01*
D02*
G37*
G36*
X227775D02*
X226713D01*
X225687Y253367D01*
X224766Y252835D01*
X224015Y252084D01*
X223484Y251164D01*
X223209Y250138D01*
Y249075D01*
X223484Y248049D01*
X224015Y247129D01*
X224766Y246377D01*
X225687Y245846D01*
X226713Y245571D01*
X227775D01*
X228802Y245846D01*
X229722Y246377D01*
X230473Y247129D01*
X231005Y248049D01*
X231279Y249075D01*
Y250138D01*
X231005Y251164D01*
X230473Y252084D01*
X229722Y252835D01*
X228802Y253367D01*
X227775Y253642D01*
D02*
G37*
G36*
X217775D02*
X216713D01*
X215686Y253367D01*
X214766Y252835D01*
X214015Y252084D01*
X213484Y251164D01*
X213209Y250138D01*
Y249075D01*
X213484Y248049D01*
X214015Y247129D01*
X214766Y246377D01*
X215686Y245846D01*
X216713Y245571D01*
X217775D01*
X218802Y245846D01*
X219722Y246377D01*
X220473Y247129D01*
X221005Y248049D01*
X221280Y249075D01*
Y250138D01*
X221005Y251164D01*
X220473Y252084D01*
X219722Y252835D01*
X218802Y253367D01*
X217775Y253642D01*
D02*
G37*
G36*
X211280D02*
X203209D01*
Y245571D01*
X211280D01*
Y253642D01*
D02*
G37*
G36*
X23187Y247835D02*
X22482D01*
X21831Y247565D01*
X21333Y247067D01*
X21063Y246415D01*
Y245711D01*
X21333Y245059D01*
X21831Y244561D01*
X22482Y244291D01*
X23187D01*
X23838Y244561D01*
X24337Y245059D01*
X24606Y245711D01*
Y246415D01*
X24337Y247067D01*
X23838Y247565D01*
X23187Y247835D01*
D02*
G37*
G36*
X151140Y247441D02*
X150435D01*
X149784Y247171D01*
X149285Y246673D01*
X149016Y246022D01*
Y245317D01*
X149285Y244666D01*
X149784Y244167D01*
X150435Y243898D01*
X151140D01*
X151791Y244167D01*
X152289Y244666D01*
X152559Y245317D01*
Y246022D01*
X152289Y246673D01*
X151791Y247171D01*
X151140Y247441D01*
D02*
G37*
G36*
X48381Y247047D02*
X47676D01*
X47025Y246778D01*
X46526Y246279D01*
X46256Y245628D01*
Y244923D01*
X46526Y244272D01*
X47025Y243774D01*
X47676Y243504D01*
X48381D01*
X49032Y243774D01*
X49530Y244272D01*
X49735Y244767D01*
X50262Y244767D01*
X50467Y244272D01*
X50965Y243774D01*
X51616Y243504D01*
X52321D01*
X52972Y243774D01*
X53470Y244272D01*
X53740Y244923D01*
Y245628D01*
X53470Y246279D01*
X52972Y246778D01*
X52321Y247047D01*
X51616D01*
X50965Y246778D01*
X50467Y246279D01*
X50262Y245784D01*
X49735Y245784D01*
X49530Y246279D01*
X49032Y246778D01*
X48381Y247047D01*
D02*
G37*
G36*
X23184Y241535D02*
X22479D01*
X21828Y241266D01*
X21329Y240767D01*
X20790D01*
X20291Y241266D01*
X19640Y241535D01*
X18936D01*
X18284Y241266D01*
X17786Y240767D01*
X17516Y240116D01*
Y239411D01*
X17786Y238760D01*
X18284Y238262D01*
X18936Y237992D01*
X19640D01*
X20291Y238262D01*
X20790Y238760D01*
X21329D01*
X21828Y238262D01*
X22479Y237992D01*
X23184D01*
X23835Y238262D01*
X24333Y238760D01*
X24603Y239411D01*
Y240116D01*
X24333Y240767D01*
X23835Y241266D01*
X23184Y241535D01*
D02*
G37*
G36*
X61373Y241929D02*
X60668D01*
X60017Y241659D01*
X59518Y241161D01*
X59317Y240675D01*
X58787D01*
X58585Y241161D01*
X58087Y241659D01*
X57436Y241929D01*
X56731D01*
X56080Y241659D01*
X55581Y241161D01*
X55312Y240510D01*
Y239805D01*
X55581Y239154D01*
X56080Y238656D01*
X56731Y238386D01*
X57436D01*
X58087Y238656D01*
X58585Y239154D01*
X58787Y239640D01*
X59317D01*
X59518Y239154D01*
X60017Y238656D01*
X60668Y238386D01*
X61373D01*
X62024Y238656D01*
X62522Y239154D01*
X62792Y239805D01*
Y240510D01*
X62522Y241161D01*
X62024Y241659D01*
X61373Y241929D01*
D02*
G37*
G36*
X52232Y241912D02*
X51527D01*
X50876Y241642D01*
X50377Y241143D01*
X50176Y240657D01*
X49646D01*
X49444Y241143D01*
X48946Y241642D01*
X48294Y241912D01*
X47590D01*
X46939Y241642D01*
X46440Y241143D01*
X46170Y240492D01*
Y239787D01*
X46440Y239136D01*
X46939Y238638D01*
X47590Y238368D01*
X48294D01*
X48946Y238638D01*
X49444Y239136D01*
X49646Y239623D01*
X50176D01*
X50377Y239136D01*
X50876Y238638D01*
X51527Y238368D01*
X52232D01*
X52883Y238638D01*
X53381Y239136D01*
X53651Y239787D01*
Y240492D01*
X53381Y241143D01*
X52883Y241642D01*
X52232Y241912D01*
D02*
G37*
G36*
X138148Y241929D02*
X137443D01*
X136792Y241659D01*
X136293Y241161D01*
X136024Y240510D01*
Y239805D01*
X136293Y239154D01*
X136792Y238655D01*
X137443Y238386D01*
X138148D01*
X138799Y238655D01*
X139297Y239154D01*
X139567Y239805D01*
Y240510D01*
X139297Y241161D01*
X138799Y241659D01*
X138148Y241929D01*
D02*
G37*
G36*
X6258Y241922D02*
X5553D01*
X4902Y241652D01*
X4404Y241154D01*
X4134Y240503D01*
Y239798D01*
X4404Y239147D01*
X4902Y238648D01*
X5553Y238379D01*
X6258D01*
X6909Y238648D01*
X7407Y239147D01*
X7677Y239798D01*
Y240503D01*
X7407Y241154D01*
X6909Y241652D01*
X6258Y241922D01*
D02*
G37*
G36*
X11376Y241772D02*
X10671D01*
X10020Y241502D01*
X9522Y241003D01*
X9252Y240352D01*
Y239648D01*
X9522Y238996D01*
X10020Y238498D01*
X10671Y238228D01*
X11376D01*
X12027Y238498D01*
X12526Y238996D01*
X12795Y239648D01*
Y240352D01*
X12526Y241003D01*
X12027Y241502D01*
X11376Y241772D01*
D02*
G37*
G36*
X132637Y241598D02*
X131933D01*
X131281Y241328D01*
X130783Y240830D01*
X130513Y240178D01*
Y239474D01*
X130783Y238822D01*
X131281Y238324D01*
X131933Y238054D01*
X132637D01*
X133289Y238324D01*
X133787Y238822D01*
X134057Y239474D01*
Y240178D01*
X133787Y240830D01*
X133289Y241328D01*
X132637Y241598D01*
D02*
G37*
G36*
X111771D02*
X111066D01*
X110415Y241328D01*
X109917Y240830D01*
X109647Y240178D01*
Y239474D01*
X109917Y238822D01*
X110415Y238324D01*
X111066Y238054D01*
X111771D01*
X112422Y238324D01*
X112921Y238822D01*
X113190Y239474D01*
Y240178D01*
X112921Y240830D01*
X112422Y241328D01*
X111771Y241598D01*
D02*
G37*
G36*
X106258Y241535D02*
X105553D01*
X104902Y241266D01*
X104404Y240767D01*
X104134Y240116D01*
Y239411D01*
X104404Y238760D01*
X104902Y238262D01*
X105553Y237992D01*
X106258D01*
X106909Y238262D01*
X107407Y238760D01*
X107677Y239411D01*
Y240116D01*
X107407Y240767D01*
X106909Y241266D01*
X106258Y241535D01*
D02*
G37*
G36*
X100746D02*
X100041D01*
X99390Y241266D01*
X98892Y240767D01*
X98622Y240116D01*
Y239411D01*
X98892Y238760D01*
X99390Y238262D01*
X100041Y237992D01*
X100746D01*
X101397Y238262D01*
X101896Y238760D01*
X102165Y239411D01*
Y240116D01*
X101896Y240767D01*
X101397Y241266D01*
X100746Y241535D01*
D02*
G37*
G36*
X95234D02*
X94529D01*
X93878Y241266D01*
X93380Y240767D01*
X93110Y240116D01*
Y239411D01*
X93380Y238760D01*
X93878Y238262D01*
X94529Y237992D01*
X95234D01*
X95885Y238262D01*
X96384Y238760D01*
X96653Y239411D01*
Y240116D01*
X96384Y240767D01*
X95885Y241266D01*
X95234Y241535D01*
D02*
G37*
G36*
X74370Y241204D02*
X73665D01*
X73014Y240934D01*
X72515Y240436D01*
X72246Y239785D01*
Y239080D01*
X72515Y238429D01*
X73014Y237930D01*
X73665Y237661D01*
X74370D01*
X75021Y237930D01*
X75519Y238429D01*
X75789Y239080D01*
Y239785D01*
X75519Y240436D01*
X75021Y240934D01*
X74370Y241204D01*
D02*
G37*
G36*
X153108Y241929D02*
X152403D01*
X151752Y241659D01*
X151254Y241161D01*
X150984Y240510D01*
Y239805D01*
X151254Y239154D01*
X151453Y238955D01*
X151729Y238628D01*
X151453Y238301D01*
X151254Y238102D01*
X150984Y237451D01*
Y236746D01*
X151254Y236095D01*
X151752Y235596D01*
X152403Y235327D01*
X153108D01*
X153760Y235596D01*
X154258Y236095D01*
X154528Y236746D01*
Y237451D01*
X154258Y238102D01*
X154059Y238301D01*
X153783Y238628D01*
X154059Y238955D01*
X154258Y239154D01*
X154528Y239805D01*
Y240510D01*
X154258Y241161D01*
X153760Y241659D01*
X153108Y241929D01*
D02*
G37*
G36*
X6258Y235821D02*
X5553D01*
X4902Y235552D01*
X4404Y235053D01*
X4134Y234402D01*
Y233697D01*
X4404Y233046D01*
X4902Y232548D01*
X5553Y232278D01*
X6258D01*
X6909Y232548D01*
X7407Y233046D01*
X7677Y233697D01*
Y234402D01*
X7407Y235053D01*
X6909Y235552D01*
X6258Y235821D01*
D02*
G37*
G36*
X11376Y235709D02*
X10671D01*
X10020Y235439D01*
X9522Y234941D01*
X9252Y234289D01*
Y233585D01*
X9522Y232933D01*
X10020Y232435D01*
X10671Y232165D01*
X11376D01*
X12027Y232435D01*
X12526Y232933D01*
X12795Y233585D01*
Y234289D01*
X12526Y234941D01*
X12027Y235439D01*
X11376Y235709D01*
D02*
G37*
G36*
X203321Y232480D02*
X202616D01*
X201965Y232211D01*
X201484Y231730D01*
X201004Y232211D01*
X200352Y232480D01*
X199648D01*
X198996Y232211D01*
X198498Y231712D01*
X198228Y231061D01*
Y230356D01*
X198498Y229705D01*
X198996Y229207D01*
X199648Y228937D01*
X200352D01*
X201004Y229207D01*
X201484Y229687D01*
X201965Y229207D01*
X202616Y228937D01*
X203321D01*
X203972Y229207D01*
X204470Y229705D01*
X204740Y230356D01*
Y231061D01*
X204470Y231712D01*
X203972Y232211D01*
X203321Y232480D01*
D02*
G37*
G36*
X193659D02*
X192955D01*
X192304Y232211D01*
X191805Y231712D01*
X191535Y231061D01*
Y230356D01*
X191805Y229705D01*
X192304Y229207D01*
X192955Y228937D01*
X193659D01*
X194311Y229207D01*
X194809Y229705D01*
X195079Y230356D01*
Y231061D01*
X194809Y231712D01*
X194311Y232211D01*
X193659Y232480D01*
D02*
G37*
G36*
X188935D02*
X188230D01*
X187579Y232211D01*
X187081Y231712D01*
X186811Y231061D01*
Y230356D01*
X187081Y229705D01*
X187579Y229207D01*
X188230Y228937D01*
X188935D01*
X189586Y229207D01*
X190085Y229705D01*
X190354Y230356D01*
Y231061D01*
X190085Y231712D01*
X189586Y232211D01*
X188935Y232480D01*
D02*
G37*
G36*
X179486Y229724D02*
X178781D01*
X178130Y229455D01*
X177632Y228956D01*
X177362Y228305D01*
Y227600D01*
X177632Y226949D01*
X178130Y226451D01*
X178781Y226181D01*
X179486D01*
X180137Y226451D01*
X180636Y226949D01*
X180905Y227600D01*
Y228305D01*
X180636Y228956D01*
X180137Y229455D01*
X179486Y229724D01*
D02*
G37*
G36*
X6258Y229721D02*
X5553D01*
X4902Y229451D01*
X4404Y228953D01*
X4134Y228302D01*
Y227597D01*
X4404Y226946D01*
X4902Y226447D01*
X5553Y226178D01*
X6258D01*
X6909Y226447D01*
X7407Y226946D01*
X7677Y227597D01*
Y228302D01*
X7407Y228953D01*
X6909Y229451D01*
X6258Y229721D01*
D02*
G37*
G36*
X11376Y229646D02*
X10671D01*
X10020Y229376D01*
X9522Y228878D01*
X9252Y228226D01*
Y227522D01*
X9522Y226870D01*
X10020Y226372D01*
X10671Y226102D01*
X11376D01*
X12027Y226372D01*
X12526Y226870D01*
X12795Y227522D01*
Y228226D01*
X12526Y228878D01*
X12027Y229376D01*
X11376Y229646D01*
D02*
G37*
G36*
X138148Y227756D02*
X137443D01*
X136792Y227486D01*
X136293Y226988D01*
X136024Y226337D01*
Y225632D01*
X136293Y224981D01*
X136792Y224482D01*
X137443Y224213D01*
X138148D01*
X138799Y224482D01*
X139297Y224981D01*
X139567Y225632D01*
Y226337D01*
X139297Y226988D01*
X138799Y227486D01*
X138148Y227756D01*
D02*
G37*
G36*
X107123Y226969D02*
X106419D01*
X105767Y226699D01*
X105269Y226200D01*
X104999Y225549D01*
Y224845D01*
X105269Y224193D01*
X105767Y223695D01*
X106419Y223425D01*
X107123D01*
X107774Y223695D01*
X108273Y224193D01*
X108543Y224845D01*
Y225549D01*
X108273Y226200D01*
X107774Y226699D01*
X107123Y226969D01*
D02*
G37*
G36*
X69644Y226575D02*
X68939D01*
X68288Y226305D01*
X67789Y225807D01*
X67520Y225155D01*
Y224451D01*
X67789Y223800D01*
X68288Y223301D01*
X68939Y223031D01*
X69644D01*
X70295Y223301D01*
X70793Y223800D01*
X71063Y224451D01*
Y225155D01*
X70793Y225807D01*
X70295Y226305D01*
X69644Y226575D01*
D02*
G37*
G36*
X421378Y229085D02*
X420354D01*
X419366Y228820D01*
X418479Y228308D01*
X417755Y227584D01*
X417243Y226697D01*
X416978Y225709D01*
Y224685D01*
X417243Y223696D01*
X417755Y222810D01*
X418479Y222086D01*
X419366Y221574D01*
X420354Y221309D01*
X421378D01*
X422367Y221574D01*
X423253Y222086D01*
X423977Y222810D01*
X424489Y223696D01*
X424754Y224685D01*
Y225709D01*
X424489Y226697D01*
X423977Y227584D01*
X423253Y228308D01*
X422367Y228820D01*
X421378Y229085D01*
D02*
G37*
G36*
X414754D02*
X406978D01*
Y221309D01*
X414754D01*
Y229085D01*
D02*
G37*
G36*
X6258Y223620D02*
X5553D01*
X4902Y223351D01*
X4404Y222852D01*
X4134Y222201D01*
Y221496D01*
X4404Y220845D01*
X4902Y220347D01*
X5553Y220077D01*
X6258D01*
X6909Y220347D01*
X7407Y220845D01*
X7677Y221496D01*
Y222201D01*
X7407Y222852D01*
X6909Y223351D01*
X6258Y223620D01*
D02*
G37*
G36*
X76337Y222638D02*
X75632D01*
X74981Y222368D01*
X74482Y221870D01*
X74213Y221219D01*
Y220514D01*
X74482Y219863D01*
X74981Y219364D01*
X75632Y219094D01*
X76337D01*
X76988Y219364D01*
X77486Y219863D01*
X77756Y220514D01*
Y221219D01*
X77486Y221870D01*
X76988Y222368D01*
X76337Y222638D01*
D02*
G37*
G36*
X41691Y221850D02*
X40986D01*
X40335Y221581D01*
X39837Y221082D01*
X39567Y220431D01*
Y219726D01*
X39837Y219075D01*
X40335Y218577D01*
X40986Y218307D01*
X41691D01*
X42342Y218577D01*
X42840Y219075D01*
X43110Y219726D01*
Y220431D01*
X42840Y221082D01*
X42342Y221581D01*
X41691Y221850D01*
D02*
G37*
G36*
X82242Y221063D02*
X81537D01*
X80886Y220793D01*
X80388Y220295D01*
X80118Y219644D01*
Y218939D01*
X80388Y218288D01*
X80886Y217789D01*
X81537Y217520D01*
X82242D01*
X82893Y217789D01*
X83392Y218288D01*
X83661Y218939D01*
Y219644D01*
X83392Y220295D01*
X82893Y220793D01*
X82242Y221063D01*
D02*
G37*
G36*
X118066Y217913D02*
X117361D01*
X116710Y217644D01*
X116465Y217399D01*
X116138Y217192D01*
X115812Y217399D01*
X115567Y217644D01*
X114916Y217913D01*
X114211D01*
X113560Y217644D01*
X113062Y217145D01*
X112792Y216494D01*
Y215789D01*
X113062Y215138D01*
X113560Y214640D01*
X114211Y214370D01*
X114916D01*
X115567Y214640D01*
X115812Y214884D01*
X116138Y215092D01*
X116465Y214884D01*
X116710Y214640D01*
X117361Y214370D01*
X118066D01*
X118717Y214640D01*
X119215Y215138D01*
X119485Y215789D01*
Y216494D01*
X119215Y217145D01*
X118717Y217644D01*
X118066Y217913D01*
D02*
G37*
G36*
X57439Y220669D02*
X56734D01*
X56083Y220400D01*
X55585Y219901D01*
X55315Y219250D01*
Y218545D01*
X55585Y217894D01*
X56083Y217396D01*
X56734Y217126D01*
X57439D01*
X58090Y217396D01*
X58588Y217894D01*
X58858Y218545D01*
Y219250D01*
X58588Y219901D01*
X58090Y220400D01*
X57439Y220669D01*
D02*
G37*
G36*
X11376Y223583D02*
X10671D01*
X10020Y223313D01*
X9522Y222815D01*
X9252Y222163D01*
Y221459D01*
X9522Y220808D01*
X10020Y220309D01*
X10208Y220231D01*
Y219690D01*
X10020Y219612D01*
X9522Y219114D01*
X9252Y218463D01*
Y217758D01*
X9522Y217107D01*
X10020Y216608D01*
X10671Y216339D01*
X11376D01*
X12027Y216608D01*
X12526Y217107D01*
X12795Y217758D01*
Y218463D01*
X12526Y219114D01*
X12027Y219612D01*
X11839Y219690D01*
Y220231D01*
X12027Y220309D01*
X12526Y220808D01*
X12795Y221459D01*
Y222163D01*
X12526Y222815D01*
X12027Y223313D01*
X11376Y223583D01*
D02*
G37*
G36*
X104351Y217593D02*
X103647D01*
X102996Y217323D01*
X102497Y216824D01*
X102227Y216173D01*
Y215469D01*
X102497Y214817D01*
X102996Y214319D01*
X103647Y214049D01*
X104351D01*
X105003Y214319D01*
X105501Y214817D01*
X105771Y215469D01*
Y216173D01*
X105501Y216824D01*
X105003Y217323D01*
X104351Y217593D01*
D02*
G37*
G36*
X6258Y217520D02*
X5553D01*
X4902Y217250D01*
X4404Y216752D01*
X4134Y216100D01*
Y215396D01*
X4404Y214744D01*
X4902Y214246D01*
X5553Y213976D01*
X6258D01*
X6909Y214246D01*
X7407Y214744D01*
X7677Y215396D01*
Y216100D01*
X7407Y216752D01*
X6909Y217250D01*
X6258Y217520D01*
D02*
G37*
G36*
X204994Y215471D02*
X204289D01*
X203638Y215202D01*
X203140Y214703D01*
X202870Y214052D01*
Y213347D01*
X203140Y212696D01*
X203638Y212198D01*
X204289Y211928D01*
X204994D01*
X205645Y212198D01*
X206144Y212696D01*
X206413Y213347D01*
Y214052D01*
X206144Y214703D01*
X205645Y215202D01*
X204994Y215471D01*
D02*
G37*
G36*
X421378Y219085D02*
X420354D01*
X419366Y218820D01*
X418479Y218308D01*
X417755Y217584D01*
X417243Y216698D01*
X416978Y215709D01*
Y214685D01*
X417243Y213696D01*
X417755Y212810D01*
X418479Y212086D01*
X419366Y211574D01*
X420354Y211309D01*
X421378D01*
X422367Y211574D01*
X423253Y212086D01*
X423977Y212810D01*
X424489Y213696D01*
X424754Y214685D01*
Y215709D01*
X424489Y216698D01*
X423977Y217584D01*
X423253Y218308D01*
X422367Y218820D01*
X421378Y219085D01*
D02*
G37*
G36*
X411378D02*
X410354D01*
X409366Y218820D01*
X408479Y218308D01*
X407755Y217584D01*
X407243Y216698D01*
X406978Y215709D01*
Y214685D01*
X407243Y213696D01*
X407755Y212810D01*
X408479Y212086D01*
X409366Y211574D01*
X410354Y211309D01*
X411378D01*
X412367Y211574D01*
X413253Y212086D01*
X413977Y212810D01*
X414489Y213696D01*
X414754Y214685D01*
Y215709D01*
X414489Y216698D01*
X413977Y217584D01*
X413253Y218308D01*
X412367Y218820D01*
X411378Y219085D01*
D02*
G37*
G36*
X84211Y213976D02*
X83506D01*
X82855Y213707D01*
X82356Y213208D01*
X82087Y212557D01*
Y211852D01*
X82356Y211201D01*
X82855Y210703D01*
X83506Y210433D01*
X84211D01*
X84862Y210703D01*
X85360Y211201D01*
X85630Y211852D01*
Y212557D01*
X85360Y213208D01*
X84862Y213707D01*
X84211Y213976D01*
D02*
G37*
G36*
X11770Y213583D02*
X11065D01*
X10414Y213313D01*
X9915Y212815D01*
X9646Y212163D01*
Y211459D01*
X9915Y210807D01*
X10414Y210309D01*
X11065Y210039D01*
X11770D01*
X12421Y210309D01*
X12919Y210807D01*
X13189Y211459D01*
Y212163D01*
X12919Y212815D01*
X12421Y213313D01*
X11770Y213583D01*
D02*
G37*
G36*
X272006Y211614D02*
X271301D01*
X270650Y211345D01*
X270152Y210846D01*
X269882Y210195D01*
Y209490D01*
X270152Y208839D01*
X270650Y208341D01*
X271301Y208071D01*
X272006D01*
X272657Y208341D01*
X273155Y208839D01*
X273425Y209490D01*
Y210195D01*
X273155Y210846D01*
X272657Y211345D01*
X272006Y211614D01*
D02*
G37*
G36*
X177518D02*
X176813D01*
X176162Y211345D01*
X175663Y210846D01*
X175394Y210195D01*
Y209490D01*
X175663Y208839D01*
X176162Y208341D01*
X176813Y208071D01*
X177518D01*
X178169Y208341D01*
X178667Y208839D01*
X178937Y209490D01*
Y210195D01*
X178667Y210846D01*
X178169Y211345D01*
X177518Y211614D01*
D02*
G37*
G36*
X86568Y209024D02*
X85863D01*
X85212Y208754D01*
X84714Y208256D01*
X84444Y207605D01*
Y206900D01*
X84714Y206249D01*
X85212Y205751D01*
X85863Y205481D01*
X86568D01*
X87219Y205751D01*
X87718Y206249D01*
X87987Y206900D01*
Y207605D01*
X87718Y208256D01*
X87219Y208754D01*
X86568Y209024D01*
D02*
G37*
G36*
X272006Y206890D02*
X271301D01*
X270650Y206620D01*
X270152Y206122D01*
X269882Y205470D01*
Y204766D01*
X270152Y204115D01*
X270650Y203616D01*
X271301Y203346D01*
X272006D01*
X272657Y203616D01*
X273155Y204115D01*
X273425Y204766D01*
Y205470D01*
X273155Y206122D01*
X272657Y206620D01*
X272006Y206890D01*
D02*
G37*
G36*
X86620Y203163D02*
X85915D01*
X85264Y202894D01*
X84766Y202395D01*
X84508Y201772D01*
X84060Y201526D01*
X84020Y201543D01*
X83315D01*
X82664Y201274D01*
X82165Y200775D01*
X81896Y200124D01*
Y199419D01*
X82165Y198768D01*
X82664Y198270D01*
X83315Y198000D01*
X84020D01*
X84671Y198270D01*
X85169Y198768D01*
X85427Y199391D01*
X85875Y199637D01*
X85915Y199620D01*
X86620D01*
X87271Y199890D01*
X87770Y200388D01*
X88039Y201039D01*
Y201744D01*
X87770Y202395D01*
X87271Y202894D01*
X86620Y203163D01*
D02*
G37*
G36*
X421378Y209085D02*
X420354D01*
X419366Y208820D01*
X418479Y208308D01*
X417755Y207584D01*
X417243Y206698D01*
X416978Y205709D01*
Y204685D01*
X417243Y203696D01*
X417755Y202810D01*
X418479Y202086D01*
X419366Y201574D01*
X420354Y201309D01*
X421378D01*
X422367Y201574D01*
X423253Y202086D01*
X423977Y202810D01*
X424489Y203696D01*
X424754Y204685D01*
Y205709D01*
X424489Y206698D01*
X423977Y207584D01*
X423253Y208308D01*
X422367Y208820D01*
X421378Y209085D01*
D02*
G37*
G36*
X411378D02*
X410354D01*
X409366Y208820D01*
X408479Y208308D01*
X407755Y207584D01*
X407243Y206698D01*
X406978Y205709D01*
Y204685D01*
X407243Y203696D01*
X407755Y202810D01*
X408479Y202086D01*
X409366Y201574D01*
X410354Y201309D01*
X411378D01*
X412367Y201574D01*
X413253Y202086D01*
X413977Y202810D01*
X414489Y203696D01*
X414754Y204685D01*
Y205709D01*
X414489Y206698D01*
X413977Y207584D01*
X413253Y208308D01*
X412367Y208820D01*
X411378Y209085D01*
D02*
G37*
G36*
X57439Y212402D02*
X56734D01*
X56083Y212132D01*
X55585Y211633D01*
X55315Y210982D01*
Y210278D01*
X55585Y209626D01*
X56083Y209128D01*
X56569Y208927D01*
Y208396D01*
X56083Y208195D01*
X55585Y207697D01*
X55315Y207045D01*
Y206341D01*
X55585Y205689D01*
X56083Y205191D01*
X56569Y204990D01*
Y204459D01*
X56083Y204258D01*
X55585Y203760D01*
X55315Y203108D01*
Y202403D01*
X55585Y201752D01*
X56083Y201254D01*
X56734Y200984D01*
X57439D01*
X58090Y201254D01*
X58588Y201752D01*
X58858Y202403D01*
Y203108D01*
X58588Y203760D01*
X58090Y204258D01*
X57604Y204459D01*
Y204990D01*
X58090Y205191D01*
X58588Y205689D01*
X58858Y206341D01*
Y207045D01*
X58588Y207697D01*
X58090Y208195D01*
X57604Y208396D01*
Y208927D01*
X58090Y209128D01*
X58588Y209626D01*
X58858Y210278D01*
Y210982D01*
X58588Y211633D01*
X58090Y212132D01*
X57439Y212402D01*
D02*
G37*
G36*
X297597Y202953D02*
X296892D01*
X296240Y202683D01*
X295742Y202185D01*
X295472Y201534D01*
Y200829D01*
X295742Y200178D01*
X296240Y199679D01*
X296892Y199409D01*
X297597D01*
X298248Y199679D01*
X298746Y200178D01*
X299016Y200829D01*
Y201534D01*
X298746Y202185D01*
X298248Y202683D01*
X297597Y202953D01*
D02*
G37*
G36*
X291297D02*
X290593D01*
X289941Y202683D01*
X289443Y202185D01*
X289173Y201534D01*
Y200829D01*
X289443Y200178D01*
X289941Y199679D01*
X290593Y199409D01*
X291297D01*
X291948Y199679D01*
X292447Y200178D01*
X292717Y200829D01*
Y201534D01*
X292447Y202185D01*
X291948Y202683D01*
X291297Y202953D01*
D02*
G37*
G36*
X285392D02*
X284687D01*
X284036Y202683D01*
X283537Y202185D01*
X283268Y201534D01*
Y200829D01*
X283537Y200178D01*
X284036Y199679D01*
X284687Y199409D01*
X285392D01*
X286043Y199679D01*
X286541Y200178D01*
X286811Y200829D01*
Y201534D01*
X286541Y202185D01*
X286043Y202683D01*
X285392Y202953D01*
D02*
G37*
G36*
X124758Y198757D02*
X124053D01*
X123402Y198487D01*
X122903Y197989D01*
X122634Y197338D01*
Y196633D01*
X122903Y195982D01*
X123402Y195484D01*
X124053Y195214D01*
X124758D01*
X125409Y195484D01*
X125907Y195982D01*
X126177Y196633D01*
Y197338D01*
X125907Y197989D01*
X125409Y198487D01*
X124758Y198757D01*
D02*
G37*
G36*
X130667Y197441D02*
X129963D01*
X129311Y197171D01*
X128813Y196673D01*
X128543Y196022D01*
Y195317D01*
X128813Y194666D01*
X129311Y194167D01*
X129963Y193898D01*
X130667D01*
X131318Y194167D01*
X131817Y194666D01*
X132087Y195317D01*
Y196022D01*
X131817Y196673D01*
X131318Y197171D01*
X130667Y197441D01*
D02*
G37*
G36*
X361494Y196625D02*
X360789D01*
X360138Y196356D01*
X359640Y195857D01*
X359370Y195206D01*
Y194501D01*
X359640Y193850D01*
X360138Y193352D01*
X360789Y193082D01*
X361494D01*
X362145Y193352D01*
X362644Y193850D01*
X362913Y194501D01*
Y195206D01*
X362644Y195857D01*
X362145Y196356D01*
X361494Y196625D01*
D02*
G37*
G36*
X421378Y199085D02*
X420354D01*
X419366Y198820D01*
X418479Y198308D01*
X417755Y197584D01*
X417243Y196697D01*
X416978Y195709D01*
Y194685D01*
X417243Y193696D01*
X417755Y192810D01*
X418479Y192086D01*
X419366Y191574D01*
X420354Y191309D01*
X421378D01*
X422367Y191574D01*
X423253Y192086D01*
X423977Y192810D01*
X424489Y193696D01*
X424754Y194685D01*
Y195709D01*
X424489Y196697D01*
X423977Y197584D01*
X423253Y198308D01*
X422367Y198820D01*
X421378Y199085D01*
D02*
G37*
G36*
X411378D02*
X410354D01*
X409366Y198820D01*
X408479Y198308D01*
X407755Y197584D01*
X407243Y196697D01*
X406978Y195709D01*
Y194685D01*
X407243Y193696D01*
X407755Y192810D01*
X408479Y192086D01*
X409366Y191574D01*
X410354Y191309D01*
X411378D01*
X412367Y191574D01*
X413253Y192086D01*
X413977Y192810D01*
X414489Y193696D01*
X414754Y194685D01*
Y195709D01*
X414489Y196697D01*
X413977Y197584D01*
X413253Y198308D01*
X412367Y198820D01*
X411378Y199085D01*
D02*
G37*
G36*
X86164Y193507D02*
X85460D01*
X84808Y193237D01*
X84310Y192739D01*
X84040Y192088D01*
Y191383D01*
X84310Y190732D01*
X84808Y190234D01*
X85460Y189964D01*
X86164D01*
X86816Y190234D01*
X87314Y190732D01*
X87584Y191383D01*
Y192088D01*
X87314Y192739D01*
X86816Y193237D01*
X86164Y193507D01*
D02*
G37*
G36*
X275155Y193504D02*
X274451D01*
X273800Y193234D01*
X273301Y192736D01*
X273031Y192085D01*
Y191380D01*
X273301Y190729D01*
X273800Y190230D01*
X274451Y189961D01*
X275155D01*
X275807Y190230D01*
X276305Y190729D01*
X276575Y191380D01*
Y192085D01*
X276305Y192736D01*
X275807Y193234D01*
X275155Y193504D01*
D02*
G37*
G36*
X24661Y192549D02*
X20331D01*
X19611Y192455D01*
X18941Y192177D01*
X18365Y191735D01*
X17923Y191160D01*
X17646Y190489D01*
X17551Y189770D01*
X17646Y189050D01*
X17923Y188380D01*
X18365Y187804D01*
X18941Y187363D01*
X19611Y187085D01*
X20331Y186990D01*
X24661D01*
X25381Y187085D01*
X26051Y187363D01*
X26627Y187804D01*
X27069Y188380D01*
X27346Y189050D01*
X27441Y189770D01*
X27346Y190489D01*
X27069Y191160D01*
X26627Y191735D01*
X26051Y192177D01*
X25381Y192455D01*
X24661Y192549D01*
D02*
G37*
G36*
X7614D02*
X4464D01*
X3745Y192455D01*
X3075Y192177D01*
X2499Y191735D01*
X2057Y191160D01*
X1780Y190489D01*
X1685Y189770D01*
X1780Y189050D01*
X2057Y188380D01*
X2499Y187804D01*
X3075Y187363D01*
X3745Y187085D01*
X4464Y186990D01*
X7614D01*
X8333Y187085D01*
X9004Y187363D01*
X9580Y187804D01*
X10021Y188380D01*
X10299Y189050D01*
X10394Y189770D01*
X10299Y190489D01*
X10021Y191160D01*
X9580Y191735D01*
X9004Y192177D01*
X8333Y192455D01*
X7614Y192549D01*
D02*
G37*
G36*
X130708Y189944D02*
X130003D01*
X129352Y189674D01*
X128853Y189176D01*
X128584Y188525D01*
Y187820D01*
X128853Y187169D01*
X129352Y186670D01*
X130003Y186401D01*
X130708D01*
X131359Y186670D01*
X131857Y187169D01*
X132127Y187820D01*
Y188525D01*
X131857Y189176D01*
X131359Y189674D01*
X130708Y189944D01*
D02*
G37*
G36*
X124758Y189075D02*
X124054D01*
X123403Y188805D01*
X122904Y188307D01*
X122634Y187655D01*
Y186951D01*
X122904Y186300D01*
X123403Y185801D01*
X124054Y185531D01*
X124758D01*
X125410Y185801D01*
X125908Y186300D01*
X126178Y186951D01*
Y187655D01*
X125908Y188307D01*
X125410Y188805D01*
X124758Y189075D01*
D02*
G37*
G36*
X20981Y186419D02*
X20074D01*
X19236Y186072D01*
X18595Y185431D01*
X18248Y184593D01*
Y183686D01*
X18595Y182849D01*
X19236Y182207D01*
X20074Y181860D01*
X20981D01*
X21819Y182207D01*
X22460Y182849D01*
X22807Y183686D01*
Y184593D01*
X22460Y185431D01*
X21819Y186072D01*
X20981Y186419D01*
D02*
G37*
G36*
X421378Y189085D02*
X420354D01*
X419366Y188820D01*
X418479Y188308D01*
X417755Y187584D01*
X417243Y186697D01*
X416978Y185709D01*
Y184685D01*
X417243Y183696D01*
X417755Y182810D01*
X418479Y182086D01*
X419366Y181574D01*
X420354Y181309D01*
X421378D01*
X422367Y181574D01*
X423253Y182086D01*
X423977Y182810D01*
X424489Y183696D01*
X424754Y184685D01*
Y185709D01*
X424489Y186697D01*
X423977Y187584D01*
X423253Y188308D01*
X422367Y188820D01*
X421378Y189085D01*
D02*
G37*
G36*
X411378D02*
X410354D01*
X409366Y188820D01*
X408479Y188308D01*
X407755Y187584D01*
X407243Y186697D01*
X406978Y185709D01*
Y184685D01*
X407243Y183696D01*
X407755Y182810D01*
X408479Y182086D01*
X409366Y181574D01*
X410354Y181309D01*
X411378D01*
X412367Y181574D01*
X413253Y182086D01*
X413977Y182810D01*
X414489Y183696D01*
X414754Y184685D01*
Y185709D01*
X414489Y186697D01*
X413977Y187584D01*
X413253Y188308D01*
X412367Y188820D01*
X411378Y189085D01*
D02*
G37*
G36*
X272400Y184843D02*
X271695D01*
X271044Y184573D01*
X270545Y184074D01*
X270276Y183423D01*
Y182719D01*
X270545Y182067D01*
X271044Y181569D01*
X271695Y181299D01*
X272400D01*
X273051Y181569D01*
X273549Y182067D01*
X273819Y182719D01*
Y183423D01*
X273549Y184074D01*
X273051Y184573D01*
X272400Y184843D01*
D02*
G37*
G36*
X150352Y183661D02*
X149648D01*
X148996Y183392D01*
X148498Y182893D01*
X148228Y182242D01*
Y181537D01*
X148498Y180886D01*
X148996Y180388D01*
X149648Y180118D01*
X150352D01*
X151004Y180388D01*
X151502Y180886D01*
X151772Y181537D01*
Y182242D01*
X151502Y182893D01*
X151004Y183392D01*
X150352Y183661D01*
D02*
G37*
G36*
X66746Y187828D02*
X66042D01*
X65390Y187558D01*
X64892Y187060D01*
X64622Y186408D01*
Y185704D01*
X64892Y185052D01*
X65390Y184554D01*
X65438Y184534D01*
Y184034D01*
X65390Y184015D01*
X64892Y183516D01*
X64622Y182865D01*
Y182160D01*
X64892Y181509D01*
X65390Y181011D01*
Y180471D01*
X64892Y179973D01*
X64622Y179322D01*
Y178617D01*
X64892Y177966D01*
X65390Y177468D01*
X66042Y177198D01*
X66746D01*
X67398Y177468D01*
X67896Y177966D01*
X68166Y178617D01*
Y179322D01*
X67896Y179973D01*
X67398Y180471D01*
Y181011D01*
X67896Y181509D01*
X68166Y182160D01*
Y182865D01*
X67896Y183516D01*
X67398Y184015D01*
X67350Y184034D01*
Y184534D01*
X67398Y184554D01*
X67896Y185052D01*
X68166Y185704D01*
Y186408D01*
X67896Y187060D01*
X67398Y187558D01*
X66746Y187828D01*
D02*
G37*
G36*
X29093Y179331D02*
X28388D01*
X27737Y179061D01*
X27238Y178563D01*
X26969Y177911D01*
Y177207D01*
X27238Y176556D01*
X27737Y176057D01*
X28388Y175787D01*
X29093D01*
X29744Y176057D01*
X30242Y176556D01*
X30512Y177207D01*
Y177911D01*
X30242Y178563D01*
X29744Y179061D01*
X29093Y179331D01*
D02*
G37*
G36*
X94612Y178751D02*
X93907D01*
X93256Y178482D01*
X92758Y177983D01*
X92488Y177332D01*
Y176627D01*
X92758Y175976D01*
X93256Y175478D01*
X93907Y175208D01*
X94612D01*
X95263Y175478D01*
X95762Y175976D01*
X96031Y176627D01*
Y177332D01*
X95762Y177983D01*
X95263Y178482D01*
X94612Y178751D01*
D02*
G37*
G36*
X117675Y177362D02*
X116970D01*
X116319Y177093D01*
X115821Y176594D01*
X115551Y175943D01*
Y175238D01*
X115821Y174587D01*
X116319Y174089D01*
X116970Y173819D01*
X117675D01*
X118326Y174089D01*
X118825Y174587D01*
X119095Y175238D01*
Y175943D01*
X118825Y176594D01*
X118326Y177093D01*
X117675Y177362D01*
D02*
G37*
G36*
X91297Y175787D02*
X90592D01*
X89941Y175518D01*
X89443Y175019D01*
X89173Y174368D01*
Y173663D01*
X89443Y173012D01*
X89941Y172514D01*
X90592Y172244D01*
X91297D01*
X91948Y172514D01*
X92447Y173012D01*
X92716Y173663D01*
Y174368D01*
X92447Y175019D01*
X91948Y175518D01*
X91297Y175787D01*
D02*
G37*
G36*
X78305Y175394D02*
X77600D01*
X76949Y175124D01*
X76451Y174626D01*
X76181Y173974D01*
Y173270D01*
X76451Y172618D01*
X76949Y172120D01*
X77600Y171850D01*
X78305D01*
X78956Y172120D01*
X79455Y172618D01*
X79724Y173270D01*
Y173974D01*
X79455Y174626D01*
X78956Y175124D01*
X78305Y175394D01*
D02*
G37*
G36*
X421378Y179085D02*
X420354D01*
X419366Y178820D01*
X418479Y178308D01*
X417755Y177584D01*
X417243Y176698D01*
X416978Y175709D01*
Y174685D01*
X417243Y173696D01*
X417755Y172810D01*
X418479Y172086D01*
X419366Y171574D01*
X420354Y171309D01*
X421378D01*
X422367Y171574D01*
X423253Y172086D01*
X423977Y172810D01*
X424489Y173696D01*
X424754Y174685D01*
Y175709D01*
X424489Y176698D01*
X423977Y177584D01*
X423253Y178308D01*
X422367Y178820D01*
X421378Y179085D01*
D02*
G37*
G36*
X411378D02*
X410354D01*
X409366Y178820D01*
X408479Y178308D01*
X407755Y177584D01*
X407243Y176698D01*
X406978Y175709D01*
Y174685D01*
X407243Y173696D01*
X407755Y172810D01*
X408479Y172086D01*
X409366Y171574D01*
X410354Y171309D01*
X411378D01*
X412367Y171574D01*
X413253Y172086D01*
X413977Y172810D01*
X414489Y173696D01*
X414754Y174685D01*
Y175709D01*
X414489Y176698D01*
X413977Y177584D01*
X413253Y178308D01*
X412367Y178820D01*
X411378Y179085D01*
D02*
G37*
G36*
X112951Y173031D02*
X112246D01*
X111595Y172762D01*
X111097Y172263D01*
X110827Y171612D01*
Y170907D01*
X111097Y170256D01*
X111595Y169758D01*
X112246Y169488D01*
X112951D01*
X113602Y169758D01*
X114100Y170256D01*
X114370Y170907D01*
Y171612D01*
X114100Y172263D01*
X113602Y172762D01*
X112951Y173031D01*
D02*
G37*
G36*
X95234Y172638D02*
X94529D01*
X93878Y172368D01*
X93380Y171870D01*
X93110Y171219D01*
Y170514D01*
X93380Y169863D01*
X93878Y169364D01*
X94529Y169095D01*
X95234D01*
X95885Y169364D01*
X96384Y169863D01*
X96653Y170514D01*
Y171219D01*
X96384Y171870D01*
X95885Y172368D01*
X95234Y172638D01*
D02*
G37*
G36*
X108226Y168701D02*
X107522D01*
X106870Y168431D01*
X106626Y168186D01*
X106299Y167979D01*
X105973Y168186D01*
X105728Y168431D01*
X105077Y168701D01*
X104372D01*
X103721Y168431D01*
X103223Y167933D01*
X102953Y167281D01*
Y166577D01*
X103070Y166293D01*
X102646Y166010D01*
X102588Y166068D01*
X101937Y166338D01*
X101232D01*
X100581Y166068D01*
X100083Y165570D01*
X99813Y164919D01*
Y164214D01*
X100083Y163563D01*
X100581Y163064D01*
X101232Y162795D01*
X101937D01*
X102588Y163064D01*
X103087Y163563D01*
X103356Y164214D01*
Y164919D01*
X103239Y165202D01*
X103663Y165485D01*
X103721Y165427D01*
X104372Y165157D01*
X105077D01*
X105728Y165427D01*
X105973Y165672D01*
X106299Y165879D01*
X106626Y165672D01*
X106870Y165427D01*
X107522Y165157D01*
X108226D01*
X108878Y165427D01*
X109376Y165926D01*
X109646Y166577D01*
Y167281D01*
X109376Y167933D01*
X108878Y168431D01*
X108226Y168701D01*
D02*
G37*
G36*
X83030Y171457D02*
X82325D01*
X81674Y171187D01*
X81175Y170689D01*
X80905Y170037D01*
Y169333D01*
X81175Y168682D01*
X81674Y168183D01*
X82325Y167913D01*
X83030D01*
X83681Y168183D01*
X84179Y168682D01*
X84449Y169333D01*
Y170037D01*
X84179Y170689D01*
X83681Y171187D01*
X83030Y171457D01*
D02*
G37*
G36*
X343659Y171063D02*
X342955D01*
X342303Y170793D01*
X341805Y170295D01*
X341535Y169644D01*
Y168939D01*
X341805Y168288D01*
X342303Y167789D01*
X342955Y167520D01*
X343659D01*
X344311Y167789D01*
X344809Y168288D01*
X345079Y168939D01*
Y169644D01*
X344809Y170295D01*
X344311Y170793D01*
X343659Y171063D01*
D02*
G37*
G36*
X88935Y169095D02*
X88230D01*
X87579Y168825D01*
X87081Y168326D01*
X86811Y167675D01*
Y166970D01*
X87081Y166319D01*
X87579Y165821D01*
X88230Y165551D01*
X88935D01*
X89586Y165821D01*
X90085Y166319D01*
X90354Y166970D01*
Y167675D01*
X90085Y168326D01*
X89586Y168825D01*
X88935Y169095D01*
D02*
G37*
G36*
X29486Y167520D02*
X28782D01*
X28130Y167250D01*
X27632Y166752D01*
X27362Y166100D01*
Y165396D01*
X27632Y164744D01*
X28130Y164246D01*
X28782Y163976D01*
X29486D01*
X30137Y164246D01*
X30636Y164744D01*
X30906Y165396D01*
Y166100D01*
X30636Y166752D01*
X30137Y167250D01*
X29486Y167520D01*
D02*
G37*
G36*
X95628Y166339D02*
X94923D01*
X94272Y166069D01*
X93774Y165570D01*
X93504Y164919D01*
Y164215D01*
X93774Y163563D01*
X94272Y163065D01*
X94923Y162795D01*
X95628D01*
X96279Y163065D01*
X96777Y163563D01*
X97047Y164215D01*
Y164919D01*
X96777Y165570D01*
X96279Y166069D01*
X95628Y166339D01*
D02*
G37*
G36*
X333066Y166263D02*
X332361D01*
X331710Y165993D01*
X331212Y165495D01*
X330942Y164843D01*
Y164138D01*
X331212Y163487D01*
X331710Y162989D01*
X332361Y162719D01*
X333066D01*
X333717Y162989D01*
X334215Y163487D01*
X334485Y164138D01*
Y164843D01*
X334215Y165495D01*
X333717Y165993D01*
X333066Y166263D01*
D02*
G37*
G36*
X260589Y165945D02*
X259884D01*
X259233Y165675D01*
X258734Y165177D01*
X258465Y164526D01*
Y163821D01*
X258734Y163170D01*
X259233Y162671D01*
X259884Y162402D01*
X260589D01*
X261240Y162671D01*
X261738Y163170D01*
X262008Y163821D01*
Y164526D01*
X261738Y165177D01*
X261240Y165675D01*
X260589Y165945D01*
D02*
G37*
G36*
X347203Y165157D02*
X346498D01*
X345847Y164888D01*
X345349Y164389D01*
X345079Y163738D01*
Y163033D01*
X345349Y162382D01*
X345847Y161884D01*
X346498Y161614D01*
X347203D01*
X347854Y161884D01*
X348352Y162382D01*
X348622Y163033D01*
Y163738D01*
X348352Y164389D01*
X347854Y164888D01*
X347203Y165157D01*
D02*
G37*
G36*
X249171Y163583D02*
X248466D01*
X247815Y163313D01*
X247317Y162815D01*
X247047Y162163D01*
Y161459D01*
X247317Y160808D01*
X247815Y160309D01*
X248466Y160039D01*
X249171D01*
X249822Y160309D01*
X250321Y160808D01*
X250590Y161459D01*
Y162163D01*
X250321Y162815D01*
X249822Y163313D01*
X249171Y163583D01*
D02*
G37*
G36*
X190821Y163234D02*
X190116D01*
X189465Y162964D01*
X188966Y162466D01*
X188697Y161815D01*
Y161110D01*
X188966Y160459D01*
X189465Y159960D01*
X190116Y159691D01*
X190821D01*
X191472Y159960D01*
X191970Y160459D01*
X192240Y161110D01*
Y161815D01*
X191970Y162466D01*
X191472Y162964D01*
X190821Y163234D01*
D02*
G37*
G36*
X177518Y163189D02*
X176813D01*
X176162Y162919D01*
X175663Y162421D01*
X175394Y161770D01*
Y161065D01*
X175663Y160414D01*
X176162Y159915D01*
X176813Y159646D01*
X177518D01*
X178169Y159915D01*
X178667Y160414D01*
X178937Y161065D01*
Y161770D01*
X178667Y162421D01*
X178169Y162919D01*
X177518Y163189D01*
D02*
G37*
G36*
X163738D02*
X163033D01*
X162382Y162919D01*
X161884Y162421D01*
X161614Y161770D01*
Y161065D01*
X161884Y160414D01*
X162382Y159915D01*
X163033Y159646D01*
X163738D01*
X164389Y159915D01*
X164888Y160414D01*
X165157Y161065D01*
Y161770D01*
X164888Y162421D01*
X164389Y162919D01*
X163738Y163189D01*
D02*
G37*
G36*
X150352D02*
X149648D01*
X148996Y162919D01*
X148498Y162421D01*
X148228Y161770D01*
Y161065D01*
X148498Y160414D01*
X148996Y159915D01*
X149648Y159646D01*
X150352D01*
X151004Y159915D01*
X151502Y160414D01*
X151772Y161065D01*
Y161770D01*
X151502Y162421D01*
X151004Y162919D01*
X150352Y163189D01*
D02*
G37*
G36*
X20981Y163663D02*
X20074D01*
X19236Y163316D01*
X18595Y162675D01*
X18248Y161837D01*
Y160931D01*
X18595Y160093D01*
X19236Y159451D01*
X20074Y159104D01*
X20981D01*
X21819Y159451D01*
X22460Y160093D01*
X22807Y160931D01*
Y161837D01*
X22460Y162675D01*
X21819Y163316D01*
X20981Y163663D01*
D02*
G37*
G36*
X238148Y162008D02*
X237443D01*
X236792Y161738D01*
X236293Y161240D01*
X236024Y160589D01*
Y159884D01*
X236293Y159233D01*
X236792Y158734D01*
X237443Y158465D01*
X238148D01*
X238799Y158734D01*
X239297Y159233D01*
X239567Y159884D01*
Y160589D01*
X239297Y161240D01*
X238799Y161738D01*
X238148Y162008D01*
D02*
G37*
G36*
X233423D02*
X232718D01*
X232067Y161738D01*
X231569Y161240D01*
X231299Y160589D01*
Y159884D01*
X231569Y159233D01*
X232067Y158734D01*
X232718Y158465D01*
X233423D01*
X234074Y158734D01*
X234573Y159233D01*
X234842Y159884D01*
Y160589D01*
X234573Y161240D01*
X234074Y161738D01*
X233423Y162008D01*
D02*
G37*
G36*
X333066Y160751D02*
X332361D01*
X331710Y160481D01*
X331212Y159983D01*
X330942Y159332D01*
Y158627D01*
X331212Y157975D01*
X331710Y157477D01*
X332361Y157207D01*
X333066D01*
X333717Y157477D01*
X334215Y157975D01*
X334485Y158627D01*
Y159332D01*
X334215Y159983D01*
X333717Y160481D01*
X333066Y160751D01*
D02*
G37*
G36*
X197085Y158099D02*
X196380D01*
X195729Y157829D01*
X195230Y157331D01*
X194961Y156680D01*
Y155975D01*
X195230Y155324D01*
X195729Y154825D01*
X196380Y154556D01*
X197085D01*
X197736Y154825D01*
X198234Y155324D01*
X198504Y155975D01*
Y156680D01*
X198234Y157331D01*
X197736Y157829D01*
X197085Y158099D01*
D02*
G37*
G36*
X24661Y158534D02*
X20331D01*
X19611Y158439D01*
X18941Y158161D01*
X18365Y157720D01*
X17923Y157144D01*
X17646Y156473D01*
X17551Y155754D01*
X17646Y155035D01*
X17923Y154364D01*
X18365Y153788D01*
X18941Y153347D01*
X19611Y153069D01*
X20331Y152974D01*
X24661D01*
X25381Y153069D01*
X26051Y153347D01*
X26627Y153788D01*
X27069Y154364D01*
X27346Y155035D01*
X27441Y155754D01*
X27346Y156473D01*
X27069Y157144D01*
X26627Y157720D01*
X26051Y158161D01*
X25381Y158439D01*
X24661Y158534D01*
D02*
G37*
G36*
X7614D02*
X4464D01*
X3745Y158439D01*
X3075Y158161D01*
X2499Y157720D01*
X2057Y157144D01*
X1780Y156473D01*
X1685Y155754D01*
X1780Y155035D01*
X2057Y154364D01*
X2499Y153788D01*
X3075Y153347D01*
X3745Y153069D01*
X4464Y152974D01*
X7614D01*
X8333Y153069D01*
X9004Y153347D01*
X9580Y153788D01*
X10021Y154364D01*
X10299Y155035D01*
X10394Y155754D01*
X10299Y156473D01*
X10021Y157144D01*
X9580Y157720D01*
X9004Y158161D01*
X8333Y158439D01*
X7614Y158534D01*
D02*
G37*
G36*
X260982Y153740D02*
X260278D01*
X259626Y153470D01*
X259128Y152972D01*
X258858Y152321D01*
Y151616D01*
X259128Y150965D01*
X259626Y150467D01*
X260278Y150197D01*
X260982D01*
X261633Y150467D01*
X262132Y150965D01*
X262402Y151616D01*
Y152321D01*
X262132Y152972D01*
X261633Y153470D01*
X260982Y153740D01*
D02*
G37*
G36*
X120530Y151378D02*
X119825D01*
X119174Y151108D01*
X118675Y150610D01*
X118405Y149959D01*
Y149254D01*
X118675Y148603D01*
X119174Y148104D01*
X119825Y147835D01*
X120530D01*
X121181Y148104D01*
X121679Y148603D01*
X121949Y149254D01*
Y149959D01*
X121679Y150610D01*
X121181Y151108D01*
X120530Y151378D01*
D02*
G37*
G36*
X249171Y152953D02*
X248466D01*
X247815Y152683D01*
X247317Y152185D01*
X247047Y151533D01*
Y150829D01*
X247317Y150178D01*
X247815Y149679D01*
X247863Y149659D01*
Y149159D01*
X247815Y149140D01*
X247317Y148641D01*
X247047Y147990D01*
Y147285D01*
X247317Y146634D01*
X247815Y146136D01*
X248466Y145866D01*
X249171D01*
X249822Y146136D01*
X250321Y146634D01*
X250590Y147285D01*
Y147990D01*
X250321Y148641D01*
X249822Y149140D01*
X249775Y149159D01*
Y149659D01*
X249822Y149679D01*
X250321Y150178D01*
X250590Y150829D01*
Y151533D01*
X250321Y152185D01*
X249822Y152683D01*
X249171Y152953D01*
D02*
G37*
G36*
X61770Y148228D02*
X61065D01*
X60414Y147959D01*
X59915Y147460D01*
X59646Y146809D01*
Y146104D01*
X59915Y145453D01*
X60414Y144955D01*
X61065Y144685D01*
X61770D01*
X62421Y144955D01*
X62919Y145453D01*
X63189Y146104D01*
Y146809D01*
X62919Y147460D01*
X62421Y147959D01*
X61770Y148228D01*
D02*
G37*
G36*
X119250Y147047D02*
X118545D01*
X117894Y146777D01*
X117396Y146279D01*
X117126Y145628D01*
Y144923D01*
X117396Y144272D01*
X117894Y143774D01*
X118545Y143504D01*
X119250D01*
X119901Y143774D01*
X120400Y144272D01*
X120669Y144923D01*
Y145628D01*
X120400Y146279D01*
X119901Y146777D01*
X119250Y147047D01*
D02*
G37*
G36*
X135392Y146653D02*
X134687D01*
X134036Y146384D01*
X133537Y145885D01*
X133268Y145234D01*
Y144529D01*
X133537Y143878D01*
X134036Y143380D01*
X134687Y143110D01*
X135392D01*
X136043Y143380D01*
X136541Y143878D01*
X136811Y144529D01*
Y145234D01*
X136541Y145885D01*
X136043Y146384D01*
X135392Y146653D01*
D02*
G37*
G36*
X125155Y146260D02*
X124451D01*
X123800Y145990D01*
X123301Y145492D01*
X123031Y144841D01*
Y144136D01*
X123301Y143485D01*
X123800Y142986D01*
X124451Y142717D01*
X125155D01*
X125807Y142986D01*
X126305Y143485D01*
X126575Y144136D01*
Y144841D01*
X126305Y145492D01*
X125807Y145990D01*
X125155Y146260D01*
D02*
G37*
G36*
X333066Y151302D02*
X332361D01*
X331710Y151032D01*
X331212Y150534D01*
X330942Y149883D01*
Y149178D01*
X331212Y148527D01*
X331530Y148208D01*
X331175Y147854D01*
X330906Y147203D01*
Y146498D01*
X331175Y145847D01*
X331420Y145602D01*
X331627Y145276D01*
X331420Y144949D01*
X331175Y144704D01*
X330906Y144053D01*
Y143348D01*
X331175Y142697D01*
X331674Y142199D01*
X332325Y141929D01*
X333030D01*
X333681Y142199D01*
X334179Y142697D01*
X334449Y143348D01*
Y144053D01*
X334179Y144704D01*
X333934Y144949D01*
X333727Y145276D01*
X333934Y145602D01*
X334179Y145847D01*
X334449Y146498D01*
Y147203D01*
X334179Y147854D01*
X333861Y148172D01*
X334215Y148527D01*
X334485Y149178D01*
Y149883D01*
X334215Y150534D01*
X333717Y151032D01*
X333066Y151302D01*
D02*
G37*
G36*
X44241Y151388D02*
X42767D01*
X41342Y151006D01*
X40065Y150269D01*
X39022Y149226D01*
X38285Y147949D01*
X37903Y146525D01*
Y145050D01*
X38285Y143626D01*
X39022Y142349D01*
X40065Y141306D01*
X41342Y140569D01*
X42767Y140187D01*
X44241D01*
X45666Y140569D01*
X46943Y141306D01*
X47985Y142349D01*
X48723Y143626D01*
X49104Y145050D01*
Y146525D01*
X48723Y147949D01*
X47985Y149226D01*
X46943Y150269D01*
X45666Y151006D01*
X44241Y151388D01*
D02*
G37*
G36*
X12705Y145177D02*
X11705D01*
X10738Y144918D01*
X9872Y144418D01*
X9165Y143711D01*
X8664Y142844D01*
X8405Y141878D01*
Y140878D01*
X8664Y139911D01*
X9165Y139045D01*
X9872Y138338D01*
X10738Y137838D01*
X11705Y137579D01*
X12705D01*
X13671Y137838D01*
X14537Y138338D01*
X15245Y139045D01*
X15745Y139911D01*
X16004Y140878D01*
Y141878D01*
X15745Y142844D01*
X15245Y143711D01*
X14537Y144418D01*
X13671Y144918D01*
X12705Y145177D01*
D02*
G37*
G36*
X421378Y142864D02*
X420354D01*
X419366Y142599D01*
X418479Y142087D01*
X417755Y141364D01*
X417243Y140477D01*
X416978Y139488D01*
Y138464D01*
X417243Y137476D01*
X417755Y136589D01*
X418479Y135865D01*
X419366Y135354D01*
X420354Y135089D01*
X421378D01*
X422367Y135354D01*
X423253Y135865D01*
X423977Y136589D01*
X424489Y137476D01*
X424754Y138464D01*
Y139488D01*
X424489Y140477D01*
X423977Y141364D01*
X423253Y142087D01*
X422367Y142599D01*
X421378Y142864D01*
D02*
G37*
G36*
X414754D02*
X406978D01*
Y135089D01*
X414754D01*
Y142864D01*
D02*
G37*
G36*
X100746Y135236D02*
X100041D01*
X99390Y134967D01*
X98892Y134468D01*
X98622Y133817D01*
Y133112D01*
X98892Y132461D01*
X99390Y131963D01*
X100041Y131693D01*
X100746D01*
X101397Y131963D01*
X101896Y132461D01*
X102165Y133112D01*
Y133817D01*
X101896Y134468D01*
X101397Y134967D01*
X100746Y135236D01*
D02*
G37*
G36*
X12647Y134740D02*
X12380D01*
Y131553D01*
X15566D01*
Y131821D01*
X15337Y132676D01*
X14895Y133442D01*
X14269Y134068D01*
X13502Y134511D01*
X12647Y134740D01*
D02*
G37*
G36*
X12030D02*
X11762D01*
X10907Y134511D01*
X10141Y134068D01*
X9515Y133442D01*
X9072Y132676D01*
X8843Y131821D01*
Y131553D01*
X12030D01*
Y134740D01*
D02*
G37*
G36*
X32225Y145193D02*
X30768D01*
X29338Y144909D01*
X27992Y144351D01*
X26780Y143541D01*
X25750Y142511D01*
X24940Y141299D01*
X24383Y139953D01*
X24098Y138524D01*
Y137067D01*
X24383Y135637D01*
X24940Y134291D01*
X25750Y133080D01*
X26780Y132049D01*
X27992Y131240D01*
X29338Y130682D01*
X30768Y130398D01*
X32225D01*
X33654Y130682D01*
X35000Y131240D01*
X36212Y132049D01*
X37242Y133080D01*
X38052Y134291D01*
X38609Y135637D01*
X38894Y137067D01*
Y138524D01*
X38609Y139953D01*
X38052Y141299D01*
X37242Y142511D01*
X36212Y143541D01*
X35000Y144351D01*
X33654Y144909D01*
X32225Y145193D01*
D02*
G37*
G36*
X60035Y136354D02*
X52957D01*
Y129276D01*
X60035D01*
Y136354D01*
D02*
G37*
G36*
X149645Y134474D02*
X148940D01*
X148289Y134204D01*
X147791Y133706D01*
X147521Y133054D01*
Y132350D01*
X147791Y131699D01*
X148103Y131387D01*
X147791Y131075D01*
X147521Y130424D01*
Y129719D01*
X147791Y129068D01*
X148289Y128569D01*
X148940Y128300D01*
X149645D01*
X150296Y128569D01*
X150795Y129068D01*
X151065Y129719D01*
Y130424D01*
X150795Y131075D01*
X150483Y131387D01*
X150795Y131699D01*
X151065Y132350D01*
Y133054D01*
X150795Y133706D01*
X150296Y134204D01*
X149645Y134474D01*
D02*
G37*
G36*
X15566Y131203D02*
X12380D01*
Y128016D01*
X12647D01*
X13502Y128245D01*
X14269Y128688D01*
X14895Y129314D01*
X15337Y130080D01*
X15566Y130935D01*
Y131203D01*
D02*
G37*
G36*
X12030D02*
X8843D01*
Y130935D01*
X9072Y130080D01*
X9515Y129314D01*
X10141Y128688D01*
X10907Y128245D01*
X11762Y128016D01*
X12030D01*
Y131203D01*
D02*
G37*
G36*
X421378Y132864D02*
X420354D01*
X419366Y132599D01*
X418479Y132087D01*
X417755Y131363D01*
X417243Y130477D01*
X416978Y129488D01*
Y128464D01*
X417243Y127476D01*
X417755Y126589D01*
X418479Y125865D01*
X419366Y125354D01*
X420354Y125089D01*
X421378D01*
X422367Y125354D01*
X423253Y125865D01*
X423977Y126589D01*
X424489Y127476D01*
X424754Y128464D01*
Y129488D01*
X424489Y130477D01*
X423977Y131363D01*
X423253Y132087D01*
X422367Y132599D01*
X421378Y132864D01*
D02*
G37*
G36*
X411378D02*
X410354D01*
X409366Y132599D01*
X408479Y132087D01*
X407755Y131363D01*
X407243Y130477D01*
X406978Y129488D01*
Y128464D01*
X407243Y127476D01*
X407755Y126589D01*
X408479Y125865D01*
X409366Y125354D01*
X410354Y125089D01*
X411378D01*
X412367Y125354D01*
X413253Y125865D01*
X413977Y126589D01*
X414489Y127476D01*
X414754Y128464D01*
Y129488D01*
X414489Y130477D01*
X413977Y131363D01*
X413253Y132087D01*
X412367Y132599D01*
X411378Y132864D01*
D02*
G37*
G36*
X120037Y132480D02*
X119333D01*
X118682Y132211D01*
X118183Y131712D01*
X117913Y131061D01*
Y130356D01*
X118183Y129705D01*
X118682Y129207D01*
X119168Y129005D01*
Y128475D01*
X118682Y128274D01*
X118183Y127775D01*
X117913Y127124D01*
Y126419D01*
X118183Y125768D01*
X118682Y125270D01*
X119333Y125000D01*
X120037D01*
X120689Y125270D01*
X121187Y125768D01*
X121457Y126419D01*
Y127124D01*
X121187Y127775D01*
X120689Y128274D01*
X120202Y128475D01*
Y129005D01*
X120689Y129207D01*
X121187Y129705D01*
X121457Y130356D01*
Y131061D01*
X121187Y131712D01*
X120689Y132211D01*
X120037Y132480D01*
D02*
G37*
G36*
X66962Y131354D02*
X66030D01*
X65130Y131113D01*
X64323Y130647D01*
X63664Y129988D01*
X63198Y129181D01*
X62957Y128281D01*
Y127349D01*
X63198Y126449D01*
X63664Y125642D01*
X64323Y124983D01*
X65130Y124517D01*
X66030Y124276D01*
X66962D01*
X67862Y124517D01*
X68669Y124983D01*
X69328Y125642D01*
X69794Y126449D01*
X70035Y127349D01*
Y128281D01*
X69794Y129181D01*
X69328Y129988D01*
X68669Y130647D01*
X67862Y131113D01*
X66962Y131354D01*
D02*
G37*
G36*
X92478Y124606D02*
X91774D01*
X91122Y124337D01*
X90624Y123838D01*
X90354Y123187D01*
Y122482D01*
X90624Y121831D01*
X91122Y121333D01*
X91774Y121063D01*
X92478D01*
X93129Y121333D01*
X93628Y121831D01*
X93898Y122482D01*
Y123187D01*
X93628Y123838D01*
X93129Y124337D01*
X92478Y124606D01*
D02*
G37*
G36*
X238541Y123425D02*
X237837D01*
X237185Y123155D01*
X236687Y122657D01*
X236417Y122006D01*
Y121301D01*
X236687Y120650D01*
X237185Y120152D01*
X237837Y119882D01*
X238541D01*
X239193Y120152D01*
X239691Y120650D01*
X239961Y121301D01*
Y122006D01*
X239691Y122657D01*
X239193Y123155D01*
X238541Y123425D01*
D02*
G37*
G36*
X56962Y126354D02*
X56030D01*
X55130Y126113D01*
X54323Y125647D01*
X53664Y124988D01*
X53198Y124181D01*
X52957Y123281D01*
Y122349D01*
X53198Y121449D01*
X53664Y120642D01*
X54323Y119983D01*
X55130Y119517D01*
X56030Y119276D01*
X56962D01*
X57862Y119517D01*
X58669Y119983D01*
X59328Y120642D01*
X59794Y121449D01*
X60035Y122349D01*
Y123281D01*
X59794Y124181D01*
X59328Y124988D01*
X58669Y125647D01*
X57862Y126113D01*
X56962Y126354D01*
D02*
G37*
G36*
X253896Y119095D02*
X253191D01*
X252540Y118825D01*
X252041Y118326D01*
X251772Y117675D01*
Y116970D01*
X252041Y116319D01*
X252540Y115821D01*
X253191Y115551D01*
X253896D01*
X254547Y115821D01*
X255045Y116319D01*
X255315Y116970D01*
Y117675D01*
X255045Y118326D01*
X254547Y118825D01*
X253896Y119095D01*
D02*
G37*
G36*
X421378Y122864D02*
X420354D01*
X419366Y122599D01*
X418479Y122087D01*
X417755Y121363D01*
X417243Y120477D01*
X416978Y119488D01*
Y118465D01*
X417243Y117476D01*
X417755Y116589D01*
X418479Y115865D01*
X419366Y115354D01*
X420354Y115089D01*
X421378D01*
X422367Y115354D01*
X423253Y115865D01*
X423977Y116589D01*
X424489Y117476D01*
X424754Y118465D01*
Y119488D01*
X424489Y120477D01*
X423977Y121363D01*
X423253Y122087D01*
X422367Y122599D01*
X421378Y122864D01*
D02*
G37*
G36*
X411378D02*
X410354D01*
X409366Y122599D01*
X408479Y122087D01*
X407755Y121363D01*
X407243Y120477D01*
X406978Y119488D01*
Y118465D01*
X407243Y117476D01*
X407755Y116589D01*
X408479Y115865D01*
X409366Y115354D01*
X410354Y115089D01*
X411378D01*
X412367Y115354D01*
X413253Y115865D01*
X413977Y116589D01*
X414489Y117476D01*
X414754Y118465D01*
Y119488D01*
X414489Y120477D01*
X413977Y121363D01*
X413253Y122087D01*
X412367Y122599D01*
X411378Y122864D01*
D02*
G37*
G36*
X130156Y118039D02*
X129451D01*
X128800Y117769D01*
X128302Y117271D01*
X128032Y116620D01*
Y115915D01*
X128302Y115264D01*
X128800Y114766D01*
X129451Y114496D01*
X130156D01*
X130807Y114766D01*
X131306Y115264D01*
X131575Y115915D01*
Y116620D01*
X131306Y117271D01*
X130807Y117769D01*
X130156Y118039D01*
D02*
G37*
G36*
X140116Y117913D02*
X139411D01*
X138760Y117644D01*
X138262Y117145D01*
X137992Y116494D01*
Y115789D01*
X138262Y115138D01*
X138760Y114640D01*
X139411Y114370D01*
X140116D01*
X140767Y114640D01*
X141266Y115138D01*
X141535Y115789D01*
Y116494D01*
X141266Y117145D01*
X140767Y117644D01*
X140116Y117913D01*
D02*
G37*
G36*
X66962Y121354D02*
X66030D01*
X65130Y121113D01*
X64323Y120647D01*
X63664Y119988D01*
X63198Y119181D01*
X62957Y118281D01*
Y117349D01*
X63198Y116449D01*
X63664Y115642D01*
X64323Y114983D01*
X65130Y114517D01*
X66030Y114276D01*
X66962D01*
X67862Y114517D01*
X68669Y114983D01*
X69328Y115642D01*
X69794Y116449D01*
X70035Y117349D01*
Y118281D01*
X69794Y119181D01*
X69328Y119988D01*
X68669Y120647D01*
X67862Y121113D01*
X66962Y121354D01*
D02*
G37*
G36*
X56962Y116354D02*
X56030D01*
X55130Y116113D01*
X54323Y115647D01*
X53664Y114988D01*
X53198Y114181D01*
X52957Y113281D01*
Y112349D01*
X53198Y111449D01*
X53664Y110642D01*
X54323Y109983D01*
X55130Y109517D01*
X56030Y109276D01*
X56962D01*
X57862Y109517D01*
X58669Y109983D01*
X59328Y110642D01*
X59794Y111449D01*
X60035Y112349D01*
Y113281D01*
X59794Y114181D01*
X59328Y114988D01*
X58669Y115647D01*
X57862Y116113D01*
X56962Y116354D01*
D02*
G37*
G36*
X421378Y112864D02*
X420354D01*
X419366Y112599D01*
X418479Y112087D01*
X417755Y111363D01*
X417243Y110477D01*
X416978Y109488D01*
Y108465D01*
X417243Y107476D01*
X417755Y106589D01*
X418479Y105865D01*
X419366Y105353D01*
X420354Y105089D01*
X421378D01*
X422367Y105353D01*
X423253Y105865D01*
X423977Y106589D01*
X424489Y107476D01*
X424754Y108465D01*
Y109488D01*
X424489Y110477D01*
X423977Y111363D01*
X423253Y112087D01*
X422367Y112599D01*
X421378Y112864D01*
D02*
G37*
G36*
X411378D02*
X410354D01*
X409366Y112599D01*
X408479Y112087D01*
X407755Y111363D01*
X407243Y110477D01*
X406978Y109488D01*
Y108465D01*
X407243Y107476D01*
X407755Y106589D01*
X408479Y105865D01*
X409366Y105353D01*
X410354Y105089D01*
X411378D01*
X412367Y105353D01*
X413253Y105865D01*
X413977Y106589D01*
X414489Y107476D01*
X414754Y108465D01*
Y109488D01*
X414489Y110477D01*
X413977Y111363D01*
X413253Y112087D01*
X412367Y112599D01*
X411378Y112864D01*
D02*
G37*
G36*
X66962Y111354D02*
X66030D01*
X65130Y111113D01*
X64323Y110647D01*
X63664Y109988D01*
X63198Y109181D01*
X62957Y108281D01*
Y107349D01*
X63198Y106449D01*
X63664Y105642D01*
X64323Y104983D01*
X65130Y104517D01*
X66030Y104276D01*
X66962D01*
X67862Y104517D01*
X68669Y104983D01*
X69328Y105642D01*
X69794Y106449D01*
X70035Y107349D01*
Y108281D01*
X69794Y109181D01*
X69328Y109988D01*
X68669Y110647D01*
X67862Y111113D01*
X66962Y111354D01*
D02*
G37*
G36*
X147203Y105315D02*
X146498D01*
X145847Y105045D01*
X145349Y104547D01*
X145079Y103896D01*
Y103191D01*
X145349Y102540D01*
X145847Y102041D01*
X146498Y101772D01*
X147203D01*
X147854Y102041D01*
X148352Y102540D01*
X148622Y103191D01*
Y103896D01*
X148352Y104547D01*
X147854Y105045D01*
X147203Y105315D01*
D02*
G37*
G36*
X56962Y106354D02*
X56030D01*
X55130Y106113D01*
X54323Y105647D01*
X53664Y104988D01*
X53198Y104181D01*
X52957Y103281D01*
Y102349D01*
X53198Y101449D01*
X53664Y100642D01*
X54323Y99983D01*
X55130Y99517D01*
X56030Y99276D01*
X56962D01*
X57862Y99517D01*
X58669Y99983D01*
X59328Y100642D01*
X59794Y101449D01*
X60035Y102349D01*
Y103281D01*
X59794Y104181D01*
X59328Y104988D01*
X58669Y105647D01*
X57862Y106113D01*
X56962Y106354D01*
D02*
G37*
G36*
X66904Y100917D02*
X66671D01*
Y97990D01*
X69598D01*
Y98223D01*
X69387Y99012D01*
X68978Y99720D01*
X68401Y100297D01*
X67693Y100706D01*
X66904Y100917D01*
D02*
G37*
G36*
X66321D02*
X66088D01*
X65299Y100706D01*
X64591Y100297D01*
X64014Y99720D01*
X63605Y99012D01*
X63394Y98223D01*
Y97990D01*
X66321D01*
Y100917D01*
D02*
G37*
G36*
X375639Y101019D02*
X374935D01*
X374283Y100749D01*
X373785Y100251D01*
X373515Y99599D01*
Y98895D01*
X373785Y98244D01*
X374283Y97745D01*
X374935Y97475D01*
X375639D01*
X376290Y97745D01*
X376789Y98244D01*
X377059Y98895D01*
Y99599D01*
X376789Y100251D01*
X376290Y100749D01*
X375639Y101019D01*
D02*
G37*
G36*
X12705Y103012D02*
X11705D01*
X10738Y102753D01*
X9872Y102253D01*
X9165Y101545D01*
X8664Y100679D01*
X8405Y99713D01*
Y98712D01*
X8664Y97746D01*
X9165Y96880D01*
X9872Y96172D01*
X10738Y95672D01*
X11705Y95413D01*
X12705D01*
X13671Y95672D01*
X14537Y96172D01*
X15245Y96880D01*
X15745Y97746D01*
X16004Y98712D01*
Y99713D01*
X15745Y100679D01*
X15245Y101545D01*
X14537Y102253D01*
X13671Y102753D01*
X12705Y103012D01*
D02*
G37*
G36*
X421378Y102864D02*
X420354D01*
X419366Y102599D01*
X418479Y102087D01*
X417755Y101364D01*
X417243Y100477D01*
X416978Y99488D01*
Y98465D01*
X417243Y97476D01*
X417755Y96589D01*
X418479Y95865D01*
X419366Y95354D01*
X420354Y95089D01*
X421378D01*
X422367Y95354D01*
X423253Y95865D01*
X423977Y96589D01*
X424489Y97476D01*
X424754Y98465D01*
Y99488D01*
X424489Y100477D01*
X423977Y101364D01*
X423253Y102087D01*
X422367Y102599D01*
X421378Y102864D01*
D02*
G37*
G36*
X411378D02*
X410354D01*
X409366Y102599D01*
X408479Y102087D01*
X407755Y101364D01*
X407243Y100477D01*
X406978Y99488D01*
Y98465D01*
X407243Y97476D01*
X407755Y96589D01*
X408479Y95865D01*
X409366Y95354D01*
X410354Y95089D01*
X411378D01*
X412367Y95354D01*
X413253Y95865D01*
X413977Y96589D01*
X414489Y97476D01*
X414754Y98465D01*
Y99488D01*
X414489Y100477D01*
X413977Y101364D01*
X413253Y102087D01*
X412367Y102599D01*
X411378Y102864D01*
D02*
G37*
G36*
X69598Y97640D02*
X66671D01*
Y94713D01*
X66904D01*
X67693Y94924D01*
X68401Y95333D01*
X68978Y95910D01*
X69387Y96618D01*
X69598Y97407D01*
Y97640D01*
D02*
G37*
G36*
X66321D02*
X63394D01*
Y97407D01*
X63605Y96618D01*
X64014Y95910D01*
X64591Y95333D01*
X65299Y94924D01*
X66088Y94713D01*
X66321D01*
Y97640D01*
D02*
G37*
G36*
X12705Y93012D02*
X11705D01*
X10738Y92753D01*
X9872Y92253D01*
X9165Y91545D01*
X8664Y90679D01*
X8405Y89713D01*
Y88712D01*
X8664Y87746D01*
X9165Y86880D01*
X9872Y86172D01*
X10738Y85672D01*
X11705Y85413D01*
X12705D01*
X13671Y85672D01*
X14537Y86172D01*
X15245Y86880D01*
X15745Y87746D01*
X16004Y88712D01*
Y89713D01*
X15745Y90679D01*
X15245Y91545D01*
X14537Y92253D01*
X13671Y92753D01*
X12705Y93012D01*
D02*
G37*
G36*
X32225Y100193D02*
X30768D01*
X29338Y99909D01*
X27992Y99351D01*
X26780Y98541D01*
X25750Y97511D01*
X24940Y96299D01*
X24383Y94953D01*
X24098Y93524D01*
Y92067D01*
X24383Y90637D01*
X24940Y89291D01*
X25750Y88080D01*
X26780Y87049D01*
X27992Y86240D01*
X29338Y85682D01*
X30768Y85398D01*
X32225D01*
X33654Y85682D01*
X35000Y86240D01*
X36212Y87049D01*
X37242Y88080D01*
X38052Y89291D01*
X38609Y90637D01*
X38894Y92067D01*
Y93524D01*
X38609Y94953D01*
X38052Y96299D01*
X37242Y97511D01*
X36212Y98541D01*
X35000Y99351D01*
X33654Y99909D01*
X32225Y100193D01*
D02*
G37*
G36*
X421378Y92864D02*
X420354D01*
X419366Y92599D01*
X418479Y92087D01*
X417755Y91364D01*
X417243Y90477D01*
X416978Y89488D01*
Y88464D01*
X417243Y87476D01*
X417755Y86589D01*
X418479Y85865D01*
X419366Y85353D01*
X420354Y85089D01*
X421378D01*
X422367Y85353D01*
X423253Y85865D01*
X423977Y86589D01*
X424489Y87476D01*
X424754Y88464D01*
Y89488D01*
X424489Y90477D01*
X423977Y91364D01*
X423253Y92087D01*
X422367Y92599D01*
X421378Y92864D01*
D02*
G37*
G36*
X411378D02*
X410354D01*
X409366Y92599D01*
X408479Y92087D01*
X407755Y91364D01*
X407243Y90477D01*
X406978Y89488D01*
Y88464D01*
X407243Y87476D01*
X407755Y86589D01*
X408479Y85865D01*
X409366Y85353D01*
X410354Y85089D01*
X411378D01*
X412367Y85353D01*
X413253Y85865D01*
X413977Y86589D01*
X414489Y87476D01*
X414754Y88464D01*
Y89488D01*
X414489Y90477D01*
X413977Y91364D01*
X413253Y92087D01*
X412367Y92599D01*
X411378Y92864D01*
D02*
G37*
G36*
X44241Y90403D02*
X42767D01*
X41342Y90022D01*
X40065Y89285D01*
X39022Y88242D01*
X38285Y86965D01*
X37903Y85540D01*
Y84066D01*
X38285Y82642D01*
X39022Y81364D01*
X40065Y80322D01*
X41342Y79584D01*
X42767Y79203D01*
X44241D01*
X45666Y79584D01*
X46943Y80322D01*
X47985Y81364D01*
X48723Y82642D01*
X49104Y84066D01*
Y85540D01*
X48723Y86965D01*
X47985Y88242D01*
X46943Y89285D01*
X45666Y90022D01*
X44241Y90403D01*
D02*
G37*
G36*
X65313Y73032D02*
X64608D01*
X63957Y72762D01*
X63459Y72263D01*
X63189Y71612D01*
Y70907D01*
X63459Y70256D01*
X63957Y69758D01*
X64608Y69488D01*
X65313D01*
X65964Y69758D01*
X66463Y70256D01*
X66732Y70907D01*
Y71612D01*
X66463Y72263D01*
X65964Y72762D01*
X65313Y73032D01*
D02*
G37*
G36*
X42478D02*
X41774D01*
X41122Y72762D01*
X40624Y72263D01*
X40354Y71612D01*
Y70907D01*
X40624Y70256D01*
X41122Y69758D01*
X41774Y69488D01*
X42478D01*
X43130Y69758D01*
X43628Y70256D01*
X43898Y70907D01*
Y71612D01*
X43628Y72263D01*
X43130Y72762D01*
X42478Y73032D01*
D02*
G37*
G36*
X88541Y73032D02*
X87837D01*
X87185Y72762D01*
X86687Y72263D01*
X86417Y71612D01*
Y70907D01*
X86687Y70256D01*
X87185Y69758D01*
X87837Y69488D01*
X88541D01*
X89192Y69758D01*
X89691Y70256D01*
X89961Y70907D01*
Y71612D01*
X89691Y72263D01*
X89192Y72762D01*
X88541Y73032D01*
D02*
G37*
G36*
X207724Y67673D02*
X207019D01*
X206368Y67404D01*
X205870Y66905D01*
X205668Y66419D01*
X205138D01*
X204936Y66905D01*
X204438Y67404D01*
X203787Y67673D01*
X203082D01*
X202431Y67404D01*
X201933Y66905D01*
X201695Y66332D01*
X201397Y66274D01*
X201178Y66291D01*
X200963Y66809D01*
X200465Y67307D01*
X199814Y67577D01*
X199109D01*
X198458Y67307D01*
X197960Y66809D01*
X197690Y66158D01*
Y65453D01*
X197960Y64802D01*
X198458Y64304D01*
X199109Y64034D01*
X199814D01*
X200465Y64304D01*
X200963Y64802D01*
X201201Y65375D01*
X201499Y65433D01*
X201718Y65416D01*
X201933Y64898D01*
X202431Y64400D01*
X203082Y64130D01*
X203787D01*
X204438Y64400D01*
X204936Y64898D01*
X205138Y65384D01*
X205668D01*
X205870Y64898D01*
X206368Y64400D01*
X207019Y64130D01*
X207724D01*
X208375Y64400D01*
X208873Y64898D01*
X209143Y65549D01*
Y66254D01*
X208873Y66905D01*
X208375Y67404D01*
X207724Y67673D01*
D02*
G37*
G36*
X380667Y66732D02*
X379963D01*
X379311Y66463D01*
X378813Y65964D01*
X378543Y65313D01*
Y64608D01*
X378813Y63957D01*
X379311Y63459D01*
X379963Y63189D01*
X380667D01*
X381318Y63459D01*
X381817Y63957D01*
X382087Y64608D01*
Y65313D01*
X381817Y65964D01*
X381318Y66463D01*
X380667Y66732D01*
D02*
G37*
G36*
X373974D02*
X373270D01*
X372619Y66463D01*
X372120Y65964D01*
X371850Y65313D01*
Y64608D01*
X372120Y63957D01*
X372619Y63459D01*
X373270Y63189D01*
X373974D01*
X374626Y63459D01*
X375124Y63957D01*
X375394Y64608D01*
Y65313D01*
X375124Y65964D01*
X374626Y66463D01*
X373974Y66732D01*
D02*
G37*
G36*
X367282D02*
X366577D01*
X365926Y66463D01*
X365427Y65964D01*
X365158Y65313D01*
Y64608D01*
X365427Y63957D01*
X365926Y63459D01*
X366577Y63189D01*
X367282D01*
X367933Y63459D01*
X368431Y63957D01*
X368701Y64608D01*
Y65313D01*
X368431Y65964D01*
X367933Y66463D01*
X367282Y66732D01*
D02*
G37*
G36*
X126355Y64915D02*
X124781D01*
X123820Y64724D01*
X123006Y64180D01*
X122463Y63366D01*
X122272Y62406D01*
X122463Y61446D01*
X123006Y60632D01*
X123820Y60088D01*
X124781Y59898D01*
X126355D01*
X127315Y60088D01*
X128129Y60632D01*
X128673Y61446D01*
X128864Y62406D01*
X128673Y63366D01*
X128129Y64180D01*
X127315Y64724D01*
X126355Y64915D01*
D02*
G37*
G36*
X106670D02*
X105096D01*
X104135Y64724D01*
X103322Y64180D01*
X102778Y63366D01*
X102587Y62406D01*
X102778Y61446D01*
X103322Y60632D01*
X104135Y60088D01*
X105096Y59898D01*
X106670D01*
X107630Y60088D01*
X108444Y60632D01*
X108988Y61446D01*
X109179Y62406D01*
X108988Y63366D01*
X108444Y64180D01*
X107630Y64724D01*
X106670Y64915D01*
D02*
G37*
G36*
X387754Y66732D02*
X387049D01*
X386398Y66463D01*
X385900Y65964D01*
X385630Y65313D01*
Y64608D01*
X385900Y63957D01*
X386398Y63459D01*
X387049Y63189D01*
X387430D01*
X387719Y62689D01*
X387508Y62325D01*
X387279Y61470D01*
Y60584D01*
X387508Y59729D01*
X387951Y58963D01*
X388577Y58337D01*
X389344Y57894D01*
X390199Y57665D01*
X391084D01*
X391939Y57894D01*
X392706Y58337D01*
X393332Y58963D01*
X393774Y59729D01*
X394004Y60584D01*
Y61470D01*
X393774Y62325D01*
X393332Y63091D01*
X392706Y63718D01*
X391939Y64160D01*
X391084Y64389D01*
X390199D01*
X389552Y64216D01*
X389173Y64608D01*
Y65313D01*
X388903Y65964D01*
X388405Y66463D01*
X387754Y66732D01*
D02*
G37*
G36*
X359588Y64389D02*
X358703D01*
X357847Y64160D01*
X357081Y63718D01*
X356455Y63091D01*
X356012Y62325D01*
X355783Y61470D01*
Y60584D01*
X356012Y59729D01*
X356455Y58963D01*
X357081Y58337D01*
X357847Y57894D01*
X358703Y57665D01*
X359588D01*
X360443Y57894D01*
X361210Y58337D01*
X361836Y58963D01*
X362278Y59729D01*
X362508Y60584D01*
Y61470D01*
X362278Y62325D01*
X361836Y63091D01*
X361210Y63718D01*
X360443Y64160D01*
X359588Y64389D01*
D02*
G37*
%LPD*%
D148*
X101946Y51737D02*
D03*
X129466D02*
D03*
X172581Y261658D02*
D03*
X145061D02*
D03*
D149*
X397244Y249606D02*
D03*
X367244Y259606D02*
D03*
X347244D02*
D03*
X327244Y249606D02*
D03*
X297244Y259606D02*
D03*
X267244D02*
D03*
X247244Y249606D02*
D03*
X227244Y259606D02*
D03*
D151*
X66496Y97815D02*
D03*
D154*
X12205Y131378D02*
D03*
D156*
X251969Y129528D02*
D03*
X250394Y117323D02*
D03*
X248819Y121260D02*
D03*
X252362Y170866D02*
D03*
X257087D02*
D03*
X260630Y155905D02*
D03*
X281102Y209842D02*
D03*
Y205118D02*
D03*
X279134Y191732D02*
D03*
X281496Y183071D02*
D03*
X248819Y164961D02*
D03*
Y167717D02*
D03*
Y154331D02*
D03*
X233071Y150787D02*
D03*
X237795D02*
D03*
X206299Y144488D02*
D03*
X201575D02*
D03*
X196850D02*
D03*
X401575Y50000D02*
D03*
X344882Y62598D02*
D03*
X139370Y213386D02*
D03*
X144095D02*
D03*
X148819D02*
D03*
X168898Y224016D02*
D03*
X361024Y206693D02*
D03*
X356299D02*
D03*
X351575D02*
D03*
X344094Y95669D02*
D03*
X401575D02*
D03*
X68504Y122835D02*
D03*
X78347Y250787D02*
D03*
X117717Y250394D02*
D03*
X126378Y239764D02*
D03*
X88583Y239764D02*
D03*
X48031Y224016D02*
D03*
X53543Y210630D02*
D03*
Y202756D02*
D03*
Y206693D02*
D03*
X96457Y191339D02*
D03*
X112595Y205906D02*
D03*
X94095Y187008D02*
D03*
X103934Y185039D02*
D03*
X114567Y197244D02*
D03*
X105508Y196063D02*
D03*
X96457Y207087D02*
D03*
X115745Y205906D02*
D03*
X114170Y187402D02*
D03*
X103934Y205906D02*
D03*
X96457Y201575D02*
D03*
X131496Y230709D02*
D03*
X116134Y218839D02*
D03*
X106693Y228740D02*
D03*
X69291Y228346D02*
D03*
X79134Y220866D02*
D03*
X73017Y220788D02*
D03*
X90932Y219301D02*
D03*
X72835Y210630D02*
D03*
X78740Y178110D02*
D03*
X83845Y209065D02*
D03*
X77123Y205081D02*
D03*
X62205Y196457D02*
D03*
X81680Y197566D02*
D03*
X83006Y190652D02*
D03*
X383971Y99269D02*
D03*
X116535Y129921D02*
D03*
X140945Y90551D02*
D03*
X116535Y123622D02*
D03*
X163287Y55905D02*
D03*
X167717Y83465D02*
D03*
X155118Y63386D02*
D03*
Y78740D02*
D03*
Y70866D02*
D03*
Y55905D02*
D03*
X159843Y83465D02*
D03*
X171457Y55905D02*
D03*
X207371Y52909D02*
D03*
X195954Y90311D02*
D03*
X180315Y70866D02*
D03*
Y78740D02*
D03*
X195954Y87161D02*
D03*
X175591Y83465D02*
D03*
X199497Y52909D02*
D03*
X179626Y55905D02*
D03*
X187795D02*
D03*
X180315Y63386D02*
D03*
X134826Y130764D02*
D03*
X130495Y126433D02*
D03*
Y130764D02*
D03*
Y135094D02*
D03*
X134826Y126433D02*
D03*
Y135094D02*
D03*
X139156Y126433D02*
D03*
Y130764D02*
D03*
Y135094D02*
D03*
X25197Y211146D02*
D03*
X126772Y114961D02*
D03*
X88189Y74410D02*
D03*
X92126Y132835D02*
D03*
X196926Y230728D02*
D03*
X190945Y232677D02*
D03*
X206299Y230709D02*
D03*
X122047Y146063D02*
D03*
X98721Y139170D02*
D03*
X39315Y208232D02*
D03*
X25197Y203543D02*
D03*
X38109Y220079D02*
D03*
X195276Y241406D02*
D03*
X152756Y234130D02*
D03*
X179134Y224803D02*
D03*
X152756Y243307D02*
D03*
X160236Y231102D02*
D03*
X175591Y242520D02*
D03*
X190945Y218898D02*
D03*
Y214961D02*
D03*
Y211024D02*
D03*
X194882Y218898D02*
D03*
Y214961D02*
D03*
Y211024D02*
D03*
X187008Y218898D02*
D03*
Y214961D02*
D03*
Y211024D02*
D03*
X58268Y146457D02*
D03*
X137522Y146537D02*
D03*
X42232Y74536D02*
D03*
X65066D02*
D03*
X87795Y50394D02*
D03*
X65104Y50472D02*
D03*
X42126Y50866D02*
D03*
X123228Y103642D02*
D03*
X14173Y116142D02*
D03*
Y121260D02*
D03*
X142873Y114920D02*
D03*
X175197Y206693D02*
D03*
X197244Y255906D02*
D03*
Y260236D02*
D03*
X48819Y170473D02*
D03*
X92005Y103637D02*
D03*
X97123D02*
D03*
X9449Y176772D02*
D03*
X207406Y211737D02*
D03*
X29134Y191339D02*
D03*
Y154331D02*
D03*
X9449Y170079D02*
D03*
X32283Y165748D02*
D03*
X29134Y157087D02*
D03*
Y159843D02*
D03*
Y185827D02*
D03*
X31496Y175984D02*
D03*
X29134Y188583D02*
D03*
X61024Y224016D02*
D03*
X57087D02*
D03*
X101698Y69978D02*
D03*
X127582Y70271D02*
D03*
X51968Y224016D02*
D03*
X25197Y218504D02*
D03*
X22831Y223228D02*
D03*
X19682D02*
D03*
X187274Y246583D02*
D03*
Y243433D02*
D03*
X180315Y161417D02*
D03*
X193701Y161417D02*
D03*
X153150D02*
D03*
X166619Y161372D02*
D03*
X42850Y112155D02*
D03*
X152347Y129676D02*
D03*
X112087Y120204D02*
D03*
X101181Y120473D02*
D03*
X106749Y120211D02*
D03*
X152390Y132373D02*
D03*
X105883Y51776D02*
D03*
X125174D02*
D03*
X168928Y261367D02*
D03*
X149636D02*
D03*
X153382Y181907D02*
D03*
X163386Y181890D02*
D03*
M02*
