G04*
G04 #@! TF.GenerationSoftware,Altium Limited,Altium Designer,22.9.1 (49)*
G04*
G04 Layer_Color=128*
%FSLAX25Y25*%
%MOIN*%
G70*
G04*
G04 #@! TF.SameCoordinates,09DA8A7C-0E06-47C8-8122-5E973528E8BD*
G04*
G04*
G04 #@! TF.FilePolarity,Positive*
G04*
G01*
G75*
%ADD20R,0.02362X0.02520*%
%ADD21R,0.02520X0.02362*%
%ADD22R,0.02953X0.02362*%
%ADD27R,0.02362X0.02953*%
%ADD29R,0.02423X0.02254*%
%ADD157R,0.04724X0.05906*%
%ADD158R,0.06299X0.05906*%
%ADD159R,0.04724X0.08661*%
%ADD160R,0.02756X0.06299*%
D20*
X278504Y187795D02*
D03*
X275039D02*
D03*
Y183071D02*
D03*
X278504D02*
D03*
X329134Y164567D02*
D03*
X325669D02*
D03*
X329134Y155118D02*
D03*
X325669D02*
D03*
X329134Y136221D02*
D03*
X325669D02*
D03*
X329134Y178740D02*
D03*
X325669D02*
D03*
X313386Y191339D02*
D03*
X316850D02*
D03*
X242205Y147638D02*
D03*
X245669D02*
D03*
X258819Y190157D02*
D03*
X255354D02*
D03*
X258819Y185433D02*
D03*
X255354D02*
D03*
X325669Y150394D02*
D03*
X329134D02*
D03*
X325669Y145669D02*
D03*
X329134D02*
D03*
X252205Y125984D02*
D03*
X255669D02*
D03*
X252205Y121260D02*
D03*
X255669D02*
D03*
X245197D02*
D03*
X241732D02*
D03*
X325669Y174016D02*
D03*
X329134D02*
D03*
X325669Y169291D02*
D03*
X329134D02*
D03*
X325669Y140945D02*
D03*
X329134D02*
D03*
X325669Y159843D02*
D03*
X329134D02*
D03*
X117556Y187402D02*
D03*
X121020D02*
D03*
X90000Y201575D02*
D03*
X93464D02*
D03*
X89997Y207087D02*
D03*
X93461D02*
D03*
X90000Y191339D02*
D03*
X93464D02*
D03*
X117612Y197094D02*
D03*
X121077D02*
D03*
X64252Y209055D02*
D03*
X67716D02*
D03*
X73244Y178969D02*
D03*
X69780D02*
D03*
X179730Y212080D02*
D03*
X183194D02*
D03*
X198620Y214047D02*
D03*
X202085D02*
D03*
X145945Y130441D02*
D03*
X142481D02*
D03*
X145945Y134771D02*
D03*
X142481D02*
D03*
X123307Y133071D02*
D03*
X126772D02*
D03*
Y127953D02*
D03*
X123307D02*
D03*
X10394Y116142D02*
D03*
X6929D02*
D03*
X46236Y112155D02*
D03*
X49701D02*
D03*
D21*
X285039Y197638D02*
D03*
Y194173D02*
D03*
X302362Y197638D02*
D03*
Y194173D02*
D03*
X252362Y164173D02*
D03*
Y167638D02*
D03*
X257087Y152362D02*
D03*
Y155827D02*
D03*
X312598Y182756D02*
D03*
Y186221D02*
D03*
X317717Y182756D02*
D03*
Y186221D02*
D03*
X257087Y167638D02*
D03*
Y164173D02*
D03*
X252362Y155827D02*
D03*
Y152362D02*
D03*
X250394Y186063D02*
D03*
Y189528D02*
D03*
X287795Y114488D02*
D03*
Y111024D02*
D03*
X298031Y114488D02*
D03*
Y111024D02*
D03*
X292913Y114488D02*
D03*
Y111024D02*
D03*
X262598Y125354D02*
D03*
Y121890D02*
D03*
X272441Y114488D02*
D03*
Y111024D02*
D03*
X290945Y194173D02*
D03*
Y197638D02*
D03*
X277165Y114488D02*
D03*
Y111024D02*
D03*
X297638Y194173D02*
D03*
Y197638D02*
D03*
X94268Y184062D02*
D03*
Y180598D02*
D03*
X103978Y209094D02*
D03*
Y212558D02*
D03*
X112836Y209094D02*
D03*
Y212558D02*
D03*
X117757Y209094D02*
D03*
Y212558D02*
D03*
X72831Y202756D02*
D03*
Y206221D02*
D03*
X78373Y185112D02*
D03*
Y181648D02*
D03*
X75590Y117795D02*
D03*
Y121260D02*
D03*
X189572Y226410D02*
D03*
Y222946D02*
D03*
X194297D02*
D03*
Y226410D02*
D03*
X5512Y180236D02*
D03*
Y176772D02*
D03*
X139646Y119417D02*
D03*
Y122882D02*
D03*
X133934Y141913D02*
D03*
Y138449D02*
D03*
X129804Y119417D02*
D03*
Y122882D02*
D03*
D22*
X379823Y110630D02*
D03*
X375295D02*
D03*
X264272Y59449D02*
D03*
X268799D02*
D03*
X89468Y196457D02*
D03*
X93996D02*
D03*
X53445Y219291D02*
D03*
X48917D02*
D03*
X69587Y151575D02*
D03*
X65059D02*
D03*
X69587Y146457D02*
D03*
X65059D02*
D03*
X16831Y111024D02*
D03*
X12303D02*
D03*
X69587Y141339D02*
D03*
X65059D02*
D03*
X15945Y182677D02*
D03*
X11417D02*
D03*
X15650Y164173D02*
D03*
X11122D02*
D03*
X12303Y105905D02*
D03*
X16831D02*
D03*
X10925Y121260D02*
D03*
X6398D02*
D03*
D27*
X5512Y170374D02*
D03*
Y165847D02*
D03*
D29*
X67544Y202756D02*
D03*
X64170D02*
D03*
X73087Y186056D02*
D03*
X69712D02*
D03*
D157*
X401665Y100397D02*
D03*
D158*
X344184D02*
D03*
D159*
X340641Y62602D02*
D03*
X401665D02*
D03*
D160*
X396940Y104334D02*
D03*
X362295D02*
D03*
X366625D02*
D03*
X370956D02*
D03*
X375287D02*
D03*
X379618D02*
D03*
X383948D02*
D03*
X388279D02*
D03*
X392610D02*
D03*
M02*
