M48
;Layer_Color=9474304
;FILE_FORMAT=2:5
INCH,LZ
;TYPE=PLATED
T1F00S00C0.00787
T2F00S00C0.01181
T6F00S00C0.03504
T7F00S00C0.04016
T8F00S00C0.04134
T9F00S00C0.04331
T10F00S00C0.06417
T11F00S00C0.09843
;TYPE=NON_PLATED
T12F00S00C0.02559
T13F00S00C0.04724
T14F00S00C0.12795
%
T01
X0130495Y0126433
Y0130764
X0134826
Y0126433
X0139156
Y0130764
Y0135094
X0134826
X0130495
T02
X0042126Y0050866
X0042126Y007126
X0042232Y0074536
X0065066
X0064961Y007126
X0065104Y0050472
X0087795Y0050394
X0105883Y0051776
X0125174
X0127582Y0070271
X0101698Y0069978
X0088189Y007126
Y007441
X0155118Y0070866
Y0063386
Y0055905
X0163287
X0171457
X0179626
X0187795
X0199497Y0052909
X0207371
Y0065902
X0203434
X0199462Y0065806
X0180315Y0063386
Y0070866
Y007874
X0155118
X0344882Y0062598
X0366929Y0064961
X0373622
X0380315
X0387402
X0401575Y005
X0401575Y0095669
X0383971Y0099269
X0375287Y0099247
X0344094Y0095669
X0332677Y0143701
Y014685
X0332714Y014953
Y0158979
Y0164491
X034685Y0163386
X0343307Y0169291
X0361142Y0194854
X0361024Y0206693
X0356299
X0351575
X0297244Y0201181
X0290945
X0285039
X0281102Y0205118
Y0209842
X0271654
Y0205118
X0274803Y0191732
X0279134
X0281496Y0183071
X0272047
X0257087Y0170866
X0252362
X0248819Y0167717
Y0164961
Y0161811
Y0154331
Y0151181
Y0147638
X0237795Y0150787
X0233071
Y0160236
X0237795
X0260236Y0164173
X026063Y0155905
Y0151969
X0251969Y0129528
X0248819Y012126
X0250394Y0117323
X0253543
X0238189Y0121653
X0206299Y0144488
X0201575
X019685
X0196732Y0156327
X0193701Y0161417
X0190468Y0161462
X0180315Y0161417
X0177165Y0161417
X0166619Y0161372
X0163386Y0161417
X015315
X015
Y018189
X0153382Y0181907
X0163386Y018189
X0175197Y0206693
X0177165Y0209842
X0187008Y0211024
X0190945
Y0214961
Y0218898
X0194882
Y0214961
Y0211024
X0187008Y0214961
Y0218898
X0188583Y0230709
X0190945Y0232677
X0193307Y0230709
X0196926Y0230728
X02Y0230709
X0202969
X0206299
X0204642Y02137
X0207406Y0211737
X0179134Y0224803
Y0227953
X0168898Y0224016
X0160236Y0231102
X0152756Y023413
Y0237098
X0137795Y0225984
X0131496Y0230709
X013937Y0213386
X0144095
X0148819
X0117713Y0216142
X0114564
X0116134Y0218839
X0115745Y0205906
X0112595
X0103934
X0096457Y0207087
Y0201575
Y0191339
X0094095Y0187008
X009426Y017698
X0090945Y0174016
X0094882Y0170866
X0095276Y0164567
X0101585Y0164566
X0104724Y0166929
X0107874
X0112598Y017126
X0117323Y0175591
X011417Y0187402
X0114567Y0197244
X0124405Y0196985
X0130315Y0195669
X0130355Y0188172
X0124406Y0187303
X0103934Y0185039
X0105508Y0196063
X0103999Y0215821
X0106771Y0225197
X0106693Y022874
X0090932Y0219301
X008189Y0219291
X0079134Y0220866
X0075984
X0073017Y0220788
X0072835Y021063
X0077123Y0205081
X0083845Y0209065
X0083858Y0212205
X0086216Y0207253
X0086268Y0201392
X0083667Y0199772
X008168Y0197566
X0083006Y0190652
X0085812Y0191735
X007874Y017811
X0077953Y0173622
X0082677Y0169685
X0088583Y0167323
X0092126Y0132835
X0100394Y0133465
X0098721Y013917
X0101181Y0120473
X0106749Y0120211
X0112087Y0120204
X0116535Y0123622
Y0129921
X0119685Y0130709
Y0126772
X0126772Y0114961
X0129804Y0116268
X0139764Y0116142
X0142873Y011492
X014685Y0103543
X0140945Y0090551
X0159843Y0083465
X0167717
X0175591
X0195954Y0087161
Y0090311
X0152347Y0129676
X015239Y0132373
X0149293Y0132702
Y0130071
X0137522Y0146537
X0135039Y0144882
X0124803Y0144488
X0122047Y0146063
X0118898Y0145276
X0120177Y0149606
X0123228Y0103642
X0097123Y0103637
X0092005
X0092126Y0122835
X0068504
X0061417Y0146457
X0058268
X0048819Y0170473
X0032283Y0165748
X0029134
Y0159843
Y0157087
Y0154331
X002874Y0177559
X0031496Y0175984
X0029134Y0185827
Y0188583
Y0191339
X0025197Y0203543
Y0211146
Y0218504
X0022831Y0223228
X0019682
X0011024Y0221811
Y021811
X0011417Y0211811
X0005906Y0215748
Y0221849
Y0227949
X0011024Y0227874
Y0233937
X0005906Y023405
X0038109Y0220079
X0041339Y0220079
X0048031Y0224016
X0051968
X0057087
X0061024
X0069291Y0224803
Y0228346
X0057087Y0218898
Y021063
X0053543
Y0206693
X0057087
Y0202756
X0053543
X0062205Y0196457
X0066394Y0186056
Y0182513
Y0178969
X0039315Y0208232
X0009449Y0176772
Y0170079
X0014173Y012126
Y0116142
X004285Y0112155
X0047942Y024014
X0051879
X0057083Y0240158
X006102
X0061024Y0245276
X0057087
X0051968
X0048028Y0245276
X0050981Y0253543
X0044682
Y026063
X0050981
X0037497
Y0253543
X0030312
X0024409Y0253543
Y026063
X0030312Y026063
X0022835Y0246063
X0022831Y0239764
X0019288
X0011024Y024
X0005906Y024015
X0074017Y0239432
X0088583Y0239764
X0094882Y0239764
X0100394
X0105905
X0111419Y0239826
X0126378Y0239764
X0132285Y0239826
X0137795Y0240158
X0152756
Y0243307
X0150787Y0245669
X0149636Y0261367
X0168928
X0175591Y024252
X0187274Y0243433
Y0246583
X0198786Y0247723
X0197244Y0255906
Y0260236
X0195276Y0241406
X0117717Y0250394
X0078347Y0250787
T06
X0056496Y0102815
Y0112815
Y0122815
Y0132815
X0066496Y0127815
Y0117815
Y0107815
Y0097815
T07
X0012205Y0089213
Y0099213
Y0131378
Y0141378
T08
X0410866Y0088976
X0420866
Y0098976
X0410866
Y0108976
X0420866
Y0118976
X0410866
Y0128976
X0420866
Y0138976
X0410866
Y0175197
X0420866
Y0185197
X0410866
Y0195197
X0420866
Y0205197
X0410866
Y0215197
X0420866
Y0225197
X0410866
T09
X0207244Y0249606
X0217244
Y0259606
X0207244
X0227244
X0237244
X0247244
X0257244
X0267244
X0277244
X0287244
X0297244
X0307244
X0317244
X0327244
X0337244
X0347244
X0357244
X0367244
X0377244
Y0249606
X0367244
X0357244
X0347244
X0337244
X0327244
X0317244
X0307244
X0297244
X0287244
X0277244
X0267244
X0257244
X0247244
X0237244
X0227244
X0387244
X0397244
Y0259606
X0387244
T10
X0043504Y0084803
Y0145787
T11
X0010486Y0058068
X0415161Y0058518
X0011667Y0255312
X0414961Y0255512
T12
X0020527Y0161384
Y018414
T13
X0359145Y0061027
X0390641
T14
X0031496Y0092795
Y0137795
M30
