G04*
G04 #@! TF.GenerationSoftware,Altium Limited,Altium Designer,22.9.1 (49)*
G04*
G04 Layer_Color=32896*
%FSLAX25Y25*%
%MOIN*%
G70*
G04*
G04 #@! TF.SameCoordinates,09DA8A7C-0E06-47C8-8122-5E973528E8BD*
G04*
G04*
G04 #@! TF.FilePolarity,Positive*
G04*
G01*
G75*
%ADD12C,0.00787*%
%ADD14C,0.00591*%
%ADD17C,0.01000*%
D12*
X62959Y200054D02*
X68756D01*
X62959Y205458D02*
X68756D01*
X68501Y183354D02*
X74298D01*
X68501Y188758D02*
X74298D01*
D14*
X280709Y188976D02*
Y189764D01*
X272835D02*
X280709D01*
X272835Y188976D02*
Y189764D01*
Y185827D02*
Y186614D01*
Y185827D02*
X280709D01*
Y186614D01*
Y181102D02*
Y181890D01*
X272835Y181102D02*
X280709D01*
X272835D02*
Y181890D01*
Y184252D02*
Y185039D01*
X280709D01*
Y184252D02*
Y185039D01*
X323465Y165748D02*
Y166535D01*
X331339D01*
Y165748D02*
Y166535D01*
Y162598D02*
Y163386D01*
X323465Y162598D02*
X331339D01*
X323465D02*
Y163386D01*
Y156299D02*
Y157087D01*
X331339D01*
Y156299D02*
Y157087D01*
Y153150D02*
Y153937D01*
X323465Y153150D02*
X331339D01*
X323465D02*
Y153937D01*
Y137402D02*
Y138189D01*
X331339D01*
Y137402D02*
Y138189D01*
Y134252D02*
Y135039D01*
X323465Y134252D02*
X331339D01*
X323465D02*
Y135039D01*
Y179921D02*
Y180709D01*
X331339D01*
Y179921D02*
Y180709D01*
Y176772D02*
Y177559D01*
X323465Y176772D02*
X331339D01*
X323465D02*
Y177559D01*
X283071Y191969D02*
X283858D01*
X283071D02*
Y199843D01*
X283858D01*
X286221D02*
X287008D01*
Y191969D02*
Y199843D01*
X286221Y191969D02*
X287008D01*
X300394D02*
X301181D01*
X300394D02*
Y199843D01*
X301181D01*
X303543D02*
X304331D01*
Y191969D02*
Y199843D01*
X303543Y191969D02*
X304331D01*
X253543Y169843D02*
X254331D01*
Y161969D02*
Y169843D01*
X253543Y161969D02*
X254331D01*
X250394D02*
X251181D01*
X250394D02*
Y169843D01*
X251181D01*
X258268Y158031D02*
X259055D01*
Y150157D02*
Y158031D01*
X258268Y150157D02*
X259055D01*
X255118D02*
X255906D01*
X255118D02*
Y158031D01*
X255906D01*
X311181Y189370D02*
Y190157D01*
Y189370D02*
X319055D01*
Y190157D01*
Y192520D02*
Y193307D01*
X311181D02*
X319055D01*
X311181Y192520D02*
Y193307D01*
X313779Y180551D02*
X314567D01*
Y188425D01*
X313779D02*
X314567D01*
X310630D02*
X311417D01*
X310630Y180551D02*
Y188425D01*
Y180551D02*
X311417D01*
X318898D02*
X319685D01*
Y188425D01*
X318898D02*
X319685D01*
X315748D02*
X316535D01*
X315748Y180551D02*
Y188425D01*
Y180551D02*
X316535D01*
X255118Y169843D02*
X255906D01*
X255118Y161969D02*
Y169843D01*
Y161969D02*
X255906D01*
X258268D02*
X259055D01*
Y169843D01*
X258268D02*
X259055D01*
X250394Y158031D02*
X251181D01*
X250394Y150157D02*
Y158031D01*
Y150157D02*
X251181D01*
X253543D02*
X254331D01*
Y158031D01*
X253543D02*
X254331D01*
X240000Y145669D02*
Y146457D01*
Y145669D02*
X247874D01*
Y146457D01*
Y148819D02*
Y149606D01*
X240000D02*
X247874D01*
X240000Y148819D02*
Y149606D01*
X251575Y183858D02*
X252362D01*
Y191732D01*
X251575D02*
X252362D01*
X248425D02*
X249213D01*
X248425Y183858D02*
Y191732D01*
Y183858D02*
X249213D01*
X261024Y191339D02*
Y192126D01*
X253150D02*
X261024D01*
X253150Y191339D02*
Y192126D01*
Y188189D02*
Y188976D01*
Y188189D02*
X261024D01*
Y188976D01*
Y186614D02*
Y187402D01*
X253150D02*
X261024D01*
X253150Y186614D02*
Y187402D01*
Y183465D02*
Y184252D01*
Y183465D02*
X261024D01*
Y184252D01*
X285827Y116693D02*
X286614D01*
X285827Y108819D02*
Y116693D01*
Y108819D02*
X286614D01*
X288976D02*
X289764D01*
Y116693D01*
X288976D02*
X289764D01*
X296063D02*
X296850D01*
X296063Y108819D02*
Y116693D01*
Y108819D02*
X296850D01*
X299213D02*
X300000D01*
Y116693D01*
X299213D02*
X300000D01*
X290945D02*
X291732D01*
X290945Y108819D02*
Y116693D01*
Y108819D02*
X291732D01*
X294094D02*
X294882D01*
Y116693D01*
X294094D02*
X294882D01*
X323465Y148425D02*
Y149213D01*
Y148425D02*
X331339D01*
Y149213D01*
Y151575D02*
Y152362D01*
X323465D02*
X331339D01*
X323465Y151575D02*
Y152362D01*
Y143701D02*
Y144488D01*
Y143701D02*
X331339D01*
Y144488D01*
Y146850D02*
Y147638D01*
X323465D02*
X331339D01*
X323465Y146850D02*
Y147638D01*
X260630Y127559D02*
X261417D01*
X260630Y119685D02*
Y127559D01*
Y119685D02*
X261417D01*
X263779D02*
X264567D01*
Y127559D01*
X263779D02*
X264567D01*
X250000Y124016D02*
Y124803D01*
Y124016D02*
X257874D01*
Y124803D01*
Y127165D02*
Y127953D01*
X250000D02*
X257874D01*
X250000Y127165D02*
Y127953D01*
Y119291D02*
Y120079D01*
Y119291D02*
X257874D01*
Y120079D01*
Y122441D02*
Y123228D01*
X250000D02*
X257874D01*
X250000Y122441D02*
Y123228D01*
X270472Y116693D02*
X271260D01*
X270472Y108819D02*
Y116693D01*
Y108819D02*
X271260D01*
X273622D02*
X274409D01*
Y116693D01*
X273622D02*
X274409D01*
X292126Y191969D02*
X292913D01*
Y199843D01*
X292126D02*
X292913D01*
X288976D02*
X289764D01*
X288976Y191969D02*
Y199843D01*
Y191969D02*
X289764D01*
X247402Y122441D02*
Y123228D01*
X239528D02*
X247402D01*
X239528Y122441D02*
Y123228D01*
Y119291D02*
Y120079D01*
Y119291D02*
X247402D01*
Y120079D01*
X323465Y172047D02*
Y172835D01*
Y172047D02*
X331339D01*
Y172835D01*
Y175197D02*
Y175984D01*
X323465D02*
X331339D01*
X323465Y175197D02*
Y175984D01*
Y167323D02*
Y168110D01*
Y167323D02*
X331339D01*
Y168110D01*
Y170472D02*
Y171260D01*
X323465D02*
X331339D01*
X323465Y170472D02*
Y171260D01*
X275197Y116693D02*
X275984D01*
X275197Y108819D02*
Y116693D01*
Y108819D02*
X275984D01*
X278346D02*
X279134D01*
Y116693D01*
X278346D02*
X279134D01*
X323465Y138976D02*
Y139764D01*
Y138976D02*
X331339D01*
Y139764D01*
Y142126D02*
Y142913D01*
X323465D02*
X331339D01*
X323465Y142126D02*
Y142913D01*
Y157874D02*
Y158661D01*
Y157874D02*
X331339D01*
Y158661D01*
Y161024D02*
Y161811D01*
X323465D02*
X331339D01*
X323465Y161024D02*
Y161811D01*
X298819Y191969D02*
X299606D01*
Y199843D01*
X298819D02*
X299606D01*
X295669D02*
X296457D01*
X295669Y191969D02*
Y199843D01*
Y191969D02*
X296457D01*
X382059Y108630D02*
Y109130D01*
X373059Y108630D02*
X382059D01*
X373059D02*
Y109130D01*
Y112130D02*
Y112630D01*
X382059D01*
Y112130D02*
Y112630D01*
X377559Y108630D02*
Y112630D01*
X266535Y57449D02*
Y61449D01*
X271035Y60949D02*
Y61449D01*
X262035D02*
X271035D01*
X262035Y60949D02*
Y61449D01*
Y57449D02*
Y57949D01*
Y57449D02*
X271035D01*
Y57949D01*
X91732Y194457D02*
Y198457D01*
X96232Y197957D02*
Y198457D01*
X87232D02*
X96232D01*
X87232Y197957D02*
Y198457D01*
Y194457D02*
Y194957D01*
Y194457D02*
X96232D01*
Y194957D01*
X115351Y185433D02*
Y186221D01*
Y185433D02*
X123225D01*
Y186221D01*
Y188583D02*
Y189370D01*
X115351D02*
X123225D01*
X115351Y188583D02*
Y189370D01*
X95669Y199606D02*
Y200394D01*
X87795Y199606D02*
X95669D01*
X87795D02*
Y200394D01*
Y202756D02*
Y203543D01*
X95669D01*
Y202756D02*
Y203543D01*
X95666Y205118D02*
Y205906D01*
X87792Y205118D02*
X95666D01*
X87792D02*
Y205906D01*
Y208268D02*
Y209055D01*
X95666D01*
Y208268D02*
Y209055D01*
X95669Y189370D02*
Y190157D01*
X87795Y189370D02*
X95669D01*
X87795D02*
Y190157D01*
Y192520D02*
Y193307D01*
X95669D01*
Y192520D02*
Y193307D01*
X92300Y186267D02*
X93087D01*
X92300Y178393D02*
Y186267D01*
Y178393D02*
X93087D01*
X95449D02*
X96237D01*
Y186267D01*
X95449D02*
X96237D01*
X105159Y206889D02*
X105946D01*
Y214763D01*
X105159D02*
X105946D01*
X102009D02*
X102797D01*
X102009Y206889D02*
Y214763D01*
Y206889D02*
X102797D01*
X114017D02*
X114804D01*
Y214763D01*
X114017D02*
X114804D01*
X110867D02*
X111655D01*
X110867Y206889D02*
Y214763D01*
Y206889D02*
X111655D01*
X118938D02*
X119726D01*
Y214763D01*
X118938D02*
X119726D01*
X115789D02*
X116576D01*
X115789Y206889D02*
Y214763D01*
Y206889D02*
X116576D01*
X115408Y195126D02*
Y195913D01*
Y195126D02*
X123282D01*
Y195913D01*
Y198275D02*
Y199063D01*
X115408D02*
X123282D01*
X115408Y198275D02*
Y199063D01*
X69921Y207087D02*
Y207874D01*
X62047Y207087D02*
X69921D01*
X62047D02*
Y207874D01*
Y210236D02*
Y211024D01*
X69921D01*
Y210236D02*
Y211024D01*
X74012Y208425D02*
X74800D01*
Y200551D02*
Y208425D01*
X74012Y200551D02*
X74800D01*
X70863D02*
X71650D01*
X70863D02*
Y208425D01*
X71650D01*
X75449Y180150D02*
Y180938D01*
X67575D02*
X75449D01*
X67575Y180150D02*
Y180938D01*
Y177001D02*
Y177788D01*
Y177001D02*
X75449D01*
Y177788D01*
X76405Y179443D02*
X77192D01*
X76405D02*
Y187317D01*
X77192D01*
X79554D02*
X80342D01*
Y179443D02*
Y187317D01*
X79554Y179443D02*
X80342D01*
X76772Y123465D02*
X77559D01*
Y115591D02*
Y123465D01*
X76772Y115591D02*
X77559D01*
X73622D02*
X74410D01*
X73622D02*
Y123465D01*
X74410D01*
X55681Y217291D02*
Y217791D01*
X46681Y217291D02*
X55681D01*
X46681D02*
Y217791D01*
Y220791D02*
Y221291D01*
X55681D01*
Y220791D02*
Y221291D01*
X51181Y217291D02*
Y221291D01*
X71823Y149575D02*
Y150075D01*
X62823Y149575D02*
X71823D01*
X62823D02*
Y150075D01*
Y153075D02*
Y153575D01*
X71823D01*
Y153075D02*
Y153575D01*
X67323Y149575D02*
Y153575D01*
X71823Y144457D02*
Y144957D01*
X62823Y144457D02*
X71823D01*
X62823D02*
Y144957D01*
Y147957D02*
Y148457D01*
X71823D01*
Y147957D02*
Y148457D01*
X67323Y144457D02*
Y148457D01*
X19067Y109024D02*
Y109524D01*
X10067Y109024D02*
X19067D01*
X10067D02*
Y109524D01*
Y112524D02*
Y113024D01*
X19067D01*
Y112524D02*
Y113024D01*
X14567Y109024D02*
Y113024D01*
X185399Y210111D02*
Y210898D01*
X177525Y210111D02*
X185399D01*
X177525D02*
Y210898D01*
Y213261D02*
Y214048D01*
X185399D01*
Y213261D02*
Y214048D01*
X196416Y212078D02*
Y212866D01*
Y212078D02*
X204290D01*
Y212866D01*
Y215228D02*
Y216015D01*
X196416D02*
X204290D01*
X196416Y215228D02*
Y216015D01*
X187604Y220741D02*
X188391D01*
X187604D02*
Y228615D01*
X188391D01*
X190753D02*
X191541D01*
Y220741D02*
Y228615D01*
X190753Y220741D02*
X191541D01*
X195478D02*
X196265D01*
Y228615D01*
X195478D02*
X196265D01*
X192328D02*
X193116D01*
X192328Y220741D02*
Y228615D01*
Y220741D02*
X193116D01*
X67323Y139339D02*
Y143339D01*
X62823Y139339D02*
Y139839D01*
Y139339D02*
X71823D01*
Y139839D01*
Y142839D02*
Y143339D01*
X62823D02*
X71823D01*
X62823Y142839D02*
Y143339D01*
X3543Y182441D02*
X4331D01*
X3543Y174567D02*
Y182441D01*
Y174567D02*
X4331D01*
X6693D02*
X7480D01*
Y182441D01*
X6693D02*
X7480D01*
X3512Y168110D02*
X7512D01*
X7012Y163610D02*
X7512D01*
Y172610D01*
X7012D02*
X7512D01*
X3512D02*
X4012D01*
X3512Y163610D02*
Y172610D01*
Y163610D02*
X4012D01*
X13681Y180677D02*
Y184677D01*
X9181Y180677D02*
Y181177D01*
Y180677D02*
X18181D01*
Y181177D01*
Y184177D02*
Y184677D01*
X9181D02*
X18181D01*
X9181Y184177D02*
Y184677D01*
X13386Y162173D02*
Y166173D01*
X8886Y162173D02*
Y162673D01*
Y162173D02*
X17886D01*
Y162673D01*
Y165673D02*
Y166173D01*
X8886D02*
X17886D01*
X8886Y165673D02*
Y166173D01*
X10067Y107405D02*
Y107905D01*
X19067D01*
Y107405D02*
Y107905D01*
Y103905D02*
Y104405D01*
X10067Y103905D02*
X19067D01*
X10067D02*
Y104405D01*
X14567Y103905D02*
Y107905D01*
X140276Y131622D02*
Y132409D01*
X148150D01*
Y131622D02*
Y132409D01*
Y128472D02*
Y129260D01*
X140276Y128472D02*
X148150D01*
X140276D02*
Y129260D01*
X140827Y125086D02*
X141615D01*
Y117212D02*
Y125086D01*
X140827Y117212D02*
X141615D01*
X137678D02*
X138465D01*
X137678D02*
Y125086D01*
X138465D01*
X140276Y135952D02*
Y136740D01*
X148150D01*
Y135952D02*
Y136740D01*
Y132803D02*
Y133590D01*
X140276Y132803D02*
X148150D01*
X140276D02*
Y133590D01*
X131966Y136244D02*
X132753D01*
X131966D02*
Y144118D01*
X132753D01*
X135116D02*
X135903D01*
Y136244D02*
Y144118D01*
X135116Y136244D02*
X135903D01*
X130985Y125086D02*
X131772D01*
Y117212D02*
Y125086D01*
X130985Y117212D02*
X131772D01*
X127835D02*
X128622D01*
X127835D02*
Y125086D01*
X128622D01*
X128976Y131102D02*
Y131890D01*
X121102Y131102D02*
X128976D01*
X121102D02*
Y131890D01*
Y134252D02*
Y135039D01*
X128976D01*
Y134252D02*
Y135039D01*
Y129134D02*
Y129921D01*
X121102D02*
X128976D01*
X121102Y129134D02*
Y129921D01*
Y125984D02*
Y126772D01*
Y125984D02*
X128976D01*
Y126772D01*
X4724Y117323D02*
Y118110D01*
X12598D01*
Y117323D02*
Y118110D01*
Y114173D02*
Y114961D01*
X4724Y114173D02*
X12598D01*
X4724D02*
Y114961D01*
X44032Y110186D02*
Y110974D01*
Y110186D02*
X51906D01*
Y110974D01*
Y113336D02*
Y114123D01*
X44032D02*
X51906D01*
X44032Y113336D02*
Y114123D01*
X8661Y119260D02*
Y123260D01*
X4161Y119260D02*
Y119760D01*
Y119260D02*
X13161D01*
Y119760D01*
Y122760D02*
Y123260D01*
X4161D02*
X13161D01*
X4161Y122760D02*
Y123260D01*
D17*
X359154Y106893D02*
G03*
X359154Y106893I-206J0D01*
G01*
X399657Y56854D02*
X399696Y46657D01*
X339657D02*
X339657Y57051D01*
X399736Y68074D02*
Y96263D01*
X339736Y96066D02*
X349539Y96066D01*
X339736Y67843D02*
Y96066D01*
X349500Y96066D02*
X349541Y96063D01*
Y104333D01*
X352641D01*
X352641Y104334D02*
X359933D01*
M02*
