G04*
G04 #@! TF.GenerationSoftware,Altium Limited,Altium Designer,22.9.1 (49)*
G04*
G04 Layer_Physical_Order=4*
G04 Layer_Color=16440176*
%FSLAX25Y25*%
%MOIN*%
G70*
G04*
G04 #@! TF.SameCoordinates,09DA8A7C-0E06-47C8-8122-5E973528E8BD*
G04*
G04*
G04 #@! TF.FilePolarity,Positive*
G04*
G01*
G75*
%ADD149C,0.06496*%
%ADD154C,0.06024*%
%ADD156C,0.01968*%
G36*
X411738Y265642D02*
X410880Y265363D01*
X409389Y264603D01*
X408036Y263620D01*
X406853Y262437D01*
X405869Y261083D01*
X405110Y259592D01*
X404593Y258001D01*
X404331Y256348D01*
Y254675D01*
X404593Y253023D01*
X405110Y251431D01*
X405869Y249940D01*
X406853Y248587D01*
X408036Y247404D01*
X409389Y246420D01*
X410880Y245661D01*
X412471Y245144D01*
X414124Y244882D01*
X415797D01*
X417450Y245144D01*
X419041Y245661D01*
X420532Y246420D01*
X421886Y247404D01*
X423069Y248587D01*
X424052Y249940D01*
X424812Y251431D01*
X425329Y253023D01*
X425393Y253427D01*
X425893Y253388D01*
X426043Y60954D01*
X425543Y60914D01*
X425529Y61007D01*
X425012Y62598D01*
X424252Y64089D01*
X423269Y65443D01*
X422086Y66626D01*
X420732Y67609D01*
X419241Y68369D01*
X417650Y68886D01*
X415997Y69148D01*
X414324D01*
X412672Y68886D01*
X411080Y68369D01*
X409589Y67609D01*
X408236Y66626D01*
X407053Y65443D01*
X406069Y64089D01*
X405309Y62598D01*
X404792Y61007D01*
X404531Y59354D01*
Y57681D01*
X404792Y56028D01*
X405309Y54437D01*
X406069Y52946D01*
X407053Y51593D01*
X408236Y50410D01*
X409589Y49426D01*
X411080Y48667D01*
X411496Y48531D01*
X411417Y48031D01*
X402759D01*
X402627Y48373D01*
X402612Y48531D01*
X403077Y48996D01*
X403346Y49648D01*
Y50352D01*
X403077Y51004D01*
X402578Y51502D01*
X401927Y51772D01*
X401222D01*
X400571Y51502D01*
X400073Y51004D01*
X399803Y50352D01*
Y49648D01*
X400073Y48996D01*
X400538Y48531D01*
X400523Y48373D01*
X400391Y48031D01*
X326378Y48031D01*
X325590Y48819D01*
Y61811D01*
X326378Y62598D01*
X343110D01*
Y62246D01*
X343380Y61595D01*
X343878Y61097D01*
X344530Y60827D01*
X345234D01*
X345885Y61097D01*
X346384Y61595D01*
X346654Y62246D01*
Y62598D01*
X355640D01*
X355952Y62098D01*
X355783Y61470D01*
Y60584D01*
X356012Y59729D01*
X356455Y58963D01*
X357081Y58337D01*
X357847Y57894D01*
X358703Y57665D01*
X359588D01*
X360443Y57894D01*
X361210Y58337D01*
X361836Y58963D01*
X362278Y59729D01*
X362508Y60584D01*
Y61470D01*
X362339Y62098D01*
X362651Y62598D01*
X387136D01*
X387448Y62098D01*
X387279Y61470D01*
Y60584D01*
X387508Y59729D01*
X387951Y58963D01*
X388577Y58337D01*
X389344Y57894D01*
X390199Y57665D01*
X391084D01*
X391939Y57894D01*
X392706Y58337D01*
X393332Y58963D01*
X393774Y59729D01*
X394004Y60584D01*
Y61470D01*
X393774Y62325D01*
X393332Y63091D01*
X392706Y63718D01*
X391939Y64160D01*
X391392Y64307D01*
X391242Y64864D01*
X399606Y73228D01*
Y94486D01*
X399947Y94617D01*
X400106Y94632D01*
X400571Y94167D01*
X401222Y93898D01*
X401927D01*
X402578Y94167D01*
X403077Y94666D01*
X403346Y95317D01*
Y96022D01*
X403077Y96673D01*
X402578Y97171D01*
X401927Y97441D01*
X401222D01*
X400571Y97171D01*
X400106Y96706D01*
X399947Y96721D01*
X399606Y96853D01*
Y228346D01*
X388976Y238976D01*
X154726Y238976D01*
X154391Y239476D01*
X154528Y239805D01*
Y240510D01*
X154258Y241161D01*
X154013Y241406D01*
X153806Y241732D01*
X154013Y242059D01*
X154258Y242303D01*
X154528Y242955D01*
Y243659D01*
X154258Y244311D01*
X153760Y244809D01*
X153108Y245079D01*
X152718D01*
X152559Y245317D01*
Y246022D01*
X152289Y246673D01*
X151791Y247171D01*
X151140Y247441D01*
X150435D01*
X149784Y247171D01*
X149285Y246673D01*
X149016Y246022D01*
Y245317D01*
X149285Y244666D01*
X149784Y244167D01*
X150435Y243898D01*
X150825D01*
X150984Y243659D01*
Y242955D01*
X151254Y242303D01*
X151499Y242059D01*
X151706Y241732D01*
X151499Y241406D01*
X151254Y241161D01*
X150984Y240510D01*
Y239805D01*
X151120Y239476D01*
X150786Y238976D01*
X143307D01*
X132283Y250000D01*
X119516D01*
X119488Y250041D01*
Y250746D01*
X119219Y251397D01*
X118720Y251896D01*
X118069Y252165D01*
X117364D01*
X116713Y251896D01*
X116215Y251397D01*
X115945Y250746D01*
Y250041D01*
X115917Y250000D01*
X80388D01*
X80110Y250416D01*
X80118Y250435D01*
Y251140D01*
X79848Y251791D01*
X79350Y252289D01*
X78699Y252559D01*
X77994D01*
X77343Y252289D01*
X76845Y251791D01*
X76575Y251140D01*
Y250435D01*
X76583Y250416D01*
X76305Y250000D01*
X27559D01*
X25591Y248031D01*
Y220303D01*
X25549Y220276D01*
X24845D01*
X24193Y220006D01*
X23695Y219508D01*
X23425Y218856D01*
Y218151D01*
X23695Y217500D01*
X24193Y217002D01*
X24845Y216732D01*
X25549D01*
X25591Y216705D01*
Y212945D01*
X25549Y212917D01*
X24845D01*
X24193Y212648D01*
X23695Y212149D01*
X23425Y211498D01*
Y210793D01*
X23695Y210142D01*
X24193Y209644D01*
X24541Y209500D01*
X24660Y208912D01*
X24016Y208268D01*
X1575D01*
X787Y209055D01*
Y247633D01*
X816Y252727D01*
X1299Y252823D01*
X1816Y251231D01*
X2576Y249741D01*
X3559Y248387D01*
X4742Y247204D01*
X6096Y246220D01*
X7587Y245461D01*
X9178Y244944D01*
X10831Y244682D01*
X12504D01*
X14156Y244944D01*
X15748Y245461D01*
X17239Y246220D01*
X18592Y247204D01*
X19775Y248387D01*
X20759Y249741D01*
X21519Y251231D01*
X22036Y252823D01*
X22297Y254475D01*
Y256148D01*
X22036Y257801D01*
X21519Y259392D01*
X20759Y260883D01*
X19775Y262237D01*
X18592Y263420D01*
X17239Y264403D01*
X15748Y265163D01*
X14274Y265642D01*
X14354Y266142D01*
X411659D01*
X411738Y265642D01*
D02*
G37*
G36*
X116889Y248819D02*
X117364Y248622D01*
X118069D01*
X118544Y248819D01*
X131890D01*
X131890Y248819D01*
X142955Y237754D01*
X150611Y237757D01*
X150984Y237257D01*
Y236746D01*
X151254Y236095D01*
X151735Y235614D01*
X151254Y235134D01*
X150984Y234482D01*
Y233777D01*
X151254Y233126D01*
X151752Y232628D01*
X152403Y232358D01*
X153108D01*
X153760Y232628D01*
X154258Y233126D01*
X154528Y233777D01*
Y234482D01*
X154258Y235134D01*
X153777Y235614D01*
X154258Y236095D01*
X154528Y236746D01*
Y237451D01*
X154733Y237758D01*
X388530Y237847D01*
X398425Y227956D01*
Y73622D01*
X388583Y63779D01*
X361102D01*
X360443Y64160D01*
X359588Y64389D01*
X358703D01*
X357847Y64160D01*
X357188Y63779D01*
X346206D01*
X345885Y64100D01*
X345234Y64370D01*
X344530D01*
X343878Y64100D01*
X343558Y63779D01*
X325984D01*
X324410Y62205D01*
Y48819D01*
X323607Y48017D01*
X131310D01*
X131140Y48517D01*
X131291Y48632D01*
X131701Y49167D01*
X131959Y49790D01*
X132047Y50458D01*
Y53017D01*
X131959Y53685D01*
X131701Y54307D01*
X131291Y54842D01*
X130756Y55252D01*
X130134Y55510D01*
X129466Y55598D01*
X128798Y55510D01*
X128175Y55252D01*
X127640Y54842D01*
X127230Y54307D01*
X126972Y53685D01*
X126915Y53248D01*
X126394Y53062D01*
X126178Y53278D01*
X125527Y53548D01*
X124822D01*
X124171Y53278D01*
X123672Y52780D01*
X123403Y52129D01*
Y51424D01*
X123672Y50773D01*
X124171Y50274D01*
X124822Y50005D01*
X125527D01*
X126178Y50274D01*
X126384Y50481D01*
X126519Y50475D01*
X126906Y50295D01*
X126972Y49790D01*
X127230Y49167D01*
X127640Y48632D01*
X127791Y48517D01*
X127622Y48017D01*
X103790D01*
X103620Y48517D01*
X103771Y48632D01*
X104181Y49167D01*
X104439Y49790D01*
X104464Y49982D01*
X104599Y50077D01*
X105001Y50224D01*
X105531Y50005D01*
X106235D01*
X106886Y50274D01*
X107385Y50773D01*
X107655Y51424D01*
Y52129D01*
X107385Y52780D01*
X106886Y53278D01*
X106235Y53548D01*
X105531D01*
X104991Y53325D01*
X104602Y53464D01*
X104455Y53561D01*
X104439Y53685D01*
X104181Y54307D01*
X103771Y54842D01*
X103236Y55252D01*
X102614Y55510D01*
X101946Y55598D01*
X101278Y55510D01*
X100655Y55252D01*
X100121Y54842D01*
X99711Y54307D01*
X99453Y53685D01*
X99365Y53017D01*
Y50458D01*
X99453Y49790D01*
X99711Y49167D01*
X100121Y48632D01*
X100272Y48517D01*
X100102Y48017D01*
X15276D01*
X15156Y48517D01*
X16058Y48976D01*
X17411Y49960D01*
X18594Y51143D01*
X19578Y52496D01*
X20337Y53987D01*
X20854Y55579D01*
X21116Y57231D01*
Y58904D01*
X20854Y60557D01*
X20337Y62148D01*
X19578Y63639D01*
X18594Y64993D01*
X17411Y66176D01*
X16058Y67159D01*
X14567Y67919D01*
X12975Y68436D01*
X11323Y68698D01*
X9650D01*
X7997Y68436D01*
X6406Y67919D01*
X4915Y67159D01*
X3561Y66176D01*
X2378Y64993D01*
X1395Y63639D01*
X1274Y63401D01*
X787Y63518D01*
Y206299D01*
X1575Y207087D01*
X24803D01*
X26785Y209068D01*
Y210349D01*
X26969Y210793D01*
Y211498D01*
X26785Y211942D01*
Y217707D01*
X26969Y218151D01*
Y218856D01*
X26785Y219301D01*
Y247257D01*
X28346Y248819D01*
X116889Y248819D01*
D02*
G37*
%LPC*%
G36*
X172581Y265518D02*
X171913Y265431D01*
X171290Y265173D01*
X170756Y264762D01*
X170346Y264228D01*
X170088Y263605D01*
X170055Y263358D01*
X169509Y263043D01*
X169280Y263138D01*
X168575D01*
X167924Y262868D01*
X167426Y262370D01*
X167156Y261719D01*
Y261014D01*
X167426Y260363D01*
X167924Y259865D01*
X168575Y259595D01*
X169280D01*
X169582Y259720D01*
X170031Y259711D01*
X170187Y259471D01*
X170346Y259088D01*
X170756Y258553D01*
X171290Y258143D01*
X171913Y257885D01*
X172581Y257797D01*
X173249Y257885D01*
X173871Y258143D01*
X174406Y258553D01*
X174816Y259088D01*
X175074Y259710D01*
X175162Y260378D01*
Y262937D01*
X175074Y263605D01*
X174816Y264228D01*
X174406Y264762D01*
X173871Y265173D01*
X173249Y265431D01*
X172581Y265518D01*
D02*
G37*
G36*
X217718Y263204D02*
X217419D01*
Y259781D01*
X220842D01*
Y260080D01*
X220597Y260995D01*
X220123Y261816D01*
X219453Y262485D01*
X218633Y262959D01*
X217718Y263204D01*
D02*
G37*
G36*
X217069D02*
X216770D01*
X215855Y262959D01*
X215035Y262485D01*
X214365Y261816D01*
X213891Y260995D01*
X213646Y260080D01*
Y259781D01*
X217069D01*
Y263204D01*
D02*
G37*
G36*
X207718D02*
X207419D01*
Y259781D01*
X210842D01*
Y260080D01*
X210597Y260995D01*
X210123Y261816D01*
X209453Y262485D01*
X208633Y262959D01*
X207718Y263204D01*
D02*
G37*
G36*
X207069D02*
X206770D01*
X205855Y262959D01*
X205035Y262485D01*
X204365Y261816D01*
X203891Y260995D01*
X203646Y260080D01*
Y259781D01*
X207069D01*
Y263204D01*
D02*
G37*
G36*
X145061Y265518D02*
X144393Y265431D01*
X143771Y265173D01*
X143236Y264762D01*
X142826Y264228D01*
X142568Y263605D01*
X142480Y262937D01*
Y260378D01*
X142568Y259710D01*
X142826Y259088D01*
X143236Y258553D01*
X143771Y258143D01*
X144393Y257885D01*
X145061Y257797D01*
X145729Y257885D01*
X146352Y258143D01*
X146886Y258553D01*
X147297Y259088D01*
X147554Y259710D01*
X147629Y260277D01*
X147916Y260369D01*
X148136Y260362D01*
X148633Y259865D01*
X149284Y259595D01*
X149989D01*
X150640Y259865D01*
X151138Y260363D01*
X151408Y261014D01*
Y261719D01*
X151138Y262370D01*
X150640Y262868D01*
X149989Y263138D01*
X149284D01*
X148633Y262868D01*
X148142Y262378D01*
X148098Y262379D01*
X147642Y262488D01*
Y262937D01*
X147554Y263605D01*
X147297Y264228D01*
X146886Y264762D01*
X146352Y265173D01*
X145729Y265431D01*
X145061Y265518D01*
D02*
G37*
G36*
X197597Y262008D02*
X196892D01*
X196240Y261738D01*
X195742Y261240D01*
X195472Y260589D01*
Y259884D01*
X195742Y259233D01*
X196240Y258734D01*
X196892Y258465D01*
X197597D01*
X198248Y258734D01*
X198746Y259233D01*
X199016Y259884D01*
Y260589D01*
X198746Y261240D01*
X198248Y261738D01*
X197597Y262008D01*
D02*
G37*
G36*
X220842Y259431D02*
X217419D01*
Y256008D01*
X217718D01*
X218633Y256254D01*
X219453Y256727D01*
X220123Y257397D01*
X220597Y258218D01*
X220842Y259133D01*
Y259431D01*
D02*
G37*
G36*
X217069D02*
X213646D01*
Y259133D01*
X213891Y258218D01*
X214365Y257397D01*
X215035Y256727D01*
X215855Y256254D01*
X216770Y256008D01*
X217069D01*
Y259431D01*
D02*
G37*
G36*
X210842D02*
X207419D01*
Y256008D01*
X207718D01*
X208633Y256254D01*
X209453Y256727D01*
X210123Y257397D01*
X210597Y258218D01*
X210842Y259133D01*
Y259431D01*
D02*
G37*
G36*
X207069D02*
X203646D01*
Y259133D01*
X203891Y258218D01*
X204365Y257397D01*
X205035Y256727D01*
X205855Y256254D01*
X206770Y256008D01*
X207069D01*
Y259431D01*
D02*
G37*
G36*
X397775Y263642D02*
X396713D01*
X395687Y263367D01*
X394766Y262835D01*
X394015Y262084D01*
X393484Y261164D01*
X393209Y260138D01*
Y259075D01*
X393484Y258049D01*
X394015Y257129D01*
X394766Y256377D01*
X395687Y255846D01*
X396713Y255571D01*
X397775D01*
X398802Y255846D01*
X399722Y256377D01*
X400473Y257129D01*
X401005Y258049D01*
X401279Y259075D01*
Y260138D01*
X401005Y261164D01*
X400473Y262084D01*
X399722Y262835D01*
X398802Y263367D01*
X397775Y263642D01*
D02*
G37*
G36*
X387775D02*
X386713D01*
X385686Y263367D01*
X384766Y262835D01*
X384015Y262084D01*
X383484Y261164D01*
X383209Y260138D01*
Y259075D01*
X383484Y258049D01*
X384015Y257129D01*
X384766Y256377D01*
X385686Y255846D01*
X386713Y255571D01*
X387775D01*
X388802Y255846D01*
X389722Y256377D01*
X390473Y257129D01*
X391004Y258049D01*
X391280Y259075D01*
Y260138D01*
X391004Y261164D01*
X390473Y262084D01*
X389722Y262835D01*
X388802Y263367D01*
X387775Y263642D01*
D02*
G37*
G36*
X377775D02*
X376713D01*
X375687Y263367D01*
X374766Y262835D01*
X374015Y262084D01*
X373484Y261164D01*
X373209Y260138D01*
Y259075D01*
X373484Y258049D01*
X374015Y257129D01*
X374766Y256377D01*
X375687Y255846D01*
X376713Y255571D01*
X377775D01*
X378802Y255846D01*
X379722Y256377D01*
X380473Y257129D01*
X381005Y258049D01*
X381279Y259075D01*
Y260138D01*
X381005Y261164D01*
X380473Y262084D01*
X379722Y262835D01*
X378802Y263367D01*
X377775Y263642D01*
D02*
G37*
G36*
X367775D02*
X366713D01*
X365686Y263367D01*
X364766Y262835D01*
X364015Y262084D01*
X363484Y261164D01*
X363209Y260138D01*
Y259075D01*
X363484Y258049D01*
X364015Y257129D01*
X364766Y256377D01*
X365686Y255846D01*
X366713Y255571D01*
X367775D01*
X368802Y255846D01*
X369722Y256377D01*
X370473Y257129D01*
X371005Y258049D01*
X371280Y259075D01*
Y260138D01*
X371005Y261164D01*
X370473Y262084D01*
X369722Y262835D01*
X368802Y263367D01*
X367775Y263642D01*
D02*
G37*
G36*
X357775D02*
X356713D01*
X355686Y263367D01*
X354766Y262835D01*
X354015Y262084D01*
X353484Y261164D01*
X353209Y260138D01*
Y259075D01*
X353484Y258049D01*
X354015Y257129D01*
X354766Y256377D01*
X355686Y255846D01*
X356713Y255571D01*
X357775D01*
X358802Y255846D01*
X359722Y256377D01*
X360473Y257129D01*
X361004Y258049D01*
X361280Y259075D01*
Y260138D01*
X361004Y261164D01*
X360473Y262084D01*
X359722Y262835D01*
X358802Y263367D01*
X357775Y263642D01*
D02*
G37*
G36*
X347775D02*
X346713D01*
X345687Y263367D01*
X344766Y262835D01*
X344015Y262084D01*
X343484Y261164D01*
X343209Y260138D01*
Y259075D01*
X343484Y258049D01*
X344015Y257129D01*
X344766Y256377D01*
X345687Y255846D01*
X346713Y255571D01*
X347775D01*
X348802Y255846D01*
X349722Y256377D01*
X350473Y257129D01*
X351005Y258049D01*
X351279Y259075D01*
Y260138D01*
X351005Y261164D01*
X350473Y262084D01*
X349722Y262835D01*
X348802Y263367D01*
X347775Y263642D01*
D02*
G37*
G36*
X337775D02*
X336713D01*
X335686Y263367D01*
X334766Y262835D01*
X334015Y262084D01*
X333484Y261164D01*
X333209Y260138D01*
Y259075D01*
X333484Y258049D01*
X334015Y257129D01*
X334766Y256377D01*
X335686Y255846D01*
X336713Y255571D01*
X337775D01*
X338802Y255846D01*
X339722Y256377D01*
X340473Y257129D01*
X341004Y258049D01*
X341280Y259075D01*
Y260138D01*
X341004Y261164D01*
X340473Y262084D01*
X339722Y262835D01*
X338802Y263367D01*
X337775Y263642D01*
D02*
G37*
G36*
X327775D02*
X326713D01*
X325687Y263367D01*
X324766Y262835D01*
X324015Y262084D01*
X323484Y261164D01*
X323209Y260138D01*
Y259075D01*
X323484Y258049D01*
X324015Y257129D01*
X324766Y256377D01*
X325687Y255846D01*
X326713Y255571D01*
X327775D01*
X328802Y255846D01*
X329722Y256377D01*
X330473Y257129D01*
X331005Y258049D01*
X331279Y259075D01*
Y260138D01*
X331005Y261164D01*
X330473Y262084D01*
X329722Y262835D01*
X328802Y263367D01*
X327775Y263642D01*
D02*
G37*
G36*
X317775D02*
X316713D01*
X315686Y263367D01*
X314766Y262835D01*
X314015Y262084D01*
X313484Y261164D01*
X313209Y260138D01*
Y259075D01*
X313484Y258049D01*
X314015Y257129D01*
X314766Y256377D01*
X315686Y255846D01*
X316713Y255571D01*
X317775D01*
X318802Y255846D01*
X319722Y256377D01*
X320473Y257129D01*
X321005Y258049D01*
X321280Y259075D01*
Y260138D01*
X321005Y261164D01*
X320473Y262084D01*
X319722Y262835D01*
X318802Y263367D01*
X317775Y263642D01*
D02*
G37*
G36*
X307775D02*
X306713D01*
X305686Y263367D01*
X304766Y262835D01*
X304015Y262084D01*
X303484Y261164D01*
X303209Y260138D01*
Y259075D01*
X303484Y258049D01*
X304015Y257129D01*
X304766Y256377D01*
X305686Y255846D01*
X306713Y255571D01*
X307775D01*
X308802Y255846D01*
X309722Y256377D01*
X310473Y257129D01*
X311004Y258049D01*
X311280Y259075D01*
Y260138D01*
X311004Y261164D01*
X310473Y262084D01*
X309722Y262835D01*
X308802Y263367D01*
X307775Y263642D01*
D02*
G37*
G36*
X297775D02*
X296713D01*
X295687Y263367D01*
X294766Y262835D01*
X294015Y262084D01*
X293484Y261164D01*
X293209Y260138D01*
Y259075D01*
X293484Y258049D01*
X294015Y257129D01*
X294766Y256377D01*
X295687Y255846D01*
X296713Y255571D01*
X297775D01*
X298802Y255846D01*
X299722Y256377D01*
X300473Y257129D01*
X301005Y258049D01*
X301279Y259075D01*
Y260138D01*
X301005Y261164D01*
X300473Y262084D01*
X299722Y262835D01*
X298802Y263367D01*
X297775Y263642D01*
D02*
G37*
G36*
X287775D02*
X286713D01*
X285686Y263367D01*
X284766Y262835D01*
X284015Y262084D01*
X283484Y261164D01*
X283209Y260138D01*
Y259075D01*
X283484Y258049D01*
X284015Y257129D01*
X284766Y256377D01*
X285686Y255846D01*
X286713Y255571D01*
X287775D01*
X288802Y255846D01*
X289722Y256377D01*
X290473Y257129D01*
X291004Y258049D01*
X291280Y259075D01*
Y260138D01*
X291004Y261164D01*
X290473Y262084D01*
X289722Y262835D01*
X288802Y263367D01*
X287775Y263642D01*
D02*
G37*
G36*
X277775D02*
X276713D01*
X275687Y263367D01*
X274766Y262835D01*
X274015Y262084D01*
X273484Y261164D01*
X273209Y260138D01*
Y259075D01*
X273484Y258049D01*
X274015Y257129D01*
X274766Y256377D01*
X275687Y255846D01*
X276713Y255571D01*
X277775D01*
X278802Y255846D01*
X279722Y256377D01*
X280473Y257129D01*
X281005Y258049D01*
X281279Y259075D01*
Y260138D01*
X281005Y261164D01*
X280473Y262084D01*
X279722Y262835D01*
X278802Y263367D01*
X277775Y263642D01*
D02*
G37*
G36*
X267775D02*
X266713D01*
X265686Y263367D01*
X264766Y262835D01*
X264015Y262084D01*
X263484Y261164D01*
X263209Y260138D01*
Y259075D01*
X263484Y258049D01*
X264015Y257129D01*
X264766Y256377D01*
X265686Y255846D01*
X266713Y255571D01*
X267775D01*
X268802Y255846D01*
X269722Y256377D01*
X270473Y257129D01*
X271005Y258049D01*
X271280Y259075D01*
Y260138D01*
X271005Y261164D01*
X270473Y262084D01*
X269722Y262835D01*
X268802Y263367D01*
X267775Y263642D01*
D02*
G37*
G36*
X257775D02*
X256713D01*
X255686Y263367D01*
X254766Y262835D01*
X254015Y262084D01*
X253484Y261164D01*
X253209Y260138D01*
Y259075D01*
X253484Y258049D01*
X254015Y257129D01*
X254766Y256377D01*
X255686Y255846D01*
X256713Y255571D01*
X257775D01*
X258802Y255846D01*
X259722Y256377D01*
X260473Y257129D01*
X261004Y258049D01*
X261280Y259075D01*
Y260138D01*
X261004Y261164D01*
X260473Y262084D01*
X259722Y262835D01*
X258802Y263367D01*
X257775Y263642D01*
D02*
G37*
G36*
X247775D02*
X246713D01*
X245687Y263367D01*
X244766Y262835D01*
X244015Y262084D01*
X243484Y261164D01*
X243209Y260138D01*
Y259075D01*
X243484Y258049D01*
X244015Y257129D01*
X244766Y256377D01*
X245687Y255846D01*
X246713Y255571D01*
X247775D01*
X248802Y255846D01*
X249722Y256377D01*
X250473Y257129D01*
X251005Y258049D01*
X251279Y259075D01*
Y260138D01*
X251005Y261164D01*
X250473Y262084D01*
X249722Y262835D01*
X248802Y263367D01*
X247775Y263642D01*
D02*
G37*
G36*
X237775D02*
X236713D01*
X235686Y263367D01*
X234766Y262835D01*
X234015Y262084D01*
X233484Y261164D01*
X233209Y260138D01*
Y259075D01*
X233484Y258049D01*
X234015Y257129D01*
X234766Y256377D01*
X235686Y255846D01*
X236713Y255571D01*
X237775D01*
X238802Y255846D01*
X239722Y256377D01*
X240473Y257129D01*
X241004Y258049D01*
X241280Y259075D01*
Y260138D01*
X241004Y261164D01*
X240473Y262084D01*
X239722Y262835D01*
X238802Y263367D01*
X237775Y263642D01*
D02*
G37*
G36*
X227775D02*
X226713D01*
X225687Y263367D01*
X224766Y262835D01*
X224015Y262084D01*
X223484Y261164D01*
X223209Y260138D01*
Y259075D01*
X223484Y258049D01*
X224015Y257129D01*
X224766Y256377D01*
X225687Y255846D01*
X226713Y255571D01*
X227775D01*
X228802Y255846D01*
X229722Y256377D01*
X230473Y257129D01*
X231005Y258049D01*
X231279Y259075D01*
Y260138D01*
X231005Y261164D01*
X230473Y262084D01*
X229722Y262835D01*
X228802Y263367D01*
X227775Y263642D01*
D02*
G37*
G36*
X197597Y257677D02*
X196892D01*
X196240Y257407D01*
X195742Y256909D01*
X195472Y256258D01*
Y255553D01*
X195742Y254902D01*
X196240Y254404D01*
X196892Y254134D01*
X197597D01*
X198248Y254404D01*
X198746Y254902D01*
X199016Y255553D01*
Y256258D01*
X198746Y256909D01*
X198248Y257407D01*
X197597Y257677D01*
D02*
G37*
G36*
X169431Y253497D02*
X167857D01*
X166896Y253307D01*
X166082Y252763D01*
X165539Y251949D01*
X165348Y250989D01*
X165539Y250028D01*
X166082Y249215D01*
X166896Y248671D01*
X167857Y248480D01*
X169431D01*
X170391Y248671D01*
X171205Y249215D01*
X171749Y250028D01*
X171940Y250989D01*
X171749Y251949D01*
X171205Y252763D01*
X170391Y253307D01*
X169431Y253497D01*
D02*
G37*
G36*
X149746D02*
X148171D01*
X147211Y253307D01*
X146397Y252763D01*
X145854Y251949D01*
X145663Y250989D01*
X145854Y250028D01*
X146397Y249215D01*
X147211Y248671D01*
X148171Y248480D01*
X149746D01*
X150706Y248671D01*
X151520Y249215D01*
X152064Y250028D01*
X152255Y250989D01*
X152064Y251949D01*
X151520Y252763D01*
X150706Y253307D01*
X149746Y253497D01*
D02*
G37*
G36*
X397775Y253642D02*
X396713D01*
X395687Y253367D01*
X394766Y252835D01*
X394015Y252084D01*
X393484Y251164D01*
X393209Y250138D01*
Y249075D01*
X393484Y248049D01*
X394015Y247129D01*
X394766Y246377D01*
X395687Y245846D01*
X396713Y245571D01*
X397775D01*
X398802Y245846D01*
X399722Y246377D01*
X400473Y247129D01*
X401005Y248049D01*
X401279Y249075D01*
Y250138D01*
X401005Y251164D01*
X400473Y252084D01*
X399722Y252835D01*
X398802Y253367D01*
X397775Y253642D01*
D02*
G37*
G36*
X387775D02*
X386713D01*
X385686Y253367D01*
X384766Y252835D01*
X384015Y252084D01*
X383484Y251164D01*
X383209Y250138D01*
Y249075D01*
X383484Y248049D01*
X384015Y247129D01*
X384766Y246377D01*
X385686Y245846D01*
X386713Y245571D01*
X387775D01*
X388802Y245846D01*
X389722Y246377D01*
X390473Y247129D01*
X391004Y248049D01*
X391280Y249075D01*
Y250138D01*
X391004Y251164D01*
X390473Y252084D01*
X389722Y252835D01*
X388802Y253367D01*
X387775Y253642D01*
D02*
G37*
G36*
X377775D02*
X376713D01*
X375687Y253367D01*
X374766Y252835D01*
X374015Y252084D01*
X373484Y251164D01*
X373209Y250138D01*
Y249075D01*
X373484Y248049D01*
X374015Y247129D01*
X374766Y246377D01*
X375687Y245846D01*
X376713Y245571D01*
X377775D01*
X378802Y245846D01*
X379722Y246377D01*
X380473Y247129D01*
X381005Y248049D01*
X381279Y249075D01*
Y250138D01*
X381005Y251164D01*
X380473Y252084D01*
X379722Y252835D01*
X378802Y253367D01*
X377775Y253642D01*
D02*
G37*
G36*
X367775D02*
X366713D01*
X365686Y253367D01*
X364766Y252835D01*
X364015Y252084D01*
X363484Y251164D01*
X363209Y250138D01*
Y249075D01*
X363484Y248049D01*
X364015Y247129D01*
X364766Y246377D01*
X365686Y245846D01*
X366713Y245571D01*
X367775D01*
X368802Y245846D01*
X369722Y246377D01*
X370473Y247129D01*
X371005Y248049D01*
X371280Y249075D01*
Y250138D01*
X371005Y251164D01*
X370473Y252084D01*
X369722Y252835D01*
X368802Y253367D01*
X367775Y253642D01*
D02*
G37*
G36*
X357775D02*
X356713D01*
X355686Y253367D01*
X354766Y252835D01*
X354015Y252084D01*
X353484Y251164D01*
X353209Y250138D01*
Y249075D01*
X353484Y248049D01*
X354015Y247129D01*
X354766Y246377D01*
X355686Y245846D01*
X356713Y245571D01*
X357775D01*
X358802Y245846D01*
X359722Y246377D01*
X360473Y247129D01*
X361004Y248049D01*
X361280Y249075D01*
Y250138D01*
X361004Y251164D01*
X360473Y252084D01*
X359722Y252835D01*
X358802Y253367D01*
X357775Y253642D01*
D02*
G37*
G36*
X347775D02*
X346713D01*
X345687Y253367D01*
X344766Y252835D01*
X344015Y252084D01*
X343484Y251164D01*
X343209Y250138D01*
Y249075D01*
X343484Y248049D01*
X344015Y247129D01*
X344766Y246377D01*
X345687Y245846D01*
X346713Y245571D01*
X347775D01*
X348802Y245846D01*
X349722Y246377D01*
X350473Y247129D01*
X351005Y248049D01*
X351279Y249075D01*
Y250138D01*
X351005Y251164D01*
X350473Y252084D01*
X349722Y252835D01*
X348802Y253367D01*
X347775Y253642D01*
D02*
G37*
G36*
X337775D02*
X336713D01*
X335686Y253367D01*
X334766Y252835D01*
X334015Y252084D01*
X333484Y251164D01*
X333209Y250138D01*
Y249075D01*
X333484Y248049D01*
X334015Y247129D01*
X334766Y246377D01*
X335686Y245846D01*
X336713Y245571D01*
X337775D01*
X338802Y245846D01*
X339722Y246377D01*
X340473Y247129D01*
X341004Y248049D01*
X341280Y249075D01*
Y250138D01*
X341004Y251164D01*
X340473Y252084D01*
X339722Y252835D01*
X338802Y253367D01*
X337775Y253642D01*
D02*
G37*
G36*
X327775D02*
X326713D01*
X325687Y253367D01*
X324766Y252835D01*
X324015Y252084D01*
X323484Y251164D01*
X323209Y250138D01*
Y249075D01*
X323484Y248049D01*
X324015Y247129D01*
X324766Y246377D01*
X325687Y245846D01*
X326713Y245571D01*
X327775D01*
X328802Y245846D01*
X329722Y246377D01*
X330473Y247129D01*
X331005Y248049D01*
X331279Y249075D01*
Y250138D01*
X331005Y251164D01*
X330473Y252084D01*
X329722Y252835D01*
X328802Y253367D01*
X327775Y253642D01*
D02*
G37*
G36*
X317775D02*
X316713D01*
X315686Y253367D01*
X314766Y252835D01*
X314015Y252084D01*
X313484Y251164D01*
X313209Y250138D01*
Y249075D01*
X313484Y248049D01*
X314015Y247129D01*
X314766Y246377D01*
X315686Y245846D01*
X316713Y245571D01*
X317775D01*
X318802Y245846D01*
X319722Y246377D01*
X320473Y247129D01*
X321005Y248049D01*
X321280Y249075D01*
Y250138D01*
X321005Y251164D01*
X320473Y252084D01*
X319722Y252835D01*
X318802Y253367D01*
X317775Y253642D01*
D02*
G37*
G36*
X307775D02*
X306713D01*
X305686Y253367D01*
X304766Y252835D01*
X304015Y252084D01*
X303484Y251164D01*
X303209Y250138D01*
Y249075D01*
X303484Y248049D01*
X304015Y247129D01*
X304766Y246377D01*
X305686Y245846D01*
X306713Y245571D01*
X307775D01*
X308802Y245846D01*
X309722Y246377D01*
X310473Y247129D01*
X311004Y248049D01*
X311280Y249075D01*
Y250138D01*
X311004Y251164D01*
X310473Y252084D01*
X309722Y252835D01*
X308802Y253367D01*
X307775Y253642D01*
D02*
G37*
G36*
X297775D02*
X296713D01*
X295687Y253367D01*
X294766Y252835D01*
X294015Y252084D01*
X293484Y251164D01*
X293209Y250138D01*
Y249075D01*
X293484Y248049D01*
X294015Y247129D01*
X294766Y246377D01*
X295687Y245846D01*
X296713Y245571D01*
X297775D01*
X298802Y245846D01*
X299722Y246377D01*
X300473Y247129D01*
X301005Y248049D01*
X301279Y249075D01*
Y250138D01*
X301005Y251164D01*
X300473Y252084D01*
X299722Y252835D01*
X298802Y253367D01*
X297775Y253642D01*
D02*
G37*
G36*
X287775D02*
X286713D01*
X285686Y253367D01*
X284766Y252835D01*
X284015Y252084D01*
X283484Y251164D01*
X283209Y250138D01*
Y249075D01*
X283484Y248049D01*
X284015Y247129D01*
X284766Y246377D01*
X285686Y245846D01*
X286713Y245571D01*
X287775D01*
X288802Y245846D01*
X289722Y246377D01*
X290473Y247129D01*
X291004Y248049D01*
X291280Y249075D01*
Y250138D01*
X291004Y251164D01*
X290473Y252084D01*
X289722Y252835D01*
X288802Y253367D01*
X287775Y253642D01*
D02*
G37*
G36*
X277775D02*
X276713D01*
X275687Y253367D01*
X274766Y252835D01*
X274015Y252084D01*
X273484Y251164D01*
X273209Y250138D01*
Y249075D01*
X273484Y248049D01*
X274015Y247129D01*
X274766Y246377D01*
X275687Y245846D01*
X276713Y245571D01*
X277775D01*
X278802Y245846D01*
X279722Y246377D01*
X280473Y247129D01*
X281005Y248049D01*
X281279Y249075D01*
Y250138D01*
X281005Y251164D01*
X280473Y252084D01*
X279722Y252835D01*
X278802Y253367D01*
X277775Y253642D01*
D02*
G37*
G36*
X267775D02*
X266713D01*
X265686Y253367D01*
X264766Y252835D01*
X264015Y252084D01*
X263484Y251164D01*
X263209Y250138D01*
Y249075D01*
X263484Y248049D01*
X264015Y247129D01*
X264766Y246377D01*
X265686Y245846D01*
X266713Y245571D01*
X267775D01*
X268802Y245846D01*
X269722Y246377D01*
X270473Y247129D01*
X271005Y248049D01*
X271280Y249075D01*
Y250138D01*
X271005Y251164D01*
X270473Y252084D01*
X269722Y252835D01*
X268802Y253367D01*
X267775Y253642D01*
D02*
G37*
G36*
X257775D02*
X256713D01*
X255686Y253367D01*
X254766Y252835D01*
X254015Y252084D01*
X253484Y251164D01*
X253209Y250138D01*
Y249075D01*
X253484Y248049D01*
X254015Y247129D01*
X254766Y246377D01*
X255686Y245846D01*
X256713Y245571D01*
X257775D01*
X258802Y245846D01*
X259722Y246377D01*
X260473Y247129D01*
X261004Y248049D01*
X261280Y249075D01*
Y250138D01*
X261004Y251164D01*
X260473Y252084D01*
X259722Y252835D01*
X258802Y253367D01*
X257775Y253642D01*
D02*
G37*
G36*
X247775D02*
X246713D01*
X245687Y253367D01*
X244766Y252835D01*
X244015Y252084D01*
X243484Y251164D01*
X243209Y250138D01*
Y249075D01*
X243484Y248049D01*
X244015Y247129D01*
X244766Y246377D01*
X245687Y245846D01*
X246713Y245571D01*
X247775D01*
X248802Y245846D01*
X249722Y246377D01*
X250473Y247129D01*
X251005Y248049D01*
X251279Y249075D01*
Y250138D01*
X251005Y251164D01*
X250473Y252084D01*
X249722Y252835D01*
X248802Y253367D01*
X247775Y253642D01*
D02*
G37*
G36*
X237775D02*
X236713D01*
X235686Y253367D01*
X234766Y252835D01*
X234015Y252084D01*
X233484Y251164D01*
X233209Y250138D01*
Y249075D01*
X233484Y248049D01*
X234015Y247129D01*
X234766Y246377D01*
X235686Y245846D01*
X236713Y245571D01*
X237775D01*
X238802Y245846D01*
X239722Y246377D01*
X240473Y247129D01*
X241004Y248049D01*
X241280Y249075D01*
Y250138D01*
X241004Y251164D01*
X240473Y252084D01*
X239722Y252835D01*
X238802Y253367D01*
X237775Y253642D01*
D02*
G37*
G36*
X227775D02*
X226713D01*
X225687Y253367D01*
X224766Y252835D01*
X224015Y252084D01*
X223484Y251164D01*
X223209Y250138D01*
Y249075D01*
X223484Y248049D01*
X224015Y247129D01*
X224766Y246377D01*
X225687Y245846D01*
X226713Y245571D01*
X227775D01*
X228802Y245846D01*
X229722Y246377D01*
X230473Y247129D01*
X231005Y248049D01*
X231279Y249075D01*
Y250138D01*
X231005Y251164D01*
X230473Y252084D01*
X229722Y252835D01*
X228802Y253367D01*
X227775Y253642D01*
D02*
G37*
G36*
X217775D02*
X216713D01*
X215686Y253367D01*
X214766Y252835D01*
X214015Y252084D01*
X213484Y251164D01*
X213209Y250138D01*
Y249075D01*
X213484Y248049D01*
X214015Y247129D01*
X214766Y246377D01*
X215686Y245846D01*
X216713Y245571D01*
X217775D01*
X218802Y245846D01*
X219722Y246377D01*
X220473Y247129D01*
X221005Y248049D01*
X221280Y249075D01*
Y250138D01*
X221005Y251164D01*
X220473Y252084D01*
X219722Y252835D01*
X218802Y253367D01*
X217775Y253642D01*
D02*
G37*
G36*
X211280D02*
X203209D01*
Y245571D01*
X211280D01*
Y253642D01*
D02*
G37*
G36*
X187627Y248355D02*
X186922D01*
X186271Y248085D01*
X185772Y247587D01*
X185503Y246936D01*
Y246231D01*
X185772Y245580D01*
X186017Y245335D01*
X186224Y245008D01*
X186017Y244682D01*
X185772Y244437D01*
X185503Y243786D01*
Y243081D01*
X185772Y242430D01*
X186271Y241932D01*
X186922Y241662D01*
X187627D01*
X188278Y241932D01*
X188776Y242430D01*
X189046Y243081D01*
Y243786D01*
X188776Y244437D01*
X188532Y244682D01*
X188324Y245008D01*
X188532Y245335D01*
X188776Y245580D01*
X189046Y246231D01*
Y246936D01*
X188776Y247587D01*
X188278Y248085D01*
X187627Y248355D01*
D02*
G37*
G36*
X175943Y244291D02*
X175238D01*
X174587Y244022D01*
X174089Y243523D01*
X173819Y242872D01*
Y242167D01*
X174089Y241516D01*
X174587Y241018D01*
X175238Y240748D01*
X175943D01*
X176594Y241018D01*
X177093Y241516D01*
X177362Y242167D01*
Y242872D01*
X177093Y243523D01*
X176594Y244022D01*
X175943Y244291D01*
D02*
G37*
G36*
X195628Y243178D02*
X194923D01*
X194272Y242908D01*
X193774Y242409D01*
X193504Y241758D01*
Y241054D01*
X193774Y240402D01*
X194272Y239904D01*
X194923Y239634D01*
X195628D01*
X196279Y239904D01*
X196777Y240402D01*
X197047Y241054D01*
Y241758D01*
X196777Y242409D01*
X196279Y242908D01*
X195628Y243178D01*
D02*
G37*
G36*
X23184Y225000D02*
X22479D01*
X21828Y224730D01*
X21583Y224486D01*
X21256Y224278D01*
X20930Y224486D01*
X20685Y224730D01*
X20034Y225000D01*
X19329D01*
X18678Y224730D01*
X18180Y224232D01*
X17910Y223581D01*
Y222876D01*
X18180Y222225D01*
X18678Y221726D01*
X19329Y221457D01*
X20034D01*
X20685Y221726D01*
X20930Y221971D01*
X21256Y222179D01*
X21583Y221971D01*
X21828Y221726D01*
X22479Y221457D01*
X23184D01*
X23835Y221726D01*
X24333Y222225D01*
X24603Y222876D01*
Y223581D01*
X24333Y224232D01*
X23835Y224730D01*
X23184Y225000D01*
D02*
G37*
G36*
X421378Y229085D02*
X420354D01*
X419366Y228820D01*
X418479Y228308D01*
X417755Y227584D01*
X417243Y226697D01*
X416978Y225709D01*
Y224685D01*
X417243Y223696D01*
X417755Y222810D01*
X418479Y222086D01*
X419366Y221574D01*
X420354Y221309D01*
X421378D01*
X422367Y221574D01*
X423253Y222086D01*
X423977Y222810D01*
X424489Y223696D01*
X424754Y224685D01*
Y225709D01*
X424489Y226697D01*
X423977Y227584D01*
X423253Y228308D01*
X422367Y228820D01*
X421378Y229085D01*
D02*
G37*
G36*
X414754D02*
X406978D01*
Y221309D01*
X414754D01*
Y229085D01*
D02*
G37*
G36*
X421378Y219085D02*
X420354D01*
X419366Y218820D01*
X418479Y218308D01*
X417755Y217584D01*
X417243Y216698D01*
X416978Y215709D01*
Y214685D01*
X417243Y213696D01*
X417755Y212810D01*
X418479Y212086D01*
X419366Y211574D01*
X420354Y211309D01*
X421378D01*
X422367Y211574D01*
X423253Y212086D01*
X423977Y212810D01*
X424489Y213696D01*
X424754Y214685D01*
Y215709D01*
X424489Y216698D01*
X423977Y217584D01*
X423253Y218308D01*
X422367Y218820D01*
X421378Y219085D01*
D02*
G37*
G36*
X411378D02*
X410354D01*
X409366Y218820D01*
X408479Y218308D01*
X407755Y217584D01*
X407243Y216698D01*
X406978Y215709D01*
Y214685D01*
X407243Y213696D01*
X407755Y212810D01*
X408479Y212086D01*
X409366Y211574D01*
X410354Y211309D01*
X411378D01*
X412367Y211574D01*
X413253Y212086D01*
X413977Y212810D01*
X414489Y213696D01*
X414754Y214685D01*
Y215709D01*
X414489Y216698D01*
X413977Y217584D01*
X413253Y218308D01*
X412367Y218820D01*
X411378Y219085D01*
D02*
G37*
G36*
X421378Y209085D02*
X420354D01*
X419366Y208820D01*
X418479Y208308D01*
X417755Y207584D01*
X417243Y206698D01*
X416978Y205709D01*
Y204685D01*
X417243Y203696D01*
X417755Y202810D01*
X418479Y202086D01*
X419366Y201574D01*
X420354Y201309D01*
X421378D01*
X422367Y201574D01*
X423253Y202086D01*
X423977Y202810D01*
X424489Y203696D01*
X424754Y204685D01*
Y205709D01*
X424489Y206698D01*
X423977Y207584D01*
X423253Y208308D01*
X422367Y208820D01*
X421378Y209085D01*
D02*
G37*
G36*
X411378D02*
X410354D01*
X409366Y208820D01*
X408479Y208308D01*
X407755Y207584D01*
X407243Y206698D01*
X406978Y205709D01*
Y204685D01*
X407243Y203696D01*
X407755Y202810D01*
X408479Y202086D01*
X409366Y201574D01*
X410354Y201309D01*
X411378D01*
X412367Y201574D01*
X413253Y202086D01*
X413977Y202810D01*
X414489Y203696D01*
X414754Y204685D01*
Y205709D01*
X414489Y206698D01*
X413977Y207584D01*
X413253Y208308D01*
X412367Y208820D01*
X411378Y209085D01*
D02*
G37*
G36*
X421378Y199085D02*
X420354D01*
X419366Y198820D01*
X418479Y198308D01*
X417755Y197584D01*
X417243Y196697D01*
X416978Y195709D01*
Y194685D01*
X417243Y193696D01*
X417755Y192810D01*
X418479Y192086D01*
X419366Y191574D01*
X420354Y191309D01*
X421378D01*
X422367Y191574D01*
X423253Y192086D01*
X423977Y192810D01*
X424489Y193696D01*
X424754Y194685D01*
Y195709D01*
X424489Y196697D01*
X423977Y197584D01*
X423253Y198308D01*
X422367Y198820D01*
X421378Y199085D01*
D02*
G37*
G36*
X411378D02*
X410354D01*
X409366Y198820D01*
X408479Y198308D01*
X407755Y197584D01*
X407243Y196697D01*
X406978Y195709D01*
Y194685D01*
X407243Y193696D01*
X407755Y192810D01*
X408479Y192086D01*
X409366Y191574D01*
X410354Y191309D01*
X411378D01*
X412367Y191574D01*
X413253Y192086D01*
X413977Y192810D01*
X414489Y193696D01*
X414754Y194685D01*
Y195709D01*
X414489Y196697D01*
X413977Y197584D01*
X413253Y198308D01*
X412367Y198820D01*
X411378Y199085D01*
D02*
G37*
G36*
X421378Y189085D02*
X420354D01*
X419366Y188820D01*
X418479Y188308D01*
X417755Y187584D01*
X417243Y186697D01*
X416978Y185709D01*
Y184685D01*
X417243Y183696D01*
X417755Y182810D01*
X418479Y182086D01*
X419366Y181574D01*
X420354Y181309D01*
X421378D01*
X422367Y181574D01*
X423253Y182086D01*
X423977Y182810D01*
X424489Y183696D01*
X424754Y184685D01*
Y185709D01*
X424489Y186697D01*
X423977Y187584D01*
X423253Y188308D01*
X422367Y188820D01*
X421378Y189085D01*
D02*
G37*
G36*
X411378D02*
X410354D01*
X409366Y188820D01*
X408479Y188308D01*
X407755Y187584D01*
X407243Y186697D01*
X406978Y185709D01*
Y184685D01*
X407243Y183696D01*
X407755Y182810D01*
X408479Y182086D01*
X409366Y181574D01*
X410354Y181309D01*
X411378D01*
X412367Y181574D01*
X413253Y182086D01*
X413977Y182810D01*
X414489Y183696D01*
X414754Y184685D01*
Y185709D01*
X414489Y186697D01*
X413977Y187584D01*
X413253Y188308D01*
X412367Y188820D01*
X411378Y189085D01*
D02*
G37*
G36*
X421378Y179085D02*
X420354D01*
X419366Y178820D01*
X418479Y178308D01*
X417755Y177584D01*
X417243Y176698D01*
X416978Y175709D01*
Y174685D01*
X417243Y173696D01*
X417755Y172810D01*
X418479Y172086D01*
X419366Y171574D01*
X420354Y171309D01*
X421378D01*
X422367Y171574D01*
X423253Y172086D01*
X423977Y172810D01*
X424489Y173696D01*
X424754Y174685D01*
Y175709D01*
X424489Y176698D01*
X423977Y177584D01*
X423253Y178308D01*
X422367Y178820D01*
X421378Y179085D01*
D02*
G37*
G36*
X411378D02*
X410354D01*
X409366Y178820D01*
X408479Y178308D01*
X407755Y177584D01*
X407243Y176698D01*
X406978Y175709D01*
Y174685D01*
X407243Y173696D01*
X407755Y172810D01*
X408479Y172086D01*
X409366Y171574D01*
X410354Y171309D01*
X411378D01*
X412367Y171574D01*
X413253Y172086D01*
X413977Y172810D01*
X414489Y173696D01*
X414754Y174685D01*
Y175709D01*
X414489Y176698D01*
X413977Y177584D01*
X413253Y178308D01*
X412367Y178820D01*
X411378Y179085D01*
D02*
G37*
G36*
X421378Y142864D02*
X420354D01*
X419366Y142599D01*
X418479Y142087D01*
X417755Y141364D01*
X417243Y140477D01*
X416978Y139488D01*
Y138464D01*
X417243Y137476D01*
X417755Y136589D01*
X418479Y135865D01*
X419366Y135354D01*
X420354Y135089D01*
X421378D01*
X422367Y135354D01*
X423253Y135865D01*
X423977Y136589D01*
X424489Y137476D01*
X424754Y138464D01*
Y139488D01*
X424489Y140477D01*
X423977Y141364D01*
X423253Y142087D01*
X422367Y142599D01*
X421378Y142864D01*
D02*
G37*
G36*
X414754D02*
X406978D01*
Y135089D01*
X414754D01*
Y142864D01*
D02*
G37*
G36*
X421378Y132864D02*
X420354D01*
X419366Y132599D01*
X418479Y132087D01*
X417755Y131363D01*
X417243Y130477D01*
X416978Y129488D01*
Y128464D01*
X417243Y127476D01*
X417755Y126589D01*
X418479Y125865D01*
X419366Y125354D01*
X420354Y125089D01*
X421378D01*
X422367Y125354D01*
X423253Y125865D01*
X423977Y126589D01*
X424489Y127476D01*
X424754Y128464D01*
Y129488D01*
X424489Y130477D01*
X423977Y131363D01*
X423253Y132087D01*
X422367Y132599D01*
X421378Y132864D01*
D02*
G37*
G36*
X411378D02*
X410354D01*
X409366Y132599D01*
X408479Y132087D01*
X407755Y131363D01*
X407243Y130477D01*
X406978Y129488D01*
Y128464D01*
X407243Y127476D01*
X407755Y126589D01*
X408479Y125865D01*
X409366Y125354D01*
X410354Y125089D01*
X411378D01*
X412367Y125354D01*
X413253Y125865D01*
X413977Y126589D01*
X414489Y127476D01*
X414754Y128464D01*
Y129488D01*
X414489Y130477D01*
X413977Y131363D01*
X413253Y132087D01*
X412367Y132599D01*
X411378Y132864D01*
D02*
G37*
G36*
X421378Y122864D02*
X420354D01*
X419366Y122599D01*
X418479Y122087D01*
X417755Y121363D01*
X417243Y120477D01*
X416978Y119488D01*
Y118465D01*
X417243Y117476D01*
X417755Y116589D01*
X418479Y115865D01*
X419366Y115354D01*
X420354Y115089D01*
X421378D01*
X422367Y115354D01*
X423253Y115865D01*
X423977Y116589D01*
X424489Y117476D01*
X424754Y118465D01*
Y119488D01*
X424489Y120477D01*
X423977Y121363D01*
X423253Y122087D01*
X422367Y122599D01*
X421378Y122864D01*
D02*
G37*
G36*
X411378D02*
X410354D01*
X409366Y122599D01*
X408479Y122087D01*
X407755Y121363D01*
X407243Y120477D01*
X406978Y119488D01*
Y118465D01*
X407243Y117476D01*
X407755Y116589D01*
X408479Y115865D01*
X409366Y115354D01*
X410354Y115089D01*
X411378D01*
X412367Y115354D01*
X413253Y115865D01*
X413977Y116589D01*
X414489Y117476D01*
X414754Y118465D01*
Y119488D01*
X414489Y120477D01*
X413977Y121363D01*
X413253Y122087D01*
X412367Y122599D01*
X411378Y122864D01*
D02*
G37*
G36*
X421378Y112864D02*
X420354D01*
X419366Y112599D01*
X418479Y112087D01*
X417755Y111363D01*
X417243Y110477D01*
X416978Y109488D01*
Y108465D01*
X417243Y107476D01*
X417755Y106589D01*
X418479Y105865D01*
X419366Y105353D01*
X420354Y105089D01*
X421378D01*
X422367Y105353D01*
X423253Y105865D01*
X423977Y106589D01*
X424489Y107476D01*
X424754Y108465D01*
Y109488D01*
X424489Y110477D01*
X423977Y111363D01*
X423253Y112087D01*
X422367Y112599D01*
X421378Y112864D01*
D02*
G37*
G36*
X411378D02*
X410354D01*
X409366Y112599D01*
X408479Y112087D01*
X407755Y111363D01*
X407243Y110477D01*
X406978Y109488D01*
Y108465D01*
X407243Y107476D01*
X407755Y106589D01*
X408479Y105865D01*
X409366Y105353D01*
X410354Y105089D01*
X411378D01*
X412367Y105353D01*
X413253Y105865D01*
X413977Y106589D01*
X414489Y107476D01*
X414754Y108465D01*
Y109488D01*
X414489Y110477D01*
X413977Y111363D01*
X413253Y112087D01*
X412367Y112599D01*
X411378Y112864D01*
D02*
G37*
G36*
X421378Y102864D02*
X420354D01*
X419366Y102599D01*
X418479Y102087D01*
X417755Y101364D01*
X417243Y100477D01*
X416978Y99488D01*
Y98465D01*
X417243Y97476D01*
X417755Y96589D01*
X418479Y95865D01*
X419366Y95354D01*
X420354Y95089D01*
X421378D01*
X422367Y95354D01*
X423253Y95865D01*
X423977Y96589D01*
X424489Y97476D01*
X424754Y98465D01*
Y99488D01*
X424489Y100477D01*
X423977Y101364D01*
X423253Y102087D01*
X422367Y102599D01*
X421378Y102864D01*
D02*
G37*
G36*
X411378D02*
X410354D01*
X409366Y102599D01*
X408479Y102087D01*
X407755Y101364D01*
X407243Y100477D01*
X406978Y99488D01*
Y98465D01*
X407243Y97476D01*
X407755Y96589D01*
X408479Y95865D01*
X409366Y95354D01*
X410354Y95089D01*
X411378D01*
X412367Y95354D01*
X413253Y95865D01*
X413977Y96589D01*
X414489Y97476D01*
X414754Y98465D01*
Y99488D01*
X414489Y100477D01*
X413977Y101364D01*
X413253Y102087D01*
X412367Y102599D01*
X411378Y102864D01*
D02*
G37*
G36*
X421378Y92864D02*
X420354D01*
X419366Y92599D01*
X418479Y92087D01*
X417755Y91364D01*
X417243Y90477D01*
X416978Y89488D01*
Y88464D01*
X417243Y87476D01*
X417755Y86589D01*
X418479Y85865D01*
X419366Y85353D01*
X420354Y85089D01*
X421378D01*
X422367Y85353D01*
X423253Y85865D01*
X423977Y86589D01*
X424489Y87476D01*
X424754Y88464D01*
Y89488D01*
X424489Y90477D01*
X423977Y91364D01*
X423253Y92087D01*
X422367Y92599D01*
X421378Y92864D01*
D02*
G37*
G36*
X411378D02*
X410354D01*
X409366Y92599D01*
X408479Y92087D01*
X407755Y91364D01*
X407243Y90477D01*
X406978Y89488D01*
Y88464D01*
X407243Y87476D01*
X407755Y86589D01*
X408479Y85865D01*
X409366Y85353D01*
X410354Y85089D01*
X411378D01*
X412367Y85353D01*
X413253Y85865D01*
X413977Y86589D01*
X414489Y87476D01*
X414754Y88464D01*
Y89488D01*
X414489Y90477D01*
X413977Y91364D01*
X413253Y92087D01*
X412367Y92599D01*
X411378Y92864D01*
D02*
G37*
G36*
X132637Y241598D02*
X131933D01*
X131281Y241328D01*
X130783Y240830D01*
X130513Y240178D01*
Y239474D01*
X130783Y238822D01*
X131281Y238324D01*
X131933Y238054D01*
X132637D01*
X133289Y238324D01*
X133787Y238822D01*
X134057Y239474D01*
Y240178D01*
X133787Y240830D01*
X133289Y241328D01*
X132637Y241598D01*
D02*
G37*
G36*
X111771D02*
X111066D01*
X110415Y241328D01*
X109917Y240830D01*
X109647Y240178D01*
Y239474D01*
X109917Y238822D01*
X110415Y238324D01*
X111066Y238054D01*
X111771D01*
X112422Y238324D01*
X112921Y238822D01*
X113190Y239474D01*
Y240178D01*
X112921Y240830D01*
X112422Y241328D01*
X111771Y241598D01*
D02*
G37*
G36*
X88935Y241535D02*
X88230D01*
X87579Y241266D01*
X87081Y240767D01*
X86811Y240116D01*
Y239411D01*
X87081Y238760D01*
X87579Y238262D01*
X88230Y237992D01*
X88935D01*
X89586Y238262D01*
X90085Y238760D01*
X90354Y239411D01*
Y240116D01*
X90085Y240767D01*
X89586Y241266D01*
X88935Y241535D01*
D02*
G37*
G36*
X126730Y241535D02*
X126026D01*
X125374Y241266D01*
X124876Y240767D01*
X124606Y240116D01*
Y239411D01*
X124876Y238760D01*
X125374Y238262D01*
X126026Y237992D01*
X126730D01*
X127382Y238262D01*
X127880Y238760D01*
X128150Y239411D01*
Y240116D01*
X127880Y240767D01*
X127382Y241266D01*
X126730Y241535D01*
D02*
G37*
G36*
X95234D02*
X94529D01*
X93878Y241266D01*
X93380Y240767D01*
X93110Y240116D01*
Y239411D01*
X93380Y238760D01*
X93878Y238262D01*
X94529Y237992D01*
X95234D01*
X95885Y238262D01*
X96384Y238760D01*
X96653Y239411D01*
Y240116D01*
X96384Y240767D01*
X95885Y241266D01*
X95234Y241535D01*
D02*
G37*
G36*
X74370Y241204D02*
X73665D01*
X73014Y240934D01*
X72515Y240436D01*
X72246Y239785D01*
Y239080D01*
X72515Y238429D01*
X73014Y237930D01*
X73665Y237661D01*
X74370D01*
X75021Y237930D01*
X75519Y238429D01*
X75789Y239080D01*
Y239785D01*
X75519Y240436D01*
X75021Y240934D01*
X74370Y241204D01*
D02*
G37*
G36*
X160589Y232874D02*
X159884D01*
X159233Y232604D01*
X158734Y232106D01*
X158465Y231455D01*
Y230750D01*
X158734Y230099D01*
X159233Y229600D01*
X159884Y229331D01*
X160589D01*
X161240Y229600D01*
X161738Y230099D01*
X162008Y230750D01*
Y231455D01*
X161738Y232106D01*
X161240Y232604D01*
X160589Y232874D01*
D02*
G37*
G36*
X191297Y234449D02*
X190593D01*
X189941Y234179D01*
X189443Y233681D01*
X189173Y233030D01*
Y232325D01*
X189443Y231674D01*
X189941Y231175D01*
X190593Y230906D01*
X191297D01*
X191535Y230746D01*
Y230356D01*
X191805Y229705D01*
X192304Y229207D01*
X192955Y228937D01*
X193659D01*
X194311Y229207D01*
X194809Y229705D01*
X194850Y229803D01*
X195391D01*
X195424Y229725D01*
X195922Y229226D01*
X196573Y228957D01*
X197278D01*
X197929Y229226D01*
X198126Y229423D01*
X198473Y229686D01*
X198780Y229423D01*
X198996Y229207D01*
X199648Y228937D01*
X200352D01*
X201004Y229207D01*
X201484Y229687D01*
X201965Y229207D01*
X202616Y228937D01*
X203321D01*
X203972Y229207D01*
X204319Y229554D01*
X204634Y229653D01*
X204949Y229554D01*
X205296Y229207D01*
X205947Y228937D01*
X206652D01*
X207303Y229207D01*
X207801Y229705D01*
X208071Y230356D01*
Y231061D01*
X207801Y231712D01*
X207303Y232211D01*
X206652Y232480D01*
X205947D01*
X205296Y232211D01*
X204949Y231864D01*
X204634Y231764D01*
X204319Y231864D01*
X203972Y232211D01*
X203321Y232480D01*
X202616D01*
X201965Y232211D01*
X201484Y231730D01*
X201004Y232211D01*
X200352Y232480D01*
X199648D01*
X198996Y232211D01*
X198799Y232013D01*
X198453Y231751D01*
X198146Y232013D01*
X197929Y232230D01*
X197278Y232500D01*
X196573D01*
X195922Y232230D01*
X195424Y231732D01*
X195383Y231633D01*
X194842D01*
X194809Y231712D01*
X194311Y232211D01*
X193659Y232480D01*
X192955D01*
X192717Y232639D01*
Y233030D01*
X192447Y233681D01*
X191948Y234179D01*
X191297Y234449D01*
D02*
G37*
G36*
X131849Y232480D02*
X131144D01*
X130492Y232211D01*
X129994Y231712D01*
X129724Y231061D01*
Y230356D01*
X129994Y229705D01*
X130492Y229207D01*
X131144Y228937D01*
X131849D01*
X132500Y229207D01*
X132998Y229705D01*
X133268Y230356D01*
Y231061D01*
X132998Y231712D01*
X132500Y232211D01*
X131849Y232480D01*
D02*
G37*
G36*
X107045Y230512D02*
X106341D01*
X105689Y230242D01*
X105191Y229744D01*
X104921Y229093D01*
Y228388D01*
X105191Y227737D01*
X105689Y227238D01*
X106341Y226969D01*
X107045D01*
X107696Y227238D01*
X108195Y227737D01*
X108465Y228388D01*
Y229093D01*
X108195Y229744D01*
X107696Y230242D01*
X107045Y230512D01*
D02*
G37*
G36*
X69644Y230118D02*
X68939D01*
X68288Y229848D01*
X67789Y229350D01*
X67520Y228699D01*
Y227994D01*
X67789Y227343D01*
X68288Y226845D01*
X68939Y226575D01*
X69644D01*
X70295Y226845D01*
X70793Y227343D01*
X71063Y227994D01*
Y228699D01*
X70793Y229350D01*
X70295Y229848D01*
X69644Y230118D01*
D02*
G37*
G36*
X52321Y225787D02*
X51616D01*
X50965Y225518D01*
X50467Y225019D01*
X50265Y224533D01*
X49735D01*
X49533Y225019D01*
X49035Y225518D01*
X48384Y225787D01*
X47679D01*
X47028Y225518D01*
X46530Y225019D01*
X46260Y224368D01*
Y223663D01*
X46530Y223012D01*
X47028Y222514D01*
X47679Y222244D01*
X48384D01*
X49035Y222514D01*
X49533Y223012D01*
X49735Y223499D01*
X50265D01*
X50467Y223012D01*
X50965Y222514D01*
X51616Y222244D01*
X52321D01*
X52972Y222514D01*
X53470Y223012D01*
X53740Y223663D01*
Y224368D01*
X53470Y225019D01*
X52972Y225518D01*
X52321Y225787D01*
D02*
G37*
G36*
X61376D02*
X60671D01*
X60020Y225518D01*
X59522Y225019D01*
X59320Y224533D01*
X58790D01*
X58588Y225019D01*
X58090Y225518D01*
X57439Y225787D01*
X56734D01*
X56083Y225518D01*
X55585Y225019D01*
X55315Y224368D01*
Y223663D01*
X55585Y223012D01*
X56083Y222514D01*
X56734Y222244D01*
X57439D01*
X58090Y222514D01*
X58588Y223012D01*
X58790Y223499D01*
X59320D01*
X59522Y223012D01*
X60020Y222514D01*
X60671Y222244D01*
X61376D01*
X62027Y222514D01*
X62525Y223012D01*
X62795Y223663D01*
Y224368D01*
X62525Y225019D01*
X62027Y225518D01*
X61376Y225787D01*
D02*
G37*
G36*
X179486Y229724D02*
X178781D01*
X178130Y229455D01*
X177632Y228956D01*
X177362Y228305D01*
Y227600D01*
X177632Y226949D01*
X177876Y226705D01*
X178084Y226378D01*
X177876Y226051D01*
X177632Y225807D01*
X177362Y225155D01*
Y224451D01*
X177632Y223800D01*
X178130Y223301D01*
X178781Y223031D01*
X179486D01*
X180137Y223301D01*
X180636Y223800D01*
X180905Y224451D01*
Y225155D01*
X180636Y225807D01*
X180391Y226051D01*
X180184Y226378D01*
X180391Y226705D01*
X180636Y226949D01*
X180905Y227600D01*
Y228305D01*
X180636Y228956D01*
X180137Y229455D01*
X179486Y229724D01*
D02*
G37*
G36*
X169250Y225787D02*
X168545D01*
X167894Y225518D01*
X167396Y225019D01*
X167126Y224368D01*
Y223663D01*
X167396Y223012D01*
X167894Y222514D01*
X168545Y222244D01*
X169250D01*
X169901Y222514D01*
X170400Y223012D01*
X170669Y223663D01*
Y224368D01*
X170400Y225019D01*
X169901Y225518D01*
X169250Y225787D01*
D02*
G37*
G36*
X79486Y222638D02*
X78781D01*
X78130Y222368D01*
X77886Y222124D01*
X77559Y221916D01*
X77232Y222124D01*
X76988Y222368D01*
X76337Y222638D01*
X75632D01*
X74981Y222368D01*
X74482Y221870D01*
X74448Y221863D01*
X74020Y222290D01*
X73369Y222560D01*
X72664D01*
X72013Y222290D01*
X71515Y221792D01*
X71245Y221141D01*
Y220436D01*
X71515Y219785D01*
X72013Y219286D01*
X72664Y219017D01*
X73369D01*
X74020Y219286D01*
X74519Y219785D01*
X74553Y219792D01*
X74981Y219364D01*
X75632Y219094D01*
X76337D01*
X76988Y219364D01*
X77232Y219609D01*
X77559Y219816D01*
X77886Y219609D01*
X78130Y219364D01*
X78781Y219094D01*
X79486D01*
X80137Y219364D01*
X80636Y219863D01*
X80905Y220514D01*
Y221219D01*
X80636Y221870D01*
X80137Y222368D01*
X79486Y222638D01*
D02*
G37*
G36*
X195234Y220669D02*
X194529D01*
X193878Y220400D01*
X193380Y219901D01*
X193178Y219415D01*
X192648D01*
X192447Y219901D01*
X191948Y220400D01*
X191297Y220669D01*
X190593D01*
X189941Y220400D01*
X189443Y219901D01*
X189242Y219415D01*
X188711D01*
X188510Y219901D01*
X188011Y220400D01*
X187360Y220669D01*
X186655D01*
X186004Y220400D01*
X185506Y219901D01*
X185236Y219250D01*
Y218545D01*
X185506Y217894D01*
X186004Y217396D01*
X186491Y217194D01*
Y216664D01*
X186004Y216463D01*
X185506Y215964D01*
X185236Y215313D01*
Y214608D01*
X185506Y213957D01*
X186004Y213459D01*
X186491Y213257D01*
Y212727D01*
X186004Y212526D01*
X185506Y212027D01*
X185236Y211376D01*
Y210671D01*
X185506Y210020D01*
X186004Y209522D01*
X186655Y209252D01*
X187360D01*
X188011Y209522D01*
X188510Y210020D01*
X188711Y210507D01*
X189242D01*
X189443Y210020D01*
X189941Y209522D01*
X190593Y209252D01*
X191297D01*
X191948Y209522D01*
X192447Y210020D01*
X192648Y210507D01*
X193178D01*
X193380Y210020D01*
X193878Y209522D01*
X194529Y209252D01*
X195234D01*
X195886Y209522D01*
X196384Y210020D01*
X196653Y210671D01*
Y211376D01*
X196384Y212027D01*
X195886Y212526D01*
X195399Y212727D01*
Y213257D01*
X195886Y213459D01*
X196384Y213957D01*
X196653Y214608D01*
Y215313D01*
X196384Y215964D01*
X195886Y216463D01*
X195399Y216664D01*
Y217194D01*
X195886Y217396D01*
X196384Y217894D01*
X196653Y218545D01*
Y219250D01*
X196384Y219901D01*
X195886Y220400D01*
X195234Y220669D01*
D02*
G37*
G36*
X38461Y221851D02*
X37756D01*
X37105Y221581D01*
X36606Y221083D01*
X36337Y220431D01*
Y219727D01*
X36606Y219075D01*
X37105Y218577D01*
X37756Y218307D01*
X38461D01*
X39112Y218577D01*
X39610Y219075D01*
X39880Y219727D01*
Y220431D01*
X39610Y221083D01*
X39112Y221581D01*
X38461Y221851D01*
D02*
G37*
G36*
X91284Y221073D02*
X90579D01*
X89928Y220803D01*
X89430Y220305D01*
X89160Y219654D01*
Y218949D01*
X89430Y218298D01*
X89928Y217799D01*
X90579Y217530D01*
X91284D01*
X91935Y217799D01*
X92434Y218298D01*
X92703Y218949D01*
Y219654D01*
X92434Y220305D01*
X91935Y220803D01*
X91284Y221073D01*
D02*
G37*
G36*
X57439Y220669D02*
X56734D01*
X56083Y220400D01*
X55585Y219901D01*
X55315Y219250D01*
Y218545D01*
X55585Y217894D01*
X56083Y217396D01*
X56734Y217126D01*
X57439D01*
X58090Y217396D01*
X58588Y217894D01*
X58858Y218545D01*
Y219250D01*
X58588Y219901D01*
X58090Y220400D01*
X57439Y220669D01*
D02*
G37*
G36*
X116486Y220611D02*
X115781D01*
X115130Y220341D01*
X114632Y219843D01*
X114362Y219192D01*
Y218487D01*
X114632Y217836D01*
X115130Y217337D01*
X115781Y217068D01*
X116486D01*
X117137Y217337D01*
X117636Y217836D01*
X117905Y218487D01*
Y219192D01*
X117636Y219843D01*
X117137Y220341D01*
X116486Y220611D01*
D02*
G37*
G36*
X149171Y215158D02*
X148467D01*
X147815Y214888D01*
X147317Y214389D01*
X147047Y213738D01*
Y213033D01*
X147317Y212382D01*
X147815Y211884D01*
X148467Y211614D01*
X149171D01*
X149822Y211884D01*
X150321Y212382D01*
X150591Y213033D01*
Y213738D01*
X150321Y214389D01*
X149822Y214888D01*
X149171Y215158D01*
D02*
G37*
G36*
X144447D02*
X143742D01*
X143091Y214888D01*
X142593Y214389D01*
X142323Y213738D01*
Y213033D01*
X142593Y212382D01*
X143091Y211884D01*
X143742Y211614D01*
X144447D01*
X145098Y211884D01*
X145596Y212382D01*
X145866Y213033D01*
Y213738D01*
X145596Y214389D01*
X145098Y214888D01*
X144447Y215158D01*
D02*
G37*
G36*
X139723D02*
X139018D01*
X138366Y214888D01*
X137868Y214389D01*
X137598Y213738D01*
Y213033D01*
X137868Y212382D01*
X138366Y211884D01*
X139018Y211614D01*
X139723D01*
X140374Y211884D01*
X140872Y212382D01*
X141142Y213033D01*
Y213738D01*
X140872Y214389D01*
X140374Y214888D01*
X139723Y215158D01*
D02*
G37*
G36*
X207758Y213508D02*
X207053D01*
X206402Y213239D01*
X205904Y212740D01*
X205634Y212089D01*
Y211384D01*
X205904Y210733D01*
X206402Y210235D01*
X207053Y209965D01*
X207758D01*
X208410Y210235D01*
X208908Y210733D01*
X209178Y211384D01*
Y212089D01*
X208908Y212740D01*
X208410Y213239D01*
X207758Y213508D01*
D02*
G37*
G36*
X73187Y212402D02*
X72482D01*
X71831Y212132D01*
X71333Y211633D01*
X71063Y210982D01*
Y210278D01*
X71333Y209626D01*
X71831Y209128D01*
X72482Y208858D01*
X73187D01*
X73838Y209128D01*
X74337Y209626D01*
X74606Y210278D01*
Y210982D01*
X74337Y211633D01*
X73838Y212132D01*
X73187Y212402D01*
D02*
G37*
G36*
X281455Y211614D02*
X280750D01*
X280099Y211345D01*
X279600Y210846D01*
X279331Y210195D01*
Y209490D01*
X279600Y208839D01*
X280099Y208341D01*
X280750Y208071D01*
X281455D01*
X282106Y208341D01*
X282604Y208839D01*
X282874Y209490D01*
Y210195D01*
X282604Y210846D01*
X282106Y211345D01*
X281455Y211614D01*
D02*
G37*
G36*
X84211Y213976D02*
X83506D01*
X82855Y213707D01*
X82356Y213208D01*
X82087Y212557D01*
Y211852D01*
X82356Y211201D01*
X82589Y210968D01*
X82803Y210628D01*
X82589Y210315D01*
X82343Y210069D01*
X82073Y209418D01*
Y208713D01*
X82343Y208062D01*
X82841Y207563D01*
X83493Y207294D01*
X84197D01*
X84849Y207563D01*
X85347Y208062D01*
X85617Y208713D01*
Y209418D01*
X85347Y210069D01*
X85114Y210302D01*
X84900Y210642D01*
X85114Y210955D01*
X85360Y211201D01*
X85630Y211852D01*
Y212557D01*
X85360Y213208D01*
X84862Y213707D01*
X84211Y213976D01*
D02*
G37*
G36*
X116097Y207677D02*
X115392D01*
X114741Y207407D01*
X114497Y207163D01*
X114170Y206955D01*
X113843Y207163D01*
X113599Y207407D01*
X112947Y207677D01*
X112243D01*
X111591Y207407D01*
X111093Y206909D01*
X110823Y206258D01*
Y205553D01*
X111093Y204902D01*
X111591Y204404D01*
X112243Y204134D01*
X112947D01*
X113599Y204404D01*
X113843Y204648D01*
X114170Y204856D01*
X114497Y204648D01*
X114741Y204404D01*
X115392Y204134D01*
X116097D01*
X116748Y204404D01*
X117247Y204902D01*
X117516Y205553D01*
Y206258D01*
X117247Y206909D01*
X116748Y207407D01*
X116097Y207677D01*
D02*
G37*
G36*
X39667Y210003D02*
X38962D01*
X38311Y209734D01*
X37813Y209235D01*
X37543Y208584D01*
Y207879D01*
X37813Y207228D01*
X38311Y206730D01*
X38962Y206460D01*
X39667D01*
X40318Y206730D01*
X40817Y207228D01*
X41086Y207879D01*
Y208584D01*
X40817Y209235D01*
X40318Y209734D01*
X39667Y210003D01*
D02*
G37*
G36*
X96809Y208858D02*
X96104D01*
X95453Y208589D01*
X94955Y208090D01*
X94685Y207439D01*
Y206734D01*
X94955Y206083D01*
X95453Y205585D01*
X96104Y205315D01*
X96809D01*
X97460Y205585D01*
X97959Y206083D01*
X98228Y206734D01*
Y207439D01*
X97959Y208090D01*
X97460Y208589D01*
X96809Y208858D01*
D02*
G37*
G36*
X361376Y208465D02*
X360671D01*
X360020Y208195D01*
X359522Y207697D01*
X359252Y207045D01*
Y206341D01*
X359522Y205689D01*
X360020Y205191D01*
X360671Y204921D01*
X361376D01*
X362027Y205191D01*
X362526Y205689D01*
X362795Y206341D01*
Y207045D01*
X362526Y207697D01*
X362027Y208195D01*
X361376Y208465D01*
D02*
G37*
G36*
X356652D02*
X355947D01*
X355296Y208195D01*
X354797Y207697D01*
X354528Y207045D01*
Y206341D01*
X354797Y205689D01*
X355296Y205191D01*
X355947Y204921D01*
X356652D01*
X357303Y205191D01*
X357801Y205689D01*
X358071Y206341D01*
Y207045D01*
X357801Y207697D01*
X357303Y208195D01*
X356652Y208465D01*
D02*
G37*
G36*
X351927D02*
X351222D01*
X350571Y208195D01*
X350073Y207697D01*
X349803Y207045D01*
Y206341D01*
X350073Y205689D01*
X350571Y205191D01*
X351222Y204921D01*
X351927D01*
X352578Y205191D01*
X353077Y205689D01*
X353346Y206341D01*
Y207045D01*
X353077Y207697D01*
X352578Y208195D01*
X351927Y208465D01*
D02*
G37*
G36*
X177518Y211614D02*
X176813D01*
X176162Y211345D01*
X175663Y210846D01*
X175394Y210195D01*
Y209490D01*
X175624Y208933D01*
X175457Y208607D01*
X175331Y208465D01*
X174845D01*
X174193Y208195D01*
X173695Y207697D01*
X173425Y207045D01*
Y206341D01*
X173695Y205689D01*
X174193Y205191D01*
X174845Y204921D01*
X175549D01*
X176200Y205191D01*
X176699Y205689D01*
X176969Y206341D01*
Y207045D01*
X176738Y207602D01*
X176905Y207928D01*
X177032Y208071D01*
X177518D01*
X178169Y208341D01*
X178667Y208839D01*
X178937Y209490D01*
Y210195D01*
X178667Y210846D01*
X178169Y211345D01*
X177518Y211614D01*
D02*
G37*
G36*
X104286Y207677D02*
X103581D01*
X102930Y207407D01*
X102432Y206909D01*
X102162Y206258D01*
Y205553D01*
X102432Y204902D01*
X102930Y204404D01*
X103581Y204134D01*
X104286D01*
X104937Y204404D01*
X105436Y204902D01*
X105705Y205553D01*
Y206258D01*
X105436Y206909D01*
X104937Y207407D01*
X104286Y207677D01*
D02*
G37*
G36*
X281455Y206890D02*
X280750D01*
X280099Y206620D01*
X279600Y206122D01*
X279331Y205470D01*
Y204766D01*
X279600Y204115D01*
X280099Y203616D01*
X280750Y203346D01*
X281455D01*
X282106Y203616D01*
X282604Y204115D01*
X282874Y204766D01*
Y205470D01*
X282604Y206122D01*
X282106Y206620D01*
X281455Y206890D01*
D02*
G37*
G36*
X77476Y206853D02*
X76771D01*
X76120Y206583D01*
X75621Y206085D01*
X75352Y205434D01*
Y204729D01*
X75621Y204078D01*
X76120Y203579D01*
X76771Y203310D01*
X77476D01*
X78127Y203579D01*
X78625Y204078D01*
X78895Y204729D01*
Y205434D01*
X78625Y206085D01*
X78127Y206583D01*
X77476Y206853D01*
D02*
G37*
G36*
X25549Y205315D02*
X24845D01*
X24193Y205045D01*
X23695Y204547D01*
X23425Y203896D01*
Y203191D01*
X23695Y202540D01*
X24193Y202041D01*
X24845Y201772D01*
X25549D01*
X26200Y202041D01*
X26699Y202540D01*
X26969Y203191D01*
Y203896D01*
X26699Y204547D01*
X26200Y205045D01*
X25549Y205315D01*
D02*
G37*
G36*
X86620Y203163D02*
X85915D01*
X85264Y202894D01*
X84766Y202395D01*
X84508Y201772D01*
X84060Y201526D01*
X84020Y201543D01*
X83315D01*
X82664Y201274D01*
X82165Y200775D01*
X81896Y200124D01*
Y199419D01*
X81841Y199338D01*
X81328D01*
X80677Y199068D01*
X80178Y198570D01*
X79909Y197919D01*
Y197214D01*
X80178Y196563D01*
X80677Y196064D01*
X81328Y195795D01*
X82033D01*
X82684Y196064D01*
X83182Y196563D01*
X83452Y197214D01*
Y197919D01*
X83506Y198000D01*
X84020D01*
X84671Y198270D01*
X85169Y198768D01*
X85427Y199391D01*
X85875Y199637D01*
X85915Y199620D01*
X86620D01*
X87271Y199890D01*
X87770Y200388D01*
X88039Y201039D01*
Y201744D01*
X87770Y202395D01*
X87271Y202894D01*
X86620Y203163D01*
D02*
G37*
G36*
X53896Y212402D02*
X53191D01*
X52540Y212132D01*
X52041Y211633D01*
X51772Y210982D01*
Y210278D01*
X52041Y209626D01*
X52540Y209128D01*
X53026Y208927D01*
Y208396D01*
X52540Y208195D01*
X52041Y207697D01*
X51772Y207045D01*
Y206341D01*
X52041Y205689D01*
X52540Y205191D01*
X53026Y204990D01*
Y204459D01*
X52540Y204258D01*
X52041Y203760D01*
X51772Y203108D01*
Y202403D01*
X52041Y201752D01*
X52540Y201254D01*
X53191Y200984D01*
X53896D01*
X54547Y201254D01*
X55045Y201752D01*
X55315Y202403D01*
Y203108D01*
X55045Y203760D01*
X54547Y204258D01*
X54060Y204459D01*
Y204990D01*
X54547Y205191D01*
X55045Y205689D01*
X55315Y206341D01*
Y207045D01*
X55045Y207697D01*
X54547Y208195D01*
X54061Y208396D01*
Y208927D01*
X54547Y209128D01*
X55045Y209626D01*
X55315Y210278D01*
Y210982D01*
X55045Y211633D01*
X54547Y212132D01*
X53896Y212402D01*
D02*
G37*
G36*
X96809Y203346D02*
X96104D01*
X95453Y203077D01*
X94955Y202578D01*
X94685Y201927D01*
Y201222D01*
X94955Y200571D01*
X95453Y200073D01*
X96104Y199803D01*
X96809D01*
X97460Y200073D01*
X97959Y200571D01*
X98228Y201222D01*
Y201927D01*
X97959Y202578D01*
X97460Y203077D01*
X96809Y203346D01*
D02*
G37*
G36*
X297597Y202953D02*
X296892D01*
X296240Y202683D01*
X295742Y202185D01*
X295472Y201534D01*
Y200829D01*
X295742Y200178D01*
X296240Y199679D01*
X296892Y199409D01*
X297597D01*
X298248Y199679D01*
X298746Y200178D01*
X299016Y200829D01*
Y201534D01*
X298746Y202185D01*
X298248Y202683D01*
X297597Y202953D01*
D02*
G37*
G36*
X114919Y199016D02*
X114215D01*
X113563Y198746D01*
X113065Y198248D01*
X112795Y197597D01*
Y196892D01*
X113065Y196240D01*
X113563Y195742D01*
X114215Y195473D01*
X114919D01*
X115570Y195742D01*
X116069Y196240D01*
X116339Y196892D01*
Y197597D01*
X116069Y198248D01*
X115570Y198746D01*
X114919Y199016D01*
D02*
G37*
G36*
X62557Y198228D02*
X61852D01*
X61201Y197959D01*
X60703Y197460D01*
X60433Y196809D01*
Y196104D01*
X60703Y195453D01*
X61201Y194955D01*
X61852Y194685D01*
X62557D01*
X63208Y194955D01*
X63707Y195453D01*
X63976Y196104D01*
Y196809D01*
X63707Y197460D01*
X63208Y197959D01*
X62557Y198228D01*
D02*
G37*
G36*
X105861Y197835D02*
X105156D01*
X104505Y197565D01*
X104007Y197067D01*
X103737Y196415D01*
Y195711D01*
X104007Y195059D01*
X104505Y194561D01*
X105156Y194291D01*
X105861D01*
X106512Y194561D01*
X107010Y195059D01*
X107280Y195711D01*
Y196415D01*
X107010Y197067D01*
X106512Y197565D01*
X105861Y197835D01*
D02*
G37*
G36*
X130667Y197441D02*
X129963D01*
X129311Y197171D01*
X128813Y196673D01*
X128543Y196022D01*
Y195317D01*
X128813Y194666D01*
X129311Y194167D01*
X129963Y193898D01*
X130667D01*
X131318Y194167D01*
X131817Y194666D01*
X132087Y195317D01*
Y196022D01*
X131817Y196673D01*
X131318Y197171D01*
X130667Y197441D01*
D02*
G37*
G36*
X86164Y193507D02*
X85460D01*
X84808Y193237D01*
X84310Y192739D01*
X84073Y192167D01*
X84010Y192154D01*
X83359Y192424D01*
X82654D01*
X82003Y192154D01*
X81504Y191656D01*
X81235Y191005D01*
Y190300D01*
X81504Y189649D01*
X82003Y189150D01*
X82654Y188881D01*
X83359D01*
X84010Y189150D01*
X84508Y189649D01*
X84745Y190221D01*
X84808Y190234D01*
X85460Y189964D01*
X86164D01*
X86816Y190234D01*
X87314Y190732D01*
X87584Y191383D01*
Y192088D01*
X87314Y192739D01*
X86816Y193237D01*
X86164Y193507D01*
D02*
G37*
G36*
X29486Y193110D02*
X28782D01*
X28130Y192841D01*
X27632Y192342D01*
X27362Y191691D01*
Y191598D01*
X26862Y191428D01*
X26627Y191735D01*
X26051Y192177D01*
X25381Y192455D01*
X24661Y192549D01*
X20331D01*
X19611Y192455D01*
X18941Y192177D01*
X18365Y191735D01*
X17923Y191160D01*
X17646Y190489D01*
X17551Y189770D01*
X17646Y189050D01*
X17923Y188380D01*
X18365Y187804D01*
X18941Y187363D01*
X19611Y187085D01*
X20331Y186990D01*
X24661D01*
X25381Y187085D01*
X26051Y187363D01*
X26627Y187804D01*
X26894Y188153D01*
X26918Y188157D01*
X27440Y188043D01*
X27632Y187579D01*
X28006Y187205D01*
X27632Y186830D01*
X27362Y186179D01*
Y185474D01*
X27632Y184823D01*
X28130Y184325D01*
X28782Y184055D01*
X29486D01*
X30137Y184325D01*
X30636Y184823D01*
X30906Y185474D01*
Y186179D01*
X30636Y186830D01*
X30261Y187205D01*
X30636Y187579D01*
X30906Y188230D01*
Y188935D01*
X30636Y189586D01*
X30261Y189961D01*
X30636Y190335D01*
X30906Y190986D01*
Y191691D01*
X30636Y192342D01*
X30137Y192841D01*
X29486Y193110D01*
D02*
G37*
G36*
X279486Y193504D02*
X278782D01*
X278130Y193234D01*
X277632Y192736D01*
X277362Y192085D01*
Y191380D01*
X277632Y190729D01*
X278130Y190230D01*
X278782Y189961D01*
X279486D01*
X280137Y190230D01*
X280636Y190729D01*
X280906Y191380D01*
Y192085D01*
X280636Y192736D01*
X280137Y193234D01*
X279486Y193504D01*
D02*
G37*
G36*
X275155D02*
X274451D01*
X273800Y193234D01*
X273301Y192736D01*
X273031Y192085D01*
Y191380D01*
X273301Y190729D01*
X273800Y190230D01*
X274451Y189961D01*
X275155D01*
X275807Y190230D01*
X276305Y190729D01*
X276575Y191380D01*
Y192085D01*
X276305Y192736D01*
X275807Y193234D01*
X275155Y193504D01*
D02*
G37*
G36*
X96809Y193110D02*
X96104D01*
X95453Y192841D01*
X94955Y192342D01*
X94685Y191691D01*
Y190986D01*
X94955Y190335D01*
X95453Y189837D01*
X96104Y189567D01*
X96809D01*
X97460Y189837D01*
X97959Y190335D01*
X98228Y190986D01*
Y191691D01*
X97959Y192342D01*
X97460Y192841D01*
X96809Y193110D01*
D02*
G37*
G36*
X7614Y192549D02*
X4464D01*
X3745Y192455D01*
X3075Y192177D01*
X2499Y191735D01*
X2057Y191160D01*
X1780Y190489D01*
X1685Y189770D01*
X1780Y189050D01*
X2057Y188380D01*
X2499Y187804D01*
X3075Y187363D01*
X3745Y187085D01*
X4464Y186990D01*
X7614D01*
X8333Y187085D01*
X9004Y187363D01*
X9580Y187804D01*
X10021Y188380D01*
X10299Y189050D01*
X10394Y189770D01*
X10299Y190489D01*
X10021Y191160D01*
X9580Y191735D01*
X9004Y192177D01*
X8333Y192455D01*
X7614Y192549D01*
D02*
G37*
G36*
X130708Y189944D02*
X130003D01*
X129352Y189674D01*
X128853Y189176D01*
X128584Y188525D01*
Y187820D01*
X128853Y187169D01*
X129352Y186670D01*
X130003Y186401D01*
X130708D01*
X131359Y186670D01*
X131857Y187169D01*
X132127Y187820D01*
Y188525D01*
X131857Y189176D01*
X131359Y189674D01*
X130708Y189944D01*
D02*
G37*
G36*
X114522Y189173D02*
X113817D01*
X113166Y188903D01*
X112668Y188405D01*
X112398Y187754D01*
Y187049D01*
X112668Y186398D01*
X113166Y185900D01*
X113817Y185630D01*
X114522D01*
X115173Y185900D01*
X115672Y186398D01*
X115942Y187049D01*
Y187754D01*
X115672Y188405D01*
X115173Y188903D01*
X114522Y189173D01*
D02*
G37*
G36*
X94447Y188779D02*
X93742D01*
X93091Y188510D01*
X92593Y188011D01*
X92323Y187360D01*
Y186655D01*
X92593Y186004D01*
X93091Y185506D01*
X93742Y185236D01*
X94447D01*
X95098Y185506D01*
X95596Y186004D01*
X95866Y186655D01*
Y187360D01*
X95596Y188011D01*
X95098Y188510D01*
X94447Y188779D01*
D02*
G37*
G36*
X104286Y186811D02*
X103581D01*
X102930Y186541D01*
X102432Y186043D01*
X102162Y185392D01*
Y184687D01*
X102432Y184036D01*
X102930Y183537D01*
X103581Y183268D01*
X104286D01*
X104937Y183537D01*
X105436Y184036D01*
X105705Y184687D01*
Y185392D01*
X105436Y186043D01*
X104937Y186541D01*
X104286Y186811D01*
D02*
G37*
G36*
X20981Y186419D02*
X20074D01*
X19236Y186072D01*
X18595Y185431D01*
X18248Y184593D01*
Y183686D01*
X18595Y182849D01*
X19236Y182207D01*
X20074Y181860D01*
X20981D01*
X21819Y182207D01*
X22460Y182849D01*
X22807Y183686D01*
Y184593D01*
X22460Y185431D01*
X21819Y186072D01*
X20981Y186419D01*
D02*
G37*
G36*
X281849Y184843D02*
X281144D01*
X280492Y184573D01*
X279994Y184074D01*
X279724Y183423D01*
Y182719D01*
X279994Y182067D01*
X280492Y181569D01*
X281144Y181299D01*
X281849D01*
X282500Y181569D01*
X282998Y182067D01*
X283268Y182719D01*
Y183423D01*
X282998Y184074D01*
X282500Y184573D01*
X281849Y184843D01*
D02*
G37*
G36*
X272400D02*
X271695D01*
X271044Y184573D01*
X270545Y184074D01*
X270276Y183423D01*
Y182719D01*
X270545Y182067D01*
X271044Y181569D01*
X271695Y181299D01*
X272400D01*
X273051Y181569D01*
X273549Y182067D01*
X273819Y182719D01*
Y183423D01*
X273549Y184074D01*
X273051Y184573D01*
X272400Y184843D01*
D02*
G37*
G36*
X153735Y183679D02*
X153030D01*
X152379Y183409D01*
X151880Y182911D01*
X151611Y182259D01*
Y181555D01*
X151880Y180903D01*
X152379Y180405D01*
X153030Y180135D01*
X153735D01*
X154386Y180405D01*
X154884Y180903D01*
X155154Y181555D01*
Y182259D01*
X154884Y182911D01*
X154386Y183409D01*
X153735Y183679D01*
D02*
G37*
G36*
X163738Y183661D02*
X163033D01*
X162382Y183392D01*
X161884Y182893D01*
X161614Y182242D01*
Y181537D01*
X161884Y180886D01*
X162382Y180388D01*
X163033Y180118D01*
X163738D01*
X164389Y180388D01*
X164888Y180886D01*
X165157Y181537D01*
Y182242D01*
X164888Y182893D01*
X164389Y183392D01*
X163738Y183661D01*
D02*
G37*
G36*
X79093Y179882D02*
X78388D01*
X77737Y179612D01*
X77238Y179114D01*
X76968Y178463D01*
Y177758D01*
X77238Y177107D01*
X77737Y176608D01*
X78388Y176339D01*
X79093D01*
X79744Y176608D01*
X80242Y177107D01*
X80512Y177758D01*
Y178463D01*
X80242Y179114D01*
X79744Y179612D01*
X79093Y179882D01*
D02*
G37*
G36*
X9801Y178543D02*
X9096D01*
X8445Y178274D01*
X7947Y177775D01*
X7677Y177124D01*
Y176419D01*
X7947Y175768D01*
X8445Y175270D01*
X9096Y175000D01*
X9801D01*
X10452Y175270D01*
X10951Y175768D01*
X11220Y176419D01*
Y177124D01*
X10951Y177775D01*
X10452Y178274D01*
X9801Y178543D01*
D02*
G37*
G36*
X29093Y179331D02*
X28388D01*
X27737Y179061D01*
X27238Y178563D01*
X26969Y177911D01*
Y177207D01*
X27238Y176556D01*
X27737Y176057D01*
X28388Y175787D01*
X29093D01*
X29322Y175882D01*
X29768Y175526D01*
X29994Y174981D01*
X30492Y174482D01*
X31144Y174213D01*
X31848D01*
X32500Y174482D01*
X32998Y174981D01*
X33268Y175632D01*
Y176337D01*
X32998Y176988D01*
X32500Y177486D01*
X31848Y177756D01*
X31144D01*
X30915Y177661D01*
X30468Y178017D01*
X30242Y178563D01*
X29744Y179061D01*
X29093Y179331D01*
D02*
G37*
G36*
X117675Y177362D02*
X116970D01*
X116319Y177093D01*
X115821Y176594D01*
X115551Y175943D01*
Y175238D01*
X115821Y174587D01*
X116319Y174089D01*
X116970Y173819D01*
X117675D01*
X118326Y174089D01*
X118825Y174587D01*
X119095Y175238D01*
Y175943D01*
X118825Y176594D01*
X118326Y177093D01*
X117675Y177362D01*
D02*
G37*
G36*
X91297Y175787D02*
X90592D01*
X89941Y175518D01*
X89443Y175019D01*
X89173Y174368D01*
Y173663D01*
X89443Y173012D01*
X89941Y172514D01*
X90592Y172244D01*
X91297D01*
X91948Y172514D01*
X92447Y173012D01*
X92716Y173663D01*
Y174368D01*
X92447Y175019D01*
X91948Y175518D01*
X91297Y175787D01*
D02*
G37*
G36*
X78305Y175394D02*
X77600D01*
X76949Y175124D01*
X76451Y174626D01*
X76181Y173974D01*
Y173270D01*
X76451Y172618D01*
X76949Y172120D01*
X77600Y171850D01*
X78305D01*
X78956Y172120D01*
X79455Y172618D01*
X79724Y173270D01*
Y173974D01*
X79455Y174626D01*
X78956Y175124D01*
X78305Y175394D01*
D02*
G37*
G36*
X112951Y173031D02*
X112246D01*
X111595Y172762D01*
X111097Y172263D01*
X110827Y171612D01*
Y170907D01*
X111097Y170256D01*
X111595Y169758D01*
X112246Y169488D01*
X112951D01*
X113602Y169758D01*
X114100Y170256D01*
X114370Y170907D01*
Y171612D01*
X114100Y172263D01*
X113602Y172762D01*
X112951Y173031D01*
D02*
G37*
G36*
X95234Y172638D02*
X94529D01*
X93878Y172368D01*
X93380Y171870D01*
X93110Y171219D01*
Y170514D01*
X93380Y169863D01*
X93878Y169364D01*
X94529Y169095D01*
X95234D01*
X95885Y169364D01*
X96384Y169863D01*
X96653Y170514D01*
Y171219D01*
X96384Y171870D01*
X95885Y172368D01*
X95234Y172638D01*
D02*
G37*
G36*
X257439Y172638D02*
X256734D01*
X256083Y172368D01*
X255585Y171870D01*
X255315Y171219D01*
Y170514D01*
X255585Y169863D01*
X256083Y169364D01*
X256734Y169095D01*
X257439D01*
X258090Y169364D01*
X258589Y169863D01*
X258858Y170514D01*
Y171219D01*
X258589Y171870D01*
X258090Y172368D01*
X257439Y172638D01*
D02*
G37*
G36*
X252715D02*
X252010D01*
X251359Y172368D01*
X250860Y171870D01*
X250590Y171219D01*
Y170514D01*
X250860Y169863D01*
X251359Y169364D01*
X252010Y169095D01*
X252715D01*
X253366Y169364D01*
X253864Y169863D01*
X254134Y170514D01*
Y171219D01*
X253864Y171870D01*
X253366Y172368D01*
X252715Y172638D01*
D02*
G37*
G36*
X49171Y172244D02*
X48467D01*
X47815Y171974D01*
X47317Y171476D01*
X47047Y170825D01*
Y170120D01*
X47317Y169469D01*
X47815Y168971D01*
X48467Y168701D01*
X49171D01*
X49823Y168971D01*
X50321Y169469D01*
X50591Y170120D01*
Y170825D01*
X50321Y171476D01*
X49823Y171974D01*
X49171Y172244D01*
D02*
G37*
G36*
X9801Y171850D02*
X9096D01*
X8445Y171581D01*
X7947Y171082D01*
X7677Y170431D01*
Y169726D01*
X7947Y169075D01*
X8445Y168577D01*
X9096Y168307D01*
X9801D01*
X10452Y168577D01*
X10951Y169075D01*
X11220Y169726D01*
Y170431D01*
X10951Y171082D01*
X10452Y171581D01*
X9801Y171850D01*
D02*
G37*
G36*
X108226Y168701D02*
X107522D01*
X106870Y168431D01*
X106626Y168186D01*
X106299Y167979D01*
X105973Y168186D01*
X105728Y168431D01*
X105077Y168701D01*
X104372D01*
X103721Y168431D01*
X103223Y167933D01*
X102953Y167281D01*
Y166577D01*
X103070Y166293D01*
X102646Y166010D01*
X102588Y166068D01*
X101937Y166338D01*
X101232D01*
X100581Y166068D01*
X100083Y165570D01*
X99813Y164919D01*
Y164214D01*
X100083Y163563D01*
X100581Y163064D01*
X101232Y162795D01*
X101937D01*
X102588Y163064D01*
X103087Y163563D01*
X103356Y164214D01*
Y164919D01*
X103239Y165202D01*
X103663Y165485D01*
X103721Y165427D01*
X104372Y165157D01*
X105077D01*
X105728Y165427D01*
X105973Y165672D01*
X106299Y165879D01*
X106626Y165672D01*
X106870Y165427D01*
X107522Y165157D01*
X108226D01*
X108878Y165427D01*
X109376Y165926D01*
X109646Y166577D01*
Y167281D01*
X109376Y167933D01*
X108878Y168431D01*
X108226Y168701D01*
D02*
G37*
G36*
X83030Y171457D02*
X82325D01*
X81674Y171187D01*
X81175Y170689D01*
X80905Y170037D01*
Y169333D01*
X81175Y168682D01*
X81674Y168183D01*
X82325Y167913D01*
X83030D01*
X83681Y168183D01*
X84179Y168682D01*
X84449Y169333D01*
Y170037D01*
X84179Y170689D01*
X83681Y171187D01*
X83030Y171457D01*
D02*
G37*
G36*
X32636Y167520D02*
X31931D01*
X31280Y167250D01*
X31035Y167005D01*
X30709Y166798D01*
X30382Y167005D01*
X30137Y167250D01*
X29486Y167520D01*
X28782D01*
X28130Y167250D01*
X27632Y166752D01*
X27362Y166100D01*
Y165396D01*
X27632Y164744D01*
X28130Y164246D01*
X28782Y163976D01*
X29486D01*
X30137Y164246D01*
X30382Y164491D01*
X30709Y164698D01*
X31035Y164491D01*
X31280Y164246D01*
X31931Y163976D01*
X32636D01*
X33287Y164246D01*
X33785Y164744D01*
X34055Y165396D01*
Y166100D01*
X33785Y166752D01*
X33287Y167250D01*
X32636Y167520D01*
D02*
G37*
G36*
X88935Y169095D02*
X88230D01*
X87579Y168825D01*
X87081Y168326D01*
X86811Y167675D01*
Y166970D01*
X87081Y166319D01*
X87579Y165821D01*
X88230Y165551D01*
X88935D01*
X89586Y165821D01*
X90085Y166319D01*
X90354Y166970D01*
Y167675D01*
X90085Y168326D01*
X89586Y168825D01*
X88935Y169095D01*
D02*
G37*
G36*
X249171Y169488D02*
X248466D01*
X247815Y169219D01*
X247317Y168720D01*
X247047Y168069D01*
Y167364D01*
X247317Y166713D01*
X247691Y166339D01*
X247317Y165964D01*
X247047Y165313D01*
Y164608D01*
X247317Y163957D01*
X247815Y163459D01*
X248466Y163189D01*
X249171D01*
X249822Y163459D01*
X250321Y163957D01*
X250590Y164608D01*
Y165313D01*
X250321Y165964D01*
X249946Y166339D01*
X250321Y166713D01*
X250590Y167364D01*
Y168069D01*
X250321Y168720D01*
X249822Y169219D01*
X249171Y169488D01*
D02*
G37*
G36*
X95628Y166339D02*
X94923D01*
X94272Y166069D01*
X93774Y165570D01*
X93504Y164919D01*
Y164215D01*
X93774Y163563D01*
X94272Y163065D01*
X94923Y162795D01*
X95628D01*
X96279Y163065D01*
X96777Y163563D01*
X97047Y164215D01*
Y164919D01*
X96777Y165570D01*
X96279Y166069D01*
X95628Y166339D01*
D02*
G37*
G36*
X333066Y166263D02*
X332361D01*
X331710Y165993D01*
X331212Y165495D01*
X330942Y164843D01*
Y164138D01*
X331212Y163487D01*
X331710Y162989D01*
X332361Y162719D01*
X333066D01*
X333717Y162989D01*
X334215Y163487D01*
X334485Y164138D01*
Y164843D01*
X334215Y165495D01*
X333717Y165993D01*
X333066Y166263D01*
D02*
G37*
G36*
X153502Y163189D02*
X152797D01*
X152146Y162919D01*
X151901Y162675D01*
X151575Y162467D01*
X151248Y162675D01*
X151004Y162919D01*
X150352Y163189D01*
X149648D01*
X148996Y162919D01*
X148498Y162421D01*
X148228Y161770D01*
Y161065D01*
X148498Y160414D01*
X148996Y159915D01*
X149648Y159646D01*
X150352D01*
X151004Y159915D01*
X151248Y160160D01*
X151575Y160368D01*
X151901Y160160D01*
X152146Y159915D01*
X152797Y159646D01*
X153502D01*
X154153Y159915D01*
X154651Y160414D01*
X154921Y161065D01*
Y161770D01*
X154651Y162421D01*
X154153Y162919D01*
X153502Y163189D01*
D02*
G37*
G36*
X190821Y163234D02*
X190116D01*
X189465Y162964D01*
X188966Y162466D01*
X188697Y161815D01*
Y161110D01*
X188966Y160459D01*
X189465Y159960D01*
X190116Y159691D01*
X190821D01*
X191472Y159960D01*
X191736Y160224D01*
X192113Y160379D01*
X192389Y160224D01*
X192697Y159915D01*
X193348Y159646D01*
X194053D01*
X194704Y159915D01*
X195203Y160414D01*
X195472Y161065D01*
Y161770D01*
X195203Y162421D01*
X194704Y162919D01*
X194053Y163189D01*
X193348D01*
X192697Y162919D01*
X192433Y162655D01*
X192056Y162501D01*
X191780Y162656D01*
X191472Y162964D01*
X190821Y163234D01*
D02*
G37*
G36*
X177518Y163189D02*
X176813D01*
X176162Y162919D01*
X175663Y162421D01*
X175394Y161770D01*
Y161065D01*
X175663Y160414D01*
X176162Y159915D01*
X176813Y159646D01*
X177518D01*
X178169Y159915D01*
X178414Y160160D01*
X178741Y160367D01*
X179067Y160160D01*
X179312Y159915D01*
X179963Y159645D01*
X180668D01*
X181319Y159915D01*
X181817Y160413D01*
X182087Y161065D01*
Y161769D01*
X181817Y162421D01*
X181319Y162919D01*
X180668Y163189D01*
X179963D01*
X179312Y162919D01*
X179067Y162674D01*
X178740Y162467D01*
X178414Y162674D01*
X178169Y162919D01*
X177518Y163189D01*
D02*
G37*
G36*
X163738D02*
X163033D01*
X162382Y162919D01*
X161884Y162421D01*
X161614Y161770D01*
Y161065D01*
X161884Y160414D01*
X162382Y159915D01*
X163033Y159646D01*
X163738D01*
X164389Y159915D01*
X164654Y160180D01*
X165031Y160334D01*
X165306Y160179D01*
X165615Y159870D01*
X166266Y159600D01*
X166971D01*
X167622Y159870D01*
X168121Y160369D01*
X168390Y161020D01*
Y161724D01*
X168121Y162376D01*
X167622Y162874D01*
X166971Y163144D01*
X166266D01*
X165615Y162874D01*
X165351Y162610D01*
X164974Y162456D01*
X164698Y162610D01*
X164389Y162919D01*
X163738Y163189D01*
D02*
G37*
G36*
X20981Y163663D02*
X20074D01*
X19236Y163316D01*
X18595Y162675D01*
X18248Y161837D01*
Y160931D01*
X18595Y160093D01*
X19236Y159451D01*
X20074Y159104D01*
X20981D01*
X21819Y159451D01*
X22460Y160093D01*
X22807Y160931D01*
Y161837D01*
X22460Y162675D01*
X21819Y163316D01*
X20981Y163663D01*
D02*
G37*
G36*
X238148Y162008D02*
X237443D01*
X236792Y161738D01*
X236293Y161240D01*
X236024Y160589D01*
Y159884D01*
X236293Y159233D01*
X236792Y158734D01*
X237443Y158465D01*
X238148D01*
X238799Y158734D01*
X239297Y159233D01*
X239567Y159884D01*
Y160589D01*
X239297Y161240D01*
X238799Y161738D01*
X238148Y162008D01*
D02*
G37*
G36*
X233423D02*
X232718D01*
X232067Y161738D01*
X231569Y161240D01*
X231299Y160589D01*
Y159884D01*
X231569Y159233D01*
X232067Y158734D01*
X232718Y158465D01*
X233423D01*
X234074Y158734D01*
X234573Y159233D01*
X234842Y159884D01*
Y160589D01*
X234573Y161240D01*
X234074Y161738D01*
X233423Y162008D01*
D02*
G37*
G36*
X29486Y161614D02*
X28782D01*
X28130Y161345D01*
X27632Y160846D01*
X27362Y160195D01*
Y159490D01*
X27632Y158839D01*
X28006Y158465D01*
X27632Y158090D01*
X27401Y157532D01*
X27081Y157424D01*
X26862Y157413D01*
X26627Y157720D01*
X26051Y158161D01*
X25381Y158439D01*
X24661Y158534D01*
X20331D01*
X19611Y158439D01*
X18941Y158161D01*
X18365Y157720D01*
X17923Y157144D01*
X17646Y156473D01*
X17551Y155754D01*
X17646Y155035D01*
X17923Y154364D01*
X18365Y153788D01*
X18941Y153347D01*
X19611Y153069D01*
X20331Y152974D01*
X24661D01*
X25381Y153069D01*
X26051Y153347D01*
X26627Y153788D01*
X26862Y154095D01*
X27212Y154014D01*
X27376Y153944D01*
X27632Y153327D01*
X28130Y152829D01*
X28782Y152559D01*
X29486D01*
X30137Y152829D01*
X30636Y153327D01*
X30906Y153978D01*
Y154683D01*
X30636Y155334D01*
X30261Y155709D01*
X30636Y156083D01*
X30906Y156734D01*
Y157439D01*
X30636Y158090D01*
X30261Y158465D01*
X30636Y158839D01*
X30906Y159490D01*
Y160195D01*
X30636Y160846D01*
X30137Y161345D01*
X29486Y161614D01*
D02*
G37*
G36*
X333066Y160751D02*
X332361D01*
X331710Y160481D01*
X331212Y159983D01*
X330942Y159332D01*
Y158627D01*
X331212Y157975D01*
X331710Y157477D01*
X332361Y157207D01*
X333066D01*
X333717Y157477D01*
X334215Y157975D01*
X334485Y158627D01*
Y159332D01*
X334215Y159983D01*
X333717Y160481D01*
X333066Y160751D01*
D02*
G37*
G36*
X7614Y158534D02*
X4464D01*
X3745Y158439D01*
X3075Y158161D01*
X2499Y157720D01*
X2057Y157144D01*
X1780Y156473D01*
X1685Y155754D01*
X1780Y155035D01*
X2057Y154364D01*
X2499Y153788D01*
X3075Y153347D01*
X3745Y153069D01*
X4464Y152974D01*
X7614D01*
X8333Y153069D01*
X9004Y153347D01*
X9580Y153788D01*
X10021Y154364D01*
X10299Y155035D01*
X10394Y155754D01*
X10299Y156473D01*
X10021Y157144D01*
X9580Y157720D01*
X9004Y158161D01*
X8333Y158439D01*
X7614Y158534D01*
D02*
G37*
G36*
X260982Y157677D02*
X260278D01*
X259626Y157407D01*
X259128Y156909D01*
X258858Y156258D01*
Y155553D01*
X259128Y154902D01*
X259626Y154404D01*
X260113Y154202D01*
Y153672D01*
X259626Y153470D01*
X259128Y152972D01*
X258858Y152321D01*
Y151616D01*
X259128Y150965D01*
X259626Y150467D01*
X260278Y150197D01*
X260982D01*
X261633Y150467D01*
X262132Y150965D01*
X262402Y151616D01*
Y152321D01*
X262132Y152972D01*
X261633Y153470D01*
X261147Y153672D01*
Y154202D01*
X261633Y154404D01*
X262132Y154902D01*
X262402Y155553D01*
Y156258D01*
X262132Y156909D01*
X261633Y157407D01*
X260982Y157677D01*
D02*
G37*
G36*
X238148Y152559D02*
X237443D01*
X236792Y152289D01*
X236293Y151791D01*
X236024Y151140D01*
Y150435D01*
X236293Y149784D01*
X236792Y149285D01*
X237443Y149016D01*
X238148D01*
X238799Y149285D01*
X239297Y149784D01*
X239567Y150435D01*
Y151140D01*
X239297Y151791D01*
X238799Y152289D01*
X238148Y152559D01*
D02*
G37*
G36*
X233423D02*
X232718D01*
X232067Y152289D01*
X231569Y151791D01*
X231299Y151140D01*
Y150435D01*
X231569Y149784D01*
X232067Y149285D01*
X232718Y149016D01*
X233423D01*
X234074Y149285D01*
X234573Y149784D01*
X234842Y150435D01*
Y151140D01*
X234573Y151791D01*
X234074Y152289D01*
X233423Y152559D01*
D02*
G37*
G36*
X122400Y147835D02*
X121695D01*
X121044Y147565D01*
X120545Y147067D01*
X120479Y146907D01*
X119901Y146777D01*
X119250Y147047D01*
X118545D01*
X117894Y146777D01*
X117396Y146279D01*
X117126Y145628D01*
Y144923D01*
X117396Y144272D01*
X117894Y143774D01*
X118545Y143504D01*
X119250D01*
X119901Y143774D01*
X120400Y144272D01*
X120466Y144432D01*
X121044Y144561D01*
X121695Y144291D01*
X122400D01*
X122629Y144386D01*
X123075Y144030D01*
X123301Y143485D01*
X123800Y142986D01*
X124451Y142717D01*
X125155D01*
X125807Y142986D01*
X126305Y143485D01*
X126575Y144136D01*
Y144841D01*
X126305Y145492D01*
X125807Y145990D01*
X125155Y146260D01*
X124451D01*
X124222Y146165D01*
X123775Y146521D01*
X123549Y147067D01*
X123051Y147565D01*
X122400Y147835D01*
D02*
G37*
G36*
X137875Y148309D02*
X137170D01*
X136519Y148039D01*
X136021Y147541D01*
X135751Y146890D01*
X135395Y146652D01*
X135392Y146653D01*
X134687D01*
X134036Y146384D01*
X133537Y145885D01*
X133268Y145234D01*
Y144529D01*
X133537Y143878D01*
X134036Y143380D01*
X134687Y143110D01*
X135392D01*
X136043Y143380D01*
X136541Y143878D01*
X136811Y144529D01*
X137167Y144767D01*
X137170Y144766D01*
X137875D01*
X138526Y145035D01*
X139024Y145534D01*
X139294Y146185D01*
Y146890D01*
X139024Y147541D01*
X138526Y148039D01*
X137875Y148309D01*
D02*
G37*
G36*
X249171Y156102D02*
X248466D01*
X247815Y155833D01*
X247317Y155334D01*
X247047Y154683D01*
Y153978D01*
X247317Y153327D01*
X247562Y153083D01*
X247769Y152756D01*
X247562Y152429D01*
X247317Y152185D01*
X247047Y151533D01*
Y150829D01*
X247317Y150178D01*
X247815Y149679D01*
X247863Y149659D01*
Y149159D01*
X247815Y149140D01*
X247317Y148641D01*
X247047Y147990D01*
Y147285D01*
X247317Y146634D01*
X247815Y146136D01*
X248466Y145866D01*
X249171D01*
X249822Y146136D01*
X250321Y146634D01*
X250590Y147285D01*
Y147990D01*
X250321Y148641D01*
X249822Y149140D01*
X249775Y149159D01*
Y149659D01*
X249822Y149679D01*
X250321Y150178D01*
X250590Y150829D01*
Y151533D01*
X250321Y152185D01*
X250076Y152429D01*
X249869Y152756D01*
X250076Y153083D01*
X250321Y153327D01*
X250590Y153978D01*
Y154683D01*
X250321Y155334D01*
X249822Y155833D01*
X249171Y156102D01*
D02*
G37*
G36*
X58620Y148228D02*
X57915D01*
X57264Y147959D01*
X56766Y147460D01*
X56496Y146809D01*
Y146104D01*
X56766Y145453D01*
X57264Y144955D01*
X57915Y144685D01*
X58620D01*
X59271Y144955D01*
X59770Y145453D01*
X60039Y146104D01*
Y146809D01*
X59770Y147460D01*
X59271Y147959D01*
X58620Y148228D01*
D02*
G37*
G36*
X206652Y146260D02*
X205947D01*
X205296Y145990D01*
X204797Y145492D01*
X204528Y144841D01*
Y144136D01*
X204797Y143485D01*
X205296Y142986D01*
X205947Y142717D01*
X206652D01*
X207303Y142986D01*
X207801Y143485D01*
X208071Y144136D01*
Y144841D01*
X207801Y145492D01*
X207303Y145990D01*
X206652Y146260D01*
D02*
G37*
G36*
X201927D02*
X201222D01*
X200571Y145990D01*
X200073Y145492D01*
X199803Y144841D01*
Y144136D01*
X200073Y143485D01*
X200571Y142986D01*
X201222Y142717D01*
X201927D01*
X202578Y142986D01*
X203077Y143485D01*
X203346Y144136D01*
Y144841D01*
X203077Y145492D01*
X202578Y145990D01*
X201927Y146260D01*
D02*
G37*
G36*
X197203D02*
X196498D01*
X195847Y145990D01*
X195349Y145492D01*
X195079Y144841D01*
Y144136D01*
X195349Y143485D01*
X195847Y142986D01*
X196498Y142717D01*
X197203D01*
X197854Y142986D01*
X198352Y143485D01*
X198622Y144136D01*
Y144841D01*
X198352Y145492D01*
X197854Y145990D01*
X197203Y146260D01*
D02*
G37*
G36*
X333030Y145472D02*
X332325D01*
X331674Y145203D01*
X331175Y144704D01*
X330906Y144053D01*
Y143348D01*
X331175Y142697D01*
X331674Y142199D01*
X332325Y141929D01*
X333030D01*
X333681Y142199D01*
X334179Y142697D01*
X334449Y143348D01*
Y144053D01*
X334179Y144704D01*
X333681Y145203D01*
X333030Y145472D01*
D02*
G37*
G36*
X44241Y151388D02*
X42767D01*
X41342Y151006D01*
X40065Y150269D01*
X39022Y149226D01*
X38285Y147949D01*
X37903Y146525D01*
Y145050D01*
X38285Y143626D01*
X39022Y142349D01*
X40065Y141306D01*
X41342Y140569D01*
X42767Y140187D01*
X44241D01*
X45666Y140569D01*
X46943Y141306D01*
X47985Y142349D01*
X48723Y143626D01*
X49104Y145050D01*
Y146525D01*
X48723Y147949D01*
X47985Y149226D01*
X46943Y150269D01*
X45666Y151006D01*
X44241Y151388D01*
D02*
G37*
G36*
X12705Y145177D02*
X11705D01*
X10738Y144918D01*
X9872Y144418D01*
X9165Y143711D01*
X8664Y142844D01*
X8405Y141878D01*
Y140878D01*
X8664Y139911D01*
X9165Y139045D01*
X9872Y138338D01*
X10738Y137838D01*
X11705Y137579D01*
X12705D01*
X13671Y137838D01*
X14537Y138338D01*
X15245Y139045D01*
X15745Y139911D01*
X16004Y140878D01*
Y141878D01*
X15745Y142844D01*
X15245Y143711D01*
X14537Y144418D01*
X13671Y144918D01*
X12705Y145177D01*
D02*
G37*
G36*
X99073Y140942D02*
X98368D01*
X97717Y140672D01*
X97219Y140174D01*
X96949Y139523D01*
Y138818D01*
X97219Y138166D01*
X97717Y137668D01*
X98368Y137398D01*
X99073D01*
X99724Y137668D01*
X100222Y138166D01*
X100492Y138818D01*
Y139523D01*
X100222Y140174D01*
X99724Y140672D01*
X99073Y140942D01*
D02*
G37*
G36*
X139509Y136866D02*
X138804D01*
X138153Y136596D01*
X137654Y136098D01*
X137385Y135447D01*
Y134742D01*
X137654Y134091D01*
X138153Y133592D01*
X138804Y133323D01*
X139509D01*
X140160Y133592D01*
X140658Y134091D01*
X140928Y134742D01*
Y135447D01*
X140658Y136098D01*
X140160Y136596D01*
X139509Y136866D01*
D02*
G37*
G36*
X135178D02*
X134473D01*
X133822Y136596D01*
X133324Y136098D01*
X133054Y135447D01*
Y134742D01*
X133324Y134091D01*
X133822Y133592D01*
X134473Y133323D01*
X135178D01*
X135829Y133592D01*
X136327Y134091D01*
X136597Y134742D01*
Y135447D01*
X136327Y136098D01*
X135829Y136596D01*
X135178Y136866D01*
D02*
G37*
G36*
X130847D02*
X130142D01*
X129491Y136596D01*
X128993Y136098D01*
X128723Y135447D01*
Y134742D01*
X128993Y134091D01*
X129491Y133592D01*
X130142Y133323D01*
X130847D01*
X131498Y133592D01*
X131997Y134091D01*
X132266Y134742D01*
Y135447D01*
X131997Y136098D01*
X131498Y136596D01*
X130847Y136866D01*
D02*
G37*
G36*
X120037Y132480D02*
X119333D01*
X118682Y132211D01*
X118183Y131712D01*
X118117Y131552D01*
X117539Y131423D01*
X116888Y131693D01*
X116183D01*
X115532Y131423D01*
X115033Y130925D01*
X114764Y130274D01*
Y129569D01*
X115033Y128918D01*
X115532Y128419D01*
X116183Y128150D01*
X116888D01*
X117539Y128419D01*
X118037Y128918D01*
X118104Y129077D01*
X118682Y129207D01*
X119168Y129005D01*
Y128475D01*
X118682Y128274D01*
X118183Y127775D01*
X117913Y127124D01*
Y126419D01*
X118183Y125768D01*
X118682Y125270D01*
X119333Y125000D01*
X120037D01*
X120689Y125270D01*
X121187Y125768D01*
X121457Y126419D01*
Y127124D01*
X121187Y127775D01*
X120689Y128274D01*
X120202Y128475D01*
Y129005D01*
X120689Y129207D01*
X121187Y129705D01*
X121457Y130356D01*
Y131061D01*
X121187Y131712D01*
X120689Y132211D01*
X120037Y132480D01*
D02*
G37*
G36*
X92478Y134606D02*
X91774D01*
X91122Y134337D01*
X90624Y133838D01*
X90354Y133187D01*
Y132482D01*
X90624Y131831D01*
X91122Y131333D01*
X91774Y131063D01*
X92478D01*
X93129Y131333D01*
X93628Y131831D01*
X93898Y132482D01*
Y133187D01*
X93628Y133838D01*
X93129Y134337D01*
X92478Y134606D01*
D02*
G37*
G36*
X32225Y145193D02*
X30768D01*
X29338Y144909D01*
X27992Y144351D01*
X26780Y143541D01*
X25750Y142511D01*
X24940Y141299D01*
X24383Y139953D01*
X24098Y138524D01*
Y137067D01*
X24383Y135637D01*
X24940Y134291D01*
X25750Y133080D01*
X26780Y132049D01*
X27992Y131240D01*
X29338Y130682D01*
X30768Y130398D01*
X32225D01*
X33654Y130682D01*
X35000Y131240D01*
X36212Y132049D01*
X37242Y133080D01*
X38052Y134291D01*
X38609Y135637D01*
X38894Y137067D01*
Y138524D01*
X38609Y139953D01*
X38052Y141299D01*
X37242Y142511D01*
X36212Y143541D01*
X35000Y144351D01*
X33654Y144909D01*
X32225Y145193D01*
D02*
G37*
G36*
X60035Y136354D02*
X52957D01*
Y129276D01*
X60035D01*
Y136354D01*
D02*
G37*
G36*
X139509Y132535D02*
X138804D01*
X138153Y132266D01*
X137654Y131767D01*
X137385Y131116D01*
Y130411D01*
X137654Y129760D01*
X138153Y129262D01*
X138804Y128992D01*
X139509D01*
X140160Y129262D01*
X140658Y129760D01*
X140928Y130411D01*
Y131116D01*
X140658Y131767D01*
X140160Y132266D01*
X139509Y132535D01*
D02*
G37*
G36*
X135178D02*
X134473D01*
X133822Y132266D01*
X133324Y131767D01*
X133054Y131116D01*
Y130411D01*
X133324Y129760D01*
X133822Y129262D01*
X134473Y128992D01*
X135178D01*
X135829Y129262D01*
X136327Y129760D01*
X136597Y130411D01*
Y131116D01*
X136327Y131767D01*
X135829Y132266D01*
X135178Y132535D01*
D02*
G37*
G36*
X130847D02*
X130142D01*
X129491Y132266D01*
X128993Y131767D01*
X128723Y131116D01*
Y130411D01*
X128993Y129760D01*
X129491Y129262D01*
X130142Y128992D01*
X130847D01*
X131498Y129262D01*
X131997Y129760D01*
X132266Y130411D01*
Y131116D01*
X131997Y131767D01*
X131498Y132266D01*
X130847Y132535D01*
D02*
G37*
G36*
X152743Y134145D02*
X152038D01*
X151387Y133875D01*
X150888Y133377D01*
X150619Y132726D01*
Y132021D01*
X150888Y131370D01*
X151212Y131046D01*
X150845Y130679D01*
X150575Y130028D01*
Y129323D01*
X150845Y128672D01*
X151344Y128174D01*
X151995Y127904D01*
X152700D01*
X153351Y128174D01*
X153849Y128672D01*
X154119Y129323D01*
Y130028D01*
X153849Y130679D01*
X153525Y131003D01*
X153892Y131370D01*
X154162Y132021D01*
Y132726D01*
X153892Y133377D01*
X153394Y133875D01*
X152743Y134145D01*
D02*
G37*
G36*
X252321Y131299D02*
X251616D01*
X250965Y131029D01*
X250467Y130531D01*
X250197Y129880D01*
Y129175D01*
X250467Y128524D01*
X250965Y128026D01*
X251616Y127756D01*
X252321D01*
X252972Y128026D01*
X253470Y128524D01*
X253740Y129175D01*
Y129880D01*
X253470Y130531D01*
X252972Y131029D01*
X252321Y131299D01*
D02*
G37*
G36*
X12705Y135177D02*
X11705D01*
X10738Y134918D01*
X9872Y134418D01*
X9165Y133711D01*
X8664Y132844D01*
X8405Y131878D01*
Y130878D01*
X8664Y129911D01*
X9165Y129045D01*
X9872Y128338D01*
X10738Y127838D01*
X11705Y127579D01*
X12705D01*
X13671Y127838D01*
X14537Y128338D01*
X15245Y129045D01*
X15745Y129911D01*
X16004Y130878D01*
Y131878D01*
X15745Y132844D01*
X15245Y133711D01*
X14537Y134418D01*
X13671Y134918D01*
X12705Y135177D01*
D02*
G37*
G36*
X139509Y128205D02*
X138804D01*
X138153Y127935D01*
X137654Y127437D01*
X137385Y126785D01*
Y126081D01*
X137654Y125429D01*
X138153Y124931D01*
X138804Y124661D01*
X139509D01*
X140160Y124931D01*
X140658Y125429D01*
X140928Y126081D01*
Y126785D01*
X140658Y127437D01*
X140160Y127935D01*
X139509Y128205D01*
D02*
G37*
G36*
X135178D02*
X134473D01*
X133822Y127935D01*
X133324Y127437D01*
X133054Y126785D01*
Y126081D01*
X133324Y125429D01*
X133822Y124931D01*
X134473Y124661D01*
X135178D01*
X135829Y124931D01*
X136327Y125429D01*
X136597Y126081D01*
Y126785D01*
X136327Y127437D01*
X135829Y127935D01*
X135178Y128205D01*
D02*
G37*
G36*
X130847D02*
X130142D01*
X129491Y127935D01*
X128993Y127437D01*
X128723Y126785D01*
Y126081D01*
X128993Y125429D01*
X129491Y124931D01*
X130142Y124661D01*
X130847D01*
X131498Y124931D01*
X131997Y125429D01*
X132266Y126081D01*
Y126785D01*
X131997Y127437D01*
X131498Y127935D01*
X130847Y128205D01*
D02*
G37*
G36*
X116888Y125394D02*
X116183D01*
X115532Y125124D01*
X115033Y124626D01*
X114764Y123975D01*
Y123270D01*
X115033Y122618D01*
X115532Y122120D01*
X116183Y121850D01*
X116888D01*
X117539Y122120D01*
X118037Y122618D01*
X118307Y123270D01*
Y123975D01*
X118037Y124626D01*
X117539Y125124D01*
X116888Y125394D01*
D02*
G37*
G36*
X249171Y123031D02*
X248466D01*
X247815Y122762D01*
X247317Y122263D01*
X247047Y121612D01*
Y120907D01*
X247317Y120256D01*
X247815Y119758D01*
X248466Y119488D01*
X249171D01*
X249822Y119758D01*
X250321Y120256D01*
X250590Y120907D01*
Y121612D01*
X250321Y122263D01*
X249822Y122762D01*
X249171Y123031D01*
D02*
G37*
G36*
X14526D02*
X13821D01*
X13170Y122762D01*
X12671Y122263D01*
X12402Y121612D01*
Y120907D01*
X12671Y120256D01*
X13170Y119758D01*
X13821Y119488D01*
X14526D01*
X15177Y119758D01*
X15675Y120256D01*
X15945Y120907D01*
Y121612D01*
X15675Y122263D01*
X15177Y122762D01*
X14526Y123031D01*
D02*
G37*
G36*
X56962Y126354D02*
X56030D01*
X55130Y126113D01*
X54323Y125647D01*
X53664Y124988D01*
X53198Y124181D01*
X52957Y123281D01*
Y122349D01*
X53198Y121449D01*
X53664Y120642D01*
X54323Y119983D01*
X55130Y119517D01*
X56030Y119276D01*
X56962D01*
X57862Y119517D01*
X58669Y119983D01*
X59328Y120642D01*
X59794Y121449D01*
X60035Y122349D01*
Y123281D01*
X59794Y124181D01*
X59328Y124988D01*
X58669Y125647D01*
X57862Y126113D01*
X56962Y126354D01*
D02*
G37*
G36*
X101533Y122244D02*
X100829D01*
X100178Y121974D01*
X99679Y121476D01*
X99410Y120825D01*
Y120120D01*
X99679Y119469D01*
X100178Y118971D01*
X100829Y118701D01*
X101533D01*
X102185Y118971D01*
X102683Y119469D01*
X102953Y120120D01*
Y120825D01*
X102683Y121476D01*
X102185Y121974D01*
X101533Y122244D01*
D02*
G37*
G36*
X107101Y121983D02*
X106397D01*
X105745Y121713D01*
X105247Y121215D01*
X104977Y120563D01*
Y119859D01*
X105247Y119208D01*
X105745Y118709D01*
X106397Y118439D01*
X107101D01*
X107753Y118709D01*
X108251Y119208D01*
X108521Y119859D01*
Y120563D01*
X108251Y121215D01*
X107753Y121713D01*
X107101Y121983D01*
D02*
G37*
G36*
X112440Y121976D02*
X111735D01*
X111083Y121706D01*
X110585Y121208D01*
X110315Y120557D01*
Y119852D01*
X110585Y119201D01*
X111083Y118702D01*
X111735Y118433D01*
X112440D01*
X113091Y118702D01*
X113589Y119201D01*
X113859Y119852D01*
Y120557D01*
X113589Y121208D01*
X113091Y121706D01*
X112440Y121976D01*
D02*
G37*
G36*
X253896Y119095D02*
X253191D01*
X252540Y118825D01*
X252295Y118580D01*
X251969Y118373D01*
X251642Y118580D01*
X251397Y118825D01*
X250746Y119095D01*
X250041D01*
X249390Y118825D01*
X248892Y118326D01*
X248622Y117675D01*
Y116970D01*
X248892Y116319D01*
X249390Y115821D01*
X250041Y115551D01*
X250746D01*
X251397Y115821D01*
X251642Y116066D01*
X251969Y116273D01*
X252295Y116066D01*
X252540Y115821D01*
X253191Y115551D01*
X253896D01*
X254547Y115821D01*
X255045Y116319D01*
X255315Y116970D01*
Y117675D01*
X255045Y118326D01*
X254547Y118825D01*
X253896Y119095D01*
D02*
G37*
G36*
X130156Y118039D02*
X129451D01*
X128800Y117769D01*
X128302Y117271D01*
X128115Y116822D01*
X127911Y116606D01*
X127532Y116563D01*
X127124Y116732D01*
X126419D01*
X125768Y116463D01*
X125270Y115964D01*
X125000Y115313D01*
Y114608D01*
X125270Y113957D01*
X125768Y113459D01*
X126419Y113189D01*
X127124D01*
X127775Y113459D01*
X128274Y113957D01*
X128460Y114407D01*
X128664Y114622D01*
X129043Y114665D01*
X129451Y114496D01*
X130156D01*
X130807Y114766D01*
X131306Y115264D01*
X131575Y115915D01*
Y116620D01*
X131306Y117271D01*
X130807Y117769D01*
X130156Y118039D01*
D02*
G37*
G36*
X14526Y117913D02*
X13821D01*
X13170Y117644D01*
X12671Y117145D01*
X12402Y116494D01*
Y115789D01*
X12671Y115138D01*
X13170Y114640D01*
X13821Y114370D01*
X14526D01*
X15177Y114640D01*
X15675Y115138D01*
X15945Y115789D01*
Y116494D01*
X15675Y117145D01*
X15177Y117644D01*
X14526Y117913D01*
D02*
G37*
G36*
X66962Y131354D02*
X66030D01*
X65130Y131113D01*
X64323Y130647D01*
X63664Y129988D01*
X63198Y129181D01*
X62957Y128281D01*
Y127349D01*
X63198Y126449D01*
X63664Y125642D01*
X64323Y124983D01*
X65130Y124517D01*
X66030Y124276D01*
X66732D01*
X66879Y124037D01*
X66979Y123783D01*
X66732Y123187D01*
Y122482D01*
X67002Y121831D01*
X66772Y121354D01*
X66030D01*
X65130Y121113D01*
X64323Y120647D01*
X63664Y119988D01*
X63198Y119181D01*
X62957Y118281D01*
Y117349D01*
X63198Y116449D01*
X63664Y115642D01*
X64323Y114983D01*
X65130Y114517D01*
X66030Y114276D01*
X66962D01*
X67862Y114517D01*
X68669Y114983D01*
X69328Y115642D01*
X69794Y116449D01*
X70035Y117349D01*
Y118281D01*
X69794Y119181D01*
X69328Y119988D01*
X68753Y120563D01*
X68831Y120942D01*
X68910Y121085D01*
X69507Y121333D01*
X70006Y121831D01*
X70276Y122482D01*
Y123187D01*
X70006Y123838D01*
X69507Y124337D01*
X68937Y124573D01*
X68894Y124639D01*
X68825Y124850D01*
X68793Y125106D01*
X69328Y125642D01*
X69794Y126449D01*
X70035Y127349D01*
Y128281D01*
X69794Y129181D01*
X69328Y129988D01*
X68669Y130647D01*
X67862Y131113D01*
X66962Y131354D01*
D02*
G37*
G36*
X140116Y117913D02*
X139411D01*
X138760Y117644D01*
X138262Y117145D01*
X137992Y116494D01*
Y115789D01*
X138262Y115138D01*
X138760Y114640D01*
X139411Y114370D01*
X140116D01*
X140601Y114571D01*
X140872Y114569D01*
X141190Y114355D01*
X141371Y113917D01*
X141869Y113418D01*
X142521Y113149D01*
X143225D01*
X143877Y113418D01*
X144375Y113917D01*
X144645Y114568D01*
Y115273D01*
X144375Y115924D01*
X143877Y116422D01*
X143225Y116692D01*
X142521D01*
X142035Y116491D01*
X141765Y116493D01*
X141447Y116707D01*
X141266Y117145D01*
X140767Y117644D01*
X140116Y117913D01*
D02*
G37*
G36*
X43203Y113926D02*
X42498D01*
X41847Y113657D01*
X41348Y113158D01*
X41079Y112507D01*
Y111802D01*
X41348Y111151D01*
X41847Y110653D01*
X42498Y110383D01*
X43203D01*
X43854Y110653D01*
X44352Y111151D01*
X44622Y111802D01*
Y112507D01*
X44352Y113158D01*
X43854Y113657D01*
X43203Y113926D01*
D02*
G37*
G36*
X56962Y116354D02*
X56030D01*
X55130Y116113D01*
X54323Y115647D01*
X53664Y114988D01*
X53198Y114181D01*
X52957Y113281D01*
Y112349D01*
X53198Y111449D01*
X53664Y110642D01*
X54323Y109983D01*
X55130Y109517D01*
X56030Y109276D01*
X56962D01*
X57862Y109517D01*
X58669Y109983D01*
X59328Y110642D01*
X59794Y111449D01*
X60035Y112349D01*
Y113281D01*
X59794Y114181D01*
X59328Y114988D01*
X58669Y115647D01*
X57862Y116113D01*
X56962Y116354D01*
D02*
G37*
G36*
X66962Y111354D02*
X66030D01*
X65130Y111113D01*
X64323Y110647D01*
X63664Y109988D01*
X63198Y109181D01*
X62957Y108281D01*
Y107349D01*
X63198Y106449D01*
X63664Y105642D01*
X64323Y104983D01*
X65130Y104517D01*
X66030Y104276D01*
X66962D01*
X67862Y104517D01*
X68669Y104983D01*
X69328Y105642D01*
X69794Y106449D01*
X70035Y107349D01*
Y108281D01*
X69794Y109181D01*
X69328Y109988D01*
X68669Y110647D01*
X67862Y111113D01*
X66962Y111354D01*
D02*
G37*
G36*
X123581Y105413D02*
X122876D01*
X122225Y105144D01*
X121726Y104645D01*
X121457Y103994D01*
Y103289D01*
X121726Y102638D01*
X122225Y102140D01*
X122876Y101870D01*
X123581D01*
X124232Y102140D01*
X124730Y102638D01*
X125000Y103289D01*
Y103994D01*
X124730Y104645D01*
X124232Y105144D01*
X123581Y105413D01*
D02*
G37*
G36*
X97476Y105409D02*
X96771D01*
X96120Y105139D01*
X95621Y104641D01*
X95352Y103990D01*
Y103285D01*
X95621Y102634D01*
X96120Y102136D01*
X96771Y101866D01*
X97476D01*
X98127Y102136D01*
X98625Y102634D01*
X98895Y103285D01*
Y103990D01*
X98625Y104641D01*
X98127Y105139D01*
X97476Y105409D01*
D02*
G37*
G36*
X92358D02*
X91653D01*
X91002Y105139D01*
X90503Y104641D01*
X90234Y103990D01*
Y103285D01*
X90503Y102634D01*
X91002Y102136D01*
X91653Y101866D01*
X92358D01*
X93009Y102136D01*
X93507Y102634D01*
X93777Y103285D01*
Y103990D01*
X93507Y104641D01*
X93009Y105139D01*
X92358Y105409D01*
D02*
G37*
G36*
X56962Y106354D02*
X56030D01*
X55130Y106113D01*
X54323Y105647D01*
X53664Y104988D01*
X53198Y104181D01*
X52957Y103281D01*
Y102349D01*
X53198Y101449D01*
X53664Y100642D01*
X54323Y99983D01*
X55130Y99517D01*
X56030Y99276D01*
X56962D01*
X57862Y99517D01*
X58669Y99983D01*
X59328Y100642D01*
X59794Y101449D01*
X60035Y102349D01*
Y103281D01*
X59794Y104181D01*
X59328Y104988D01*
X58669Y105647D01*
X57862Y106113D01*
X56962Y106354D01*
D02*
G37*
G36*
X384323Y101041D02*
X383618D01*
X382967Y100771D01*
X382469Y100273D01*
X382199Y99622D01*
Y98917D01*
X382469Y98266D01*
X382967Y97768D01*
X383618Y97498D01*
X384323D01*
X384974Y97768D01*
X385472Y98266D01*
X385742Y98917D01*
Y99622D01*
X385472Y100273D01*
X384974Y100771D01*
X384323Y101041D01*
D02*
G37*
G36*
X12705Y103012D02*
X11705D01*
X10738Y102753D01*
X9872Y102253D01*
X9165Y101545D01*
X8664Y100679D01*
X8405Y99713D01*
Y98712D01*
X8664Y97746D01*
X9165Y96880D01*
X9872Y96172D01*
X10738Y95672D01*
X11705Y95413D01*
X12705D01*
X13671Y95672D01*
X14537Y96172D01*
X15245Y96880D01*
X15745Y97746D01*
X16004Y98712D01*
Y99713D01*
X15745Y100679D01*
X15245Y101545D01*
X14537Y102253D01*
X13671Y102753D01*
X12705Y103012D01*
D02*
G37*
G36*
X66962Y101354D02*
X66030D01*
X65130Y101113D01*
X64323Y100647D01*
X63664Y99988D01*
X63198Y99181D01*
X62957Y98281D01*
Y97349D01*
X63198Y96449D01*
X63664Y95642D01*
X64323Y94983D01*
X65130Y94517D01*
X66030Y94276D01*
X66962D01*
X67862Y94517D01*
X68669Y94983D01*
X69328Y95642D01*
X69794Y96449D01*
X70035Y97349D01*
Y98281D01*
X69794Y99181D01*
X69328Y99988D01*
X68669Y100647D01*
X67862Y101113D01*
X66962Y101354D01*
D02*
G37*
G36*
X344447Y97441D02*
X343742D01*
X343091Y97171D01*
X342593Y96673D01*
X342323Y96022D01*
Y95317D01*
X342593Y94666D01*
X343091Y94167D01*
X343742Y93898D01*
X344447D01*
X345098Y94167D01*
X345596Y94666D01*
X345866Y95317D01*
Y96022D01*
X345596Y96673D01*
X345098Y97171D01*
X344447Y97441D01*
D02*
G37*
G36*
X12647Y92574D02*
X12380D01*
Y89388D01*
X15566D01*
Y89655D01*
X15337Y90510D01*
X14895Y91277D01*
X14269Y91903D01*
X13502Y92345D01*
X12647Y92574D01*
D02*
G37*
G36*
X12030D02*
X11762D01*
X10907Y92345D01*
X10141Y91903D01*
X9515Y91277D01*
X9072Y90510D01*
X8843Y89655D01*
Y89388D01*
X12030D01*
Y92574D01*
D02*
G37*
G36*
X141297Y92323D02*
X140593D01*
X139941Y92053D01*
X139443Y91555D01*
X139173Y90904D01*
Y90199D01*
X139443Y89548D01*
X139941Y89049D01*
X140593Y88779D01*
X141297D01*
X141948Y89049D01*
X142447Y89548D01*
X142717Y90199D01*
Y90904D01*
X142447Y91555D01*
X141948Y92053D01*
X141297Y92323D01*
D02*
G37*
G36*
X15566Y89038D02*
X12380D01*
Y85851D01*
X12647D01*
X13502Y86080D01*
X14269Y86523D01*
X14895Y87148D01*
X15337Y87915D01*
X15566Y88770D01*
Y89038D01*
D02*
G37*
G36*
X12030D02*
X8843D01*
Y88770D01*
X9072Y87915D01*
X9515Y87148D01*
X10141Y86523D01*
X10907Y86080D01*
X11762Y85851D01*
X12030D01*
Y89038D01*
D02*
G37*
G36*
X32225Y100193D02*
X30768D01*
X29338Y99909D01*
X27992Y99351D01*
X26780Y98541D01*
X25750Y97511D01*
X24940Y96299D01*
X24383Y94953D01*
X24098Y93524D01*
Y92067D01*
X24383Y90637D01*
X24940Y89291D01*
X25750Y88080D01*
X26780Y87049D01*
X27992Y86240D01*
X29338Y85682D01*
X30768Y85398D01*
X32225D01*
X33654Y85682D01*
X35000Y86240D01*
X36212Y87049D01*
X37242Y88080D01*
X38052Y89291D01*
X38609Y90637D01*
X38894Y92067D01*
Y93524D01*
X38609Y94953D01*
X38052Y96299D01*
X37242Y97511D01*
X36212Y98541D01*
X35000Y99351D01*
X33654Y99909D01*
X32225Y100193D01*
D02*
G37*
G36*
X196307Y92083D02*
X195602D01*
X194951Y91813D01*
X194452Y91315D01*
X194183Y90663D01*
Y89959D01*
X194452Y89307D01*
X194697Y89063D01*
X194904Y88736D01*
X194697Y88410D01*
X194452Y88165D01*
X194183Y87514D01*
Y86809D01*
X194452Y86158D01*
X194951Y85659D01*
X195602Y85390D01*
X196307D01*
X196958Y85659D01*
X197456Y86158D01*
X197726Y86809D01*
Y87514D01*
X197456Y88165D01*
X197212Y88410D01*
X197004Y88736D01*
X197212Y89063D01*
X197456Y89307D01*
X197726Y89959D01*
Y90663D01*
X197456Y91315D01*
X196958Y91813D01*
X196307Y92083D01*
D02*
G37*
G36*
X175943Y85236D02*
X175238D01*
X174587Y84966D01*
X174089Y84468D01*
X173819Y83817D01*
Y83112D01*
X174089Y82461D01*
X174587Y81963D01*
X175238Y81693D01*
X175943D01*
X176594Y81963D01*
X177093Y82461D01*
X177362Y83112D01*
Y83817D01*
X177093Y84468D01*
X176594Y84966D01*
X175943Y85236D01*
D02*
G37*
G36*
X168069D02*
X167364D01*
X166713Y84966D01*
X166215Y84468D01*
X165945Y83817D01*
Y83112D01*
X166215Y82461D01*
X166713Y81963D01*
X167364Y81693D01*
X168069D01*
X168720Y81963D01*
X169219Y82461D01*
X169488Y83112D01*
Y83817D01*
X169219Y84468D01*
X168720Y84966D01*
X168069Y85236D01*
D02*
G37*
G36*
X160195D02*
X159490D01*
X158839Y84966D01*
X158341Y84468D01*
X158071Y83817D01*
Y83112D01*
X158341Y82461D01*
X158839Y81963D01*
X159490Y81693D01*
X160195D01*
X160846Y81963D01*
X161345Y82461D01*
X161614Y83112D01*
Y83817D01*
X161345Y84468D01*
X160846Y84966D01*
X160195Y85236D01*
D02*
G37*
G36*
X44241Y90403D02*
X42767D01*
X41342Y90022D01*
X40065Y89285D01*
X39022Y88242D01*
X38285Y86965D01*
X37903Y85540D01*
Y84066D01*
X38285Y82642D01*
X39022Y81364D01*
X40065Y80322D01*
X41342Y79584D01*
X42767Y79203D01*
X44241D01*
X45666Y79584D01*
X46943Y80322D01*
X47985Y81364D01*
X48723Y82642D01*
X49104Y84066D01*
Y85540D01*
X48723Y86965D01*
X47985Y88242D01*
X46943Y89285D01*
X45666Y90022D01*
X44241Y90403D01*
D02*
G37*
G36*
X180667Y80512D02*
X179963D01*
X179311Y80242D01*
X178813Y79744D01*
X178543Y79093D01*
Y78388D01*
X178813Y77737D01*
X179311Y77238D01*
X179963Y76968D01*
X180667D01*
X181318Y77238D01*
X181817Y77737D01*
X182087Y78388D01*
Y79093D01*
X181817Y79744D01*
X181318Y80242D01*
X180667Y80512D01*
D02*
G37*
G36*
X155471D02*
X154766D01*
X154115Y80242D01*
X153616Y79744D01*
X153347Y79093D01*
Y78388D01*
X153616Y77737D01*
X154115Y77238D01*
X154766Y76968D01*
X155471D01*
X156122Y77238D01*
X156620Y77737D01*
X156890Y78388D01*
Y79093D01*
X156620Y79744D01*
X156122Y80242D01*
X155471Y80512D01*
D02*
G37*
G36*
X65419Y76308D02*
X64714D01*
X64063Y76038D01*
X63564Y75540D01*
X63295Y74888D01*
Y74184D01*
X63564Y73533D01*
X64063Y73034D01*
X64714Y72764D01*
X65419D01*
X66070Y73034D01*
X66568Y73533D01*
X66838Y74184D01*
Y74888D01*
X66568Y75540D01*
X66070Y76038D01*
X65419Y76308D01*
D02*
G37*
G36*
X42584D02*
X41879D01*
X41228Y76038D01*
X40730Y75540D01*
X40460Y74888D01*
Y74184D01*
X40730Y73533D01*
X41228Y73034D01*
X41879Y72764D01*
X42584D01*
X43235Y73034D01*
X43734Y73533D01*
X44003Y74184D01*
Y74888D01*
X43734Y75540D01*
X43235Y76038D01*
X42584Y76308D01*
D02*
G37*
G36*
X88541Y76181D02*
X87837D01*
X87185Y75911D01*
X86687Y75413D01*
X86417Y74762D01*
Y74057D01*
X86687Y73406D01*
X87185Y72908D01*
X87837Y72638D01*
X88541D01*
X89192Y72908D01*
X89691Y73406D01*
X89961Y74057D01*
Y74762D01*
X89691Y75413D01*
X89192Y75911D01*
X88541Y76181D01*
D02*
G37*
G36*
X180667Y72638D02*
X179963D01*
X179311Y72368D01*
X178813Y71870D01*
X178543Y71219D01*
Y70514D01*
X178813Y69863D01*
X179311Y69364D01*
X179963Y69095D01*
X180667D01*
X181318Y69364D01*
X181817Y69863D01*
X182087Y70514D01*
Y71219D01*
X181817Y71870D01*
X181318Y72368D01*
X180667Y72638D01*
D02*
G37*
G36*
X155471D02*
X154766D01*
X154115Y72368D01*
X153616Y71870D01*
X153347Y71219D01*
Y70514D01*
X153616Y69863D01*
X154115Y69364D01*
X154766Y69095D01*
X155471D01*
X156122Y69364D01*
X156620Y69863D01*
X156890Y70514D01*
Y71219D01*
X156620Y71870D01*
X156122Y72368D01*
X155471Y72638D01*
D02*
G37*
G36*
X127934Y72043D02*
X127229D01*
X126578Y71773D01*
X126080Y71274D01*
X125810Y70623D01*
Y69918D01*
X126080Y69267D01*
X126578Y68769D01*
X127229Y68499D01*
X127934D01*
X128585Y68769D01*
X129084Y69267D01*
X129353Y69918D01*
Y70623D01*
X129084Y71274D01*
X128585Y71773D01*
X127934Y72043D01*
D02*
G37*
G36*
X102051Y71750D02*
X101346D01*
X100695Y71480D01*
X100196Y70982D01*
X99927Y70330D01*
Y69626D01*
X100196Y68974D01*
X100695Y68476D01*
X101346Y68206D01*
X102051D01*
X102702Y68476D01*
X103200Y68974D01*
X103470Y69626D01*
Y70330D01*
X103200Y70982D01*
X102702Y71480D01*
X102051Y71750D01*
D02*
G37*
G36*
X180667Y65158D02*
X179963D01*
X179311Y64888D01*
X178813Y64389D01*
X178543Y63738D01*
Y63033D01*
X178813Y62382D01*
X179311Y61884D01*
X179963Y61614D01*
X180667D01*
X181318Y61884D01*
X181817Y62382D01*
X182087Y63033D01*
Y63738D01*
X181817Y64389D01*
X181318Y64888D01*
X180667Y65158D01*
D02*
G37*
G36*
X155471D02*
X154766D01*
X154115Y64888D01*
X153616Y64389D01*
X153347Y63738D01*
Y63033D01*
X153616Y62382D01*
X154115Y61884D01*
X154766Y61614D01*
X155471D01*
X156122Y61884D01*
X156620Y62382D01*
X156890Y63033D01*
Y63738D01*
X156620Y64389D01*
X156122Y64888D01*
X155471Y65158D01*
D02*
G37*
G36*
X126355Y64915D02*
X124781D01*
X123820Y64724D01*
X123006Y64180D01*
X122463Y63366D01*
X122272Y62406D01*
X122463Y61446D01*
X123006Y60632D01*
X123820Y60088D01*
X124781Y59898D01*
X126355D01*
X127315Y60088D01*
X128129Y60632D01*
X128673Y61446D01*
X128864Y62406D01*
X128673Y63366D01*
X128129Y64180D01*
X127315Y64724D01*
X126355Y64915D01*
D02*
G37*
G36*
X106670D02*
X105096D01*
X104135Y64724D01*
X103322Y64180D01*
X102778Y63366D01*
X102587Y62406D01*
X102778Y61446D01*
X103322Y60632D01*
X104135Y60088D01*
X105096Y59898D01*
X106670D01*
X107630Y60088D01*
X108444Y60632D01*
X108988Y61446D01*
X109179Y62406D01*
X108988Y63366D01*
X108444Y64180D01*
X107630Y64724D01*
X106670Y64915D01*
D02*
G37*
G36*
X188148Y57677D02*
X187443D01*
X186792Y57407D01*
X186293Y56909D01*
X186024Y56258D01*
Y55553D01*
X186293Y54902D01*
X186792Y54404D01*
X187443Y54134D01*
X188148D01*
X188799Y54404D01*
X189297Y54902D01*
X189567Y55553D01*
Y56258D01*
X189297Y56909D01*
X188799Y57407D01*
X188148Y57677D01*
D02*
G37*
G36*
X179978D02*
X179274D01*
X178622Y57407D01*
X178124Y56909D01*
X177854Y56258D01*
Y55553D01*
X178124Y54902D01*
X178622Y54404D01*
X179274Y54134D01*
X179978D01*
X180630Y54404D01*
X181128Y54902D01*
X181398Y55553D01*
Y56258D01*
X181128Y56909D01*
X180630Y57407D01*
X179978Y57677D01*
D02*
G37*
G36*
X171809D02*
X171104D01*
X170453Y57407D01*
X169955Y56909D01*
X169685Y56258D01*
Y55553D01*
X169955Y54902D01*
X170453Y54404D01*
X171104Y54134D01*
X171809D01*
X172460Y54404D01*
X172959Y54902D01*
X173228Y55553D01*
Y56258D01*
X172959Y56909D01*
X172460Y57407D01*
X171809Y57677D01*
D02*
G37*
G36*
X163640D02*
X162935D01*
X162284Y57407D01*
X161785Y56909D01*
X161516Y56258D01*
Y55553D01*
X161785Y54902D01*
X162284Y54404D01*
X162935Y54134D01*
X163640D01*
X164291Y54404D01*
X164789Y54902D01*
X165059Y55553D01*
Y56258D01*
X164789Y56909D01*
X164291Y57407D01*
X163640Y57677D01*
D02*
G37*
G36*
X155471D02*
X154766D01*
X154115Y57407D01*
X153616Y56909D01*
X153347Y56258D01*
Y55553D01*
X153616Y54902D01*
X154115Y54404D01*
X154766Y54134D01*
X155471D01*
X156122Y54404D01*
X156620Y54902D01*
X156890Y55553D01*
Y56258D01*
X156620Y56909D01*
X156122Y57407D01*
X155471Y57677D01*
D02*
G37*
G36*
X207724Y54681D02*
X207019D01*
X206368Y54411D01*
X205870Y53913D01*
X205600Y53262D01*
Y52557D01*
X205870Y51906D01*
X206368Y51407D01*
X207019Y51138D01*
X207724D01*
X208375Y51407D01*
X208873Y51906D01*
X209143Y52557D01*
Y53262D01*
X208873Y53913D01*
X208375Y54411D01*
X207724Y54681D01*
D02*
G37*
G36*
X199850D02*
X199145D01*
X198494Y54411D01*
X197996Y53913D01*
X197726Y53262D01*
Y52557D01*
X197996Y51906D01*
X198494Y51407D01*
X199145Y51138D01*
X199850D01*
X200501Y51407D01*
X200999Y51906D01*
X201269Y52557D01*
Y53262D01*
X200999Y53913D01*
X200501Y54411D01*
X199850Y54681D01*
D02*
G37*
G36*
X42478Y52638D02*
X41774D01*
X41122Y52368D01*
X40624Y51870D01*
X40354Y51218D01*
Y50514D01*
X40624Y49863D01*
X41122Y49364D01*
X41774Y49095D01*
X42478D01*
X43130Y49364D01*
X43628Y49863D01*
X43898Y50514D01*
Y51218D01*
X43628Y51870D01*
X43130Y52368D01*
X42478Y52638D01*
D02*
G37*
G36*
X65456Y52244D02*
X64751D01*
X64100Y51974D01*
X63602Y51476D01*
X63332Y50825D01*
Y50120D01*
X63602Y49469D01*
X64100Y48970D01*
X64751Y48701D01*
X65456D01*
X66107Y48970D01*
X66606Y49469D01*
X66875Y50120D01*
Y50825D01*
X66606Y51476D01*
X66107Y51974D01*
X65456Y52244D01*
D02*
G37*
G36*
X88148Y52165D02*
X87443D01*
X86792Y51896D01*
X86293Y51397D01*
X86024Y50746D01*
Y50041D01*
X86293Y49390D01*
X86792Y48892D01*
X87443Y48622D01*
X88148D01*
X88799Y48892D01*
X89297Y49390D01*
X89567Y50041D01*
Y50746D01*
X89297Y51397D01*
X88799Y51896D01*
X88148Y52165D01*
D02*
G37*
%LPD*%
D149*
X217244Y259606D02*
D03*
X207244D02*
D03*
D154*
X12205Y89213D02*
D03*
D156*
X198786Y247723D02*
D03*
X271654Y209842D02*
D03*
Y205118D02*
D03*
X260236Y164173D02*
D03*
X248819Y161811D02*
D03*
X238189Y121653D02*
D03*
X332677Y146850D02*
D03*
X332714Y149530D02*
D03*
X346850Y163386D02*
D03*
X343307Y169291D02*
D03*
X196732Y156327D02*
D03*
X290945Y201181D02*
D03*
X285039D02*
D03*
X380315Y64961D02*
D03*
X387402D02*
D03*
X373622D02*
D03*
X366929D02*
D03*
X137795Y225984D02*
D03*
X361142Y194854D02*
D03*
X137795Y240158D02*
D03*
X105905Y239764D02*
D03*
X100394D02*
D03*
X94260Y176980D02*
D03*
X57087Y210630D02*
D03*
Y202756D02*
D03*
Y206693D02*
D03*
X124405Y196985D02*
D03*
X124406Y187303D02*
D03*
X106771Y225197D02*
D03*
X117713Y216142D02*
D03*
X114564D02*
D03*
X103999Y215821D02*
D03*
X81890Y219291D02*
D03*
X69291Y224803D02*
D03*
X86216Y207253D02*
D03*
X66394Y178969D02*
D03*
Y182513D02*
D03*
Y186056D02*
D03*
X375287Y99247D02*
D03*
X207371Y65902D02*
D03*
X199462Y65806D02*
D03*
X203434Y65902D02*
D03*
X146850Y103543D02*
D03*
X100394Y133465D02*
D03*
X188583Y230709D02*
D03*
X41339Y220079D02*
D03*
X47942Y240140D02*
D03*
X50981Y260630D02*
D03*
Y253543D02*
D03*
X61417Y146457D02*
D03*
X64961Y71260D02*
D03*
X42126D02*
D03*
X88189Y71260D02*
D03*
X120177Y149606D02*
D03*
X204642Y213700D02*
D03*
X11024Y218110D02*
D03*
Y221811D02*
D03*
X11417Y211811D02*
D03*
X11024Y227874D02*
D03*
Y233937D02*
D03*
X92126Y122835D02*
D03*
X57087Y245276D02*
D03*
X57083Y240158D02*
D03*
X51968Y245276D02*
D03*
X48028Y245276D02*
D03*
X44682Y253543D02*
D03*
Y260630D02*
D03*
X37497D02*
D03*
Y253543D02*
D03*
X30312D02*
D03*
Y260630D02*
D03*
X24409Y260630D02*
D03*
Y253543D02*
D03*
X22835Y246063D02*
D03*
X61020Y240158D02*
D03*
X51879Y240140D02*
D03*
X22831Y239764D02*
D03*
X19288D02*
D03*
X11024Y240000D02*
D03*
X5906Y227949D02*
D03*
Y215748D02*
D03*
Y240150D02*
D03*
Y234050D02*
D03*
X61024Y245276D02*
D03*
X5906Y221849D02*
D03*
X149293Y130071D02*
D03*
Y132702D02*
D03*
X150000Y181890D02*
D03*
M02*
