G04*
G04 #@! TF.GenerationSoftware,Altium Limited,Altium Designer,22.9.1 (49)*
G04*
G04 Layer_Physical_Order=1*
G04 Layer_Color=255*
%FSLAX25Y25*%
%MOIN*%
G70*
G04*
G04 #@! TF.SameCoordinates,09DA8A7C-0E06-47C8-8122-5E973528E8BD*
G04*
G04*
G04 #@! TF.FilePolarity,Positive*
G04*
G01*
G75*
%ADD15C,0.00500*%
%ADD17C,0.01000*%
%ADD20R,0.02362X0.02520*%
%ADD21R,0.02520X0.02362*%
%ADD22R,0.02953X0.02362*%
%ADD23R,0.04331X0.05118*%
%ADD24O,0.05512X0.01181*%
%ADD25O,0.01181X0.05512*%
%ADD26R,0.03150X0.03150*%
%ADD27R,0.02362X0.02953*%
%ADD28R,0.04724X0.03937*%
%ADD29R,0.02423X0.02254*%
%ADD30R,0.05512X0.05118*%
%ADD31R,0.04528X0.02362*%
%ADD32R,0.06496X0.02559*%
%ADD33R,0.02362X0.07874*%
%ADD34R,0.04134X0.01772*%
%ADD35R,0.04331X0.02559*%
%ADD36R,0.01772X0.01968*%
%ADD37O,0.01181X0.03347*%
%ADD38O,0.03347X0.01181*%
%ADD39R,0.24410X0.24410*%
%ADD40R,0.04724X0.05512*%
%ADD41R,0.04134X0.01575*%
%ADD42R,0.03150X0.01575*%
%ADD43R,0.01575X0.03150*%
%ADD44R,0.05709X0.05709*%
%ADD45R,0.02756X0.02756*%
%ADD46R,0.03937X0.03543*%
%ADD47R,0.13189X0.13189*%
%ADD48O,0.00984X0.03543*%
%ADD49O,0.03543X0.00984*%
%ADD50R,0.01575X0.04331*%
G04:AMPARAMS|DCode=51|XSize=9.42mil|YSize=35.67mil|CornerRadius=4.71mil|HoleSize=0mil|Usage=FLASHONLY|Rotation=90.000|XOffset=0mil|YOffset=0mil|HoleType=Round|Shape=RoundedRectangle|*
%AMROUNDEDRECTD51*
21,1,0.00942,0.02625,0,0,90.0*
21,1,0.00000,0.03567,0,0,90.0*
1,1,0.00942,0.01313,0.00000*
1,1,0.00942,0.01313,0.00000*
1,1,0.00942,-0.01313,0.00000*
1,1,0.00942,-0.01313,0.00000*
%
%ADD51ROUNDEDRECTD51*%
G04:AMPARAMS|DCode=52|XSize=35.67mil|YSize=9.42mil|CornerRadius=4.71mil|HoleSize=0mil|Usage=FLASHONLY|Rotation=90.000|XOffset=0mil|YOffset=0mil|HoleType=Round|Shape=RoundedRectangle|*
%AMROUNDEDRECTD52*
21,1,0.03567,0.00000,0,0,90.0*
21,1,0.02625,0.00942,0,0,90.0*
1,1,0.00942,0.00000,0.01313*
1,1,0.00942,0.00000,-0.01313*
1,1,0.00942,0.00000,-0.01313*
1,1,0.00942,0.00000,0.01313*
%
%ADD52ROUNDEDRECTD52*%
%ADD53R,0.00942X0.03567*%
%ADD54R,0.01890X0.06693*%
%ADD55R,0.05984X0.06693*%
%ADD56R,0.04488X0.01181*%
%ADD57R,0.04488X0.02362*%
%ADD58R,0.04331X0.01575*%
%ADD59R,0.07874X0.04134*%
%ADD62R,0.02244X0.01654*%
%ADD63C,0.05906*%
%ADD64R,0.05118X0.10630*%
%ADD65R,0.03740X0.06693*%
%ADD66R,0.01850X0.01575*%
%ADD67R,0.03150X0.03150*%
%ADD68R,0.03543X0.03937*%
%ADD69R,0.04745X0.02095*%
G04:AMPARAMS|DCode=70|XSize=47.45mil|YSize=20.95mil|CornerRadius=10.48mil|HoleSize=0mil|Usage=FLASHONLY|Rotation=180.000|XOffset=0mil|YOffset=0mil|HoleType=Round|Shape=RoundedRectangle|*
%AMROUNDEDRECTD70*
21,1,0.04745,0.00000,0,0,180.0*
21,1,0.02650,0.02095,0,0,180.0*
1,1,0.02095,-0.01325,0.00000*
1,1,0.02095,0.01325,0.00000*
1,1,0.02095,0.01325,0.00000*
1,1,0.02095,-0.01325,0.00000*
%
%ADD70ROUNDEDRECTD70*%
%ADD71R,0.02254X0.02423*%
%ADD101R,0.10236X0.10236*%
%ADD131C,0.02559*%
%ADD132R,0.02362X0.02362*%
%ADD133R,0.05906X0.05906*%
%ADD134R,0.01575X0.05315*%
%ADD135C,0.00600*%
%ADD136C,0.02000*%
%ADD137C,0.00522*%
%ADD138C,0.00800*%
%ADD139C,0.00444*%
%ADD140C,0.00598*%
%ADD141C,0.06201*%
%ADD142R,0.06201X0.06201*%
%ADD143C,0.03937*%
%ADD144C,0.19685*%
%ADD145O,0.08268X0.03937*%
%ADD146O,0.07087X0.03937*%
%ADD147O,0.04921X0.03347*%
%ADD148O,0.03543X0.06102*%
%ADD149C,0.06496*%
%ADD150R,0.06496X0.06496*%
%ADD151C,0.05504*%
%ADD152C,0.12795*%
%ADD153C,0.09626*%
%ADD154C,0.06024*%
%ADD155R,0.05504X0.05504*%
%ADD156C,0.01968*%
G36*
X175031Y264151D02*
Y257852D01*
X174244Y257065D01*
X155346D01*
X154559Y256277D01*
Y248010D01*
X152984D01*
Y256277D01*
X152227Y257034D01*
X143565D01*
X142748Y257852D01*
Y264151D01*
X143535Y264939D01*
X151725D01*
X152034Y264567D01*
X152034Y264439D01*
Y261439D01*
X155337D01*
X158640D01*
Y264439D01*
X158640Y264567D01*
X158949Y264939D01*
X159599D01*
X159908Y264567D01*
X159908Y264439D01*
Y261439D01*
X163211D01*
X166514D01*
Y264439D01*
X166514Y264567D01*
X166823Y264939D01*
X174244D01*
X175031Y264151D01*
D02*
G37*
G36*
X198823Y260625D02*
Y255123D01*
X198262Y254561D01*
X190556D01*
Y261254D01*
X198195D01*
X198823Y260625D01*
D02*
G37*
G36*
X27559Y264961D02*
X63386Y264961D01*
X64170Y264177D01*
Y249996D01*
X63386Y249213D01*
X35904D01*
X35827Y249228D01*
X29134Y249228D01*
X29134D01*
D01*
X29056Y249213D01*
X28346D01*
X27559Y248425D01*
Y247729D01*
X27540Y247634D01*
X27540Y239767D01*
X27559Y239672D01*
Y239370D01*
X33245Y233684D01*
Y232427D01*
X32694Y231876D01*
X16138D01*
X14957Y230695D01*
Y230393D01*
X14942Y230315D01*
X14942Y222441D01*
X14942Y222441D01*
X14957Y222363D01*
Y222047D01*
X16138Y220866D01*
X16454D01*
X16532Y220851D01*
X16945D01*
X17930Y219866D01*
Y208268D01*
X2756D01*
X1969Y209055D01*
Y249862D01*
X2455Y249978D01*
X2576Y249741D01*
X3559Y248387D01*
X4742Y247204D01*
X6096Y246220D01*
X7587Y245461D01*
X9178Y244944D01*
X10831Y244682D01*
X12504D01*
X14156Y244944D01*
X14553Y245072D01*
X15748Y245461D01*
X17239Y246220D01*
X18592Y247204D01*
X19775Y248387D01*
X20759Y249741D01*
X21519Y251231D01*
X22036Y252823D01*
X22297Y254475D01*
Y256148D01*
X22036Y257801D01*
X21519Y259392D01*
X20759Y260883D01*
X19775Y262237D01*
X18592Y263420D01*
X17239Y264403D01*
X17099Y264474D01*
X17216Y264961D01*
X27559D01*
D01*
D02*
G37*
G36*
X63342Y248370D02*
X64173Y247539D01*
Y232776D01*
X63423Y232026D01*
X43958Y232026D01*
X41339Y234646D01*
Y247737D01*
X41972Y248370D01*
X63342Y248370D01*
D02*
G37*
G36*
X35827Y248425D02*
X36614Y247638D01*
Y238189D01*
X41886Y232917D01*
Y232044D01*
X41732Y231890D01*
X36220D01*
X28343Y239767D01*
X28343Y247634D01*
X29134Y248425D01*
X35827Y248425D01*
D02*
G37*
G36*
X63386Y230709D02*
X64173Y229921D01*
Y222404D01*
X63423Y221654D01*
X43749D01*
X42913Y222489D01*
X42913Y227991D01*
X42913Y227997D01*
X42564Y228346D01*
X42558Y228346D01*
X36614Y228346D01*
X36220Y228740D01*
Y230315D01*
X36614Y230709D01*
X42913Y230709D01*
X63386Y230709D01*
D02*
G37*
G36*
X165298Y228009D02*
X165298Y219235D01*
X143363Y219235D01*
X142913Y219685D01*
Y227953D01*
X143307Y228346D01*
X164961Y228346D01*
X165298Y228009D01*
D02*
G37*
G36*
X141732Y228346D02*
X142113Y227966D01*
X142111Y227953D01*
Y222205D01*
X142047D01*
Y219606D01*
X141634Y219193D01*
X137106Y219193D01*
X136614Y219685D01*
Y227953D01*
X137008Y228346D01*
X141732Y228346D01*
D02*
G37*
G36*
X158409Y217233D02*
Y212003D01*
X157823Y211417D01*
X137008Y211417D01*
X136614Y211811D01*
X136614Y217323D01*
X137008Y217717D01*
X157925Y217717D01*
X158409Y217233D01*
D02*
G37*
G36*
X362992Y208661D02*
X362992Y202756D01*
X362205Y201969D01*
X342126D01*
X341732Y202362D01*
Y208661D01*
X342126Y209055D01*
X362598D01*
X362992Y208661D01*
D02*
G37*
G36*
X26375Y230315D02*
Y222441D01*
X26342Y222409D01*
X26375Y222378D01*
Y202359D01*
X25591Y201575D01*
X18732Y201575D01*
Y221654D01*
X16532Y221654D01*
X15745Y222441D01*
X15745Y230315D01*
X16487Y231057D01*
X25632D01*
X26375Y230315D01*
D02*
G37*
G36*
X362992Y200787D02*
Y193307D01*
X362614Y192929D01*
X356678Y192929D01*
X356315Y193292D01*
X356315Y195889D01*
X358299Y197874D01*
X358347D01*
Y197921D01*
X359260Y198834D01*
Y200803D01*
X359623Y201166D01*
X362205D01*
X362205Y201166D01*
X362360Y201197D01*
X362583D01*
X362992Y200787D01*
D02*
G37*
G36*
X342126Y201166D02*
X357496D01*
X357874Y200787D01*
Y198819D01*
X355984Y196929D01*
X355669D01*
Y196614D01*
X355512Y196457D01*
X355512Y192913D01*
X335433D01*
X335039Y193307D01*
Y200787D01*
X335433Y201181D01*
X342049D01*
X342126Y201166D01*
D02*
G37*
G36*
X30709Y192520D02*
X31102Y192126D01*
Y184646D01*
X30709Y184252D01*
X22807Y184252D01*
Y184593D01*
X22460Y185431D01*
X22437Y185453D01*
Y186614D01*
X26378Y186614D01*
X27559Y187795D01*
Y192126D01*
X27953Y192520D01*
X30709Y192520D01*
D02*
G37*
G36*
X39773Y192504D02*
X40142Y192136D01*
X40142Y190748D01*
X40118D01*
Y182480D01*
X40142D01*
X40142Y177150D01*
X39370Y176378D01*
X33858Y176378D01*
X29134Y181102D01*
X22441D01*
X22368Y181030D01*
X21709D01*
Y180370D01*
X19685Y178347D01*
Y167323D01*
X21709Y165299D01*
Y164494D01*
X26772D01*
Y162205D01*
X22655D01*
X22460Y162675D01*
X21819Y163316D01*
X20981Y163663D01*
X20074D01*
X19236Y163316D01*
X18595Y162675D01*
X18400Y162205D01*
X14173D01*
X11417Y164961D01*
Y180709D01*
X14173Y183465D01*
X18340D01*
X18595Y182849D01*
X19236Y182207D01*
X20074Y181860D01*
X20981D01*
X21819Y182207D01*
X22441Y182830D01*
X22460Y182849D01*
X22685Y183392D01*
X27771D01*
Y183449D01*
X30709D01*
X30709Y183449D01*
X30786Y183465D01*
X31102D01*
X31890Y184252D01*
Y184568D01*
X31905Y184646D01*
Y192126D01*
X31903Y192139D01*
X32268Y192504D01*
X39773Y192504D01*
D02*
G37*
G36*
X17713Y206303D02*
Y201185D01*
X18504Y200394D01*
X48819Y200394D01*
X49606Y199606D01*
X49606Y173228D01*
X48819Y172441D01*
X47003Y172441D01*
Y173053D01*
X44488D01*
X41973D01*
Y172441D01*
X40945D01*
X40945Y182480D01*
X41102D01*
Y190748D01*
X40945D01*
X40945Y192520D01*
X40157Y193307D01*
X31886Y193307D01*
X30786D01*
X30709Y193323D01*
X27953Y193323D01*
D01*
X27953D01*
X27875Y193307D01*
X2756D01*
X1969Y194095D01*
Y206299D01*
X2756Y207087D01*
X16929D01*
X17713Y206303D01*
D02*
G37*
G36*
X222835Y157874D02*
Y150394D01*
X222441Y150000D01*
X215826D01*
X215748Y150015D01*
X208347Y150015D01*
Y150079D01*
X204252D01*
Y150015D01*
X203622D01*
Y150079D01*
X200315D01*
X200000Y150394D01*
Y152362D01*
X202283Y154646D01*
X202362D01*
X202362Y154724D01*
X202362Y155230D01*
X202378Y155307D01*
X202378Y157874D01*
X202378Y157874D01*
X202707Y158268D01*
X222441D01*
X222835Y157874D01*
D02*
G37*
G36*
X31102Y161024D02*
Y153150D01*
X30709Y152756D01*
X27953Y152756D01*
X27559Y153150D01*
Y157874D01*
X26378Y159055D01*
X22437Y159055D01*
Y160070D01*
X22460Y160093D01*
X22807Y160931D01*
Y161345D01*
X27771D01*
Y161417D01*
X30709D01*
X31102Y161024D01*
D02*
G37*
G36*
X201575Y157874D02*
X201575Y155307D01*
X199811Y153543D01*
X199528D01*
Y153260D01*
X198614Y152347D01*
Y150378D01*
X198315Y150079D01*
X194858D01*
X194488Y150448D01*
X194488Y157874D01*
X194867Y158252D01*
X201197Y158252D01*
X201575Y157874D01*
D02*
G37*
G36*
X216142Y148819D02*
Y142520D01*
X215748Y142126D01*
X194882D01*
X194488Y142520D01*
Y148819D01*
X194882Y149213D01*
X215748Y149213D01*
X216142Y148819D01*
D02*
G37*
G36*
X114567Y134646D02*
Y126772D01*
X113905Y126110D01*
X105153D01*
X104740Y126378D01*
Y131282D01*
X104724Y131360D01*
Y135433D01*
X113779D01*
X114567Y134646D01*
D02*
G37*
G36*
X95669Y125984D02*
X95669Y119291D01*
X94882Y118504D01*
X93603D01*
Y119623D01*
X92126D01*
Y119798D01*
D01*
Y119623D01*
X90649D01*
Y118504D01*
X89764D01*
X88857Y119411D01*
X88857Y125865D01*
X89764Y126772D01*
X90516D01*
Y126002D01*
X93736D01*
Y126772D01*
X94882D01*
X95669Y125984D01*
D02*
G37*
G36*
X103902Y135111D02*
Y131282D01*
X103937D01*
Y126378D01*
X103275Y125716D01*
X99481D01*
X98819Y126378D01*
Y134646D01*
X99606Y135433D01*
X103535D01*
X103902Y135111D01*
D02*
G37*
G36*
X114567Y124016D02*
Y119291D01*
X113779Y118504D01*
X99606D01*
X98819Y119291D01*
Y124016D01*
X99606Y124803D01*
X113779D01*
X114567Y124016D01*
D02*
G37*
G36*
X114052Y117023D02*
Y109937D01*
X113265Y109149D01*
X89643D01*
X88856Y109937D01*
Y116630D01*
X89643Y117417D01*
X90649D01*
Y116598D01*
X92126D01*
X93603D01*
Y117417D01*
X113659D01*
X114052Y117023D01*
D02*
G37*
G36*
X89643Y108346D02*
X106194D01*
X106966Y107574D01*
X106966Y100882D01*
X106178Y100094D01*
X89643Y100094D01*
X88856Y100882D01*
Y107574D01*
X89630Y108349D01*
X89643Y108346D01*
D02*
G37*
G36*
X197642Y91963D02*
Y86057D01*
X197249Y85664D01*
X188981D01*
Y92357D01*
X197249D01*
X197642Y91963D01*
D02*
G37*
G36*
X211024Y66929D02*
X211024Y60630D01*
X210390Y59996D01*
X197135D01*
X196348Y60783D01*
X191230D01*
Y62358D01*
X194576Y62358D01*
X195669Y63451D01*
Y66929D01*
X196216Y67476D01*
X210476D01*
X211024Y66929D01*
D02*
G37*
G36*
X182568Y83618D02*
Y63933D01*
X187293Y59209D01*
X192805D01*
Y58781D01*
X193210Y59074D01*
X195167Y58421D01*
X210476D01*
X211024Y57874D01*
Y50787D01*
X210390Y50153D01*
X142805D01*
Y53671D01*
X146926D01*
Y53697D01*
X147923D01*
X152647Y58421D01*
Y83618D01*
X153828Y84799D01*
X181387Y84799D01*
X182568Y83618D01*
D02*
G37*
G36*
X121504Y56754D02*
X122262Y55997D01*
X130923D01*
X131741Y55180D01*
Y48880D01*
X131128Y48268D01*
X100070D01*
X99457Y48880D01*
Y55180D01*
X100245Y55967D01*
X119142D01*
X119930Y56754D01*
Y65022D01*
X121504D01*
Y56754D01*
D02*
G37*
%LPC*%
G36*
X166514Y261089D02*
X163386D01*
Y257961D01*
X166514D01*
Y261089D01*
D02*
G37*
G36*
X163036D02*
X159908D01*
Y257961D01*
X163036D01*
Y261089D01*
D02*
G37*
G36*
X158640D02*
X155512D01*
Y257961D01*
X158640D01*
Y261089D01*
D02*
G37*
G36*
X155162D02*
X152034D01*
Y257961D01*
X155162D01*
Y261089D01*
D02*
G37*
G36*
X164495Y227110D02*
X161958D01*
Y224967D01*
X164495D01*
Y227110D01*
D02*
G37*
G36*
X161608D02*
X159071D01*
Y224967D01*
X161608D01*
Y227110D01*
D02*
G37*
G36*
X157802D02*
X155265D01*
Y224967D01*
X157802D01*
Y227110D01*
D02*
G37*
G36*
X154915D02*
X152378D01*
Y224967D01*
X154915D01*
Y227110D01*
D02*
G37*
G36*
X164495Y224617D02*
X161958D01*
Y222473D01*
X164495D01*
Y224617D01*
D02*
G37*
G36*
X161608D02*
X159071D01*
Y222473D01*
X161608D01*
Y224617D01*
D02*
G37*
G36*
X157802D02*
X155265D01*
Y222473D01*
X157802D01*
Y224617D01*
D02*
G37*
G36*
X154915D02*
X152378D01*
Y222473D01*
X154915D01*
Y224617D01*
D02*
G37*
G36*
X157802Y216874D02*
X155265D01*
Y214731D01*
X157802D01*
Y216874D01*
D02*
G37*
G36*
X154915D02*
X152378D01*
Y214731D01*
X154915D01*
Y216874D01*
D02*
G37*
G36*
X157802Y214381D02*
X155265D01*
Y212237D01*
X157802D01*
Y214381D01*
D02*
G37*
G36*
X154915D02*
X152378D01*
Y212237D01*
X154915D01*
Y214381D01*
D02*
G37*
G36*
X347397Y208421D02*
X345057D01*
Y205687D01*
X347397D01*
Y208421D01*
D02*
G37*
G36*
X344707D02*
X342367D01*
Y205687D01*
X344707D01*
Y208421D01*
D02*
G37*
G36*
X347397Y205337D02*
X345057D01*
Y202603D01*
X347397D01*
Y205337D01*
D02*
G37*
G36*
X344707D02*
X342367D01*
Y202603D01*
X344707D01*
Y205337D01*
D02*
G37*
G36*
X347397Y199759D02*
X345057D01*
Y197025D01*
X347397D01*
Y199759D01*
D02*
G37*
G36*
X340704D02*
X338364D01*
Y197025D01*
X340704D01*
Y199759D01*
D02*
G37*
G36*
X338014D02*
X335674D01*
Y197025D01*
X338014D01*
Y199759D01*
D02*
G37*
G36*
X344707D02*
X342367D01*
Y197025D01*
X344707D01*
Y199759D01*
D02*
G37*
G36*
X347397Y196675D02*
X345057D01*
Y193941D01*
X347397D01*
Y196675D01*
D02*
G37*
G36*
X344707D02*
X342367D01*
Y193941D01*
X344707D01*
Y196675D01*
D02*
G37*
G36*
X340704D02*
X338364D01*
Y193941D01*
X340704D01*
Y196675D01*
D02*
G37*
G36*
X338014D02*
X335674D01*
Y193941D01*
X338014D01*
Y196675D01*
D02*
G37*
G36*
X47003Y174366D02*
X44663D01*
Y173403D01*
X47003D01*
Y174366D01*
D02*
G37*
G36*
X44313D02*
X41973D01*
Y173403D01*
X44313D01*
Y174366D01*
D02*
G37*
G36*
X222082Y157240D02*
X219742D01*
Y154506D01*
X222082D01*
Y157240D01*
D02*
G37*
G36*
X219392D02*
X217052D01*
Y154506D01*
X219392D01*
Y157240D01*
D02*
G37*
G36*
X215389D02*
X213049D01*
Y154506D01*
X215389D01*
Y157240D01*
D02*
G37*
G36*
X212699D02*
X210359D01*
Y154506D01*
X212699D01*
Y157240D01*
D02*
G37*
G36*
X222082Y154156D02*
X219742D01*
Y151422D01*
X222082D01*
Y154156D01*
D02*
G37*
G36*
X219392D02*
X217052D01*
Y151422D01*
X219392D01*
Y154156D01*
D02*
G37*
G36*
X215389D02*
X213049D01*
Y151422D01*
X215389D01*
Y154156D01*
D02*
G37*
G36*
X212699D02*
X210359D01*
Y151422D01*
X212699D01*
Y154156D01*
D02*
G37*
G36*
X215389Y148578D02*
X213049D01*
Y145844D01*
X215389D01*
Y148578D01*
D02*
G37*
G36*
X212699D02*
X210359D01*
Y145844D01*
X212699D01*
Y148578D01*
D02*
G37*
G36*
X215389Y145494D02*
X213049D01*
Y142760D01*
X215389D01*
Y145494D01*
D02*
G37*
G36*
X212699D02*
X210359D01*
Y142760D01*
X212699D01*
Y145494D01*
D02*
G37*
G36*
X93736Y125652D02*
X92301D01*
Y124296D01*
X93736D01*
Y125652D01*
D02*
G37*
G36*
X91951D02*
X90516D01*
Y124296D01*
X91951D01*
Y125652D01*
D02*
G37*
G36*
X93603Y121359D02*
X92301D01*
Y119973D01*
X93603D01*
Y121359D01*
D02*
G37*
G36*
X91951D02*
X90649D01*
Y119973D01*
X91951D01*
Y121359D01*
D02*
G37*
G36*
X93603Y116248D02*
X92301D01*
Y114862D01*
X93603D01*
Y116248D01*
D02*
G37*
G36*
X91951D02*
X90649D01*
Y114862D01*
X91951D01*
Y116248D01*
D02*
G37*
G36*
X112754Y115900D02*
X110414D01*
Y113166D01*
X112754D01*
Y115900D01*
D02*
G37*
G36*
X110064D02*
X107723D01*
Y113166D01*
X110064D01*
Y115900D01*
D02*
G37*
G36*
X106061D02*
X103721D01*
Y113166D01*
X106061D01*
Y115900D01*
D02*
G37*
G36*
X103371D02*
X101030D01*
Y113166D01*
X103371D01*
Y115900D01*
D02*
G37*
G36*
X112754Y112816D02*
X110414D01*
Y110082D01*
X112754D01*
Y112816D01*
D02*
G37*
G36*
X110064D02*
X107723D01*
Y110082D01*
X110064D01*
Y112816D01*
D02*
G37*
G36*
X106061D02*
X103721D01*
Y110082D01*
X106061D01*
Y112816D01*
D02*
G37*
G36*
X103371D02*
X101030D01*
Y110082D01*
X103371D01*
Y112816D01*
D02*
G37*
G36*
X106061Y107238D02*
X103721D01*
Y104504D01*
X106061D01*
Y107238D01*
D02*
G37*
G36*
X103371D02*
X101030D01*
Y104504D01*
X103371D01*
Y107238D01*
D02*
G37*
G36*
X106061Y104154D02*
X103721D01*
Y101420D01*
X106061D01*
Y104154D01*
D02*
G37*
G36*
X103371D02*
X101030D01*
Y101420D01*
X103371D01*
Y104154D01*
D02*
G37*
G36*
X122493Y55433D02*
X119365D01*
Y52306D01*
X122493D01*
Y55433D01*
D02*
G37*
G36*
X119015D02*
X115887D01*
Y52306D01*
X119015D01*
Y55433D01*
D02*
G37*
G36*
X114619D02*
X111491D01*
Y52306D01*
X114619D01*
Y55433D01*
D02*
G37*
G36*
X111141D02*
X108013D01*
Y52306D01*
X111141D01*
Y55433D01*
D02*
G37*
G36*
X122493Y51956D02*
X119365D01*
Y48828D01*
X122493D01*
Y51956D01*
D02*
G37*
G36*
X119015D02*
X115887D01*
Y48828D01*
X119015D01*
Y51956D01*
D02*
G37*
G36*
X114619D02*
X111491D01*
Y48828D01*
X114619D01*
Y51956D01*
D02*
G37*
G36*
X111141D02*
X108013D01*
Y48828D01*
X111141D01*
Y51956D01*
D02*
G37*
%LPD*%
D15*
X128347Y190157D02*
X130526Y187978D01*
X105946Y168151D02*
Y180559D01*
X100041Y166495D02*
X101585Y164951D01*
X104724Y166929D02*
X105946Y168151D01*
X101585Y164566D02*
Y164951D01*
X78983Y173865D02*
X81178Y176059D01*
X77953Y173622D02*
X78196Y173865D01*
X83465Y170817D02*
Y182283D01*
X85827Y170079D02*
Y182285D01*
X78196Y173865D02*
X78983D01*
X82677Y170029D02*
X83465Y170817D01*
X81178Y176059D02*
Y182754D01*
X82677Y169685D02*
Y170029D01*
X94882Y170866D02*
Y170875D01*
X90945Y174378D02*
X92026Y175459D01*
Y177905D01*
X90945Y174016D02*
Y174378D01*
X85827Y170079D02*
X88583Y167323D01*
X95276Y164567D02*
X95276D01*
X96494Y172487D02*
Y177905D01*
X94882Y170875D02*
X96494Y172487D01*
X100041Y166495D02*
Y180559D01*
X98072Y167364D02*
Y180559D01*
X95276Y164567D02*
X98072Y167364D01*
X71260Y184941D02*
X76909D01*
X77165Y185197D02*
X80866D01*
X76909Y184941D02*
X77165Y185197D01*
X128288Y193249D02*
X129855Y194816D01*
Y194865D02*
X130315Y195325D01*
X124745Y193249D02*
X128288D01*
X122685Y191189D02*
X124745Y193249D01*
X129855Y194816D02*
Y194865D01*
X124016Y190157D02*
X128347D01*
X123079Y189220D02*
X124016Y190157D01*
X130315Y195325D02*
Y195669D01*
X120513Y191189D02*
X122685D01*
X120513Y189220D02*
X123079D01*
X84890D02*
X89411D01*
X85675Y187252D02*
X89411D01*
X80866Y185197D02*
X84890Y189220D01*
X81178Y182754D02*
X85675Y187252D01*
X83465Y182283D02*
X86464Y185283D01*
X86856Y183315D02*
X89411D01*
X86464Y185283D02*
X89411D01*
X85827Y182285D02*
X86856Y183315D01*
X92167Y178046D02*
Y180559D01*
X96104Y178295D02*
Y180559D01*
X92026Y177905D02*
X92167Y178046D01*
X96104Y178295D02*
X96494Y177905D01*
D17*
X198261Y247867D02*
X198425Y248031D01*
X195195Y247867D02*
X198261D01*
X366929Y64961D02*
Y68209D01*
X373622Y64961D02*
Y68209D01*
X380315Y64961D02*
Y68209D01*
X387402Y64961D02*
Y68209D01*
X113779Y261811D02*
X121653D01*
X117717Y247933D02*
Y250394D01*
Y247933D02*
X117815Y247835D01*
X122047Y243701D02*
Y251575D01*
X121653Y261811D02*
X123622Y259842D01*
X122047Y251575D02*
X123622Y253150D01*
Y259842D01*
X126083Y247835D02*
Y259744D01*
X127953Y261614D01*
X128698Y245627D02*
X130315Y247244D01*
X127953Y261614D02*
X133071D01*
X130315Y247244D02*
X131988D01*
X132283Y247539D01*
X115199Y245627D02*
X116971D01*
X117323Y245276D01*
X117815Y242717D02*
X121063D01*
X122047Y243701D01*
X126083Y242717D02*
X126378Y242421D01*
Y239764D02*
Y242421D01*
X127165Y245276D02*
X127517Y245627D01*
X128698D01*
X68504Y247638D02*
Y255118D01*
X68898Y261417D02*
X71260D01*
X72441Y260236D01*
Y255512D02*
Y260236D01*
Y255512D02*
X74410Y253543D01*
X74016Y247539D02*
X74072Y247483D01*
X75745D01*
X77798Y245430D01*
X74410Y253543D02*
X80709D01*
X78347Y250525D02*
Y250787D01*
Y250525D02*
X78847Y250025D01*
Y248220D02*
Y250025D01*
X77798Y245430D02*
X80259D01*
X78847Y248220D02*
X80028D01*
X80413Y247835D01*
X80259Y245430D02*
X80413Y245276D01*
X105905Y253543D02*
X107874Y255512D01*
X113779D01*
X111417Y247539D02*
X113287D01*
X113771Y255717D02*
X113779Y255709D01*
X113754Y255487D02*
X113820Y255421D01*
X113287Y247539D02*
X115199Y245627D01*
X98425Y255512D02*
X100394Y253543D01*
X100394Y239764D02*
X100394Y239764D01*
Y243012D01*
Y247933D02*
Y253543D01*
X105905Y247539D02*
Y253543D01*
Y239764D02*
Y243012D01*
X88681Y247835D02*
Y249508D01*
X88583Y242331D02*
X88973Y242721D01*
X89459D01*
X88681Y245276D02*
X91339D01*
X93152Y247089D01*
X88976Y255512D02*
X98425D01*
X93152Y247089D02*
X94432D01*
X94882Y247539D01*
X80413Y242717D02*
X83268D01*
X80709Y253543D02*
X84252Y250000D01*
X83268Y242717D02*
X84252Y243701D01*
Y253937D02*
Y260236D01*
Y243701D02*
Y250000D01*
Y260236D02*
X85433Y261417D01*
X84252Y253937D02*
X88681Y249508D01*
X85433Y261417D02*
X88976D01*
X88583Y239764D02*
Y242331D01*
X137795Y240158D02*
Y243012D01*
X133071Y253543D02*
Y255512D01*
Y253543D02*
X134252Y252362D01*
X136614D01*
X137795Y251181D01*
Y247539D02*
Y251181D01*
X67913Y243701D02*
X68504Y243110D01*
X67823Y243307D02*
X67913Y243398D01*
Y243701D01*
X48622Y208268D02*
Y216732D01*
X50787Y218898D02*
X57087D01*
X48622Y216732D02*
X50787Y218898D01*
X72244Y225000D02*
Y232283D01*
X72047Y224803D02*
X72244Y225000D01*
X103988Y215810D02*
X103999Y215821D01*
X103988Y211672D02*
Y215810D01*
X117735Y211683D02*
X117757Y211661D01*
X117735Y215785D02*
X118034Y216084D01*
X114564Y216060D02*
X115789Y214834D01*
X118034Y216084D02*
X118051D01*
X117735Y211683D02*
Y215785D01*
X115789Y211661D02*
Y214834D01*
X114564Y216060D02*
Y216142D01*
X124284Y187277D02*
X124350Y187344D01*
X120539Y187277D02*
X124284D01*
X115351Y206693D02*
X115595Y206937D01*
X120548Y197060D02*
X124395D01*
X120513Y197094D02*
X120548Y197060D01*
X115595Y206937D02*
X120513D01*
X124395Y197060D02*
X124459Y196996D01*
X113776Y205512D02*
X113820Y205556D01*
Y211661D01*
X120513Y187252D02*
X120539Y187277D01*
X88826Y228668D02*
X92560D01*
X88240Y219157D02*
X90417D01*
X90551Y219291D01*
X88240Y228082D02*
X88826Y228668D01*
X88240Y219157D02*
Y228082D01*
X103934Y184646D02*
X103978Y184601D01*
Y180559D02*
Y184601D01*
X86216Y207253D02*
X86478D01*
X86759Y206971D01*
X89376D02*
X89411Y206937D01*
X85997Y192238D02*
X86882Y193123D01*
X85997Y191921D02*
Y192238D01*
X86882Y193123D02*
X89376D01*
X89411Y191189D02*
X93847D01*
X85812Y191735D02*
X85997Y191921D01*
X89376Y193123D02*
X89411Y193157D01*
X93847Y191189D02*
X94091Y190945D01*
X86759Y206971D02*
X89376D01*
X94135Y180559D02*
X94170Y180524D01*
Y177070D02*
Y180524D01*
Y177070D02*
X94260Y176980D01*
X83929Y199772D02*
X84794Y198907D01*
X83667Y199772D02*
X83929D01*
X84794Y198907D02*
X87421D01*
X86268Y201392D02*
X86530D01*
X86856Y201066D01*
X103978Y211661D02*
X103988Y211672D01*
X86856Y201066D02*
X89376D01*
X89411Y201031D01*
X89376Y199028D02*
X89411Y199063D01*
X87541Y199028D02*
X89376D01*
X87421Y198907D02*
X87541Y199028D01*
X49213Y207087D02*
X49606Y207480D01*
X211811Y72047D02*
X213386Y70473D01*
X207480Y72047D02*
X211811D01*
X211024Y56299D02*
X212205D01*
X210630Y56693D02*
X211024Y56299D01*
X213386Y57480D02*
Y70472D01*
X212205Y56299D02*
X213386Y57480D01*
X207480Y77953D02*
Y84252D01*
X205645Y94748D02*
X207480Y92913D01*
Y88583D02*
Y89173D01*
Y92913D01*
X175301Y94748D02*
X205645D01*
X174091Y90285D02*
Y93538D01*
X175301Y94748D01*
X169390Y234646D02*
Y241240D01*
X163919Y246710D02*
X169390Y241240D01*
X163919Y246710D02*
Y250910D01*
X162598Y234646D02*
X168602D01*
X130173Y125842D02*
X130709Y126378D01*
X125475Y125842D02*
X130173D01*
X119685Y126772D02*
X119947D01*
X120986Y127811D01*
X125475D01*
X39351Y208268D02*
X42717D01*
X62598Y243307D02*
X67823D01*
X120876Y129780D02*
X125475D01*
X119685Y130709D02*
X119947D01*
X120876Y129780D01*
X92126Y129291D02*
Y132835D01*
X53981Y53152D02*
X65032D01*
X41882Y53386D02*
X42694D01*
X76970Y62793D02*
Y69325D01*
Y62793D02*
X79765Y59999D01*
X87977D01*
X53981Y62948D02*
X57028Y59901D01*
X64961D01*
X53981Y62948D02*
Y69491D01*
X31065Y63030D02*
X34252Y59842D01*
X31065Y63030D02*
Y68935D01*
X34252Y59842D02*
X41882D01*
X41339Y217717D02*
Y220079D01*
X37930Y214308D02*
X41339Y217717D01*
X35096Y214308D02*
X37930D01*
X37946Y219917D02*
X38109Y220079D01*
X35258Y219917D02*
X37946D01*
X35096Y219754D02*
X35258Y219917D01*
X35096Y212200D02*
Y214173D01*
X34606Y208651D02*
X34616Y208661D01*
X178740Y247422D02*
Y247441D01*
Y247422D02*
X179421Y246741D01*
X180818D01*
X182318Y245241D01*
X183490D01*
X183778Y244954D01*
X181739Y251597D02*
X183858Y249478D01*
Y248031D02*
Y249478D01*
X163919Y250910D02*
X163972Y250962D01*
X65032Y53152D02*
Y53314D01*
Y50544D02*
Y53152D01*
X65371D01*
X135039Y144620D02*
Y144882D01*
X133841Y143422D02*
X135039Y144620D01*
X133841Y140114D02*
Y143422D01*
X41882Y59842D02*
Y64567D01*
Y56850D02*
Y59842D01*
X87977Y59999D02*
Y63173D01*
Y56900D02*
Y59999D01*
Y63173D02*
X88189Y63386D01*
X87927Y56850D02*
X87977Y56900D01*
X87795Y50394D02*
X87861Y50460D01*
X87782Y52987D02*
X87861Y52908D01*
X76970Y52987D02*
X87782D01*
X87861Y50460D02*
Y52908D01*
X64961Y57480D02*
X65354Y57087D01*
X64961Y57480D02*
Y59901D01*
Y63484D01*
Y53386D02*
X65032Y53314D01*
Y50544D02*
X65104Y50472D01*
X42126Y50866D02*
Y53228D01*
X30985Y53430D02*
X41383D01*
X139755Y116151D02*
X139764Y116142D01*
X139755Y116151D02*
Y121405D01*
X139747Y121413D02*
X139755Y121405D01*
X44726Y170436D02*
X48783D01*
X44690Y170473D02*
X44726Y170436D01*
X48783D02*
X48819Y170473D01*
X129896Y116360D02*
Y121405D01*
X129804Y116268D02*
X129896Y116360D01*
Y121405D02*
X129904Y121413D01*
X149084Y132702D02*
X149293D01*
X148070Y133716D02*
X149084Y132702D01*
X144176Y133716D02*
X148070D01*
X127486Y70175D02*
X127582Y70271D01*
X124801Y70175D02*
X127486D01*
X124705Y70079D02*
X124801Y70175D01*
X101698Y69978D02*
X104328D01*
X104429Y70079D01*
X190982Y247513D02*
X191196Y247727D01*
X195055D02*
X195195Y247867D01*
X191196Y247727D02*
X195055D01*
X180597Y255371D02*
X181475Y256249D01*
X164919Y255371D02*
X180597D01*
X163972Y254424D02*
X164919Y255371D01*
X163972Y250962D02*
Y254424D01*
X181739Y251597D02*
Y256249D01*
X187274Y246583D02*
X188233Y247541D01*
X30568Y212263D02*
Y214308D01*
Y212263D02*
X31141Y211689D01*
Y208651D02*
Y211689D01*
X34606Y208651D02*
Y211711D01*
X35096Y212200D01*
X30568Y214308D02*
X30568Y214308D01*
X30568Y214308D02*
Y219754D01*
X30665Y219850D02*
Y225585D01*
X163386Y181890D02*
Y186221D01*
X150000Y181890D02*
Y187008D01*
D20*
X278268Y209842D02*
D03*
X274803D02*
D03*
X278346Y205118D02*
D03*
X274882D02*
D03*
X200394Y156693D02*
D03*
X203858D02*
D03*
X357638Y194882D02*
D03*
X354173D02*
D03*
X328268Y85827D02*
D03*
X324803D02*
D03*
X288032Y76378D02*
D03*
X291496D02*
D03*
X381372Y95332D02*
D03*
X377908D02*
D03*
X34606Y208651D02*
D03*
X31141D02*
D03*
D21*
X233071Y157244D02*
D03*
Y153779D02*
D03*
X237795D02*
D03*
Y157244D02*
D03*
X302652Y95980D02*
D03*
Y92516D02*
D03*
X274700Y95980D02*
D03*
Y92516D02*
D03*
X251471Y95980D02*
D03*
Y92516D02*
D03*
X228637Y95980D02*
D03*
Y92516D02*
D03*
X201575Y148110D02*
D03*
Y151575D02*
D03*
X206299Y148110D02*
D03*
Y151575D02*
D03*
X196850Y148110D02*
D03*
Y151575D02*
D03*
X139370Y220236D02*
D03*
Y216772D02*
D03*
X148763Y220216D02*
D03*
Y216751D02*
D03*
X144095Y216772D02*
D03*
Y220236D02*
D03*
X351575Y199843D02*
D03*
X356299Y203307D02*
D03*
Y199843D02*
D03*
X361024Y203307D02*
D03*
Y199843D02*
D03*
X351575Y203307D02*
D03*
X77165Y201339D02*
D03*
Y197874D02*
D03*
Y181732D02*
D03*
Y185197D02*
D03*
X77165Y208661D02*
D03*
Y212126D02*
D03*
X87927Y56850D02*
D03*
Y53386D02*
D03*
X42028Y57087D02*
D03*
Y53622D02*
D03*
X64961Y53386D02*
D03*
Y56850D02*
D03*
X195195Y247867D02*
D03*
Y244403D02*
D03*
X92126Y125827D02*
D03*
Y129291D02*
D03*
Y106929D02*
D03*
Y110394D02*
D03*
X97244D02*
D03*
Y106929D02*
D03*
X106733Y123600D02*
D03*
Y127065D02*
D03*
X112087Y127055D02*
D03*
Y123590D02*
D03*
X101460Y123607D02*
D03*
Y127072D02*
D03*
D22*
X231004Y145669D02*
D03*
X226476D02*
D03*
X169390Y220079D02*
D03*
X173917D02*
D03*
X169390Y214173D02*
D03*
X173917D02*
D03*
X326083Y205118D02*
D03*
X330610D02*
D03*
X329429Y75590D02*
D03*
X324902D02*
D03*
Y80709D02*
D03*
X329429D02*
D03*
X72244Y232283D02*
D03*
X76772D02*
D03*
X72244Y224803D02*
D03*
X76772D02*
D03*
X98819Y232283D02*
D03*
X103347D02*
D03*
X103445Y225197D02*
D03*
X98917D02*
D03*
X381299Y150000D02*
D03*
X385827D02*
D03*
X380906Y144488D02*
D03*
X385433D02*
D03*
X381201Y155118D02*
D03*
X385728D02*
D03*
X380709Y139370D02*
D03*
X385236D02*
D03*
X380807Y134252D02*
D03*
X385335D02*
D03*
X380906Y129134D02*
D03*
X385433D02*
D03*
X380315Y180315D02*
D03*
X384842D02*
D03*
X380315Y185039D02*
D03*
X384842D02*
D03*
X380315Y190157D02*
D03*
X384842D02*
D03*
X380315Y195276D02*
D03*
X384842D02*
D03*
X218898Y55118D02*
D03*
X223425D02*
D03*
X244193Y60236D02*
D03*
X248721D02*
D03*
X218898Y65354D02*
D03*
X223425D02*
D03*
X248721Y55118D02*
D03*
X244193D02*
D03*
X218898Y60236D02*
D03*
X223425D02*
D03*
X101969Y139370D02*
D03*
X106496D02*
D03*
X169390Y234646D02*
D03*
X173917D02*
D03*
X123721Y149606D02*
D03*
X128248D02*
D03*
X169980Y145276D02*
D03*
X165453D02*
D03*
X169980Y132677D02*
D03*
X165453D02*
D03*
X169980Y138976D02*
D03*
X165453D02*
D03*
X169980Y126378D02*
D03*
X165453D02*
D03*
X169980Y113779D02*
D03*
X165453D02*
D03*
X169980Y120079D02*
D03*
X165453D02*
D03*
X128347Y155118D02*
D03*
X123819D02*
D03*
X35096Y219754D02*
D03*
X30568D02*
D03*
X35096Y214308D02*
D03*
X30568D02*
D03*
D23*
X212874Y154331D02*
D03*
X219567D02*
D03*
X212874Y145669D02*
D03*
X219567D02*
D03*
X344882Y196850D02*
D03*
X338189D02*
D03*
X344882Y205512D02*
D03*
X338189D02*
D03*
X103546Y112991D02*
D03*
X110239D02*
D03*
X103546Y104329D02*
D03*
X110239D02*
D03*
D24*
X243701Y119882D02*
D03*
Y121850D02*
D03*
Y123819D02*
D03*
Y125787D02*
D03*
Y127756D02*
D03*
Y129724D02*
D03*
Y131693D02*
D03*
Y133661D02*
D03*
Y135630D02*
D03*
Y137598D02*
D03*
Y139567D02*
D03*
Y141535D02*
D03*
Y143504D02*
D03*
Y145472D02*
D03*
Y147441D02*
D03*
Y149409D02*
D03*
Y151378D02*
D03*
Y153347D02*
D03*
Y155315D02*
D03*
Y157283D02*
D03*
Y159252D02*
D03*
Y161221D02*
D03*
Y163189D02*
D03*
Y165157D02*
D03*
Y167126D02*
D03*
Y169095D02*
D03*
Y171063D02*
D03*
Y173031D02*
D03*
Y175000D02*
D03*
Y176969D02*
D03*
Y178937D02*
D03*
Y180905D02*
D03*
Y182874D02*
D03*
Y184843D02*
D03*
Y186811D02*
D03*
Y188779D02*
D03*
X327953D02*
D03*
Y186811D02*
D03*
Y184843D02*
D03*
Y182874D02*
D03*
Y180905D02*
D03*
Y178937D02*
D03*
Y176969D02*
D03*
Y175000D02*
D03*
Y173031D02*
D03*
Y171063D02*
D03*
Y169095D02*
D03*
Y167126D02*
D03*
Y165157D02*
D03*
Y163189D02*
D03*
Y161221D02*
D03*
Y159252D02*
D03*
Y157283D02*
D03*
Y155315D02*
D03*
Y153347D02*
D03*
Y151378D02*
D03*
Y149409D02*
D03*
Y147441D02*
D03*
Y145472D02*
D03*
Y143504D02*
D03*
Y141535D02*
D03*
Y139567D02*
D03*
Y137598D02*
D03*
Y135630D02*
D03*
Y133661D02*
D03*
Y131693D02*
D03*
Y129724D02*
D03*
Y127756D02*
D03*
Y125787D02*
D03*
Y123819D02*
D03*
Y121850D02*
D03*
Y119882D02*
D03*
D25*
X251378Y196457D02*
D03*
X253346D02*
D03*
X255315D02*
D03*
X257283D02*
D03*
X259252D02*
D03*
X261221D02*
D03*
X263189D02*
D03*
X265158D02*
D03*
X267126D02*
D03*
X269094D02*
D03*
X271063D02*
D03*
X273031D02*
D03*
X275000D02*
D03*
X276969D02*
D03*
X278937D02*
D03*
X280906D02*
D03*
X282874D02*
D03*
X284842D02*
D03*
X286811D02*
D03*
X288779D02*
D03*
X290748D02*
D03*
X292717D02*
D03*
X294685D02*
D03*
X296654D02*
D03*
X298622D02*
D03*
X300591D02*
D03*
X302559D02*
D03*
X304528D02*
D03*
X306496D02*
D03*
X308465D02*
D03*
X310433D02*
D03*
X312402D02*
D03*
X314370D02*
D03*
X316339D02*
D03*
X318307D02*
D03*
X320276D02*
D03*
Y112205D02*
D03*
X318307D02*
D03*
X316339D02*
D03*
X314370D02*
D03*
X312402D02*
D03*
X310433D02*
D03*
X308465D02*
D03*
X306496D02*
D03*
X304528D02*
D03*
X302559D02*
D03*
X300591D02*
D03*
X298622D02*
D03*
X296654D02*
D03*
X294685D02*
D03*
X292717D02*
D03*
X290748D02*
D03*
X288779D02*
D03*
X286811D02*
D03*
X284842D02*
D03*
X282874D02*
D03*
X280906D02*
D03*
X278937D02*
D03*
X276969D02*
D03*
X275000D02*
D03*
X273031D02*
D03*
X271063D02*
D03*
X269094D02*
D03*
X267126D02*
D03*
X265158D02*
D03*
X263189D02*
D03*
X261221D02*
D03*
X259252D02*
D03*
X257283D02*
D03*
X255315D02*
D03*
X253346D02*
D03*
X251378D02*
D03*
D26*
X373622Y57284D02*
D03*
Y51378D02*
D03*
X88976Y261417D02*
D03*
Y255512D02*
D03*
X68504Y255315D02*
D03*
Y261221D02*
D03*
X113779Y261614D02*
D03*
Y255709D02*
D03*
X133071D02*
D03*
Y261614D02*
D03*
X207480Y72047D02*
D03*
Y77953D02*
D03*
D27*
X380315Y52067D02*
D03*
Y56595D02*
D03*
X393701Y72736D02*
D03*
Y68209D02*
D03*
X380315D02*
D03*
Y72736D02*
D03*
X373622Y68209D02*
D03*
Y72736D02*
D03*
X387402Y68209D02*
D03*
Y72736D02*
D03*
X366929Y68209D02*
D03*
Y72736D02*
D03*
X298425Y69587D02*
D03*
Y65059D02*
D03*
X94882Y243012D02*
D03*
Y247539D02*
D03*
X100394D02*
D03*
Y243012D02*
D03*
X68504Y247638D02*
D03*
Y243110D02*
D03*
X74016Y243012D02*
D03*
Y247539D02*
D03*
X105905Y247539D02*
D03*
Y243012D02*
D03*
X111417D02*
D03*
Y247539D02*
D03*
X132283Y243012D02*
D03*
Y247539D02*
D03*
X137795D02*
D03*
Y243012D02*
D03*
X71260Y180413D02*
D03*
Y184941D02*
D03*
X207480Y84646D02*
D03*
Y89173D02*
D03*
X199377Y71763D02*
D03*
Y76290D02*
D03*
X178740Y247441D02*
D03*
Y242913D02*
D03*
X64961Y63484D02*
D03*
Y68012D02*
D03*
X88026Y63484D02*
D03*
Y68012D02*
D03*
X146850Y106791D02*
D03*
Y111319D02*
D03*
X123228Y106791D02*
D03*
Y111319D02*
D03*
X42126Y63484D02*
D03*
Y68012D02*
D03*
X117717Y106791D02*
D03*
Y111319D02*
D03*
D28*
X155090Y224792D02*
D03*
X161783D02*
D03*
X155090Y214556D02*
D03*
X161783D02*
D03*
D29*
X144207Y225984D02*
D03*
X140832D02*
D03*
X102526Y133197D02*
D03*
X105900D02*
D03*
D30*
X336221Y61024D02*
D03*
Y67323D02*
D03*
X309449Y61024D02*
D03*
Y67323D02*
D03*
X6299Y204331D02*
D03*
Y210630D02*
D03*
X59055Y228346D02*
D03*
Y234646D02*
D03*
X50000D02*
D03*
Y228346D02*
D03*
X21256Y234646D02*
D03*
Y228346D02*
D03*
D31*
X328543Y69882D02*
D03*
Y62402D02*
D03*
X318701D02*
D03*
Y66142D02*
D03*
Y69882D02*
D03*
D32*
X291339Y69705D02*
D03*
Y64705D02*
D03*
Y59705D02*
D03*
Y54705D02*
D03*
X262992D02*
D03*
Y59705D02*
D03*
Y64705D02*
D03*
Y69705D02*
D03*
D33*
X324016Y53543D02*
D03*
X316535D02*
D03*
X42717Y242126D02*
D03*
X35236D02*
D03*
D34*
X80413Y242717D02*
D03*
Y245276D02*
D03*
Y247835D02*
D03*
X88681D02*
D03*
Y245276D02*
D03*
Y242717D02*
D03*
X126083Y242717D02*
D03*
Y245276D02*
D03*
Y247835D02*
D03*
X117815D02*
D03*
Y245276D02*
D03*
Y242717D02*
D03*
D35*
X83111Y224928D02*
D03*
Y228668D02*
D03*
Y232408D02*
D03*
X92560D02*
D03*
Y228668D02*
D03*
Y224928D02*
D03*
D36*
X88240Y219157D02*
D03*
X84500D02*
D03*
D37*
X117757Y211661D02*
D03*
X115789D02*
D03*
X113820D02*
D03*
X111852D02*
D03*
X109883D02*
D03*
X107915D02*
D03*
X117757Y180559D02*
D03*
X115789D02*
D03*
X113820D02*
D03*
X111852D02*
D03*
X109883D02*
D03*
X105946Y211661D02*
D03*
X102009D02*
D03*
X100041D02*
D03*
X98072D02*
D03*
X96104D02*
D03*
X94135D02*
D03*
X92167D02*
D03*
X103978D02*
D03*
X107915Y180559D02*
D03*
X105946D02*
D03*
X103978D02*
D03*
X102009D02*
D03*
X100041D02*
D03*
X98072D02*
D03*
X96104D02*
D03*
X94135D02*
D03*
X92167D02*
D03*
D38*
X120513Y208905D02*
D03*
Y206937D02*
D03*
Y204968D02*
D03*
Y203000D02*
D03*
Y201031D02*
D03*
Y199063D02*
D03*
Y197094D02*
D03*
Y195126D02*
D03*
Y193157D02*
D03*
Y191189D02*
D03*
Y189220D02*
D03*
Y187252D02*
D03*
Y185283D02*
D03*
Y183315D02*
D03*
X89411Y208905D02*
D03*
Y206937D02*
D03*
Y204968D02*
D03*
Y203000D02*
D03*
Y201031D02*
D03*
Y199063D02*
D03*
Y197094D02*
D03*
Y195126D02*
D03*
Y193157D02*
D03*
Y191189D02*
D03*
Y189220D02*
D03*
Y187252D02*
D03*
Y185283D02*
D03*
Y183315D02*
D03*
D39*
X104962Y196110D02*
D03*
D40*
X62595Y209449D02*
D03*
X68894D02*
D03*
X62595Y200787D02*
D03*
X68894D02*
D03*
D41*
X230118Y61614D02*
D03*
Y59055D02*
D03*
Y56496D02*
D03*
X237598D02*
D03*
Y59055D02*
D03*
Y61614D02*
D03*
D42*
X191021Y55246D02*
D03*
Y58395D02*
D03*
Y61545D02*
D03*
Y64695D02*
D03*
Y67844D02*
D03*
Y70994D02*
D03*
Y74143D02*
D03*
Y77293D02*
D03*
Y80443D02*
D03*
Y83592D02*
D03*
Y86742D02*
D03*
X144564D02*
D03*
Y83592D02*
D03*
Y80443D02*
D03*
Y77293D02*
D03*
Y74143D02*
D03*
Y70994D02*
D03*
Y67844D02*
D03*
Y64695D02*
D03*
Y61545D02*
D03*
Y58395D02*
D03*
Y55246D02*
D03*
D43*
X186690Y90285D02*
D03*
X183540D02*
D03*
X180391D02*
D03*
X177241D02*
D03*
X174091D02*
D03*
X170942D02*
D03*
X167792D02*
D03*
X164643D02*
D03*
X161493D02*
D03*
X158343D02*
D03*
X155194D02*
D03*
X152044D02*
D03*
X148895D02*
D03*
Y51702D02*
D03*
X152044D02*
D03*
X155194D02*
D03*
X158343D02*
D03*
X161493D02*
D03*
X164643D02*
D03*
X167792D02*
D03*
X170942D02*
D03*
X174091D02*
D03*
X177241D02*
D03*
X180391D02*
D03*
X183540D02*
D03*
X186690D02*
D03*
D44*
X167792Y70994D02*
D03*
X160017Y63218D02*
D03*
X167792D02*
D03*
X175568Y70994D02*
D03*
Y78769D02*
D03*
X167792D02*
D03*
X160017D02*
D03*
Y70994D02*
D03*
D45*
X191217Y51506D02*
D03*
Y90482D02*
D03*
X144367D02*
D03*
Y51506D02*
D03*
D46*
X199497Y56551D02*
D03*
Y61866D02*
D03*
X207470Y56476D02*
D03*
Y61791D02*
D03*
D47*
X134826Y130764D02*
D03*
D48*
X127936Y121413D02*
D03*
X129904D02*
D03*
X131873D02*
D03*
X133841D02*
D03*
X135810D02*
D03*
X137778D02*
D03*
X139747D02*
D03*
X141715D02*
D03*
Y140114D02*
D03*
X139747D02*
D03*
X137778D02*
D03*
X135810D02*
D03*
X133841D02*
D03*
X131873D02*
D03*
X129904D02*
D03*
X127936D02*
D03*
D49*
X144176Y123874D02*
D03*
Y125842D02*
D03*
Y127811D02*
D03*
Y129780D02*
D03*
Y131748D02*
D03*
Y133716D02*
D03*
Y135685D02*
D03*
Y137654D02*
D03*
X125475D02*
D03*
Y135685D02*
D03*
Y133716D02*
D03*
Y131748D02*
D03*
Y129780D02*
D03*
Y127811D02*
D03*
Y125842D02*
D03*
Y123874D02*
D03*
D50*
X157480Y234646D02*
D03*
X160039D02*
D03*
X162598D02*
D03*
Y242520D02*
D03*
X157480D02*
D03*
D51*
X183453Y210039D02*
D03*
Y212008D02*
D03*
Y213976D02*
D03*
Y215945D02*
D03*
Y217913D02*
D03*
Y219882D02*
D03*
X198437D02*
D03*
Y217913D02*
D03*
Y215945D02*
D03*
Y213976D02*
D03*
Y212008D02*
D03*
Y210039D02*
D03*
D52*
X186024Y222453D02*
D03*
X187992D02*
D03*
X189961D02*
D03*
X191929D02*
D03*
X193898D02*
D03*
X195866D02*
D03*
Y207468D02*
D03*
X193898D02*
D03*
X191929D02*
D03*
X189961D02*
D03*
X187992D02*
D03*
D53*
X186024D02*
D03*
D54*
X39370Y186614D02*
D03*
D55*
X43898D02*
D03*
D56*
X24740Y171778D02*
D03*
Y173746D02*
D03*
Y169809D02*
D03*
Y175715D02*
D03*
Y167841D02*
D03*
Y177683D02*
D03*
Y165872D02*
D03*
Y179652D02*
D03*
D57*
Y185360D02*
D03*
Y182211D02*
D03*
Y163313D02*
D03*
Y160163D02*
D03*
D58*
X36614Y168110D02*
D03*
Y173228D02*
D03*
X44488D02*
D03*
Y170669D02*
D03*
Y168110D02*
D03*
D59*
X76970Y52987D02*
D03*
Y69325D02*
D03*
X30985Y53430D02*
D03*
Y69769D02*
D03*
X53981Y69491D02*
D03*
Y53152D02*
D03*
D62*
X124705Y70079D02*
D03*
X118602D02*
D03*
X104429D02*
D03*
X110531D02*
D03*
D63*
X179921Y183465D02*
D03*
X35433Y196850D02*
D03*
X58268Y256299D02*
D03*
X150000Y187008D02*
D03*
X177034Y168110D02*
D03*
X190551D02*
D03*
X150000D02*
D03*
X163517D02*
D03*
X163386Y187008D02*
D03*
D64*
X181475Y257826D02*
D03*
X192498D02*
D03*
D65*
X187380Y244954D02*
D03*
D66*
X190982Y247513D02*
D03*
Y244954D02*
D03*
Y242395D02*
D03*
X183778D02*
D03*
Y244954D02*
D03*
Y247513D02*
D03*
D67*
X48622Y208268D02*
D03*
X42717D02*
D03*
D68*
X21161Y218504D02*
D03*
X15846D02*
D03*
Y211024D02*
D03*
X21161D02*
D03*
X15846Y203543D02*
D03*
X21161D02*
D03*
D69*
X38936Y225585D02*
D03*
D70*
Y229325D02*
D03*
Y233065D02*
D03*
X30665D02*
D03*
Y225585D02*
D03*
D71*
X92126Y116423D02*
D03*
Y119798D02*
D03*
D101*
X190945Y214961D02*
D03*
D131*
X20527Y161384D02*
D03*
Y184140D02*
D03*
D132*
X175568Y63218D02*
D03*
D133*
X119190Y52131D02*
D03*
X111316D02*
D03*
X155337Y261264D02*
D03*
X163211D02*
D03*
D134*
X120844Y62485D02*
D03*
X115725D02*
D03*
X118284D02*
D03*
X113166D02*
D03*
X110607D02*
D03*
X153683Y250910D02*
D03*
X158801D02*
D03*
X156242D02*
D03*
X161360D02*
D03*
X163919D02*
D03*
D135*
X220472Y145669D02*
X226476D01*
X231004D02*
X231201Y145472D01*
X243701D01*
X243898D02*
X244094Y145276D01*
X243701Y145472D02*
X243898D01*
X174016Y214173D02*
X176378D01*
X161811Y214173D02*
X169390D01*
X173622Y214567D02*
X174016Y214173D01*
X168898Y220571D02*
X169390Y220079D01*
X168898Y220571D02*
Y224016D01*
X161352Y224004D02*
X161361Y223995D01*
X174604Y220278D02*
X175000Y219882D01*
X126083Y245276D02*
X126189Y245382D01*
X68504Y255118D02*
X68898Y255512D01*
X74016Y239764D02*
Y243012D01*
X111417Y239764D02*
X111417Y239764D01*
Y243012D01*
X99902Y247342D02*
X100098Y247146D01*
X100295Y242913D02*
X100394Y243012D01*
X94882Y239764D02*
Y243012D01*
X94882Y243012D01*
X132283Y239764D02*
X132283Y239764D01*
Y243012D01*
X68110Y235827D02*
X75590D01*
X77953Y232283D02*
X82284D01*
X92520Y234646D02*
X93701Y235827D01*
X102362D01*
X103445Y234744D01*
Y233465D02*
Y234744D01*
X92520Y232677D02*
Y234646D01*
X107874Y232283D02*
X109055Y231102D01*
X98917Y225197D02*
Y232283D01*
X109055Y222835D02*
Y231102D01*
X75590Y235827D02*
X76673Y234744D01*
Y232382D02*
Y234744D01*
Y232382D02*
X76772Y232283D01*
X83022Y232318D02*
X83111Y232408D01*
X103347Y232283D02*
X107874D01*
X66929Y234646D02*
X68110Y235827D01*
X66929Y220079D02*
Y234646D01*
X107894Y180538D02*
X107915Y180559D01*
X107894Y166949D02*
Y180538D01*
X107874Y166929D02*
X107894Y166949D01*
X96063Y221654D02*
X107874D01*
X109055Y222835D01*
X103445Y225197D02*
X106771D01*
X94113Y211439D02*
Y219704D01*
X68094Y180315D02*
X71644D01*
X66913Y179134D02*
X68094Y180315D01*
X66535Y179134D02*
X66913D01*
X66929Y220079D02*
X68504Y218504D01*
X69291Y224803D02*
X72047D01*
X63386Y214961D02*
X76378D01*
X68504Y218504D02*
X77559D01*
X79921Y216142D01*
X62595Y214170D02*
X63386Y214961D01*
X62595Y209449D02*
Y214170D01*
X90548Y216142D02*
X92132Y214557D01*
X79921Y216142D02*
X90548D01*
X92132Y212214D02*
Y214557D01*
X68894Y196066D02*
Y200787D01*
X77165Y198031D02*
X79176D01*
X77165Y196063D02*
Y197638D01*
X69685Y195276D02*
X76378D01*
X68894Y196066D02*
X69685Y195276D01*
X76378D02*
X77165Y196063D01*
X76378Y214961D02*
X77089Y214249D01*
Y212281D02*
Y214249D01*
Y212281D02*
X77165Y212205D01*
X79176D01*
X109883Y173658D02*
X112281Y171260D01*
X111852Y177518D02*
Y180559D01*
X109883Y173658D02*
Y180559D01*
X112281Y171260D02*
X112598D01*
X111852Y177518D02*
X113779Y175591D01*
X117323D01*
X98648Y224928D02*
X98917Y225197D01*
X92560Y224928D02*
X98648D01*
X94113Y219704D02*
X96063Y221654D01*
X76772Y227559D02*
X77881Y228668D01*
X83111D01*
X76772Y224803D02*
Y227559D01*
X76246Y221522D02*
X76772Y222047D01*
X75984Y220866D02*
X76246Y221128D01*
Y221522D01*
X76772Y222047D02*
Y224410D01*
X83858Y212205D02*
X84005Y212058D01*
X79527Y206693D02*
Y211853D01*
X84005Y212058D02*
X85176D01*
X79176Y212205D02*
X79527Y211853D01*
Y206693D02*
X81252Y204968D01*
X85176Y212058D02*
X88328Y208905D01*
X89411D01*
X81235Y203676D02*
X87214D01*
X81252Y204968D02*
X89411D01*
X79527Y201969D02*
X81235Y203676D01*
X87214D02*
X87779Y203111D01*
X89300D01*
X79527Y198383D02*
Y201969D01*
X79176Y198031D02*
X79527Y198383D01*
X89300Y203111D02*
X89411Y203000D01*
X375162Y99247D02*
X375197Y99213D01*
X195148Y77293D02*
X196029Y76412D01*
X191021Y77293D02*
X195148D01*
X199377Y65890D02*
X199462Y65806D01*
X199255Y76412D02*
X199377Y76290D01*
Y71763D02*
Y72437D01*
Y65890D02*
Y71763D01*
X196029Y76412D02*
X199255D01*
X173488Y234646D02*
X181022D01*
X187992Y227675D01*
X190982Y238757D02*
X191691Y238048D01*
X193659D01*
X190982Y238757D02*
Y242395D01*
X121930Y123748D02*
X123965D01*
X124633Y123800D02*
X124686Y123748D01*
X117717Y119535D02*
X121930Y123748D01*
X117717Y111811D02*
Y119535D01*
X123228Y115442D02*
X127802Y120016D01*
X123228Y111319D02*
Y115442D01*
X111024Y103543D02*
X116929D01*
X117717Y104331D01*
Y105512D01*
X110239Y104329D02*
X111024Y103543D01*
X106693Y139370D02*
X106693Y139370D01*
X193227Y244166D02*
X195195D01*
X155118Y245669D02*
X156242Y246794D01*
X150787Y245669D02*
X155118D01*
X98721Y139170D02*
X101769D01*
X101969Y139370D01*
X118832Y141806D02*
Y145210D01*
X118898Y145276D01*
X195276Y241406D02*
Y244322D01*
X179134Y227953D02*
X184646D01*
X186024Y226575D01*
Y222453D02*
Y226575D01*
X160138Y231201D02*
X160236Y231102D01*
X160138Y231201D02*
Y234547D01*
X160039Y234646D02*
X160138Y234547D01*
X156242Y246794D02*
Y250910D01*
X175591Y242520D02*
X178445D01*
X178740Y242815D01*
X195195Y244403D02*
X195276Y244322D01*
X176378Y214173D02*
X178150Y215945D01*
X175000Y219882D02*
X183453D01*
X178150Y215945D02*
X183453D01*
X106693Y139370D02*
X114575D01*
X187992Y222453D02*
Y227675D01*
X42126Y68110D02*
X42126Y68110D01*
Y71260D01*
X64961Y68110D02*
Y71260D01*
X64961Y68110D02*
X64961Y68110D01*
X88189Y68175D02*
Y71260D01*
X88026Y68012D02*
X88189Y68175D01*
X123228Y103642D02*
Y106791D01*
X120177Y149606D02*
X123721D01*
X146850Y111319D02*
Y114173D01*
Y111024D02*
Y111319D01*
Y103150D02*
Y106791D01*
X124803Y144488D02*
X125065Y144226D01*
X126254D01*
X127936Y142545D01*
X141715Y119308D02*
X146850Y114173D01*
X141715Y119308D02*
Y121413D01*
X24802Y165810D02*
X29072D01*
X29134Y165748D01*
X150000Y167717D02*
X150394Y168110D01*
X24740Y165872D02*
X24802Y165810D01*
X28678Y177621D02*
X28740Y177559D01*
X24802Y177621D02*
X28678D01*
X24740Y177683D02*
X24802Y177621D01*
X192456Y244937D02*
X193227Y244166D01*
X190982Y244954D02*
X191000Y244937D01*
X192456D01*
X184998Y236080D02*
X193659D01*
X183778Y237300D02*
Y242395D01*
Y237300D02*
X184998Y236080D01*
X35823Y225591D02*
X37004D01*
X30665Y230749D02*
X35823Y225591D01*
X30665Y230749D02*
Y233065D01*
X114575Y139370D02*
X122197Y131748D01*
X127802Y121280D02*
X127936Y121413D01*
X127802Y120016D02*
Y121280D01*
X127936Y140114D02*
Y142545D01*
X118832Y141806D02*
X122985Y137654D01*
X125475D01*
X124018Y123800D02*
X124633D01*
X122197Y131748D02*
X125475D01*
X123965Y123748D02*
X124018Y123800D01*
X111029Y102180D02*
X111211D01*
X111321Y102070D01*
X190510Y167675D02*
X190551Y167717D01*
X190510Y166888D02*
X190945Y167323D01*
X190510Y161504D02*
Y166888D01*
X190468Y161462D02*
X190510Y161504D01*
X177100Y161483D02*
Y167257D01*
Y161483D02*
X177165Y161417D01*
X177100Y167257D02*
X177165Y167323D01*
X163386Y161417D02*
X163451Y161483D01*
Y167388D01*
X163779Y167717D01*
X150000Y161417D02*
Y167717D01*
X177058Y167610D02*
X177165Y167717D01*
D136*
X139370Y220236D02*
Y220417D01*
X139370Y220417D02*
X139370Y220417D01*
X68894Y209449D02*
X70075Y210630D01*
X62205Y200397D02*
X62595Y200787D01*
X62205Y196457D02*
Y200397D01*
X77086Y201401D02*
Y205081D01*
X77123Y208573D02*
X77368Y208818D01*
X70075Y210630D02*
X72835D01*
X77123Y205081D02*
Y208573D01*
X375287Y97717D02*
Y99213D01*
Y97717D02*
X377412Y95592D01*
X377727D01*
X377805Y95513D01*
Y95199D02*
Y95513D01*
Y95199D02*
X378065Y94939D01*
X381553Y95073D02*
Y95592D01*
X383971Y98010D01*
Y99269D01*
X112992Y126772D02*
X119685D01*
X112205Y127559D02*
X112992Y126772D01*
X108150Y126897D02*
X112087D01*
X141014Y90482D02*
X144367D01*
X140945Y90551D02*
X141014Y90482D01*
X180315Y84252D02*
Y90341D01*
X112087Y126897D02*
X112127Y126937D01*
D137*
X174016Y209868D02*
X178124Y213976D01*
X183453D01*
X174016Y209842D02*
Y209868D01*
X185941Y207386D02*
X186024Y207468D01*
D138*
X177165Y209953D02*
X179220Y212008D01*
X177165Y209842D02*
Y209953D01*
X179220Y212008D02*
X183453D01*
X84417Y219240D02*
Y220873D01*
X84433Y219224D02*
X84500Y219157D01*
X84417Y219240D02*
X84433Y219224D01*
X81957D02*
X84433D01*
X83111Y222179D02*
X84417Y220873D01*
X81890Y219291D02*
X81957Y219224D01*
X83111Y222179D02*
Y224928D01*
X204103Y213976D02*
X204380Y213700D01*
X198437Y213976D02*
X204103D01*
X204380Y213700D02*
X204642D01*
X188583Y230393D02*
Y230709D01*
Y230393D02*
X189961Y229014D01*
Y222453D02*
Y229014D01*
X191932Y229017D02*
X193307Y230393D01*
X191932Y222456D02*
Y229017D01*
X193307Y230393D02*
Y230709D01*
X191929Y222453D02*
X191932Y222456D01*
D139*
X43267Y161458D02*
X52009D01*
X41114Y165223D02*
X43739Y162598D01*
X41114Y165223D02*
Y169909D01*
X43739Y162598D02*
X51536D01*
X39974Y164751D02*
X43267Y161458D01*
X39974Y164751D02*
Y169437D01*
X55472Y164920D02*
Y188110D01*
X58347Y190985D02*
X79962D01*
X57874Y192126D02*
X79489D01*
X55472Y188110D02*
X58347Y190985D01*
X54331Y165393D02*
Y188583D01*
X57874Y192126D01*
X51536Y162598D02*
X54331Y165393D01*
X52009Y161458D02*
X55472Y164920D01*
X36564Y167841D02*
Y169963D01*
X87715Y196680D02*
X88129Y197094D01*
X89411D01*
X84043Y196680D02*
X87715D01*
X79489Y192126D02*
X84043Y196680D01*
X36824Y171364D02*
X39660D01*
X36564Y171624D02*
X36824Y171364D01*
X39660D02*
X41114Y169909D01*
X27994Y172038D02*
Y175156D01*
X27674Y175476D02*
X27994Y175156D01*
X27733Y171778D02*
X27994Y172038D01*
X25197Y175591D02*
X25311Y175476D01*
X27674D01*
X24988Y171778D02*
X27733D01*
X36564Y171624D02*
Y171624D01*
Y172959D01*
X36303Y171364D02*
X36564Y171624D01*
X27448Y171364D02*
X36303D01*
X24740Y171778D02*
X25109Y171409D01*
X27402D02*
X27448Y171364D01*
X25109Y171409D02*
X27402D01*
X84516Y195540D02*
X87715D01*
X88129Y195126D02*
X89411D01*
X87715Y195540D02*
X88129Y195126D01*
X81496Y192520D02*
X84516Y195540D01*
X81093Y192116D02*
X81496Y192520D01*
X81093Y192116D02*
Y192116D01*
X79962Y190985D02*
X81093Y192116D01*
X39187Y170223D02*
X39974Y169437D01*
X27448Y170223D02*
X36303D01*
X27402Y170178D02*
X27448Y170223D01*
X36303D02*
X39187D01*
X25109Y170178D02*
X27402D01*
X23988Y173449D02*
X24285Y173746D01*
X21747Y173449D02*
X23988D01*
X21486Y173189D02*
X21747Y173449D01*
X36303Y170223D02*
X36564Y169963D01*
X24740Y169809D02*
X25109Y170178D01*
X21486Y170069D02*
Y173189D01*
X21747Y169809D02*
X24740D01*
X21486Y170069D02*
X21747Y169809D01*
X140748Y82519D02*
X142703D01*
X116182Y73269D02*
X133111D01*
X141221Y81378D02*
X142614D01*
X133111Y73269D02*
X141221Y81378D01*
X132639Y74410D02*
X140748Y82519D01*
X115709Y74410D02*
X132639D01*
X142614Y81378D02*
X142984Y81008D01*
X142703Y82519D02*
X143776Y83592D01*
X144564D01*
X143999Y81008D02*
X144564Y80443D01*
X142984Y81008D02*
X143999D01*
X113875Y72575D02*
X115709Y74410D01*
X115016Y72103D02*
X116182Y73269D01*
X200088Y226063D02*
X202055Y228030D01*
X200914Y228502D02*
Y229643D01*
X199615Y227204D02*
X200914Y228502D01*
X202969Y230557D02*
Y230709D01*
X200000Y230557D02*
X200914Y229643D01*
X202055D02*
X202969Y230557D01*
X202055Y228030D02*
Y229643D01*
X200000Y230557D02*
Y230709D01*
X153776Y239198D02*
X158985D01*
X152817Y237098D02*
X153776Y238057D01*
X152817Y240158D02*
X153776Y239198D01*
X152756Y240158D02*
X152817D01*
X153776Y238057D02*
X159457D01*
X160651Y239251D01*
X152756Y237098D02*
X152817D01*
X160651Y239251D02*
Y242780D01*
X158985Y239198D02*
X159510Y239724D01*
X195452Y224903D02*
X196613Y226063D01*
X200088D01*
X195452Y224275D02*
X195866Y223861D01*
X195452Y224275D02*
Y224903D01*
X195866Y222453D02*
Y223861D01*
X159510Y242780D02*
Y248331D01*
X159250Y242520D02*
X159510Y242780D01*
Y239724D02*
Y242780D01*
X158801Y249040D02*
Y250910D01*
Y249040D02*
X159510Y248331D01*
X157480Y242520D02*
X159250D01*
X157283D02*
X157480D01*
X196140Y227204D02*
X199615D01*
X194311Y225375D02*
X196140Y227204D01*
X193898Y223861D02*
X194311Y224275D01*
Y225375D01*
X193898Y222453D02*
Y223861D01*
X161360Y249040D02*
Y250910D01*
X160651Y248331D02*
X161360Y249040D01*
X160911Y242520D02*
X162598D01*
X160651Y242780D02*
X160911Y242520D01*
X160651Y242780D02*
Y248331D01*
X115016Y70098D02*
Y72103D01*
X113875Y69819D02*
Y72575D01*
X115016Y69936D02*
Y70098D01*
X117975D02*
X118580Y69493D01*
X110531Y70079D02*
X113615D01*
X113875Y69819D01*
X113166Y64355D02*
X113875Y65064D01*
Y69819D01*
X113166Y62485D02*
Y64355D01*
X115178Y70098D02*
X117975D01*
X115016Y69936D02*
X115178Y70098D01*
X115725Y62485D02*
Y64355D01*
X115016Y65064D02*
Y69936D01*
Y65064D02*
X115725Y64355D01*
D140*
X77165Y179489D02*
X78544Y178110D01*
X78740D01*
X77165Y179489D02*
Y181732D01*
D141*
X420866Y175197D02*
D03*
X410866D02*
D03*
X420866Y185197D02*
D03*
X410866D02*
D03*
X420866Y195197D02*
D03*
X410866D02*
D03*
X420866Y205197D02*
D03*
X410866D02*
D03*
X420866Y215197D02*
D03*
X410866D02*
D03*
X420866Y225197D02*
D03*
Y88976D02*
D03*
X410866D02*
D03*
X420866Y98976D02*
D03*
X410866D02*
D03*
X420866Y108976D02*
D03*
X410866D02*
D03*
X420866Y118976D02*
D03*
X410866D02*
D03*
X420866Y128976D02*
D03*
X410866D02*
D03*
X420866Y138976D02*
D03*
D142*
X410866Y225197D02*
D03*
Y138976D02*
D03*
D143*
X359145Y61027D02*
D03*
X390641D02*
D03*
D144*
X415161Y58518D02*
D03*
X414961Y255512D02*
D03*
X11667Y255312D02*
D03*
X10486Y58068D02*
D03*
D145*
X22496Y189770D02*
D03*
Y155754D02*
D03*
D146*
X6039Y189770D02*
D03*
Y155754D02*
D03*
D147*
X105883Y62406D02*
D03*
X125568D02*
D03*
X168644Y250989D02*
D03*
X148959D02*
D03*
D148*
X101946Y51737D02*
D03*
X129466D02*
D03*
X172581Y261658D02*
D03*
X145061D02*
D03*
D149*
X397244Y259606D02*
D03*
Y249606D02*
D03*
X387244Y259606D02*
D03*
Y249606D02*
D03*
X377244Y259606D02*
D03*
Y249606D02*
D03*
X367244Y259606D02*
D03*
Y249606D02*
D03*
X357244Y259606D02*
D03*
Y249606D02*
D03*
X347244Y259606D02*
D03*
Y249606D02*
D03*
X337244Y259606D02*
D03*
Y249606D02*
D03*
X327244Y259606D02*
D03*
Y249606D02*
D03*
X317244Y259606D02*
D03*
Y249606D02*
D03*
X307244Y259606D02*
D03*
Y249606D02*
D03*
X297244Y259606D02*
D03*
Y249606D02*
D03*
X287244Y259606D02*
D03*
Y249606D02*
D03*
X277244Y259606D02*
D03*
Y249606D02*
D03*
X267244Y259606D02*
D03*
Y249606D02*
D03*
X257244Y259606D02*
D03*
Y249606D02*
D03*
X247244Y259606D02*
D03*
Y249606D02*
D03*
X237244Y259606D02*
D03*
Y249606D02*
D03*
X227244Y259606D02*
D03*
Y249606D02*
D03*
X217244Y259606D02*
D03*
Y249606D02*
D03*
X207244Y259606D02*
D03*
D150*
Y249606D02*
D03*
D151*
X66496Y117815D02*
D03*
Y97815D02*
D03*
X56496Y102815D02*
D03*
X66496Y107815D02*
D03*
X56496Y112815D02*
D03*
Y122815D02*
D03*
X66496Y127815D02*
D03*
D152*
X31496Y137795D02*
D03*
Y92795D02*
D03*
D153*
X43504Y84803D02*
D03*
Y145787D02*
D03*
D154*
X12205Y99213D02*
D03*
Y89213D02*
D03*
Y131378D02*
D03*
Y141378D02*
D03*
D155*
X56496Y132815D02*
D03*
D156*
X198786Y247723D02*
D03*
X251969Y129528D02*
D03*
X250394Y117323D02*
D03*
X248819Y121260D02*
D03*
X253543Y117323D02*
D03*
X252362Y170866D02*
D03*
X257087D02*
D03*
X260630Y155905D02*
D03*
X281102Y209842D02*
D03*
Y205118D02*
D03*
X271654Y209842D02*
D03*
Y205118D02*
D03*
X279134Y191732D02*
D03*
X274803D02*
D03*
X281496Y183071D02*
D03*
X272047D02*
D03*
X297244Y201181D02*
D03*
X260236Y164173D02*
D03*
X248819Y161811D02*
D03*
Y164961D02*
D03*
Y167717D02*
D03*
X260630Y151969D02*
D03*
X248819Y154331D02*
D03*
Y151181D02*
D03*
X233071Y150787D02*
D03*
X237795D02*
D03*
X238189Y121653D02*
D03*
X332677Y146850D02*
D03*
X332714Y149530D02*
D03*
X332677Y143701D02*
D03*
X332714Y158979D02*
D03*
Y164491D02*
D03*
X346850Y163386D02*
D03*
X343307Y169291D02*
D03*
X233071Y160236D02*
D03*
X206299Y144488D02*
D03*
X201575D02*
D03*
X196732Y156327D02*
D03*
X196850Y144488D02*
D03*
X248819Y147638D02*
D03*
X237795Y160236D02*
D03*
X290945Y201181D02*
D03*
X285039D02*
D03*
X401575Y50000D02*
D03*
X344882Y62598D02*
D03*
X380315Y64961D02*
D03*
X387402D02*
D03*
X373622D02*
D03*
X366929D02*
D03*
X139370Y213386D02*
D03*
X144095D02*
D03*
X148819D02*
D03*
X137795Y225984D02*
D03*
X168898Y224016D02*
D03*
X177165Y209842D02*
D03*
X361142Y194854D02*
D03*
X361024Y206693D02*
D03*
X356299D02*
D03*
X351575D02*
D03*
X344094Y95669D02*
D03*
X401575D02*
D03*
X68504Y122835D02*
D03*
X74017Y239432D02*
D03*
X78347Y250787D02*
D03*
X132285Y239826D02*
D03*
X111419D02*
D03*
X117717Y250394D02*
D03*
X126378Y239764D02*
D03*
X137795Y240158D02*
D03*
X105905Y239764D02*
D03*
X88583Y239764D02*
D03*
X94882Y239764D02*
D03*
X100394D02*
D03*
X57087Y218898D02*
D03*
X48031Y224016D02*
D03*
X95276Y164567D02*
D03*
X94260Y176980D02*
D03*
X112598Y171260D02*
D03*
X94882Y170866D02*
D03*
X104724Y166929D02*
D03*
X101585Y164566D02*
D03*
X90945Y174016D02*
D03*
X82677Y169685D02*
D03*
X88583Y167323D02*
D03*
X77953Y173622D02*
D03*
X107874Y166929D02*
D03*
X117323Y175591D02*
D03*
X53543Y210630D02*
D03*
X57087D02*
D03*
X53543Y202756D02*
D03*
X57087D02*
D03*
X53543Y206693D02*
D03*
X57087D02*
D03*
X96457Y191339D02*
D03*
X112595Y205906D02*
D03*
X94095Y187008D02*
D03*
X130315Y195669D02*
D03*
X103934Y185039D02*
D03*
X114567Y197244D02*
D03*
X105508Y196063D02*
D03*
X124405Y196985D02*
D03*
X96457Y207087D02*
D03*
X115745Y205906D02*
D03*
X114170Y187402D02*
D03*
X130355Y188172D02*
D03*
X103934Y205906D02*
D03*
X96457Y201575D02*
D03*
X124406Y187303D02*
D03*
X106771Y225197D02*
D03*
X131496Y230709D02*
D03*
X116134Y218839D02*
D03*
X117713Y216142D02*
D03*
X114564D02*
D03*
X106693Y228740D02*
D03*
X103999Y215821D02*
D03*
X75984Y220866D02*
D03*
X81890Y219291D02*
D03*
X69291Y228346D02*
D03*
Y224803D02*
D03*
X79134Y220866D02*
D03*
X73017Y220788D02*
D03*
X90932Y219301D02*
D03*
X86216Y207253D02*
D03*
X86268Y201392D02*
D03*
X72835Y210630D02*
D03*
X66394Y178969D02*
D03*
Y182513D02*
D03*
X78740Y178110D02*
D03*
X83858Y212205D02*
D03*
X83845Y209065D02*
D03*
X83667Y199772D02*
D03*
X85812Y191735D02*
D03*
X77123Y205081D02*
D03*
X62205Y196457D02*
D03*
X66394Y186056D02*
D03*
X81680Y197566D02*
D03*
X83006Y190652D02*
D03*
X375287Y99247D02*
D03*
X383971Y99269D02*
D03*
X116535Y129921D02*
D03*
X140945Y90551D02*
D03*
X116535Y123622D02*
D03*
X163287Y55905D02*
D03*
X167717Y83465D02*
D03*
X155118Y63386D02*
D03*
Y78740D02*
D03*
Y70866D02*
D03*
Y55905D02*
D03*
X159843Y83465D02*
D03*
X171457Y55905D02*
D03*
X207371Y52909D02*
D03*
Y65902D02*
D03*
X195954Y90311D02*
D03*
X180315Y70866D02*
D03*
Y78740D02*
D03*
X195954Y87161D02*
D03*
X175591Y83465D02*
D03*
X199497Y52909D02*
D03*
X179626Y55905D02*
D03*
X187795D02*
D03*
X180315Y63386D02*
D03*
X199462Y65806D02*
D03*
X203434Y65902D02*
D03*
X146850Y103543D02*
D03*
X134826Y130764D02*
D03*
X130495Y126433D02*
D03*
Y130764D02*
D03*
Y135094D02*
D03*
X134826Y126433D02*
D03*
Y135094D02*
D03*
X139156Y126433D02*
D03*
Y130764D02*
D03*
Y135094D02*
D03*
X25197Y211146D02*
D03*
X119685Y126772D02*
D03*
Y130709D02*
D03*
X126772Y114961D02*
D03*
X88189Y74410D02*
D03*
X92126Y132835D02*
D03*
X100394Y133465D02*
D03*
X188583Y230709D02*
D03*
X193307D02*
D03*
X196926Y230728D02*
D03*
X190945Y232677D02*
D03*
X200000Y230709D02*
D03*
X202969D02*
D03*
X206299D02*
D03*
X150787Y245669D02*
D03*
X122047Y146063D02*
D03*
X98721Y139170D02*
D03*
X39315Y208232D02*
D03*
X25197Y203543D02*
D03*
X38109Y220079D02*
D03*
X41339Y220079D02*
D03*
X47942Y240140D02*
D03*
X118898Y145276D02*
D03*
X195276Y241406D02*
D03*
X152756Y234130D02*
D03*
Y240158D02*
D03*
Y237098D02*
D03*
X179134Y227953D02*
D03*
Y224803D02*
D03*
X152756Y243307D02*
D03*
X160236Y231102D02*
D03*
X175591Y242520D02*
D03*
X50981Y260630D02*
D03*
Y253543D02*
D03*
X190945Y218898D02*
D03*
Y214961D02*
D03*
Y211024D02*
D03*
X194882Y218898D02*
D03*
Y214961D02*
D03*
Y211024D02*
D03*
X187008Y218898D02*
D03*
Y214961D02*
D03*
Y211024D02*
D03*
X61417Y146457D02*
D03*
X58268D02*
D03*
X135039Y144882D02*
D03*
X137522Y146537D02*
D03*
X42232Y74536D02*
D03*
X65066D02*
D03*
X64961Y71260D02*
D03*
X42126D02*
D03*
X88189Y71260D02*
D03*
X87795Y50394D02*
D03*
X65104Y50472D02*
D03*
X42126Y50866D02*
D03*
X123228Y103642D02*
D03*
X120177Y149606D02*
D03*
X14173Y116142D02*
D03*
Y121260D02*
D03*
X204642Y213700D02*
D03*
X124803Y144488D02*
D03*
X139764Y116142D02*
D03*
X142873Y114920D02*
D03*
X175197Y206693D02*
D03*
X197244Y255906D02*
D03*
Y260236D02*
D03*
X11024Y218110D02*
D03*
Y221811D02*
D03*
X11417Y211811D02*
D03*
X48819Y170473D02*
D03*
X92005Y103637D02*
D03*
X129804Y116268D02*
D03*
X97123Y103637D02*
D03*
X9449Y176772D02*
D03*
X207406Y211737D02*
D03*
X29134Y191339D02*
D03*
Y154331D02*
D03*
X9449Y170079D02*
D03*
X32283Y165748D02*
D03*
X28740Y177559D02*
D03*
X29134Y157087D02*
D03*
Y159843D02*
D03*
Y185827D02*
D03*
X31496Y175984D02*
D03*
X29134Y188583D02*
D03*
X61024Y224016D02*
D03*
X11024Y227874D02*
D03*
Y233937D02*
D03*
X57087Y224016D02*
D03*
X101698Y69978D02*
D03*
X127582Y70271D02*
D03*
X92126Y122835D02*
D03*
X57087Y245276D02*
D03*
X57083Y240158D02*
D03*
X51968Y245276D02*
D03*
X48028Y245276D02*
D03*
X44682Y253543D02*
D03*
Y260630D02*
D03*
X37497D02*
D03*
Y253543D02*
D03*
X30312D02*
D03*
Y260630D02*
D03*
X24409Y260630D02*
D03*
Y253543D02*
D03*
X22835Y246063D02*
D03*
X61020Y240158D02*
D03*
X51879Y240140D02*
D03*
X51968Y224016D02*
D03*
X25197Y218504D02*
D03*
X22831Y239764D02*
D03*
Y223228D02*
D03*
X19682D02*
D03*
X19288Y239764D02*
D03*
X11024Y240000D02*
D03*
X5906Y227949D02*
D03*
Y215748D02*
D03*
Y240150D02*
D03*
Y234050D02*
D03*
X61024Y245276D02*
D03*
X5906Y221849D02*
D03*
X187274Y246583D02*
D03*
Y243433D02*
D03*
X190468Y161462D02*
D03*
X180315Y161417D02*
D03*
X193701Y161417D02*
D03*
X150000D02*
D03*
X153150D02*
D03*
X163386D02*
D03*
X166619Y161372D02*
D03*
X177165Y161417D02*
D03*
X42850Y112155D02*
D03*
X149293Y130071D02*
D03*
X152347Y129676D02*
D03*
X112087Y120204D02*
D03*
X101181Y120473D02*
D03*
X106749Y120211D02*
D03*
X152390Y132373D02*
D03*
X149293Y132702D02*
D03*
X29134Y165748D02*
D03*
X105883Y51776D02*
D03*
X125174D02*
D03*
X168928Y261367D02*
D03*
X149636D02*
D03*
X153382Y181907D02*
D03*
X150000Y181890D02*
D03*
X163386D02*
D03*
M02*
