G04*
G04 #@! TF.GenerationSoftware,Altium Limited,Altium Designer,22.9.1 (49)*
G04*
G04 Layer_Color=32768*
%FSLAX25Y25*%
%MOIN*%
G70*
G04*
G04 #@! TF.SameCoordinates,09DA8A7C-0E06-47C8-8122-5E973528E8BD*
G04*
G04*
G04 #@! TF.FilePolarity,Positive*
G04*
G01*
G75*
%ADD10C,0.00394*%
%ADD12C,0.00787*%
%ADD168C,0.00197*%
D10*
X275512Y209842D02*
X277559D01*
X276535Y208819D02*
Y210866D01*
X275590Y205118D02*
X277638D01*
X276614Y204095D02*
Y206142D01*
X232047Y155512D02*
X234095D01*
X233071Y154488D02*
Y156535D01*
X237795Y154488D02*
Y156535D01*
X236772Y155512D02*
X238819D01*
X301629Y94248D02*
X303676D01*
X302652Y93224D02*
Y95272D01*
X273676Y94248D02*
X275723D01*
X274700Y93224D02*
Y95272D01*
X250448Y94248D02*
X252495D01*
X251471Y93224D02*
Y95272D01*
X227613Y94248D02*
X229660D01*
X228637Y93224D02*
Y95272D01*
X201575Y148819D02*
Y150866D01*
X200551Y149843D02*
X202598D01*
X206299Y148819D02*
Y150866D01*
X205276Y149843D02*
X207323D01*
X196850Y148819D02*
Y150866D01*
X195827Y149843D02*
X197874D01*
X201102Y156693D02*
X203150D01*
X202126Y155669D02*
Y157717D01*
X228740Y144587D02*
Y146752D01*
X227658Y145669D02*
X229823D01*
X223917Y143504D02*
X233563D01*
X223917Y147835D02*
X233563D01*
Y143504D02*
Y147835D01*
X223917Y143504D02*
Y147835D01*
X216220Y148031D02*
Y151969D01*
X214252Y150000D02*
X218189D01*
X283858Y154331D02*
X287795D01*
X285827Y152362D02*
Y156299D01*
X371752Y54331D02*
X375492D01*
X373622Y52461D02*
Y56201D01*
X379232Y54331D02*
X381398D01*
X380315Y53248D02*
Y55413D01*
X378150Y49508D02*
Y59153D01*
X382480Y49508D02*
Y59153D01*
X378150Y49508D02*
X382480D01*
X378150Y59153D02*
X382480D01*
X392618Y70472D02*
X394783D01*
X393701Y69390D02*
Y71555D01*
X395866Y65650D02*
Y75295D01*
X391535Y65650D02*
Y75295D01*
X395866D01*
X391535Y65650D02*
X395866D01*
X379232Y70472D02*
X381398D01*
X380315Y69390D02*
Y71555D01*
X378150Y65650D02*
Y75295D01*
X382480Y65650D02*
Y75295D01*
X378150Y65650D02*
X382480D01*
X378150Y75295D02*
X382480D01*
X372539Y70472D02*
X374705D01*
X373622Y69390D02*
Y71555D01*
X371457Y65650D02*
Y75295D01*
X375787Y65650D02*
Y75295D01*
X371457Y65650D02*
X375787D01*
X371457Y75295D02*
X375787D01*
X386319Y70472D02*
X388484D01*
X387402Y69390D02*
Y71555D01*
X385236Y65650D02*
Y75295D01*
X389567Y65650D02*
Y75295D01*
X385236Y65650D02*
X389567D01*
X385236Y75295D02*
X389567D01*
X365846Y70472D02*
X368012D01*
X366929Y69390D02*
Y71555D01*
X364764Y65650D02*
Y75295D01*
X369094Y65650D02*
Y75295D01*
X364764Y65650D02*
X369094D01*
X364764Y75295D02*
X369094D01*
X171653Y218996D02*
Y221161D01*
X170571Y220079D02*
X172736D01*
X166831Y222244D02*
X176476D01*
X166831Y217913D02*
X176476D01*
X166831D02*
Y222244D01*
X176476Y217913D02*
Y222244D01*
X171653Y213090D02*
Y215256D01*
X170571Y214173D02*
X172736D01*
X166831Y216339D02*
X176476D01*
X166831Y212008D02*
X176476D01*
X166831D02*
Y216339D01*
X176476Y212008D02*
Y216339D01*
X158436Y217705D02*
Y221642D01*
X156468Y219674D02*
X160405D01*
X138347Y218504D02*
X140394D01*
X139370Y217480D02*
Y219528D01*
X147739Y218483D02*
X149787D01*
X148763Y217460D02*
Y219507D01*
X144095Y217480D02*
Y219528D01*
X143071Y218504D02*
X145118D01*
X354882Y194882D02*
X356929D01*
X355906Y193858D02*
Y195905D01*
X356299Y200551D02*
Y202598D01*
X355276Y201575D02*
X357323D01*
X361024Y200551D02*
Y202598D01*
X360000Y201575D02*
X362047D01*
X328346Y204035D02*
Y206201D01*
X327264Y205118D02*
X329429D01*
X323524Y207283D02*
X333169D01*
X323524Y202953D02*
X333169D01*
X323524D02*
Y207283D01*
X333169Y202953D02*
Y207283D01*
X341535Y199213D02*
Y203150D01*
X339567Y201181D02*
X343504D01*
X351575Y200551D02*
Y202598D01*
X350551Y201575D02*
X352598D01*
X334252Y64173D02*
X338189D01*
X336221Y62205D02*
Y66142D01*
X327165Y74508D02*
Y76673D01*
X326083Y75590D02*
X328248D01*
X322342Y73425D02*
X331988D01*
X322342Y77756D02*
X331988D01*
Y73425D02*
Y77756D01*
X322342Y73425D02*
Y77756D01*
X325512Y85827D02*
X327559D01*
X326535Y84803D02*
Y86850D01*
X307480Y64173D02*
X311417D01*
X309449Y62205D02*
Y66142D01*
X327165Y79626D02*
Y81791D01*
X326083Y80709D02*
X328248D01*
X322342Y82874D02*
X331988D01*
X322342Y78543D02*
X331988D01*
X322342D02*
Y82874D01*
X331988Y78543D02*
Y82874D01*
X297342Y67323D02*
X299508D01*
X298425Y66240D02*
Y68405D01*
X300591Y62500D02*
Y72146D01*
X296260Y62500D02*
Y72146D01*
X300591D01*
X296260Y62500D02*
X300591D01*
X288740Y76378D02*
X290787D01*
X289764Y75354D02*
Y77402D01*
X318307Y53543D02*
X322244D01*
X320276Y51575D02*
Y55512D01*
X87106Y258465D02*
X90847D01*
X88976Y256594D02*
Y260335D01*
X92716Y240453D02*
X97047D01*
X92716Y250098D02*
X97047D01*
X92716Y240453D02*
Y250098D01*
X97047Y240453D02*
Y250098D01*
X94882Y244193D02*
Y246358D01*
X93799Y245276D02*
X95965D01*
X99311D02*
X101476D01*
X100394Y244193D02*
Y246358D01*
X102559Y240453D02*
Y250098D01*
X98228Y240453D02*
Y250098D01*
X102559D01*
X98228Y240453D02*
X102559D01*
X66634Y258268D02*
X70374D01*
X68504Y256398D02*
Y260138D01*
X67421Y245374D02*
X69587D01*
X68504Y244291D02*
Y246457D01*
X70669Y240551D02*
Y250197D01*
X66339Y240551D02*
Y250197D01*
X70669D01*
X66339Y240551D02*
X70669D01*
X71850Y240453D02*
X76181D01*
X71850Y250098D02*
X76181D01*
X71850Y240453D02*
Y250098D01*
X76181Y240453D02*
Y250098D01*
X74016Y244193D02*
Y246358D01*
X72933Y245276D02*
X75098D01*
X104823Y245276D02*
X106988D01*
X105905Y244193D02*
Y246358D01*
X108071Y240453D02*
Y250098D01*
X103740Y240453D02*
Y250098D01*
X108071D01*
X103740Y240453D02*
X108071D01*
X109252D02*
X113583D01*
X109252Y250098D02*
X113583D01*
X109252Y240453D02*
Y250098D01*
X113583Y240453D02*
Y250098D01*
X111417Y244193D02*
Y246358D01*
X110335Y245276D02*
X112500D01*
X111909Y258661D02*
X115650D01*
X113779Y256791D02*
Y260531D01*
X130118Y240453D02*
X134449D01*
X130118Y250098D02*
X134449D01*
X130118Y240453D02*
Y250098D01*
X134449Y240453D02*
Y250098D01*
X132283Y244193D02*
Y246358D01*
X131201Y245276D02*
X133366D01*
X136713D02*
X138878D01*
X137795Y244193D02*
Y246358D01*
X139961Y240453D02*
Y250098D01*
X135630Y240453D02*
Y250098D01*
X139961D01*
X135630Y240453D02*
X139961D01*
X133071Y256791D02*
Y260531D01*
X131201Y258661D02*
X134941D01*
X87836Y226700D02*
Y230637D01*
X85867Y228668D02*
X89804D01*
X74508Y231201D02*
Y233366D01*
X73425Y232283D02*
X75590D01*
X69685Y234449D02*
X79331D01*
X69685Y230118D02*
X79331D01*
X69685D02*
Y234449D01*
X79331Y230118D02*
Y234449D01*
X74508Y223721D02*
Y225886D01*
X73425Y224803D02*
X75590D01*
X69685Y226969D02*
X79331D01*
X69685Y222638D02*
X79331D01*
X69685D02*
Y226969D01*
X79331Y222638D02*
Y226969D01*
X101083Y231201D02*
Y233366D01*
X100000Y232283D02*
X102165D01*
X96260Y234449D02*
X105905D01*
X96260Y230118D02*
X105905D01*
X96260D02*
Y234449D01*
X105905Y230118D02*
Y234449D01*
X101181Y224114D02*
Y226279D01*
X100098Y225197D02*
X102264D01*
X96358Y223031D02*
X106004D01*
X96358Y227362D02*
X106004D01*
Y223031D02*
Y227362D01*
X96358Y223031D02*
Y227362D01*
X65745Y203150D02*
Y207087D01*
X63776Y205118D02*
X67713D01*
X77165Y198583D02*
Y200630D01*
X76142Y199606D02*
X78189D01*
X77165Y182441D02*
Y184488D01*
X76142Y183465D02*
X78189D01*
X70177Y182677D02*
X72342D01*
X71260Y181595D02*
Y183760D01*
X69095Y177854D02*
Y187500D01*
X73425Y177854D02*
Y187500D01*
X69095Y177854D02*
X73425D01*
X69095Y187500D02*
X73425D01*
X77165Y209370D02*
Y211417D01*
X76142Y210394D02*
X78189D01*
X378616Y95332D02*
X380663D01*
X379640Y94309D02*
Y96356D01*
X378740Y147835D02*
Y152165D01*
X388386Y147835D02*
Y152165D01*
X378740D02*
X388386D01*
X378740Y147835D02*
X388386D01*
X382480Y150000D02*
X384646D01*
X383563Y148917D02*
Y151083D01*
X378346Y142323D02*
Y146653D01*
X387992Y142323D02*
Y146653D01*
X378346D02*
X387992D01*
X378346Y142323D02*
X387992D01*
X382087Y144488D02*
X384252D01*
X383169Y143405D02*
Y145571D01*
X378642Y152953D02*
Y157283D01*
X388287Y152953D02*
Y157283D01*
X378642D02*
X388287D01*
X378642Y152953D02*
X388287D01*
X382382Y155118D02*
X384547D01*
X383465Y154035D02*
Y156201D01*
X378150Y137205D02*
Y141535D01*
X387795Y137205D02*
Y141535D01*
X378150D02*
X387795D01*
X378150Y137205D02*
X387795D01*
X381890Y139370D02*
X384055D01*
X382972Y138287D02*
Y140453D01*
X378248Y132087D02*
Y136417D01*
X387894Y132087D02*
Y136417D01*
X378248D02*
X387894D01*
X378248Y132087D02*
X387894D01*
X381988Y134252D02*
X384154D01*
X383071Y133169D02*
Y135335D01*
X378346Y126969D02*
Y131299D01*
X387992Y126969D02*
Y131299D01*
X378346D02*
X387992D01*
X378346Y126969D02*
X387992D01*
X382087Y129134D02*
X384252D01*
X383169Y128051D02*
Y130217D01*
X377756Y178150D02*
Y182480D01*
X387402Y178150D02*
Y182480D01*
X377756D02*
X387402D01*
X377756Y178150D02*
X387402D01*
X381496Y180315D02*
X383661D01*
X382579Y179232D02*
Y181398D01*
X377756Y182874D02*
Y187205D01*
X387402Y182874D02*
Y187205D01*
X377756D02*
X387402D01*
X377756Y182874D02*
X387402D01*
X381496Y185039D02*
X383661D01*
X382579Y183957D02*
Y186122D01*
X377756Y187992D02*
Y192323D01*
X387402Y187992D02*
Y192323D01*
X377756D02*
X387402D01*
X377756Y187992D02*
X387402D01*
X381496Y190157D02*
X383661D01*
X382579Y189075D02*
Y191240D01*
X377756Y193110D02*
Y197441D01*
X387402Y193110D02*
Y197441D01*
X377756D02*
X387402D01*
X377756Y193110D02*
X387402D01*
X381496Y195276D02*
X383661D01*
X382579Y194193D02*
Y196358D01*
X216339Y52953D02*
Y57284D01*
X225984Y52953D02*
Y57284D01*
X216339D02*
X225984D01*
X216339Y52953D02*
X225984D01*
X220079Y55118D02*
X222244D01*
X221161Y54035D02*
Y56201D01*
X241634Y58071D02*
Y62402D01*
X251279Y58071D02*
Y62402D01*
X241634D02*
X251279D01*
X241634Y58071D02*
X251279D01*
X245374Y60236D02*
X247539D01*
X246457Y59153D02*
Y61319D01*
X216339Y63189D02*
Y67520D01*
X225984Y63189D02*
Y67520D01*
X216339D02*
X225984D01*
X216339Y63189D02*
X225984D01*
X220079Y65354D02*
X222244D01*
X221161Y64272D02*
Y66437D01*
X251279Y52953D02*
Y57284D01*
X241634Y52953D02*
Y57284D01*
Y52953D02*
X251279D01*
X241634Y57284D02*
X251279D01*
X245374Y55118D02*
X247539D01*
X246457Y54035D02*
Y56201D01*
X216339Y58071D02*
Y62402D01*
X225984Y58071D02*
Y62402D01*
X216339D02*
X225984D01*
X216339Y58071D02*
X225984D01*
X220079Y60236D02*
X222244D01*
X221161Y59153D02*
Y61319D01*
X38976Y240158D02*
Y244094D01*
X37008Y242126D02*
X40945D01*
X199497Y57339D02*
Y61079D01*
X197627Y59209D02*
X201368D01*
X207470Y57263D02*
Y61003D01*
X205600Y59133D02*
X209340D01*
X206398Y86910D02*
X208563D01*
X207480Y85827D02*
Y87992D01*
X205315Y82087D02*
Y91732D01*
X209646Y82087D02*
Y91732D01*
X205315Y82087D02*
X209646D01*
X205315Y91732D02*
X209646D01*
X198294Y74026D02*
X200460D01*
X199377Y72944D02*
Y75109D01*
X197212Y69204D02*
Y78849D01*
X201542Y69204D02*
Y78849D01*
X197212Y69204D02*
X201542D01*
X197212Y78849D02*
X201542D01*
X205610Y75000D02*
X209350D01*
X207480Y73130D02*
Y76870D01*
X134826Y128795D02*
Y132732D01*
X132857Y130764D02*
X136794D01*
X99409Y137205D02*
Y141535D01*
X109055Y137205D02*
Y141535D01*
X99409D02*
X109055D01*
X99409Y137205D02*
X109055D01*
X103150Y139370D02*
X105315D01*
X104232Y138287D02*
Y140453D01*
X176575Y250000D02*
X180905D01*
X176575Y240354D02*
X180905D01*
Y250000D01*
X176575Y240354D02*
Y250000D01*
X178740Y244094D02*
Y246260D01*
X177657Y245177D02*
X179823D01*
X166831Y232480D02*
Y236811D01*
X176476Y232480D02*
Y236811D01*
X166831D02*
X176476D01*
X166831Y232480D02*
X176476D01*
X170571Y234646D02*
X172736D01*
X171653Y233563D02*
Y235728D01*
X62795Y60925D02*
X67126D01*
X62795Y70571D02*
X67126D01*
X62795Y60925D02*
Y70571D01*
X67126Y60925D02*
Y70571D01*
X64961Y64665D02*
Y66831D01*
X63878Y65748D02*
X66043D01*
X85860Y60925D02*
X90191D01*
X85860Y70571D02*
X90191D01*
X85860Y60925D02*
Y70571D01*
X90191Y60925D02*
Y70571D01*
X88026Y64665D02*
Y66831D01*
X86943Y65748D02*
X89109D01*
X86904Y55118D02*
X88951D01*
X87927Y54094D02*
Y56142D01*
X121161Y147441D02*
Y151772D01*
X130807Y147441D02*
Y151772D01*
X121161D02*
X130807D01*
X121161Y147441D02*
X130807D01*
X124902Y149606D02*
X127067D01*
X125984Y148524D02*
Y150689D01*
X172539Y143110D02*
Y147441D01*
X162894Y143110D02*
Y147441D01*
Y143110D02*
X172539D01*
X162894Y147441D02*
X172539D01*
X166634Y145276D02*
X168799D01*
X167717Y144193D02*
Y146358D01*
X172539Y130512D02*
Y134843D01*
X162894Y130512D02*
Y134843D01*
Y130512D02*
X172539D01*
X162894Y134843D02*
X172539D01*
X166634Y132677D02*
X168799D01*
X167717Y131595D02*
Y133760D01*
X172539Y136811D02*
Y141142D01*
X162894Y136811D02*
Y141142D01*
Y136811D02*
X172539D01*
X162894Y141142D02*
X172539D01*
X166634Y138976D02*
X168799D01*
X167717Y137894D02*
Y140059D01*
X172539Y124213D02*
Y128543D01*
X162894Y124213D02*
Y128543D01*
Y124213D02*
X172539D01*
X162894Y128543D02*
X172539D01*
X166634Y126378D02*
X168799D01*
X167717Y125295D02*
Y127461D01*
X172539Y111614D02*
Y115945D01*
X162894Y111614D02*
Y115945D01*
Y111614D02*
X172539D01*
X162894Y115945D02*
X172539D01*
X166634Y113779D02*
X168799D01*
X167717Y112697D02*
Y114862D01*
X172539Y117913D02*
Y122244D01*
X162894Y117913D02*
Y122244D01*
Y117913D02*
X172539D01*
X162894Y122244D02*
X172539D01*
X166634Y120079D02*
X168799D01*
X167717Y118996D02*
Y121161D01*
X130905Y152953D02*
Y157283D01*
X121260Y152953D02*
Y157283D01*
Y152953D02*
X130905D01*
X121260Y157283D02*
X130905D01*
X125000Y155118D02*
X127165D01*
X126083Y154035D02*
Y156201D01*
X144685Y104232D02*
X149016D01*
X144685Y113878D02*
X149016D01*
X144685Y104232D02*
Y113878D01*
X149016Y104232D02*
Y113878D01*
X146850Y107972D02*
Y110138D01*
X145768Y109055D02*
X147933D01*
X121063Y104232D02*
X125394D01*
X121063Y113878D02*
X125394D01*
X121063Y104232D02*
Y113878D01*
X125394Y104232D02*
Y113878D01*
X123228Y107972D02*
Y110138D01*
X122146Y109055D02*
X124311D01*
X39961Y60925D02*
X44291D01*
X39961Y70571D02*
X44291D01*
X39961Y60925D02*
Y70571D01*
X44291Y60925D02*
Y70571D01*
X42126Y64665D02*
Y66831D01*
X41043Y65748D02*
X43209D01*
X41004Y55354D02*
X43051D01*
X42028Y54331D02*
Y56378D01*
X64961Y54094D02*
Y56142D01*
X63937Y55118D02*
X65984D01*
X194172Y246135D02*
X196219D01*
X195195Y245111D02*
Y247159D01*
X186986Y255858D02*
Y259795D01*
X185018Y257826D02*
X188955D01*
X6299Y205512D02*
Y209449D01*
X4331Y207480D02*
X8268D01*
X43799Y208268D02*
X47539D01*
X45669Y206398D02*
Y210138D01*
X16634Y218504D02*
X20374D01*
X18504Y216634D02*
Y220374D01*
X37655Y217589D02*
Y221919D01*
X28009Y217589D02*
Y221919D01*
Y217589D02*
X37655D01*
X28009Y221919D02*
X37655D01*
X31749Y219754D02*
X33915D01*
X32832Y218671D02*
Y220837D01*
X59055Y229528D02*
Y233465D01*
X57087Y231496D02*
X61024D01*
X18504Y209154D02*
Y212894D01*
X16634Y211024D02*
X20374D01*
X18504Y201673D02*
Y205413D01*
X16634Y203543D02*
X20374D01*
X32832Y213226D02*
Y215391D01*
X31749Y214308D02*
X33915D01*
X28009Y212143D02*
X37655D01*
X28009Y216474D02*
X37655D01*
Y212143D02*
Y216474D01*
X28009Y212143D02*
Y216474D01*
X48031Y231496D02*
X51968D01*
X50000Y229528D02*
Y233465D01*
X32874Y207628D02*
Y209675D01*
X31850Y208651D02*
X33897D01*
X19288Y231496D02*
X23225D01*
X21256Y229528D02*
Y233465D01*
X91102Y127559D02*
X93150D01*
X92126Y126535D02*
Y128583D01*
Y107638D02*
Y109685D01*
X91102Y108661D02*
X93150D01*
X96220D02*
X98268D01*
X97244Y107638D02*
Y109685D01*
X106733Y124309D02*
Y126356D01*
X105710Y125332D02*
X107757D01*
X111064Y125323D02*
X113111D01*
X112087Y124299D02*
Y126346D01*
X101460Y124316D02*
Y126363D01*
X100436Y125339D02*
X102483D01*
X115551Y104232D02*
X119882D01*
X115551Y113878D02*
X119882D01*
X115551Y104232D02*
Y113878D01*
X119882Y104232D02*
Y113878D01*
X117717Y107972D02*
Y110138D01*
X116634Y109055D02*
X118799D01*
X106892Y106691D02*
Y110628D01*
X104924Y108660D02*
X108861D01*
D12*
X139031Y224267D02*
Y227702D01*
Y224267D02*
X146009D01*
Y227702D01*
X139031D02*
X146009D01*
X83220Y217681D02*
Y220634D01*
Y217681D02*
X89519D01*
Y220634D01*
X83220D02*
X89519D01*
X180685Y204700D02*
X201205D01*
Y225221D01*
X180685D02*
X201205D01*
X180685Y204700D02*
Y225221D01*
X182459Y240426D02*
Y249481D01*
Y240426D02*
X192301D01*
Y249481D01*
X182459D02*
X192301D01*
X27898Y223222D02*
X41702D01*
X27898D02*
Y235427D01*
X41702D01*
Y223222D02*
Y235427D01*
X90408Y121599D02*
X93843D01*
X90408Y114621D02*
Y121599D01*
Y114621D02*
X93843D01*
Y121599D01*
X100724Y134914D02*
X107702D01*
Y131479D02*
Y134914D01*
X100724Y131479D02*
X107702D01*
X100724D02*
Y134914D01*
D168*
X280276Y207874D02*
Y211811D01*
X272795Y207874D02*
Y211811D01*
Y207874D02*
X280276D01*
X272795Y211811D02*
X280276D01*
X280354Y203150D02*
Y207087D01*
X272874Y203150D02*
Y207087D01*
Y203150D02*
X280354D01*
X272874Y207087D02*
X280354D01*
X235039Y151772D02*
Y159252D01*
X231102Y151772D02*
Y159252D01*
X235039D01*
X231102Y151772D02*
X235039D01*
X235827D02*
X239764D01*
X235827Y159252D02*
X239764D01*
X235827Y151772D02*
Y159252D01*
X239764Y151772D02*
Y159252D01*
X304621Y90508D02*
Y97988D01*
X300684Y90508D02*
Y97988D01*
X304621D01*
X300684Y90508D02*
X304621D01*
X276668D02*
Y97988D01*
X272731Y90508D02*
Y97988D01*
X276668D01*
X272731Y90508D02*
X276668D01*
X253440D02*
Y97988D01*
X249503Y90508D02*
Y97988D01*
X253440D01*
X249503Y90508D02*
X253440D01*
X230605D02*
Y97988D01*
X226668Y90508D02*
Y97988D01*
X230605D01*
X226668Y90508D02*
X230605D01*
X199606Y146102D02*
X203543D01*
X199606Y153583D02*
X203543D01*
X199606Y146102D02*
Y153583D01*
X203543Y146102D02*
Y153583D01*
X204331Y146102D02*
X208268D01*
X204331Y153583D02*
X208268D01*
X204331Y146102D02*
Y153583D01*
X208268Y146102D02*
Y153583D01*
X194882Y146102D02*
X198819D01*
X194882Y153583D02*
X198819D01*
X194882Y146102D02*
Y153583D01*
X198819Y146102D02*
Y153583D01*
X198386Y154724D02*
Y158661D01*
X205866Y154724D02*
Y158661D01*
X198386D02*
X205866D01*
X198386Y154724D02*
X205866D01*
X208740Y159449D02*
X223701D01*
X208740Y140551D02*
X223701D01*
Y159449D01*
X208740Y140551D02*
Y159449D01*
X331693Y108465D02*
Y200197D01*
X239961Y108465D02*
Y200197D01*
X331693D01*
X239961Y108465D02*
X331693D01*
X376575Y48831D02*
Y59831D01*
X370669Y48831D02*
Y59831D01*
X376575D01*
X370669Y48831D02*
X376575D01*
X150956Y228729D02*
X165917D01*
X150956Y210618D02*
X165917D01*
Y228729D01*
X150956Y210618D02*
Y228729D01*
X141339Y214764D02*
Y222244D01*
X137402Y214764D02*
Y222244D01*
X141339D01*
X137402Y214764D02*
X141339D01*
X150731Y214743D02*
Y222223D01*
X146794Y214743D02*
Y222223D01*
X150731D01*
X146794Y214743D02*
X150731D01*
X142126Y214764D02*
X146063D01*
X142126Y222244D02*
X146063D01*
X142126Y214764D02*
Y222244D01*
X146063Y214764D02*
Y222244D01*
X359646Y192913D02*
Y196850D01*
X352165Y192913D02*
Y196850D01*
Y192913D02*
X359646D01*
X352165Y196850D02*
X359646D01*
X354331Y205315D02*
X358268D01*
X354331Y197835D02*
X358268D01*
Y205315D01*
X354331Y197835D02*
Y205315D01*
X359055D02*
X362992D01*
X359055Y197835D02*
X362992D01*
Y205315D01*
X359055Y197835D02*
Y205315D01*
X334055Y191732D02*
X349016D01*
X334055Y210630D02*
X349016D01*
X334055Y191732D02*
Y210630D01*
X349016Y191732D02*
Y210630D01*
X349606Y205315D02*
X353543D01*
X349606Y197835D02*
X353543D01*
Y205315D01*
X349606Y197835D02*
Y205315D01*
X405795Y232165D02*
X461614D01*
Y166850D02*
Y232165D01*
X405795Y166850D02*
X461614D01*
X405795D02*
Y232165D01*
Y145945D02*
X461614D01*
Y80630D02*
Y145945D01*
X405795Y80630D02*
X461614D01*
X405795D02*
Y145945D01*
X332480Y57480D02*
Y70866D01*
X339961Y57480D02*
Y70866D01*
X332480Y57480D02*
X339961D01*
X332480Y70866D02*
X339961D01*
X315453Y59449D02*
Y72835D01*
Y59449D02*
X331791D01*
Y72835D01*
X315453D02*
X331791D01*
X330276Y83858D02*
Y87795D01*
X322795Y83858D02*
Y87795D01*
Y83858D02*
X330276D01*
X322795Y87795D02*
X330276D01*
X305709Y57480D02*
Y70866D01*
X313189Y57480D02*
Y70866D01*
X305709Y57480D02*
X313189D01*
X305709Y70866D02*
X313189D01*
X258760Y50630D02*
Y73779D01*
Y50630D02*
X295571D01*
Y73779D01*
X258760D02*
X295571D01*
X286024Y74409D02*
Y78347D01*
X293504Y74409D02*
Y78347D01*
X286024D02*
X293504D01*
X286024Y74409D02*
X293504D01*
X326969Y48228D02*
Y58858D01*
X313583Y48228D02*
Y58858D01*
Y48228D02*
X326969D01*
X313583Y58858D02*
X326969D01*
X91929Y252965D02*
Y263965D01*
X86024Y252965D02*
Y263965D01*
X91929D01*
X86024Y252965D02*
X91929D01*
X91732Y239961D02*
Y250591D01*
X77362D02*
X91732D01*
X77362Y239961D02*
Y250591D01*
Y239961D02*
X91732D01*
X71457Y252768D02*
Y263768D01*
X65551Y252768D02*
Y263768D01*
X71457D01*
X65551Y252768D02*
X71457D01*
X114764Y239961D02*
X129134D01*
X114764D02*
Y250590D01*
X129134D01*
Y239961D02*
Y250590D01*
X116732Y253161D02*
Y264161D01*
X110827Y253161D02*
Y264161D01*
X116732D01*
X110827Y253161D02*
X116732D01*
X130118D02*
X136024D01*
X130118Y264161D02*
X136024D01*
X130118Y253161D02*
Y264161D01*
X136024Y253161D02*
Y264161D01*
X79962Y235755D02*
X95710D01*
X79962Y221582D02*
X95710D01*
X79962D02*
Y235755D01*
X95710Y221582D02*
Y235755D01*
X86753Y214319D02*
X123171D01*
Y177901D02*
Y214319D01*
X86753Y177901D02*
X123171D01*
X86753D02*
Y214319D01*
X58264Y214567D02*
X73225D01*
X58264Y195669D02*
X73225D01*
Y214567D01*
X58264Y195669D02*
Y214567D01*
X75197Y203346D02*
X79134D01*
X75197Y195866D02*
X79134D01*
Y203346D01*
X75197Y195866D02*
Y203346D01*
X75197Y179724D02*
X79134D01*
X75197Y187205D02*
X79134D01*
X75197Y179724D02*
Y187205D01*
X79134Y179724D02*
Y187205D01*
X75197Y206653D02*
X79134D01*
X75197Y214134D02*
X79134D01*
X75197Y206653D02*
Y214134D01*
X79134Y206653D02*
Y214134D01*
X383380Y93364D02*
Y97301D01*
X375900Y93364D02*
Y97301D01*
Y93364D02*
X383380D01*
X375900Y97301D02*
X383380D01*
X227067Y64370D02*
X240650D01*
Y53740D02*
Y64370D01*
X227067Y53740D02*
X240650D01*
X227067D02*
Y64370D01*
X32283Y236811D02*
X45669D01*
X32283Y247441D02*
X45669D01*
Y236811D02*
Y247441D01*
X32283Y236811D02*
Y247441D01*
X194761Y42844D02*
Y94025D01*
X140824D02*
X194761D01*
X140824Y42844D02*
Y94025D01*
Y42844D02*
X194761D01*
X196545Y53894D02*
X202450D01*
X196545Y64524D02*
X202450D01*
X196545Y53894D02*
Y64524D01*
X202450Y53894D02*
Y64524D01*
X204517Y53818D02*
X210423D01*
X204517Y64448D02*
X210423D01*
X204517Y53818D02*
Y64448D01*
X210423Y53818D02*
Y64448D01*
X204528Y69500D02*
Y80500D01*
X210433Y69500D02*
Y80500D01*
X204528Y69500D02*
X210433D01*
X204528Y80500D02*
X210433D01*
X122719Y118657D02*
X146932D01*
X122719Y142870D02*
X146932D01*
X122719Y118657D02*
Y142870D01*
X146932Y118657D02*
Y142870D01*
X154626Y231496D02*
Y245669D01*
X165453D01*
Y231496D02*
Y245669D01*
X154626Y231496D02*
X165453D01*
X89896Y51378D02*
Y58858D01*
X85959Y51378D02*
Y58858D01*
X89896D01*
X85959Y51378D02*
X89896D01*
X37441Y181693D02*
X47874D01*
X37441D02*
Y191535D01*
X47874D01*
Y181693D02*
Y191535D01*
X8579Y172762D02*
X12516D01*
X10547Y170793D02*
Y174730D01*
X27771Y152998D02*
Y192526D01*
X-5063Y152998D02*
X27771D01*
X-5063D02*
Y192526D01*
X27771D01*
X47638Y165256D02*
Y176083D01*
X33465D02*
X47638D01*
X33465Y165256D02*
Y176083D01*
Y165256D02*
X47638D01*
X76971Y58793D02*
Y61156D01*
Y63518D01*
Y61156D02*
X79333D01*
X74608D02*
X76971D01*
X80219Y72475D02*
X83959D01*
X69982D02*
X73723D01*
X80219D01*
X69982Y49837D02*
Y72475D01*
X83959Y49837D02*
Y72475D01*
X73895Y49837D02*
X80145D01*
X83959D01*
X69982D02*
X73895D01*
X43996Y51614D02*
Y59095D01*
X40059Y51614D02*
Y59095D01*
X43996D01*
X40059Y51614D02*
X43996D01*
X30985Y59237D02*
Y61599D01*
Y63961D01*
Y61599D02*
X33347D01*
X28623D02*
X30985D01*
X34233Y72918D02*
X37973D01*
X23997D02*
X27737D01*
X34233D01*
X23997Y50280D02*
Y72918D01*
X37973Y50280D02*
Y72918D01*
X27909Y50280D02*
X34159D01*
X37973D01*
X23997D02*
X27909D01*
X46993Y50002D02*
X50906D01*
X57156D02*
X60970D01*
X50906D02*
X57156D01*
X60970D02*
Y72640D01*
X46993Y50002D02*
Y72640D01*
X50733D02*
X57229D01*
X46993D02*
X50733D01*
X57229D02*
X60970D01*
X51619Y61321D02*
X53981D01*
X56344D01*
X53981D02*
Y63684D01*
Y58959D02*
Y61321D01*
X62992Y51378D02*
X66929D01*
X62992Y58858D02*
X66929D01*
X62992Y51378D02*
Y58858D01*
X66929Y51378D02*
Y58858D01*
X115253Y50162D02*
Y54099D01*
X113285Y52131D02*
X117221D01*
X100686Y63154D02*
X130292D01*
Y41776D02*
Y63154D01*
X100686Y41776D02*
X130292D01*
X100686D02*
Y63154D01*
X116890Y67716D02*
Y72441D01*
Y67716D02*
X126417D01*
Y72441D01*
X116890D02*
X126417D01*
X112244Y67716D02*
Y72441D01*
X102717D02*
X112244D01*
X102717Y67716D02*
Y72441D01*
Y67716D02*
X112244D01*
X200472Y243583D02*
X404016D01*
Y265630D01*
X200472D02*
X404016D01*
X200472Y243583D02*
Y265630D01*
X197164Y242395D02*
Y249875D01*
X193227Y242395D02*
Y249875D01*
X197164D01*
X193227Y242395D02*
X197164D01*
X177931Y264125D02*
X196042D01*
X177931Y251527D02*
X196042D01*
X177931D02*
Y264125D01*
X196042Y251527D02*
Y264125D01*
X159274Y259296D02*
Y263233D01*
X157305Y261264D02*
X161242D01*
X144234Y250241D02*
X173841D01*
X144234D02*
Y271619D01*
X173841D01*
Y250241D02*
Y271619D01*
X2559Y200787D02*
X10039D01*
X2559Y214173D02*
X10039D01*
X2559Y200787D02*
Y214173D01*
X10039Y200787D02*
Y214173D01*
X51169Y205315D02*
Y211221D01*
X40169Y205315D02*
Y211221D01*
Y205315D02*
X51169D01*
X40169Y211221D02*
X51169D01*
X23819Y215551D02*
Y221457D01*
X13189Y215551D02*
Y221457D01*
Y215551D02*
X23819D01*
X13189Y221457D02*
X23819D01*
X55315Y224803D02*
X62795D01*
X55315Y238189D02*
X62795D01*
X55315Y224803D02*
Y238189D01*
X62795Y224803D02*
Y238189D01*
X13189Y213976D02*
X23819D01*
X13189Y208071D02*
X23819D01*
X13189D02*
Y213976D01*
X23819Y208071D02*
Y213976D01*
X13189Y206496D02*
X23819D01*
X13189Y200591D02*
X23819D01*
X13189D02*
Y206496D01*
X23819Y200591D02*
Y206496D01*
X53740Y224803D02*
Y238189D01*
X46260Y224803D02*
Y238189D01*
X53740D01*
X46260Y224803D02*
X53740D01*
X29133Y206683D02*
X36614D01*
X29133Y210620D02*
X36614D01*
Y206683D02*
Y210620D01*
X29133Y206683D02*
Y210620D01*
X24996Y224803D02*
Y238189D01*
X17516Y224803D02*
Y238189D01*
X24996D01*
X17516Y224803D02*
X24996D01*
X-12480Y78878D02*
Y151713D01*
X73740D01*
Y78878D02*
Y151713D01*
X-12480Y78878D02*
X73740D01*
X90158Y123819D02*
Y131299D01*
X94095Y123819D02*
Y131299D01*
X90158Y123819D02*
X94095D01*
X90158Y131299D02*
X94095D01*
X90158Y104921D02*
X94095D01*
X90158Y112402D02*
X94095D01*
X90158Y104921D02*
Y112402D01*
X94095Y104921D02*
Y112402D01*
X99213Y104921D02*
Y112402D01*
X95276Y104921D02*
Y112402D01*
X99213D01*
X95276Y104921D02*
X99213D01*
X104765Y121592D02*
X108702D01*
X104765Y129073D02*
X108702D01*
X104765Y121592D02*
Y129073D01*
X108702Y121592D02*
Y129073D01*
X114056Y121582D02*
Y129063D01*
X110119Y121582D02*
Y129063D01*
X114056D01*
X110119Y121582D02*
X114056D01*
X99491Y121599D02*
X103428D01*
X99491Y129079D02*
X103428D01*
X99491Y121599D02*
Y129079D01*
X103428Y121599D02*
Y129079D01*
X99412Y118109D02*
X114372D01*
X99412Y99211D02*
X114372D01*
Y118109D01*
X99412Y99211D02*
Y118109D01*
M02*
